<svg width="36" height="43" viewBox="0 0 36 43" fill="none" xmlns="http://www.w3.org/2000/svg">
<path d="M35.0068 29.7921H34.7714C34.7714 29.6802 34.7714 29.5683 34.7714 29.4564C34.7714 20.1062 27.3615 12.5074 18.1593 12.3566C17.8326 12.3517 17.5106 12.3566 17.1887 12.3712C17.0109 11.5199 16.8138 10.6442 16.5928 9.73934C18.5534 9.35502 20.2689 7.95882 20.9849 5.9156C21.7249 3.80914 21.2155 1.5616 19.846 0C17.8085 0.330807 16.0114 1.74646 15.2665 3.85292C15.1368 4.22265 15.0455 4.59724 14.9926 4.97183C14.762 4.71886 14.5073 4.48048 14.2238 4.26643C12.465 2.91402 10.1921 2.72916 8.30841 3.5805C8.00568 5.64804 8.79375 7.81287 10.5525 9.16043C12.2776 10.4885 14.4977 10.6928 16.3621 9.89501C16.4582 10.6199 16.5544 11.4517 16.6409 12.4052C7.81346 13.062 0.816906 20.6608 0.985092 29.7921H0.836127C0.374816 29.7921 0 30.1715 0 30.6385V36.6903C0 37.1574 0.374816 37.5368 0.836127 37.5368H4.69481C5.15612 37.5368 5.53093 37.1574 5.53093 36.6903V30.6385C5.53093 30.1715 5.15612 29.7921 4.69481 29.7921H4.30557C4.13258 22.4413 9.76443 16.2825 16.8811 15.7571C17.0109 17.9706 17.0974 20.6365 17.1166 23.8278L7.2176 23.8424V29.8796C7.2176 33.2753 9.93742 36.0287 13.2915 36.0287H22.4457C25.7998 36.0287 28.5196 33.2753 28.5196 29.8796V23.8424L25.4538 23.8181L18.6158 23.8278C18.5534 21.9451 18.3564 19.1625 17.7989 15.723C17.8806 15.723 17.9623 15.723 18.044 15.723C25.4538 15.8203 31.4365 21.9305 31.4365 29.4564C31.4365 36.9822 31.4365 29.6802 31.4365 29.7921H31.1385C30.6772 29.7921 30.3024 30.1715 30.3024 30.6385V34.9731C29.721 36.3158 28.9329 37.5466 27.9814 38.6217C27.7171 38.9184 27.3471 39.0887 26.9531 39.0887H22.4601C22.3496 38.7774 22.0613 38.5536 21.7153 38.5536H15.6461C15.2089 38.5536 14.8533 38.9136 14.8533 39.3563V42.1973C14.8533 42.64 15.2089 43 15.6461 43H21.7153C22.0805 43 22.388 42.747 22.4793 42.4065H28.3899C28.7311 42.4065 29.0626 42.28 29.3173 42.0416C30.6964 40.7525 31.8689 39.2346 32.7627 37.5466H34.9972C35.4585 37.5466 35.8333 37.1671 35.8333 36.7001V30.6483C35.8333 30.1812 35.4585 29.8018 34.9972 29.8018L35.0068 29.7921ZM12.6236 33.0077C11.5376 33.0077 10.6582 31.7282 10.6582 30.1521C10.6582 28.5759 11.5376 27.2964 12.6236 27.2964C13.7096 27.2964 14.589 28.5759 14.589 30.1521C14.589 31.7282 13.7096 33.0077 12.6236 33.0077ZM23.1377 27.2964C24.2237 27.2964 25.103 28.5759 25.103 30.1521C25.103 31.7282 24.2237 33.0077 23.1377 33.0077C22.0516 33.0077 21.1723 31.7282 21.1723 30.1521C21.1723 28.5759 22.0516 27.2964 23.1377 27.2964Z" fill="url(#paint0_linear_2218_3274)"/>
<defs>
<linearGradient id="paint0_linear_2218_3274" x1="2.93182" y1="9.77273" x2="38.1136" y2="36.8106" gradientUnits="userSpaceOnUse">
<stop stop-color="#079C8F"/>
<stop offset="0.511337" stop-color="#4B4DCF"/>
<stop offset="0.88" stop-color="#81219D"/>
</linearGradient>
</defs>
</svg>
