<svg width="38" height="30" viewBox="0 0 38 30" fill="none" xmlns="http://www.w3.org/2000/svg">
<path d="M32.5 0H5C2.23858 0 0 2.23858 0 5V25C0 27.7614 2.23858 30 5 30H32.5C35.2614 30 37.5 27.7614 37.5 25V5C37.5 2.23858 35.2614 0 32.5 0Z" fill="#0A9FDC"/>
<path opacity="0.15" d="M32.5 0H5C2.23862 0 0 2.2385 0 5V25C0 27.7615 2.23862 30 5 30H32.5C35.2615 30 37.5 27.7615 37.5 25V5C37.5 2.2385 35.2615 0 32.5 0ZM36.25 25C36.25 27.0679 34.5679 28.75 32.5 28.75H5C2.93213 28.75 1.25 27.0679 1.25 25V5C1.25 2.93213 2.93213 1.25 5 1.25H32.5C34.5679 1.25 36.25 2.93213 36.25 5V25Z" fill="black"/>
<path opacity="0.2" d="M32.5 1.25H5C2.92887 1.25 1.25 2.92887 1.25 5V6.25C1.25 4.17887 2.92887 2.5 5 2.5H32.5C34.5711 2.5 36.25 4.17887 36.25 6.25V5C36.25 2.92887 34.5711 1.25 32.5 1.25Z" fill="white"/>
<path d="M29.0906 16.3271C27.9439 15.2181 29.9738 13.8492 27.1001 13.3082C27.7369 12.0329 27.2617 8.92673 25.9849 8.70698C25.4308 8.53335 24.5106 7.78448 23.9746 8.40798C23.8092 7.63935 23.5151 7.58723 22.9947 7.23973C22.2307 7.71498 21.4192 7.00898 20.9107 6.5426C20.2286 6.2866 18.6124 6.77435 18.2741 5.93848C17.9424 6.68435 17.7421 6.5956 17.1282 6.43523C17.0206 6.87485 16.4271 7.51848 15.7091 7.85948C15.7351 9.12535 14.9963 10.4854 14.6941 11.4375C12.2598 12.6545 10.1768 10.7366 8.38331 9.29373C8.24031 11.2857 9.99569 11.54 9.52706 12.8186C9.79969 13.4375 10.2893 12.718 10.5081 13.307C10.3823 14.0841 11.4434 13.5957 10.8903 14.3069C10.2379 14.8106 10.9014 16.2455 10.1074 16.0602C9.69881 16.6832 11.0812 17.5519 10.9333 16.8322C11.5398 18.3867 11.6346 17.5379 11.7934 18.4504C11.8868 18.5411 11.7719 18.8386 11.7956 19.3417C12.3727 19.1929 12.0972 19.6162 12.2518 19.8751C13.1411 19.5729 14.2056 20.9971 14.7739 20.592C16.5106 20.849 20.5974 19.8965 20.1146 22.1264C18.5476 23.8167 20.5876 23.8182 22.1406 23.89C22.6589 24.1426 22.9301 23.7727 23.4023 23.4645C23.6829 23.8987 24.0807 23.8539 24.5106 23.438C24.9196 23.5929 25.4787 22.5741 25.9804 22.9955C25.8902 22.7092 25.8147 22.4342 26.4008 22.2244C25.9914 21.6622 26.9271 21.2986 27.3086 20.946C26.9973 20.1084 27.4737 19.9869 28.1457 19.6684C27.7696 18.2712 29.1729 17.7095 29.0906 16.3271Z" fill="white"/>
</svg>
