<svg width="40" height="32" viewBox="0 0 40 32" fill="none" xmlns="http://www.w3.org/2000/svg">
<path d="M1 1H38.4997V31H1V1Z" fill="white"/>
<path d="M1 1V15.9998L38.4997 1H1ZM1 15.9998V30.9996H38.4997L1 15.9998Z" fill="#1E50A0"/>
<path d="M1 15.9998V1H38.4997L1 15.9998ZM1 15.9998V30.9996H38.4997L1 15.9998Z" stroke="#D22F27" stroke-width="1.16469" stroke-linecap="round" stroke-linejoin="round"/>
<path d="M25.8103 18.2758C25.8103 18.2758 24.5364 14.5527 29.1368 14.8835C29.1368 14.8835 30.1601 9.31223 36.5292 7.46411C36.5292 7.46411 37.1461 15.2105 31.1612 17.9639C31.207 19.4911 32.0565 20.7738 33.2079 21.0531C33.4802 21.1361 33.8902 20.9701 33.9822 21.0531C34.4824 21.6609 30.8099 22.5499 30.0362 22.2453V20.1012C30.0362 20.1012 28.6148 20.1429 27.8637 17.66C27.8408 17.66 27.3411 16.419 25.817 18.2679L25.8103 18.2758Z" fill="#A57939"/>
<path d="M29.4836 14.3892C29.4836 14.3892 28.7819 7.43559 30.5784 6.52612C30.5784 6.52612 32.3023 8.10519 32.3023 9.68388L29.4836 14.3892Z" fill="#6A462F"/>
<path d="M28.3877 18.6802C28.3877 18.6802 27.2952 16.421 26.1969 17.9652C26.1969 17.9652 24.6086 14.283 29.2778 14.4205L28.3877 18.6802Z" fill="white"/>
<path d="M30.9225 22.8804C30.4955 22.9354 30.0678 22.7804 29.7238 22.4454C29.5856 22.2654 29.5511 21.9899 29.6384 21.7618C29.7081 21.4348 29.7183 21.0911 29.6686 20.7576C29.088 20.6564 28.0829 20.1482 27.4985 17.9549C27.4663 17.9136 27.4242 17.8878 27.3795 17.8821C27.2935 17.8662 26.9658 17.8916 26.33 18.7215C26.2191 18.8644 26.0605 18.9239 25.9084 18.8803C25.7563 18.8367 25.6329 18.6908 25.5812 18.4991C25.3478 17.6066 25.3852 16.6313 25.6857 15.7737C25.9903 15.103 26.5085 14.6444 27.0987 14.5239C27.5737 14.3879 28.0585 14.3185 28.5448 14.317L28.7715 14.3068C28.8152 14.0652 28.8511 13.8213 28.8793 13.5758C28.943 12.9547 28.9775 12.329 28.9826 11.7023C29.0395 9.65221 29.1098 7.09963 30.3253 6.03403C30.4171 5.95342 30.5284 5.91945 30.638 5.93854C31.0316 5.98135 31.3997 6.20967 31.6737 6.58086C31.9478 6.95205 32.1089 7.44074 32.1271 7.95566C32.1271 8.28269 31.9238 8.54796 31.6736 8.54796C31.4233 8.54796 31.2201 8.2827 31.2201 7.95604C31.2004 7.56649 30.9826 7.24249 30.6891 7.1667C29.9923 8.01478 29.9354 10.0721 29.8896 11.7455C29.8841 12.4236 29.8455 13.1005 29.774 13.7721C29.7697 14.3178 29.617 14.8434 29.3429 15.2557C29.1104 15.4497 28.8345 15.5361 28.5596 15.5012C28.132 15.5016 27.7058 15.5626 27.2883 15.6827C26.9559 15.7369 26.6592 15.9817 26.4789 16.3508C26.3776 16.6056 26.3269 16.8895 26.3314 17.1766C26.6715 16.8277 27.1012 16.6623 27.5319 16.7146C27.6953 16.7478 27.8508 16.8292 27.9865 16.9526C28.1222 17.076 28.2346 17.2381 28.3152 17.4267C28.3253 17.4528 28.334 17.4797 28.3413 17.5074C28.9176 19.7401 29.9357 19.6018 29.9804 19.5916C30.0918 19.5734 30.2044 19.6085 30.2975 19.6904C30.3906 19.7722 30.4578 19.8953 30.4868 20.0368C30.5971 20.5765 30.6276 21.1386 30.5768 21.6932C31.2558 21.7202 31.9341 21.6123 32.5884 21.3734C31.3232 21.1032 30.4322 19.6052 30.5451 17.9386C30.5524 17.8441 30.5771 17.7533 30.617 17.6739C30.657 17.5945 30.711 17.5288 30.7745 17.4824C31.4808 16.9715 32.154 16.3861 32.7872 15.732C32.7467 15.1992 32.6416 14.6782 32.4757 14.1886C32.384 13.8843 32.4987 13.5406 32.7318 13.4208C32.9649 13.3011 33.2282 13.4508 33.32 13.7551C33.8039 15.383 33.6829 16.0723 33.6405 16.2443C33.6127 16.3428 33.5653 16.4297 33.5032 16.4963C32.8592 17.1836 32.173 17.8004 31.4515 18.3407C31.4744 18.7753 31.6004 19.1903 31.8121 19.5272C32.0047 19.7794 32.2344 19.9782 32.4874 20.1115C32.7404 20.2449 33.0115 20.3101 33.2843 20.3032C33.6292 20.3301 34.2725 20.3805 34.3825 21.016C34.4273 21.2749 34.3855 21.653 33.9314 21.9793C32.9839 22.5349 31.9617 22.8405 30.9234 22.8786L30.9225 22.8804Z" fill="black"/>
<path d="M29.2783 15.8028C29.2571 15.8028 29.2359 15.8009 29.2147 15.7971C28.9668 15.752 28.7935 15.453 28.8277 15.1294C29.0789 12.7822 31.9124 9.81242 32.2346 9.4816C32.358 9.36337 34.9866 6.87256 36.7831 6.87256C36.888 6.87251 36.9897 6.92002 37.0707 7.00697C37.1518 7.09392 37.2072 7.21491 37.2275 7.34927C37.506 9.93823 36.8792 12.5533 35.5208 14.4742C35.4212 14.6182 35.274 14.6895 35.1265 14.6648C34.979 14.6402 34.8504 14.5231 34.7816 14.3511C34.534 13.7273 34.2358 13.1399 33.8921 12.5992C33.7187 12.3627 33.7251 11.9879 33.9063 11.7621C34.0874 11.5362 34.3746 11.5442 34.5476 11.7807C34.813 12.1674 35.0482 12.5875 35.2499 13.035C36.0549 11.6136 36.4554 9.87066 36.3827 8.10565C35.0835 8.58274 33.8627 9.36867 32.7822 10.4244C31.9983 11.2297 29.8952 13.7008 29.7254 15.2924C29.694 15.5845 29.5027 15.8024 29.2766 15.8032L29.2783 15.8028ZM28.6294 22.2828C28.5879 22.2828 28.5467 22.2752 28.5066 22.2608C28.2372 22.1517 27.9562 22.0997 27.6743 22.1069C27.4833 22.2922 27.2147 22.2532 27.0597 22.0175C26.9047 21.7818 26.9154 21.4294 27.0847 21.2107C27.2545 21.0587 27.4484 20.9585 27.6519 20.9175C27.8554 20.8765 28.0634 20.8958 28.2604 20.9739L28.3716 20.1038C28.4129 19.781 28.6469 19.5635 28.8939 19.6173C29.141 19.6711 29.3082 19.9761 29.2667 20.299L29.0768 21.7879C29.0402 22.0732 28.8512 22.2828 28.6294 22.2828Z" fill="black"/>
<path d="M23.835 20.7368L31.0929 24.6843Z" fill="white"/>
<path d="M31.0933 25.2762C31.0335 25.2761 30.9743 25.2605 30.9191 25.2304L23.6611 21.2829C23.5116 21.2018 23.4065 21.0226 23.3856 20.8126C23.3647 20.6027 23.4312 20.3943 23.5598 20.2658C23.623 20.2026 23.6979 20.1622 23.7768 20.1488C23.8558 20.1353 23.936 20.1493 24.0095 20.1893L31.2675 24.1367C31.467 24.2455 31.5799 24.5225 31.5375 24.7991C31.4951 25.0758 31.3093 25.2747 31.0933 25.2751V25.2762Z" fill="black"/>
<path d="M1 1H38.4997V31H1V1Z" fill="white"/>
<path d="M1 1V15.9998L38.4997 1H1ZM1 15.9998V30.9996H38.4997L1 15.9998Z" fill="#1E50A0"/>
<path d="M1 15.9998V1H38.4997L1 15.9998ZM1 15.9998V30.9996H38.4997L1 15.9998Z" stroke="#D22F27" stroke-width="1.16469" stroke-linecap="round" stroke-linejoin="round"/>
<path d="M25.8103 18.2758C25.8103 18.2758 24.5364 14.5527 29.1368 14.8835C29.1368 14.8835 30.1601 9.31223 36.5292 7.46411C36.5292 7.46411 37.1461 15.2105 31.1612 17.9639C31.207 19.4911 32.0565 20.7738 33.2079 21.0531C33.4802 21.1361 33.8902 20.9701 33.9822 21.0531C34.4824 21.6609 30.8099 22.5499 30.0362 22.2453V20.1012C30.0362 20.1012 28.6148 20.1429 27.8637 17.66C27.8408 17.66 27.3411 16.419 25.817 18.2679L25.8103 18.2758Z" fill="#A57939"/>
<path d="M29.4836 14.3892C29.4836 14.3892 28.7819 7.43559 30.5784 6.52612C30.5784 6.52612 32.3023 8.10519 32.3023 9.68388L29.4836 14.3892Z" fill="#6A462F"/>
<path d="M28.3877 18.6802C28.3877 18.6802 27.2952 16.421 26.1969 17.9652C26.1969 17.9652 24.6086 14.283 29.2778 14.4205L28.3877 18.6802Z" fill="white"/>
<path d="M30.9225 22.8804C30.4955 22.9354 30.0678 22.7804 29.7238 22.4454C29.5856 22.2654 29.5511 21.9899 29.6384 21.7618C29.7081 21.4348 29.7183 21.0911 29.6686 20.7576C29.088 20.6564 28.0829 20.1482 27.4985 17.9549C27.4663 17.9136 27.4242 17.8878 27.3795 17.8821C27.2935 17.8662 26.9658 17.8916 26.33 18.7215C26.2191 18.8644 26.0605 18.9239 25.9084 18.8803C25.7563 18.8367 25.6329 18.6908 25.5812 18.4991C25.3478 17.6066 25.3852 16.6313 25.6857 15.7737C25.9903 15.103 26.5085 14.6444 27.0987 14.5239C27.5737 14.3879 28.0585 14.3185 28.5448 14.317L28.7715 14.3068C28.8152 14.0652 28.8511 13.8213 28.8793 13.5758C28.943 12.9547 28.9775 12.329 28.9826 11.7023C29.0395 9.65221 29.1098 7.09963 30.3253 6.03403C30.4171 5.95342 30.5284 5.91945 30.638 5.93854C31.0316 5.98135 31.3997 6.20967 31.6737 6.58086C31.9478 6.95205 32.1089 7.44074 32.1271 7.95566C32.1271 8.28269 31.9238 8.54796 31.6736 8.54796C31.4233 8.54796 31.2201 8.2827 31.2201 7.95604C31.2004 7.56649 30.9826 7.24249 30.6891 7.1667C29.9923 8.01478 29.9354 10.0721 29.8896 11.7455C29.8841 12.4236 29.8455 13.1005 29.774 13.7721C29.7697 14.3178 29.617 14.8434 29.3429 15.2557C29.1104 15.4497 28.8345 15.5361 28.5596 15.5012C28.132 15.5016 27.7058 15.5626 27.2883 15.6827C26.9559 15.7369 26.6592 15.9817 26.4789 16.3508C26.3776 16.6056 26.3269 16.8895 26.3314 17.1766C26.6715 16.8277 27.1012 16.6623 27.5319 16.7146C27.6953 16.7478 27.8508 16.8292 27.9865 16.9526C28.1222 17.076 28.2346 17.2381 28.3152 17.4267C28.3253 17.4528 28.334 17.4797 28.3413 17.5074C28.9176 19.7401 29.9357 19.6018 29.9804 19.5916C30.0918 19.5734 30.2044 19.6085 30.2975 19.6904C30.3906 19.7722 30.4578 19.8953 30.4868 20.0368C30.5971 20.5765 30.6276 21.1386 30.5768 21.6932C31.2558 21.7202 31.9341 21.6123 32.5884 21.3734C31.3232 21.1032 30.4322 19.6052 30.5451 17.9386C30.5524 17.8441 30.5771 17.7533 30.617 17.6739C30.657 17.5945 30.711 17.5288 30.7745 17.4824C31.4808 16.9715 32.154 16.3861 32.7872 15.732C32.7467 15.1992 32.6416 14.6782 32.4757 14.1886C32.384 13.8843 32.4987 13.5406 32.7318 13.4208C32.9649 13.3011 33.2282 13.4508 33.32 13.7551C33.8039 15.383 33.6829 16.0723 33.6405 16.2443C33.6127 16.3428 33.5653 16.4297 33.5032 16.4963C32.8592 17.1836 32.173 17.8004 31.4515 18.3407C31.4744 18.7753 31.6004 19.1903 31.8121 19.5272C32.0047 19.7794 32.2344 19.9782 32.4874 20.1115C32.7404 20.2449 33.0115 20.3101 33.2843 20.3032C33.6292 20.3301 34.2725 20.3805 34.3825 21.016C34.4273 21.2749 34.3855 21.653 33.9314 21.9793C32.9839 22.5349 31.9617 22.8405 30.9234 22.8786L30.9225 22.8804Z" fill="black"/>
<path d="M29.2783 15.8028C29.2571 15.8028 29.2359 15.8009 29.2147 15.7971C28.9668 15.752 28.7935 15.453 28.8277 15.1294C29.0789 12.7822 31.9124 9.81242 32.2346 9.4816C32.358 9.36337 34.9866 6.87256 36.7831 6.87256C36.888 6.87251 36.9897 6.92002 37.0707 7.00697C37.1518 7.09392 37.2072 7.21491 37.2275 7.34927C37.506 9.93823 36.8792 12.5533 35.5208 14.4742C35.4212 14.6182 35.274 14.6895 35.1265 14.6648C34.979 14.6402 34.8504 14.5231 34.7816 14.3511C34.534 13.7273 34.2358 13.1399 33.8921 12.5992C33.7187 12.3627 33.7251 11.9879 33.9063 11.7621C34.0874 11.5362 34.3746 11.5442 34.5476 11.7807C34.813 12.1674 35.0482 12.5875 35.2499 13.035C36.0549 11.6136 36.4554 9.87066 36.3827 8.10565C35.0835 8.58274 33.8627 9.36867 32.7822 10.4244C31.9983 11.2297 29.8952 13.7008 29.7254 15.2924C29.694 15.5845 29.5027 15.8024 29.2766 15.8032L29.2783 15.8028ZM28.6294 22.2828C28.5879 22.2828 28.5467 22.2752 28.5066 22.2608C28.2372 22.1517 27.9562 22.0997 27.6743 22.1069C27.4833 22.2922 27.2147 22.2532 27.0597 22.0175C26.9047 21.7818 26.9154 21.4294 27.0847 21.2107C27.2545 21.0587 27.4484 20.9585 27.6519 20.9175C27.8554 20.8765 28.0634 20.8958 28.2604 20.9739L28.3716 20.1038C28.4129 19.781 28.6469 19.5635 28.8939 19.6173C29.141 19.6711 29.3082 19.9761 29.2667 20.299L29.0768 21.7879C29.0402 22.0732 28.8512 22.2828 28.6294 22.2828Z" fill="black"/>
<path d="M23.835 20.7368L31.0929 24.6843Z" fill="white"/>
<path d="M31.0933 25.2762C31.0335 25.2761 30.9743 25.2605 30.9191 25.2304L23.6611 21.2829C23.5116 21.2018 23.4065 21.0226 23.3856 20.8126C23.3647 20.6027 23.4312 20.3943 23.5598 20.2658C23.623 20.2026 23.6979 20.1622 23.7768 20.1488C23.8558 20.1353 23.936 20.1493 24.0095 20.1893L31.2675 24.1367C31.467 24.2455 31.5799 24.5225 31.5375 24.7991C31.4951 25.0758 31.3093 25.2747 31.0933 25.2751V25.2762Z" fill="black"/>
<path d="M1 1H38.4997V31H1V1Z" fill="white"/>
<path d="M1 1V15.9998L38.4997 1H1ZM1 15.9998V30.9996H38.4997L1 15.9998Z" fill="#1E50A0"/>
<path d="M1 15.9998V1H38.4997L1 15.9998ZM1 15.9998V30.9996H38.4997L1 15.9998Z" stroke="#D22F27" stroke-width="1.16469" stroke-linecap="round" stroke-linejoin="round"/>
<path d="M25.8103 18.2758C25.8103 18.2758 24.5364 14.5527 29.1368 14.8835C29.1368 14.8835 30.1601 9.31223 36.5292 7.46411C36.5292 7.46411 37.1461 15.2105 31.1612 17.9639C31.207 19.4911 32.0565 20.7738 33.2079 21.0531C33.4802 21.1361 33.8902 20.9701 33.9822 21.0531C34.4824 21.6609 30.8099 22.5499 30.0362 22.2453V20.1012C30.0362 20.1012 28.6148 20.1429 27.8637 17.66C27.8408 17.66 27.3411 16.419 25.817 18.2679L25.8103 18.2758Z" fill="#A57939"/>
<path d="M29.4836 14.3892C29.4836 14.3892 28.7819 7.43559 30.5784 6.52612C30.5784 6.52612 32.3023 8.10519 32.3023 9.68388L29.4836 14.3892Z" fill="#6A462F"/>
<path d="M28.3877 18.6802C28.3877 18.6802 27.2952 16.421 26.1969 17.9652C26.1969 17.9652 24.6086 14.283 29.2778 14.4205L28.3877 18.6802Z" fill="white"/>
<path d="M30.9225 22.8804C30.4955 22.9354 30.0678 22.7804 29.7238 22.4454C29.5856 22.2654 29.5511 21.9899 29.6384 21.7618C29.7081 21.4348 29.7183 21.0911 29.6686 20.7576C29.088 20.6564 28.0829 20.1482 27.4985 17.9549C27.4663 17.9136 27.4242 17.8878 27.3795 17.8821C27.2935 17.8662 26.9658 17.8916 26.33 18.7215C26.2191 18.8644 26.0605 18.9239 25.9084 18.8803C25.7563 18.8367 25.6329 18.6908 25.5812 18.4991C25.3478 17.6066 25.3852 16.6313 25.6857 15.7737C25.9903 15.103 26.5085 14.6444 27.0987 14.5239C27.5737 14.3879 28.0585 14.3185 28.5448 14.317L28.7715 14.3068C28.8152 14.0652 28.8511 13.8213 28.8793 13.5758C28.943 12.9547 28.9775 12.329 28.9826 11.7023C29.0395 9.65221 29.1098 7.09963 30.3253 6.03403C30.4171 5.95342 30.5284 5.91945 30.638 5.93854C31.0316 5.98135 31.3997 6.20967 31.6737 6.58086C31.9478 6.95205 32.1089 7.44074 32.1271 7.95566C32.1271 8.28269 31.9238 8.54796 31.6736 8.54796C31.4233 8.54796 31.2201 8.2827 31.2201 7.95604C31.2004 7.56649 30.9826 7.24249 30.6891 7.1667C29.9923 8.01478 29.9354 10.0721 29.8896 11.7455C29.8841 12.4236 29.8455 13.1005 29.774 13.7721C29.7697 14.3178 29.617 14.8434 29.3429 15.2557C29.1104 15.4497 28.8345 15.5361 28.5596 15.5012C28.132 15.5016 27.7058 15.5626 27.2883 15.6827C26.9559 15.7369 26.6592 15.9817 26.4789 16.3508C26.3776 16.6056 26.3269 16.8895 26.3314 17.1766C26.6715 16.8277 27.1012 16.6623 27.5319 16.7146C27.6953 16.7478 27.8508 16.8292 27.9865 16.9526C28.1222 17.076 28.2346 17.2381 28.3152 17.4267C28.3253 17.4528 28.334 17.4797 28.3413 17.5074C28.9176 19.7401 29.9357 19.6018 29.9804 19.5916C30.0918 19.5734 30.2044 19.6085 30.2975 19.6904C30.3906 19.7722 30.4578 19.8953 30.4868 20.0368C30.5971 20.5765 30.6276 21.1386 30.5768 21.6932C31.2558 21.7202 31.9341 21.6123 32.5884 21.3734C31.3232 21.1032 30.4322 19.6052 30.5451 17.9386C30.5524 17.8441 30.5771 17.7533 30.617 17.6739C30.657 17.5945 30.711 17.5288 30.7745 17.4824C31.4808 16.9715 32.154 16.3861 32.7872 15.732C32.7467 15.1992 32.6416 14.6782 32.4757 14.1886C32.384 13.8843 32.4987 13.5406 32.7318 13.4208C32.9649 13.3011 33.2282 13.4508 33.32 13.7551C33.8039 15.383 33.6829 16.0723 33.6405 16.2443C33.6127 16.3428 33.5653 16.4297 33.5032 16.4963C32.8592 17.1836 32.173 17.8004 31.4515 18.3407C31.4744 18.7753 31.6004 19.1903 31.8121 19.5272C32.0047 19.7794 32.2344 19.9782 32.4874 20.1115C32.7404 20.2449 33.0115 20.3101 33.2843 20.3032C33.6292 20.3301 34.2725 20.3805 34.3825 21.016C34.4273 21.2749 34.3855 21.653 33.9314 21.9793C32.9839 22.5349 31.9617 22.8405 30.9234 22.8786L30.9225 22.8804Z" fill="black"/>
<path d="M29.2783 15.8028C29.2571 15.8028 29.2359 15.8009 29.2147 15.7971C28.9668 15.752 28.7935 15.453 28.8277 15.1294C29.0789 12.7822 31.9124 9.81242 32.2346 9.4816C32.358 9.36337 34.9866 6.87256 36.7831 6.87256C36.888 6.87251 36.9897 6.92002 37.0707 7.00697C37.1518 7.09392 37.2072 7.21491 37.2275 7.34927C37.506 9.93823 36.8792 12.5533 35.5208 14.4742C35.4212 14.6182 35.274 14.6895 35.1265 14.6648C34.979 14.6402 34.8504 14.5231 34.7816 14.3511C34.534 13.7273 34.2358 13.1399 33.8921 12.5992C33.7187 12.3627 33.7251 11.9879 33.9063 11.7621C34.0874 11.5362 34.3746 11.5442 34.5476 11.7807C34.813 12.1674 35.0482 12.5875 35.2499 13.035C36.0549 11.6136 36.4554 9.87066 36.3827 8.10565C35.0835 8.58274 33.8627 9.36867 32.7822 10.4244C31.9983 11.2297 29.8952 13.7008 29.7254 15.2924C29.694 15.5845 29.5027 15.8024 29.2766 15.8032L29.2783 15.8028ZM28.6294 22.2828C28.5879 22.2828 28.5467 22.2752 28.5066 22.2608C28.2372 22.1517 27.9562 22.0997 27.6743 22.1069C27.4833 22.2922 27.2147 22.2532 27.0597 22.0175C26.9047 21.7818 26.9154 21.4294 27.0847 21.2107C27.2545 21.0587 27.4484 20.9585 27.6519 20.9175C27.8554 20.8765 28.0634 20.8958 28.2604 20.9739L28.3716 20.1038C28.4129 19.781 28.6469 19.5635 28.8939 19.6173C29.141 19.6711 29.3082 19.9761 29.2667 20.299L29.0768 21.7879C29.0402 22.0732 28.8512 22.2828 28.6294 22.2828Z" fill="black"/>
<path d="M23.835 20.7368L31.0929 24.6843Z" fill="white"/>
<path d="M31.0933 25.2762C31.0335 25.2761 30.9743 25.2605 30.9191 25.2304L23.6611 21.2829C23.5116 21.2018 23.4065 21.0226 23.3856 20.8126C23.3647 20.6027 23.4312 20.3943 23.5598 20.2658C23.623 20.2026 23.6979 20.1622 23.7768 20.1488C23.8558 20.1353 23.936 20.1493 24.0095 20.1893L31.2675 24.1367C31.467 24.2455 31.5799 24.5225 31.5375 24.7991C31.4951 25.0758 31.3093 25.2747 31.0933 25.2751V25.2762Z" fill="black"/>
<path fill-rule="evenodd" clip-rule="evenodd" d="M1 1H38.4997V31H1V1Z" stroke="black" stroke-width="1.16469" stroke-linecap="round" stroke-linejoin="round"/>
</svg>
