<svg width="38" height="30" viewBox="0 0 38 30" fill="none" xmlns="http://www.w3.org/2000/svg">
<g clip-path="url(#clip0_3032_3616)">
<path d="M37.5 0H0V30H37.5V0Z" fill="#008000"/>
<path d="M18.4964 20.4688C20.7354 20.4688 22.5505 17.9504 22.5505 14.8438C22.5505 11.7371 20.7354 9.21875 18.4964 9.21875C16.2574 9.21875 14.4424 11.7371 14.4424 14.8438C14.4424 17.9504 16.2574 20.4688 18.4964 20.4688Z" fill="#FFE000"/>
<path d="M20.017 19.2188C21.9761 19.2188 23.5643 16.9802 23.5643 14.2188C23.5643 11.4573 21.9761 9.21875 20.017 9.21875C18.0579 9.21875 16.4697 11.4573 16.4697 14.2188C16.4697 16.9802 18.0579 19.2188 20.017 19.2188Z" fill="#008000"/>
<path d="M6.84108 12.9687C9.35995 12.9687 11.4019 10.4504 11.4019 7.34375C11.4019 4.23715 9.35995 1.71875 6.84108 1.71875C4.32222 1.71875 2.28027 4.23715 2.28027 7.34375C2.28027 10.4504 4.32222 12.9687 6.84108 12.9687Z" fill="#FFE000"/>
<path d="M6.84082 11.5625H7.87737C7.87737 11.5625 7.92416 11.4491 7.86693 11.3924C7.80971 11.3358 7.58681 11.3233 7.64703 11.1228C7.77084 10.7105 7.78811 10.8376 7.86585 9.85851C7.94359 8.87941 7.98102 7.34375 7.98102 7.34375H7.8313C7.8313 7.34375 7.86009 7.82127 7.77372 8.44311C7.68734 9.06494 7.66143 9.11988 7.56641 9.5974C7.47139 10.0749 7.457 10.1162 7.37062 10.3944C7.28424 10.6727 7.2756 10.6865 7.14028 10.9441C7.00495 11.2018 7.0539 11.1056 6.97904 11.2602C6.94161 11.3374 6.89554 11.3168 6.87035 11.3731C6.84515 11.4293 6.84083 11.5625 6.84083 11.5625L6.84082 11.5625Z" fill="#802000" stroke="#7B3100" stroke-width="0.0868043"/>
<path d="M7.41576 3.12506C7.42549 3.33629 7.40722 3.61592 7.33189 3.8435C7.25551 4.09708 7.17246 4.34987 7.17657 4.61249C7.05515 4.66049 6.93 4.3071 6.81312 4.515C6.90099 4.80226 7.10384 5.02969 7.24281 5.2885C7.26625 5.36873 7.46621 5.57824 7.35051 5.62696C7.05849 5.5108 6.9877 5.08078 6.80657 4.81965C6.5962 4.38018 6.20401 4.06957 5.76708 4.04813C5.60296 4.05313 5.06934 4.00086 5.20818 4.32748C5.41266 4.48905 5.66462 4.59441 5.86651 4.77576C6.01694 4.79212 6.28959 5.08397 6.2737 5.19425C6.00913 5.0697 5.8853 4.92044 5.60025 4.78944C5.21402 4.61607 4.67979 4.72034 4.46597 5.16584C4.4261 5.28186 4.36725 5.62003 4.49261 5.65225C4.6391 5.38644 4.84863 5.08928 5.15912 5.169C5.40299 5.19113 4.88699 5.69701 5.08438 5.59523C5.14692 5.56297 5.29135 5.45278 5.39155 5.44128C5.49174 5.42977 5.5477 5.51694 5.62372 5.529C5.77576 5.55313 5.81762 5.6272 5.80353 5.6703C5.7869 5.72114 5.7386 5.67773 5.58404 5.73469C5.50676 5.76316 5.4664 5.84209 5.37626 5.87822C5.28612 5.91435 5.09861 5.91691 5.02853 5.88487C4.78337 5.76111 4.38145 5.78265 4.30502 6.13971C4.30495 6.29672 4.18473 6.12236 4.12917 6.19019C4.08751 6.36152 4.07673 6.53744 3.85808 6.52188C3.72535 6.68371 3.58943 6.85128 3.4209 6.96641C3.5198 7.23024 3.91167 6.70144 3.89335 6.92441C3.72205 7.1959 3.98149 7.25303 4.09507 7.04406C4.28715 6.80818 4.52505 6.52105 4.81168 6.75878C4.94819 6.90815 5.02752 6.6798 5.12632 6.69203C5.18857 6.87758 5.2669 6.70116 5.33756 6.6487C5.45322 6.63196 5.42068 6.8166 5.55811 6.70286C5.83201 6.49218 6.16898 6.66921 6.43656 6.46422C6.72137 6.31342 6.47655 6.58569 6.39794 6.69212C6.27281 6.9742 6.38133 7.34451 6.1099 7.51969C6.00087 7.85586 6.23871 8.29902 5.99612 8.54773C5.96083 8.70368 6.30811 8.68582 6.40558 8.7499C6.57637 8.75776 6.39824 8.29558 6.5677 8.23363C6.79495 8.39711 6.78431 7.94126 6.73739 7.80065C6.75942 7.48103 6.77494 7.13158 6.91159 6.84207C7.05688 6.48725 7.19135 6.98658 7.02871 7.12706C6.93633 7.45333 6.80186 7.86164 7.01192 8.16506C7.07246 8.1808 7.12217 8.35135 7.20055 8.40377C7.27894 8.45619 7.38601 8.39048 7.40555 8.23532C7.50609 7.76806 7.45544 7.2656 7.59902 6.81117C7.70037 6.6704 7.84016 6.78847 7.90301 6.91791C8.10422 7.18941 8.24566 7.52881 8.48926 7.75251C8.71106 7.87313 8.90721 8.05558 9.00943 8.32097C9.00806 8.52572 9.50979 8.55711 9.35986 8.32952C9.21601 8.10796 9.31092 7.88636 9.45663 7.73903C9.53467 7.7614 9.51161 7.59896 9.45042 7.66321C9.35246 7.63635 9.34619 7.42796 9.48236 7.52702C9.71171 7.61306 9.46448 7.3341 9.38159 7.32555C9.18766 7.18584 8.96486 7.02512 8.86951 6.78229C9.12195 6.78528 9.38401 6.94352 9.64197 6.84537C9.84875 6.7219 10.0585 6.85567 10.1307 7.0675C10.2905 7.03786 10.2224 6.85156 10.1307 6.78951C10.2476 6.73343 10.3285 6.61718 10.1867 6.51463C10.1118 6.40108 10.2871 6.20739 10.0717 6.21547C10.0787 6.02421 10.0139 5.8492 9.83456 5.78313C9.65487 5.60628 9.12757 6.04366 9.14287 5.64503C9.08974 5.42808 9.35706 5.61605 9.43176 5.50784C9.50895 5.27912 9.06395 5.30144 9.21078 5.12412C9.30669 5.05235 9.75673 4.94926 9.4038 4.87249C9.22765 4.92876 9.07648 4.88709 8.93786 4.78578C8.81151 5.03138 8.45075 4.6524 8.51503 5.08905C8.46567 5.25358 8.1432 5.68108 8.05595 5.35356C8.13017 5.09686 8.51221 5.01293 8.39374 4.66682C8.37556 4.45076 8.22143 4.70439 8.14882 4.68828C8.11205 4.55379 8.26003 4.39527 8.36316 4.36335C8.56781 4.54629 8.57401 4.13255 8.76864 4.16621C8.91074 4.12951 8.72275 4.05867 8.68312 4.02759C8.72206 3.9067 8.94021 3.84493 8.7263 3.73995C8.53757 3.57719 8.39768 3.90196 8.242 3.91928C8.09259 3.72323 8.37765 3.62899 8.45634 3.52575C8.46057 3.44879 8.29012 3.50253 8.3414 3.43549C8.38595 3.34295 8.68776 3.33606 8.54643 3.19721C8.33357 3.11228 8.05889 3.13346 7.85466 3.24349C7.72598 3.2919 7.68813 3.63003 7.57722 3.61601C7.52508 3.4655 7.5942 3.16855 7.41569 3.125L7.41576 3.12506ZM8.42224 6.42853C8.58443 6.39661 8.42568 6.71481 8.34768 6.71014C8.35458 6.5958 8.1131 6.60681 8.26292 6.50719C8.31151 6.47073 8.36564 6.44291 8.42224 6.42853Z" fill="#008000"/>
<path d="M28.125 21.873L28.3833 23.0071L29.1721 22.5852L28.7054 23.5775L29.4308 24.1855L28.5904 24.2887L28.7061 25.4688L28.125 24.6053L27.5439 25.4688L27.6597 24.2887L26.8193 24.1855L27.5447 23.5775L27.0779 22.5852L27.8668 23.0071L28.125 21.873Z" fill="#FFE000"/>
<path d="M23.4375 11.3907L23.6958 12.5248L24.4846 12.1029L24.0179 13.0952L24.7433 13.7032L23.9029 13.8064L24.0186 14.9865L23.4375 14.123L22.8564 14.9865L22.9722 13.8064L22.1318 13.7032L22.8572 13.0952L22.3904 12.1029L23.1793 12.5248L23.4375 11.3907Z" fill="#FFE000"/>
<path d="M28.125 4.21875L28.3833 5.35285L29.1721 4.93093L28.7054 5.92321L29.4308 6.53118L28.5904 6.63443L28.7061 7.81449L28.125 6.95096L27.5439 7.81449L27.6597 6.63443L26.8193 6.53118L27.5447 5.92321L27.0779 4.93093L27.8668 5.35285L28.125 4.21875Z" fill="#FFE000"/>
<path d="M32.292 9.62537L32.5503 10.7595L33.3391 10.3375L32.8723 11.3298L33.5977 11.9378L32.7574 12.041L32.8731 13.2211L32.292 12.3576L31.7109 13.2211L31.8267 12.041L30.9863 11.9378L31.7117 11.3298L31.2449 10.3375L32.0338 10.7595L32.292 9.62537Z" fill="#FFE000"/>
<path d="M29.9998 14.9374L30.2039 15.644L30.7429 15.6998L30.3301 16.1923L30.4591 16.9334L29.9998 16.5312L29.5406 16.9334L29.6696 16.1923L29.2568 15.6998L29.7958 15.644L29.9998 14.9374Z" fill="#FFE000"/>
</g>
<defs>
<clipPath id="clip0_3032_3616">
<rect width="37.5" height="30" rx="4" fill="white"/>
</clipPath>
</defs>
</svg>
