<svg width="38" height="30" viewBox="0 0 38 30" fill="none" xmlns="http://www.w3.org/2000/svg">
<path d="M32.5 0H5C2.23858 0 0 2.23858 0 5V25C0 27.7614 2.23858 30 5 30H32.5C35.2614 30 37.5 27.7614 37.5 25V5C37.5 2.23858 35.2614 0 32.5 0Z" fill="#001B69"/>
<path d="M32.5 0H5C2.23858 0 0 2.23858 0 5V25C0 27.7614 2.23858 30 5 30H32.5C35.2614 30 37.5 27.7614 37.5 25V5C37.5 2.23858 35.2614 0 32.5 0Z" fill="#001B69"/>
<path d="M6.875 12.2171V15H11.875V12.216L15.6714 15H18.75V13.4486L14.0476 10H18.75V5H15.325L18.75 2.48837V0H16.9488L11.875 3.72113V0H6.875V3.49187L2.80425 0.505375C1.84487 0.973 1.06737 1.73463 0.57225 2.67775L3.73737 5H0V10H4.704L0 13.4499V15H3.08025L6.875 12.2171Z" fill="white"/>
<path d="M1.00696 1.98639L5.11371 5.00002H6.81821L1.69921 1.24414C1.44384 1.46852 1.21221 1.71477 1.00696 1.98639Z" fill="#CA0A2B"/>
<path d="M0 15L6.81825 10V11.25L1.70463 15H0Z" fill="#CA0A2B"/>
<path d="M10.625 15H8.125V8.75H0V6.25H8.125V0H10.625V6.25H18.75V8.75H10.625V15Z" fill="#CA0A2B"/>
<path d="M27.3634 12.1875L27.6794 13.1589H28.6975L27.8744 13.7557L28.1904 14.7271L27.3634 14.1303L26.5364 14.7271L26.8524 13.7557L26.0293 13.1589H27.0474L27.3634 12.1875Z" fill="white"/>
<path d="M30.5247 12.8594L30.4183 13.8752L31.3485 14.2894L30.3537 14.4999L30.2473 15.5157L29.7346 14.6341L28.7363 14.843L29.4201 14.0841L28.9108 13.2041L29.841 13.6182L30.5247 12.8594Z" fill="white"/>
<path d="M33.139 14.7586L32.6286 15.6434L33.3099 16.4L32.3155 16.1876L31.8051 17.0724L31.6952 16.0584L30.6982 15.8431L31.6315 15.428L31.5242 14.4169L32.2055 15.1735L33.139 14.7586Z" fill="white"/>
<path d="M34.7547 17.5571L33.9286 18.1579L34.2432 19.1262L33.4212 18.5279L32.5951 19.1286L32.9072 18.1576L32.084 17.5555L33.1055 17.5559L33.4187 16.5886L33.7334 17.557L34.7547 17.5571Z" fill="white"/>
<path d="M35.0926 20.7707L34.0935 20.9834L33.9871 21.996L33.4796 21.115L32.4805 21.3278L33.1605 20.5677L32.6533 19.6828L33.5863 20.0985L34.266 19.3423L34.1596 20.3549L35.0926 20.7707Z" fill="white"/>
<path d="M34.0935 23.8439L33.0942 23.6319L32.5851 24.5137L32.4797 23.5024L31.4805 23.2904L32.4108 22.8727L32.3075 21.858L32.9907 22.6174L33.9192 22.203L33.4101 23.0848L34.0935 23.8439Z" fill="white"/>
<path d="M31.9314 26.2453L31.1048 25.6452L30.281 26.2437L30.5962 25.277L29.7695 24.6768L30.7894 24.6736L31.1077 23.7046L31.423 24.6762L32.4398 24.6752L31.616 25.2737L31.9314 26.2453Z" fill="white"/>
<path d="M28.9795 27.5597L28.4685 26.6752L27.4727 26.8869L28.1537 26.1319L27.6427 25.2474L28.5757 25.6593L29.2605 24.9036L29.1534 25.9194L30.0827 26.3321L29.0868 26.5438L28.9795 27.5597Z" fill="white"/>
<path d="M25.7475 27.5597L25.6404 26.5438L24.6445 26.3321L25.5738 25.9194L25.4667 24.9036L26.1515 25.6593L27.0845 25.2474L26.5735 26.1319L27.2545 26.8869L26.2587 26.6752L25.7475 27.5597Z" fill="white"/>
<path d="M22.7965 26.2452L23.1118 25.2736L22.2881 24.6751L23.3048 24.6761L23.6202 23.7045L23.9385 24.6735L24.9583 24.6767L24.1317 25.2768L24.4468 26.2436L23.6231 25.6451L22.7965 26.2452Z" fill="white"/>
<path d="M20.6339 23.8439L21.3172 23.0845L20.808 22.2028L21.7365 22.6172L22.4198 21.8578L22.3164 22.8724L23.2468 23.2902L22.2475 23.5022L22.1422 24.5134L21.633 23.6317L20.6339 23.8439Z" fill="white"/>
<path d="M19.6348 20.7707L20.5678 20.3549L20.4614 19.3423L21.141 20.0985L22.074 19.6828L21.5669 20.5677L22.2469 21.3278L21.2478 21.115L20.7403 21.996L20.6339 20.9834L19.6348 20.7707Z" fill="white"/>
<path d="M19.9727 17.5571L20.9942 17.5568L21.3088 16.5884L21.622 17.5556L22.6435 17.5553L21.8203 18.1574L22.1324 19.1284L21.3063 18.5276L20.4843 19.126L20.7989 18.1576L19.9727 17.5571Z" fill="white"/>
<path d="M21.5881 14.7586L22.5214 15.1737L23.2026 14.4171L23.0954 15.4282L24.0286 15.8434L23.0316 16.0586L22.9217 17.0726L22.4114 16.1879L21.417 16.4002L22.0982 15.6436L21.5881 14.7586Z" fill="white"/>
<path d="M24.2027 12.8594L24.8864 13.6182L25.8165 13.2041L25.3073 14.0841L25.991 14.843L24.9928 14.6341L24.48 15.5157L24.3737 14.4999L23.3789 14.2894L24.309 13.8752L24.2027 12.8594Z" fill="white"/>
<path d="M18.75 14.5834L12.5 10V11.25L17.6136 15H18.75V14.5834Z" fill="#CA0A2B"/>
<path d="M18.7494 0H18.4389L11.6133 5.0055H13.3178L18.7494 1.02238V0Z" fill="#CA0A2B"/>
<path opacity="0.15" d="M32.5 0H5C2.23862 0 0 2.2385 0 5V25C0 27.7615 2.23862 30 5 30H32.5C35.2615 30 37.5 27.7615 37.5 25V5C37.5 2.2385 35.2615 0 32.5 0ZM36.25 25C36.25 27.0679 34.5679 28.75 32.5 28.75H5C2.93212 28.75 1.25 27.0679 1.25 25V5C1.25 2.93213 2.93212 1.25 5 1.25H32.5C34.5679 1.25 36.25 2.93213 36.25 5V25Z" fill="black"/>
<path opacity="0.2" d="M32.5 1.25H5C2.92887 1.25 1.25 2.92887 1.25 5V6.25C1.25 4.17887 2.92887 2.5 5 2.5H32.5C34.5711 2.5 36.25 4.17887 36.25 6.25V5C36.25 2.92887 34.5711 1.25 32.5 1.25Z" fill="white"/>
</svg>
