<svg width="38" height="30" viewBox="0 0 38 30" fill="none" xmlns="http://www.w3.org/2000/svg">
<path d="M32.5 0H5C2.23858 0 0 2.23858 0 5V25C0 27.7614 2.23858 30 5 30H32.5C35.2614 30 37.5 27.7614 37.5 25V5C37.5 2.23858 35.2614 0 32.5 0Z" fill="#012680"/>
<path d="M37.5 18.75H0V22.5H37.5V18.75Z" fill="#FAE90B"/>
<path opacity="0.15" d="M32.5 0H5C2.23862 0 0 2.2385 0 5V25C0 27.7615 2.23862 30 5 30H32.5C35.2615 30 37.5 27.7615 37.5 25V5C37.5 2.2385 35.2615 0 32.5 0ZM36.25 25C36.25 27.0679 34.5679 28.75 32.5 28.75H5C2.93213 28.75 1.25 27.0679 1.25 25V5C1.25 2.93213 2.93213 1.25 5 1.25H32.5C34.5679 1.25 36.25 2.93213 36.25 5V25Z" fill="black"/>
<path opacity="0.2" d="M32.5 1.25H5C2.92887 1.25 1.25 2.92887 1.25 5V6.25C1.25 4.17887 2.92887 2.5 5 2.5H32.5C34.5711 2.5 36.25 4.17887 36.25 6.25V5C36.25 2.92887 34.5711 1.25 32.5 1.25Z" fill="white"/>
<path d="M12.9675 12.5303L15.0459 11.0554H12.4759L11.6392 8.54517L10.8024 11.0554H8.23242L10.3108 12.5303L9.48755 15L11.6392 13.473L13.7908 15L12.9675 12.5303Z" fill="white"/>
<path d="M7.26188 7.06738L8.86013 5.94512H6.88775L6.26025 4.0625L5.65638 5.94512H3.75L5.29975 7.057L4.73612 8.814L4.6465 8.90375L6.27762 7.7585L7.874 8.90375L7.26188 7.06738Z" fill="white"/>
</svg>
