<svg width="38" height="30" viewBox="0 0 38 30" fill="none" xmlns="http://www.w3.org/2000/svg">
<path fill-rule="evenodd" clip-rule="evenodd" d="M0 4C0 1.79086 1.79086 0 4 0H33.5C35.7091 0 37.5 1.79086 37.5 4V26C37.5 28.2091 35.7091 30 33.5 30H4C1.79086 30 0 28.2091 0 26V4Z" fill="#0021AD"/>
<path fill-rule="evenodd" clip-rule="evenodd" d="M8.90434 7.12348C5.95179 4.76143 7.62201 0 11.4031 0H33.5C35.7091 0 37.5 1.79086 37.5 4V21.6775C37.5 25.0315 33.6203 26.8962 31.0012 24.801L8.90434 7.12348Z" fill="#1C8A42"/>
<path fill-rule="evenodd" clip-rule="evenodd" d="M34.4866 11.6407C34.4673 11.7265 34.3811 11.7607 34.2943 11.7172C34.2076 11.6737 34.1526 11.5684 34.1718 11.4826C34.1911 11.3968 34.2773 11.3626 34.3641 11.4061C34.4508 11.4496 34.5058 11.5549 34.4866 11.6407Z" fill="#1C8A42"/>
<path fill-rule="evenodd" clip-rule="evenodd" d="M32.9244 7.33891C32.9242 7.33899 32.924 7.33889 32.924 7.33868C32.7701 6.60982 31.3969 5.04059 30.3648 4.04206C30.3267 4.01095 30.2908 3.9875 30.2572 3.97114C29.9563 3.82443 30.0642 4.40223 30.1935 4.71099C30.2033 4.73436 30.2131 4.75769 30.223 4.78096C30.2984 4.95823 30.3651 5.13817 30.4284 5.3201V5.3201C30.4708 5.44183 30.4832 5.57278 30.494 5.70124C30.4991 5.76332 30.5062 5.81892 30.515 5.82946C30.5785 5.91333 30.6311 5.99469 30.6747 6.07124C30.8659 6.40731 30.9423 6.80234 31.1344 7.13794C31.1918 7.23824 31.254 7.33487 31.3252 7.4313C31.4669 7.62335 31.6779 7.77957 31.7247 8.01361C31.8001 8.39047 31.6535 8.95012 31.6613 9.28876V9.28876C31.6613 9.60744 31.2304 9.37482 30.994 9.16117C30.0905 8.34479 29.2006 8.19548 28.3823 7.9604C28.0948 7.8778 27.5718 7.68861 27.5993 7.9865C27.6039 8.03682 27.6322 8.08955 27.6753 8.13136C28.3968 9.05746 29.0753 9.68746 29.9685 10.2146L30.1832 10.3742C30.3401 10.4908 30.4881 10.6188 30.6262 10.757L30.9328 11.0639C31.3293 11.3723 31.3618 11.6552 31.3618 11.6807C31.3686 12.056 31.2628 12.3772 31.1671 12.6057C31.0872 12.7965 30.9645 13.202 30.8569 13.3788V13.3788C30.6709 13.6842 30.4928 13.7263 30.2101 13.9452C28.355 15.382 27.1507 15.7859 24.1508 15.3746C23.8468 15.3329 23.4071 15.3912 23.6888 15.5129V15.5129C24.5543 15.8589 26.6173 16.4034 28.6777 15.4019C28.8967 15.2955 29.0886 15.1385 29.3044 15.0256C29.6669 14.836 29.9474 14.883 30.246 14.6756C30.6717 14.3606 31.2229 13.9924 31.5774 13.7726C31.7927 13.6392 32.0148 13.5129 32.247 13.4117C32.6754 13.2252 33.2802 13.0305 33.6846 12.8426C33.9378 12.725 34.211 12.6331 34.4759 12.5449C34.5736 12.5123 34.6576 12.4654 34.7163 12.3947C34.8196 12.2702 34.8404 12.1423 34.9911 12.0834V12.0834C35.1643 12.0156 35.4337 11.8698 35.4579 11.6854C35.4582 11.683 35.4583 11.6808 35.4584 11.6787C35.4592 11.6626 35.4535 11.647 35.448 11.6319C35.4349 11.5958 35.4173 11.563 35.3963 11.5327C35.1661 11.2005 34.7147 10.9263 34.3384 11.0736C34.3107 11.0845 34.283 11.0981 34.255 11.1146L34.1362 11.178C34.0883 11.2036 34.0625 11.2178 34.0092 11.2078V11.2078C33.8827 11.1841 33.6526 11.1307 33.5662 11.0354C33.1063 10.5278 33.1344 8.32289 32.9249 7.33914C32.9248 7.33893 32.9246 7.33883 32.9244 7.33891V7.33891Z" fill="#FFC639"/>
<path fill-rule="evenodd" clip-rule="evenodd" d="M34.4885 11.6796C34.4693 11.7441 34.383 11.7696 34.2963 11.7369C34.2095 11.7042 34.1545 11.6253 34.1738 11.5608C34.193 11.4963 34.2793 11.4708 34.366 11.5035C34.4528 11.5362 34.5078 11.6151 34.4885 11.6796Z" fill="#1C8A42"/>
<path fill-rule="evenodd" clip-rule="evenodd" d="M15.375 15.1643C15.375 14.0863 15.7318 13.0525 16.367 12.2903C17.0022 11.5281 17.8637 11.0999 18.762 11.0999C19.6603 11.0999 20.5218 11.5281 21.157 12.2903C21.7922 13.0525 22.149 14.0863 22.149 15.1643C22.149 16.2422 21.7922 17.276 21.157 18.0382C20.5218 18.8004 19.6603 19.2287 18.762 19.2287C17.8637 19.2287 17.0022 18.8004 16.367 18.0382C15.7318 17.276 15.375 16.2422 15.375 15.1643Z" fill="#FFC639"/>
<path fill-rule="evenodd" clip-rule="evenodd" d="M16.6929 13.3396C16.6932 13.3393 16.6938 13.3394 16.694 13.3398C16.8918 13.6656 17.1763 14.1783 17.4309 14.2179C17.5169 14.2313 17.6363 14.1895 17.7225 14.2016V14.2016C17.92 14.2292 18.0532 14.421 18.2521 14.4078C18.6924 14.3786 19.2423 14.1485 19.6678 13.6432C19.7945 13.4927 19.899 13.2631 19.8893 13.0666V13.0666C19.8915 12.9647 19.9747 12.9514 20.0217 12.9693C20.0505 12.9802 20.0626 13.0328 20.0689 13.0629V13.0629C20.0814 13.1224 20.1311 13.1102 20.1685 13.0623C20.2096 13.0099 20.254 12.9338 20.2961 12.8655C20.3221 12.8235 20.3472 12.7834 20.3489 12.734V12.734C20.3511 12.6716 20.3498 12.5919 20.4046 12.5618C20.4483 12.5377 20.4985 12.5633 20.5128 12.6052C20.5207 12.6219 20.5255 12.6369 20.5296 12.6516C20.5419 12.6952 20.5689 12.7353 20.6126 12.747C20.6597 12.7595 20.7121 12.7551 20.756 12.7468C20.8129 12.7361 20.8608 12.6349 20.9186 12.6314V12.6314C20.9355 12.6304 20.9454 12.6253 20.9622 12.6225V12.6225C21.0051 12.6154 21.0088 12.6762 21.0066 12.7196C20.9827 13.1917 21.0991 13.2257 21.0888 13.4902C21.0907 13.6209 21.0771 13.712 21.0608 13.7826C21.0265 13.931 21.0448 14.0813 21.1854 14.1401C21.2109 14.1508 21.2354 14.1609 21.256 14.1714C21.3396 14.2142 21.2336 14.298 21.2213 14.3911V14.3911C21.2035 14.526 21.0466 14.5813 20.9359 14.6606C20.7782 14.7736 20.6743 14.8763 20.6071 14.9566C20.5182 15.0629 20.463 15.1924 20.402 15.3168L20.3498 15.4231C20.3442 15.4359 20.3384 15.4474 20.3326 15.4577C20.237 15.6279 20.0605 15.7001 20.0565 15.8953V15.8953C20.0533 16.0514 20.1142 16.2095 20.0954 16.3645C20.0863 16.4402 20.0678 16.5151 20.0483 16.6129C20.0463 16.636 20.044 16.6578 20.0414 16.6787C19.9955 17.0474 19.8401 17.3936 19.8463 17.7651C19.8489 17.9236 19.8484 18.0523 19.8238 18.0523V18.0523C19.3535 18.0634 19.0705 17.5631 19.0907 17.0931C19.1064 16.7255 19.0855 16.4652 19.0855 16.4236C19.0529 15.951 18.5666 15.9864 18.3718 15.9577C18.3253 15.9509 18.279 15.9341 18.2409 15.9067C18.2337 15.9016 18.2269 15.8961 18.2204 15.8904C18.1635 15.8405 18.1016 15.7973 18.0289 15.7762V15.7762C17.9642 15.7574 17.9113 15.7921 17.8531 15.826C17.8493 15.8282 17.8452 15.8304 17.8407 15.8327C17.8189 15.8435 17.7948 15.8496 17.7705 15.8501C17.7194 15.8512 17.6745 15.8385 17.6356 15.818C17.4507 15.7207 17.3462 15.5301 17.1373 15.5377C17.0102 15.5424 16.8602 15.5491 16.7247 15.5391C16.6047 15.5303 16.4788 15.5506 16.4178 15.6544C16.4068 15.6731 16.3962 15.6921 16.3858 15.7109C16.3181 15.8332 16.1574 15.9067 16.067 15.8002V15.8002C16.0399 15.7683 16.0263 15.7215 16.0312 15.6799C16.043 15.5815 16.0883 15.5118 16.1286 15.4679C16.1687 15.4241 16.2405 15.3727 16.2893 15.3389V15.3389C16.4365 15.2369 16.4953 15.0988 16.515 14.9209C16.5239 14.8406 16.5375 14.7664 16.5728 14.6917C16.6333 14.5765 16.7225 14.6305 16.783 14.5789C16.8323 14.5398 16.8601 14.3358 16.8444 14.199C16.8363 14.1278 16.7912 14.0697 16.7427 14.017L16.6391 13.9041C16.5746 13.8339 16.5202 13.7498 16.5191 13.6545C16.5166 13.4475 16.6484 13.3229 16.6921 13.3398C16.6924 13.3399 16.6927 13.3398 16.6929 13.3396V13.3396Z" fill="#1C8A42"/>
<path fill-rule="evenodd" clip-rule="evenodd" d="M7.07177 13.0329C7.07184 13.0329 7.07184 13.0327 7.07177 13.0326L6.72721 12.6458C6.65578 12.5655 6.53064 12.5648 6.4582 12.6441V12.6441C6.34268 12.7705 6.13242 12.6808 6.14372 12.5099L6.14916 12.4275C6.15615 12.3217 6.0815 12.227 5.97736 12.207V12.207C5.7961 12.1723 5.73391 11.9407 5.8773 11.8245L5.91562 11.7935C5.99885 11.726 6.02523 11.6104 5.9795 11.5136L5.93534 11.42C5.86227 11.2652 6.01577 11.1005 6.17601 11.1608V11.1608C6.27605 11.1984 6.38785 11.1457 6.42183 11.0443V11.0443C6.4797 10.8717 6.72465 10.8739 6.78057 11.0472V11.0472C6.81338 11.1489 6.92453 11.2033 7.02509 11.1672V11.1672C7.18638 11.1093 7.33793 11.276 7.26301 11.4301L7.21795 11.5228C7.17108 11.6192 7.19603 11.7352 7.2784 11.8038L7.31797 11.8368C7.45941 11.9546 7.39832 12.184 7.217 12.2159V12.2159C7.10912 12.2349 7.03247 12.3315 7.03853 12.4409L7.07137 13.0328C7.07138 13.033 7.07164 13.0331 7.07177 13.0329V13.0329Z" fill="white"/>
<path fill-rule="evenodd" clip-rule="evenodd" d="M8.62315 19.0371C8.66793 19.1927 8.48601 19.3137 8.35952 19.2126V19.2126C8.2971 19.1627 8.20789 19.1644 8.14747 19.2167V19.2167C8.02494 19.3228 7.83864 19.208 7.8783 19.0509L7.897 18.9768C7.91487 18.9059 7.89051 18.8311 7.83435 18.7844L7.79205 18.7492C7.66101 18.6402 7.73423 18.4271 7.90459 18.4216L7.91558 18.4212C7.99065 18.4188 8.05543 18.3671 8.07488 18.2945V18.2945C8.11907 18.1298 8.35198 18.1237 8.40169 18.2868V18.2868C8.42365 18.3589 8.49053 18.4079 8.56588 18.4071L8.57649 18.4069C8.74598 18.4051 8.82749 18.6141 8.70146 18.7275L8.65736 18.7671C8.603 18.816 8.58132 18.8917 8.60154 18.9619L8.62315 19.0371Z" fill="white"/>
<path fill-rule="evenodd" clip-rule="evenodd" d="M7.1665 25.1406C7.16657 25.1405 7.16657 25.1404 7.16649 25.1403L6.82194 24.7534C6.7505 24.6732 6.62537 24.6724 6.55293 24.7517V24.7517C6.43741 24.8782 6.22715 24.7885 6.23844 24.6176L6.24389 24.5352C6.25088 24.4294 6.17622 24.3346 6.07208 24.3147V24.3147C5.89083 24.28 5.82864 24.0484 5.97202 23.9322L6.01035 23.9011C6.09358 23.8337 6.11996 23.7181 6.07423 23.6212L6.03006 23.5277C5.95699 23.3729 6.1105 23.2082 6.27073 23.2684V23.2684C6.37077 23.306 6.48258 23.2533 6.51655 23.152V23.152C6.57443 22.9793 6.81938 22.9816 6.87529 23.1549V23.1549C6.9081 23.2565 7.01926 23.3109 7.11981 23.2748V23.2748C7.28111 23.2169 7.43265 23.3837 7.35773 23.5378L7.31268 23.6305C7.26581 23.7269 7.29075 23.8429 7.37313 23.9115L7.41269 23.9445C7.55414 24.0623 7.49305 24.2917 7.31173 24.3236V24.3236C7.20385 24.3426 7.12719 24.4392 7.13326 24.5486L7.16609 25.1405C7.1661 25.1407 7.16636 25.1408 7.1665 25.1406V25.1406Z" fill="white"/>
<path fill-rule="evenodd" clip-rule="evenodd" d="M2.86932 18.5775C2.86928 18.5775 2.86923 18.5775 2.8692 18.5774L2.52444 18.1903C2.45307 18.1102 2.32805 18.1094 2.25567 18.1886V18.1886C2.14023 18.315 1.93013 18.2253 1.94147 18.0545L1.94695 17.9719C1.95398 17.8661 1.87933 17.7714 1.77521 17.7514V17.7514C1.59397 17.7167 1.53174 17.4851 1.67512 17.3689L1.71342 17.3379C1.79668 17.2704 1.82308 17.1548 1.77735 17.0579L1.7331 16.9641C1.66005 16.8093 1.8136 16.6446 1.97385 16.7048V16.7048C2.07389 16.7424 2.18571 16.6897 2.21968 16.5884V16.5884C2.27756 16.4158 2.5225 16.418 2.57842 16.5913V16.5913C2.61123 16.693 2.72238 16.7474 2.82294 16.7113V16.7113C2.98423 16.6533 3.13578 16.8201 3.06086 16.9742L3.01581 17.0669C2.96893 17.1633 2.99388 17.2793 3.07626 17.3479L3.11595 17.381C3.25735 17.4988 3.19629 17.7281 3.01503 17.76V17.76C2.90719 17.779 2.83057 17.8756 2.83663 17.9849L2.86949 18.5773C2.8695 18.5774 2.86942 18.5775 2.86932 18.5775V18.5775ZM11.1377 16.8588C11.1377 16.8588 11.1377 16.8587 11.1377 16.8587L10.793 16.4717C10.7216 16.3915 10.5965 16.3907 10.5241 16.47V16.47C10.4086 16.5964 10.1984 16.5067 10.2097 16.3359L10.2152 16.2535C10.2222 16.1477 10.1476 16.053 10.0435 16.033V16.033C9.86222 15.9983 9.79999 15.7667 9.94337 15.6505L9.98167 15.6195C10.0649 15.552 10.0913 15.4364 10.0456 15.3395L10.0014 15.2457C9.9283 15.0909 10.0819 14.9262 10.2421 14.9864V14.9864C10.3421 15.024 10.454 14.9713 10.4879 14.87V14.87C10.5458 14.6974 10.7908 14.6996 10.8467 14.8729V14.8729C10.8795 14.9746 10.9906 15.029 11.0912 14.9928V14.9928C11.2525 14.9349 11.404 15.1017 11.3291 15.2558L11.2841 15.3485C11.2372 15.4449 11.2621 15.5609 11.3445 15.6295L11.3841 15.6625C11.5255 15.7803 11.4644 16.0097 11.2831 16.0416V16.0416C11.1752 16.0606 11.0986 16.1572 11.1046 16.2666L11.1375 16.8588C11.1375 16.8589 11.1376 16.8589 11.1377 16.8588V16.8588Z" fill="white"/>
</svg>
