<svg width="38" height="30" viewBox="0 0 38 30" fill="none" xmlns="http://www.w3.org/2000/svg">
<path d="M37.5 8.75H0V21.25H37.5V8.75Z" fill="white"/>
<path d="M5 0H32.5C35.2596 0 37.5 2.24038 37.5 5V10H0V5C0 2.24038 2.24038 0 5 0Z" fill="black"/>
<path d="M32.5 30L5 30C2.24038 30 0 27.7596 0 25V20L37.5 20V25C37.5 27.7596 35.2596 30 32.5 30Z" fill="#027B3B"/>
<path d="M1.58888 28.6381L17.5 15L1.58888 1.36188C0.61625 2.27413 0 3.56125 0 5V25C0 26.4388 0.616125 27.7259 1.58888 28.6381Z" fill="#C50A14"/>
<path opacity="0.15" d="M32.5 0H5C2.23863 0 0 2.2385 0 5V25C0 27.7615 2.23863 30 5 30H32.5C35.2615 30 37.5 27.7615 37.5 25V5C37.5 2.2385 35.2615 0 32.5 0ZM36.25 25C36.25 27.0679 34.5679 28.75 32.5 28.75H5C2.93213 28.75 1.25 27.0679 1.25 25V5C1.25 2.93213 2.93213 1.25 5 1.25H32.5C34.5679 1.25 36.25 2.93213 36.25 5V25Z" fill="black"/>
<path opacity="0.2" d="M32.5 1.25H5C2.92887 1.25 1.25 2.92887 1.25 5V6.25C1.25 4.17887 2.92887 2.5 5 2.5H32.5C34.5711 2.5 36.25 4.17887 36.25 6.25V5C36.25 2.92887 34.5711 1.25 32.5 1.25Z" fill="white"/>
<path d="M21.5135 15C21.5135 12.7335 23.138 10.8475 25.2858 10.4397C25.0037 10.3862 24.713 10.357 24.4153 10.357C21.8511 10.357 19.7725 12.4357 19.7725 14.9999C19.7725 17.564 21.8512 19.6427 24.4153 19.6427C24.7131 19.6427 25.0037 19.6136 25.2858 19.56C23.138 19.1524 21.5135 17.2666 21.5135 15Z" fill="#C50A14"/>
<path d="M23.1691 17.8114L25.1488 16.3961L27.1131 17.8327L26.379 15.5125L28.3523 14.0883L25.9188 14.0695L25.1741 11.7526L24.4043 14.0612L21.9707 14.0536L23.9285 15.4991L23.1691 17.8114Z" fill="#C50A14"/>
</svg>
