<svg width="38" height="30" viewBox="0 0 38 30" fill="none" xmlns="http://www.w3.org/2000/svg">
<path d="M32.5 0H5C2.23858 0 0 2.23858 0 5V25C0 27.7614 2.23858 30 5 30H32.5C35.2614 30 37.5 27.7614 37.5 25V5C37.5 2.23858 35.2614 0 32.5 0Z" fill="white"/>
<path d="M32.5 0H5C2.23858 0 0 2.23858 0 5V25C0 27.7614 2.23858 30 5 30H32.5C35.2614 30 37.5 27.7614 37.5 25V5C37.5 2.23858 35.2614 0 32.5 0Z" fill="white"/>
<path d="M37.5 10H20V0H10V10H0V20H10V30H20V20H37.5V10Z" fill="#285CB3"/>
<path d="M37.5 12.5H17.5V0H12.5V12.5H0V17.5H12.5V30H17.5V17.5H37.5V12.5Z" fill="#DD4446"/>
<path opacity="0.15" d="M32.5 0H5C2.23875 0 0 2.23875 0 5V25C0 27.7613 2.23875 30 5 30H32.5C35.2613 30 37.5 27.7613 37.5 25V5C37.5 2.23875 35.2613 0 32.5 0ZM36.25 25C36.25 27.0675 34.5675 28.75 32.5 28.75H5C2.9325 28.75 1.25 27.0675 1.25 25V5C1.25 2.9325 2.9325 1.25 5 1.25H32.5C34.5675 1.25 36.25 2.9325 36.25 5V25Z" fill="black"/>
<path opacity="0.2" d="M32.5 1.25H5C2.92875 1.25 1.25 2.92875 1.25 5V6.25C1.25 4.17875 2.92875 2.5 5 2.5H32.5C34.5712 2.5 36.25 4.17875 36.25 6.25V5C36.25 2.92875 34.5712 1.25 32.5 1.25Z" fill="white"/>
</svg>
