<svg width="38" height="30" viewBox="0 0 38 30" fill="none" xmlns="http://www.w3.org/2000/svg">
<path d="M37.5 5C37.5 2.2385 35.2615 0 32.5 0H5C2.2385 0 0 2.2385 0 5V16.25H37.5V5Z" fill="white"/>
<path d="M5 30H32.5C35.2615 30 37.5 27.7615 37.5 25V15H0V25C0 27.7615 2.2385 30 5 30Z" fill="#CA0A2B"/>
<path opacity="0.15" d="M5 30H32.5C35.2614 30 37.5 27.7615 37.5 25V5C37.5 2.2385 35.2614 0 32.5 0H5C2.2385 0 0 2.2385 0 5V25C0 27.7615 2.2385 30 5 30ZM1.25 5C1.25 2.93213 2.93213 1.25 5 1.25H32.5C34.5679 1.25 36.25 2.93213 36.25 5V25C36.25 27.0679 34.5679 28.75 32.5 28.75H5C2.93213 28.75 1.25 27.0679 1.25 25V5Z" fill="black"/>
<path opacity="0.2" d="M32.5 1.25H5C2.92887 1.25 1.25 2.92887 1.25 5V6.25C1.25 4.17887 2.92887 2.5 5 2.5H32.5C34.5711 2.5 36.25 4.17887 36.25 6.25V5C36.25 2.92887 34.5711 1.25 32.5 1.25Z" fill="white"/>
<path d="M12.5 22.5C16.6421 22.5 20 19.1421 20 15C20 10.8579 16.6421 7.5 12.5 7.5C8.35786 7.5 5 10.8579 5 15C5 19.1421 8.35786 22.5 12.5 22.5Z" fill="white"/>
<path d="M12.5 7.5C8.35788 7.5 5 10.8579 5 15H20C20 10.8579 16.6421 7.5 12.5 7.5Z" fill="#CA0A2B"/>
</svg>
