<svg width="38" height="30" viewBox="0 0 38 30" fill="none" xmlns="http://www.w3.org/2000/svg">
<path fill-rule="evenodd" clip-rule="evenodd" d="M0 4C0 1.79086 1.79086 0 4 0H33.2517C35.4608 0 37.2517 1.79086 37.2517 4V26C37.2517 28.2091 35.4608 30 33.2517 30H4C1.79086 30 0 28.2091 0 26V4Z" fill="#C62139"/>
<path fill-rule="evenodd" clip-rule="evenodd" d="M0.908203 5.36352C0.908203 3.15439 2.69906 1.36353 4.9082 1.36353H32.3427C34.5519 1.36353 36.3427 3.15439 36.3427 5.36353V24.6362C36.3427 26.8454 34.5519 28.6362 32.3427 28.6362H4.9082C2.69906 28.6362 0.908203 26.8454 0.908203 24.6362V5.36352Z" fill="#00297B"/>
<path fill-rule="evenodd" clip-rule="evenodd" d="M20.8527 9.06602C19.7066 7.60965 17.6103 7.64788 16.4707 9.10938C15.3073 10.6013 14.1104 12.6858 14.1104 14.9469C14.1104 17.1855 15.2836 19.2784 16.4359 20.7942C17.5835 22.3037 19.7346 22.3412 20.8879 20.8361C22.014 19.3666 23.1409 17.3064 23.1409 14.9469C23.1409 12.5628 21.9904 10.5116 20.8527 9.06602Z" fill="#C62139"/>
<path fill-rule="evenodd" clip-rule="evenodd" d="M20.9938 16.3995C21.8482 16.4009 22.6155 15.8013 22.6155 14.9469V14.9469C22.6155 12.957 21.7328 11.2094 20.7993 9.91764C19.7086 8.40831 17.5821 8.41568 16.4809 9.91743C15.5225 11.2245 14.6074 12.986 14.6074 14.9469V14.9469C14.6074 15.7959 15.3712 16.3905 16.2203 16.3919L20.9938 16.3995Z" fill="#66AFEB"/>
<path fill-rule="evenodd" clip-rule="evenodd" d="M16.6639 20.2815C17.6694 21.6097 19.5574 21.6233 20.5668 20.2981C20.6737 20.1577 20.7807 20.0113 20.8867 19.8591C22.0163 18.2378 20.6001 16.3895 18.6241 16.3895V16.3895C16.6391 16.3895 15.2298 18.2486 16.3678 19.875C16.4661 20.0154 16.5651 20.151 16.6639 20.2815Z" fill="#007BDE"/>
<path fill-rule="evenodd" clip-rule="evenodd" d="M22.5121 16.1306C22.5419 15.8862 22.1928 15.6344 21.951 15.681C20.8898 15.8855 19.0015 15.8003 18.3253 15.7607C18.1785 15.7522 18.0438 15.843 17.9982 15.9828V15.9828C17.9307 16.1895 18.0847 16.4018 18.3021 16.4018H22.1834C22.3445 16.4018 22.4848 16.2893 22.5121 16.1306V16.1306V16.1306Z" fill="#9C8431"/>
<path fill-rule="evenodd" clip-rule="evenodd" d="M18.4039 19.5924C18.3626 19.244 17.4493 18.8783 16.5816 18.7101C16.1294 18.6224 15.8616 19.1064 16.1118 19.4931V19.4931C16.3384 19.8431 16.879 19.8559 17.2854 19.7623C17.8274 19.6376 18.4165 19.6993 18.4039 19.5924ZM21.6322 18.6391C21.8418 18.2391 21.4941 17.7564 21.1119 17.997V17.997C20.7029 18.255 19.7872 18.5367 19.3777 18.3957C18.9682 18.2547 18.3257 18.7008 18.4039 18.7944C18.5336 18.951 19.4751 18.7713 19.4751 19.7799C19.4751 20.6244 18.3843 20.2494 17.9554 20.6013V20.6013C17.5915 20.8993 17.6332 21.4412 17.9656 21.774C17.9717 21.7802 17.9778 21.7863 17.9839 21.7924C18.3354 22.1431 18.8839 22.1477 19.2391 21.8008C19.6999 21.3506 20.3473 20.6521 20.9517 19.7679L21.4693 18.9381C21.5247 18.84 21.5791 18.7403 21.6322 18.6391Z" fill="#FFF100"/>
<path fill-rule="evenodd" clip-rule="evenodd" d="M18.3926 11.2614C18.3926 11.2614 17.7713 10.8216 16.9239 11.0322C16.362 11.1718 16.0923 11.5013 15.9743 11.7075C15.9384 11.7702 16.0014 11.8252 16.0646 11.7902L16.1218 11.7584C16.1479 11.7439 16.1802 11.7618 16.1817 11.7916V11.7916C16.1834 11.824 16.2205 11.8413 16.2464 11.8217L16.3923 11.7113C16.4132 11.6955 16.4432 11.7095 16.4445 11.7356V11.7356C16.446 11.7647 16.482 11.7774 16.5014 11.7556L16.6132 11.6303C16.6361 11.6046 16.6785 11.6155 16.6862 11.6491V11.6491C16.6937 11.6822 16.7353 11.6935 16.7585 11.6686L16.858 11.5621C16.8753 11.5436 16.9063 11.5536 16.9095 11.5787V11.5787C16.9125 11.6015 16.9391 11.6125 16.9574 11.5985L17.1689 11.4363C17.1969 11.4148 17.2373 11.4348 17.2373 11.4701V11.4701C17.2373 11.5025 17.2721 11.523 17.3005 11.5074L17.4159 11.4438C17.4476 11.4263 17.4856 11.4527 17.4804 11.4885L17.4789 11.4987C17.4752 11.5241 17.4981 11.5453 17.5232 11.5399V11.5399C17.5672 11.5303 17.6066 11.634 17.5692 11.6592C17.2654 11.8644 16.868 12.2245 16.7156 12.7687C16.6993 12.827 16.7691 12.8561 16.8035 12.8064L16.8511 12.7377C16.8638 12.7194 16.8923 12.726 16.8955 12.748V12.748C16.8992 12.7726 16.9329 12.7768 16.9424 12.7538L17.0211 12.5644C17.0296 12.5438 17.0594 12.5456 17.0653 12.5671V12.5671C17.0714 12.5887 17.1013 12.5903 17.1097 12.5695L17.169 12.4226C17.1805 12.394 17.2222 12.398 17.2282 12.4282V12.4282C17.2337 12.4565 17.2714 12.4626 17.2856 12.4376L17.3848 12.2628C17.3997 12.2366 17.4394 12.2455 17.4417 12.2755V12.2755C17.4439 12.305 17.4827 12.3142 17.4981 12.2889L17.6181 12.0911C17.6321 12.068 17.6677 12.0779 17.6677 12.105V12.105C17.6677 12.1307 17.7003 12.1416 17.7158 12.1212L17.8251 11.9774C17.8489 11.9461 17.8989 11.9638 17.8977 12.0032V12.0032C17.8965 12.0399 17.9417 12.0597 17.9687 12.0347C17.9955 12.0099 18.027 11.9819 18.0582 11.9564C18.1115 11.913 18.145 11.9527 18.108 12.0106L17.9466 12.2633C17.9346 12.282 17.9427 12.307 17.9633 12.3153V12.3153C17.9865 12.3245 17.9931 12.3542 17.9762 12.3724L17.8121 12.5487C17.8086 12.5525 17.8054 12.5546 17.8058 12.5597V12.5597C17.8092 12.6011 17.878 12.6232 17.8537 12.657C17.8085 12.7199 17.7595 12.7944 17.7556 12.8271V12.8271C17.7515 12.8626 17.8135 12.9097 17.7953 12.9405C17.7516 13.0142 17.7016 13.1052 17.6898 13.1529V13.1529C17.6802 13.1918 17.7431 13.2518 17.7312 13.29C17.704 13.3766 17.6719 13.4859 17.6677 13.5306C17.6662 13.5473 17.6701 13.5561 17.6773 13.5597C17.7218 13.5818 17.786 13.5763 17.7927 13.6255V13.6255C17.8023 13.6962 17.9032 13.6994 17.9173 13.6295L17.948 13.4776C17.9522 13.4567 17.9801 13.4524 17.9904 13.4711V13.4711C18.0018 13.4917 18.0333 13.4836 18.0333 13.46V13.182C18.0333 13.1651 18.054 13.1569 18.0656 13.1692V13.1692C18.0773 13.1816 18.0983 13.173 18.0978 13.1559L18.0935 12.995C18.093 12.9745 18.1186 12.9649 18.1317 12.9807V12.9807C18.1455 12.9973 18.1725 12.9855 18.1697 12.9641L18.1471 12.7903C18.1441 12.7676 18.1735 12.7559 18.1869 12.7745V12.7745C18.1998 12.7924 18.228 12.7824 18.2269 12.7605L18.2203 12.6317C18.219 12.6071 18.2499 12.5951 18.2656 12.6141V12.6141C18.2809 12.6326 18.3109 12.6218 18.3109 12.5978V12.3668C18.3109 12.3428 18.3405 12.3313 18.3567 12.349V12.349C18.3724 12.3662 18.4011 12.356 18.4024 12.3328L18.4099 12.2002C18.4114 12.1733 18.441 12.1576 18.4641 12.1714V12.1714C18.4874 12.1853 18.5177 12.1694 18.521 12.1425C18.5319 12.0535 18.5631 11.8969 18.6472 11.9031C18.7319 11.9094 18.8315 11.9892 18.8581 12.0594C18.8657 12.0796 18.9028 12.114 18.9233 12.1071V12.1071C18.9379 12.1023 18.9527 12.1137 18.9515 12.129L18.9364 12.3357C18.9347 12.3589 18.961 12.3735 18.9797 12.3597V12.3597C18.9984 12.3459 19.0246 12.3603 19.0231 12.3834L19.0154 12.5002C19.0142 12.5195 19.0347 12.5326 19.0517 12.5232V12.5232C19.069 12.5137 19.0899 12.5276 19.0879 12.5472L19.0702 12.7187C19.0677 12.743 19.0952 12.7588 19.115 12.7444V12.7444C19.1334 12.731 19.1594 12.7438 19.1599 12.7667L19.1643 12.9836C19.1649 13.0116 19.1979 13.0262 19.219 13.0077V13.0077C19.2405 12.9888 19.2742 13.0044 19.2737 13.0331L19.2692 13.2855C19.2687 13.3139 19.3027 13.3288 19.3233 13.3091V13.3091C19.3436 13.2897 19.3773 13.3041 19.3773 13.3322V13.5112C19.3773 13.5427 19.4142 13.5597 19.4382 13.5393V13.5393C19.4581 13.5223 19.4887 13.5308 19.4971 13.5555L19.4986 13.56C19.5135 13.604 19.5788 13.5917 19.5767 13.5453L19.5693 13.3829C19.5687 13.3694 19.5849 13.3622 19.5945 13.3716V13.3716C19.6061 13.383 19.6249 13.3701 19.6186 13.3552L19.5226 13.1309C19.5119 13.1058 19.5276 13.0772 19.5545 13.0728V13.0728C19.5827 13.0682 19.5982 13.0375 19.5852 13.0121L19.5172 12.8791C19.5073 12.8596 19.5226 12.8369 19.5444 12.8388V12.8388C19.5679 12.8409 19.5831 12.8146 19.5696 12.7953L19.4712 12.6547C19.4579 12.6357 19.4679 12.6091 19.4906 12.6037V12.6037C19.5166 12.5975 19.5248 12.5645 19.5046 12.5468L19.3641 12.4237C19.3392 12.4019 19.345 12.3617 19.375 12.3478V12.3478C19.406 12.3333 19.4108 12.2912 19.3838 12.2702L19.2408 12.1587C19.2196 12.1421 19.2234 12.1089 19.2478 12.0976V12.0976C19.269 12.0878 19.2754 12.0607 19.2609 12.0424L19.2159 11.986C19.1912 11.955 19.2256 11.912 19.2613 11.9292V11.9292C19.2806 11.9385 19.3038 11.9296 19.3119 11.9098L19.3212 11.8874C19.3374 11.8481 19.3881 11.8375 19.4187 11.867L19.5142 11.9592C19.5367 11.9809 19.5743 11.965 19.5743 11.9337V11.9337C19.5743 11.8978 19.6216 11.8847 19.6401 11.9155L19.7141 12.039C19.7302 12.066 19.7714 12.0571 19.775 12.0258V12.0258C19.7786 11.9945 19.8199 11.9856 19.836 12.0128L19.9056 12.13C19.9155 12.1467 19.9406 12.1431 19.9453 12.1243V12.1243C19.9505 12.1041 19.9784 12.1021 19.9865 12.1214L20.0279 12.2209C20.0396 12.2492 20.0805 12.2466 20.0887 12.2171V12.2171C20.097 12.1872 20.1386 12.1851 20.1498 12.214L20.185 12.3047C20.1938 12.3274 20.2269 12.3238 20.2307 12.2998V12.2998C20.2346 12.2751 20.2691 12.2723 20.2769 12.2961L20.3212 12.4315C20.3296 12.4574 20.3637 12.4632 20.3803 12.4416V12.4416C20.3985 12.4178 20.4364 12.4277 20.4407 12.4573L20.4615 12.5992C20.4658 12.6283 20.503 12.6379 20.5209 12.6145V12.6145C20.5373 12.5929 20.5712 12.599 20.5791 12.625L20.62 12.7597C20.6294 12.7905 20.6679 12.8007 20.6913 12.7786V12.7786C20.7148 12.7563 20.7536 12.7668 20.7627 12.7979L20.7661 12.8093C20.7813 12.8614 20.84 12.8552 20.8373 12.801C20.8152 12.3639 20.5873 11.4478 19.0699 11.4026C19.0271 11.4013 18.983 11.3964 18.9413 11.3869L18.3904 11.2611" fill="#009270"/>
<path fill-rule="evenodd" clip-rule="evenodd" d="M17.4434 9.83576L17.5422 9.98449C17.5524 9.99972 17.5499 10.0201 17.5364 10.0324V10.0324C17.5186 10.0487 17.5208 10.0773 17.5408 10.0907L17.6587 10.1695C17.6819 10.185 17.6904 10.215 17.6788 10.2404V10.2404C17.6657 10.2692 17.6785 10.3032 17.7074 10.316L17.8012 10.3578C17.8257 10.3687 17.8314 10.4009 17.8121 10.4195V10.4195C17.795 10.436 17.7973 10.464 17.8168 10.4776L17.906 10.5398C17.9267 10.5542 17.9228 10.5859 17.8992 10.595V10.595C17.8746 10.6044 17.8718 10.6382 17.8947 10.6515L18.0047 10.7153C18.0311 10.7306 18.0441 10.7616 18.0366 10.7912V10.7912C18.0275 10.8269 18.0483 10.8633 18.0837 10.8736L18.1354 10.8887C18.1656 10.8974 18.1752 10.9354 18.1528 10.9575V10.9575C18.1362 10.9737 18.1364 11.0004 18.1531 11.0165L18.3342 11.1903L18.5152 11.3417C18.5523 11.3727 18.6036 11.3805 18.6482 11.3619V11.3619C18.7041 11.3387 18.7365 11.28 18.7263 11.2204L18.6904 11.0092C18.682 10.9598 18.6647 10.9129 18.6374 10.8708C18.4819 10.631 17.9063 9.79708 17.4434 9.83486" fill="#009270"/>
<path fill-rule="evenodd" clip-rule="evenodd" d="M18.0784 8.72715L18.1435 8.91155C18.1517 8.93489 18.138 8.96022 18.1139 8.96606V8.96606C18.0839 8.97335 18.0719 9.00959 18.0916 9.03336L18.2392 9.21096C18.2631 9.23968 18.2438 9.28331 18.2065 9.28496V9.28496C18.1666 9.28672 18.1485 9.3355 18.1774 9.36291L18.2929 9.47207C18.3153 9.49331 18.3079 9.53073 18.279 9.54175V9.54175C18.2521 9.552 18.2433 9.58565 18.2617 9.60777L18.4001 9.77417C18.423 9.80173 18.4159 9.84325 18.3851 9.86161V9.86161C18.3543 9.87997 18.3472 9.92146 18.3701 9.94903L18.5004 10.1059C18.5269 10.1378 18.5158 10.1862 18.4781 10.2034V10.2034C18.4393 10.2211 18.429 10.2714 18.4576 10.3029L18.6015 10.4616C18.6233 10.4856 18.6076 10.5241 18.5752 10.5261V10.5261C18.5457 10.5279 18.5291 10.5608 18.5452 10.5857L18.619 10.6997C18.6414 10.7343 18.6263 10.7807 18.5878 10.7955V10.7955C18.553 10.8088 18.5365 10.8485 18.5506 10.8828C18.5833 10.9621 18.6377 11.1023 18.6661 11.2203C18.684 11.2947 18.7458 11.3603 18.8222 11.3649V11.3649C18.9021 11.3697 18.9696 11.3065 18.9702 11.2265L18.9766 10.2676C18.9767 10.2494 18.9555 10.2394 18.9415 10.2511V10.2511C18.9272 10.2632 18.9054 10.2522 18.9066 10.2335L18.9212 9.98541C18.9229 9.95663 18.8904 9.93882 18.8671 9.95575V9.95575C18.8451 9.9717 18.8142 9.95688 18.8129 9.92977L18.799 9.64336C18.7975 9.6122 18.7581 9.59967 18.7388 9.62422V9.62422C18.7198 9.64853 18.6808 9.63651 18.6787 9.60569L18.662 9.35614C18.6602 9.3291 18.6242 9.3213 18.6113 9.34518V9.34518C18.5993 9.36759 18.5658 9.36245 18.5611 9.33747L18.5107 9.07267C18.5049 9.04237 18.4652 9.03439 18.4482 9.06011V9.06011C18.4321 9.08448 18.3948 9.07889 18.3865 9.05086L18.3485 8.92207C18.3401 8.89382 18.3023 8.88866 18.2867 8.91364V8.91364C18.2742 8.93362 18.2458 8.93526 18.2311 8.91685L18.0786 8.72595" fill="#009270"/>
<path fill-rule="evenodd" clip-rule="evenodd" d="M18.8164 11.2961C18.8919 10.7186 19.3655 9.89372 20.2496 9.76415C20.2989 9.75693 20.3185 9.81783 20.2762 9.8441L20.2626 9.85257C20.2368 9.86854 20.238 9.90638 20.2647 9.92068V9.92068C20.2937 9.9362 20.292 9.9783 20.2619 9.99143L20.1321 10.048C20.1061 10.0593 20.1021 10.0947 20.1251 10.1115V10.1115C20.1526 10.1316 20.1405 10.1751 20.1065 10.178L19.9989 10.1871C19.9594 10.1905 19.9439 10.2401 19.9745 10.2652V10.2652C20.0041 10.2896 19.9909 10.3374 19.953 10.3431L19.8177 10.3634L19.7256 10.3856C19.6845 10.3956 19.6686 10.4457 19.6966 10.4775V10.4775C19.7264 10.5112 19.7064 10.5645 19.6618 10.5704L19.6198 10.576C19.5804 10.5812 19.5692 10.6328 19.6028 10.654V10.654C19.6318 10.6722 19.6285 10.7158 19.5971 10.7296C19.5612 10.7454 19.5159 10.7656 19.4693 10.7874C19.3758 10.8311 19.3986 10.8811 19.5001 10.862C19.8834 10.7898 20.5682 10.7313 20.8822 11.1402C20.9189 11.188 20.8666 11.2402 20.8131 11.2124L20.758 11.1837C20.7346 11.1715 20.7072 11.191 20.7111 11.2171V11.2171C20.7155 11.2469 20.6803 11.2661 20.6577 11.2461L20.5877 11.1845C20.5711 11.1699 20.5455 11.1852 20.5506 11.2067V11.2067C20.5552 11.2265 20.5337 11.242 20.5165 11.2312L20.4285 11.1763C20.4048 11.1615 20.3748 11.1822 20.3802 11.2096V11.2096C20.3856 11.2378 20.3542 11.2584 20.3306 11.2421L20.2518 11.188C20.2321 11.1744 20.2064 11.1937 20.2139 11.2165V11.2165C20.2211 11.2382 20.1977 11.2574 20.1778 11.2461L20.0419 11.1686C20.0168 11.1542 19.987 11.1782 19.9957 11.2058V11.2058C20.0036 11.2314 19.9786 11.2548 19.9536 11.2451L19.8703 11.2128C19.834 11.1987 19.796 11.229 19.8017 11.2675V11.2675C19.8065 11.2997 19.7802 11.328 19.7477 11.3255L19.6749 11.32C19.6281 11.3165 19.5898 11.3567 19.5956 11.4033V11.4033C19.6013 11.4484 19.5655 11.488 19.5201 11.4868L19.1013 11.476C18.9804 11.4729 18.871 11.4034 18.8169 11.2952V11.2952" fill="#009270"/>
<path fill-rule="evenodd" clip-rule="evenodd" d="M18.5968 11.8885C18.5992 11.8522 18.6277 11.8248 18.664 11.8219V11.8219C18.7083 11.8183 18.7458 11.8538 18.7441 11.8983C18.6812 13.5715 18.7462 15.9131 18.9321 16.7889C19.2532 18.3015 20.19 18.8844 20.4128 19.0293C20.5392 19.1109 20.4907 19.4511 20.2372 19.428C19.9836 19.4049 19.1005 18.6183 18.7955 17.2107C18.4097 15.4281 18.5649 12.3892 18.5968 11.8885ZM18.6721 11.4633C18.6721 11.3529 18.7459 11.2638 18.8373 11.2638C18.9287 11.2638 19.0024 11.3529 19.0024 11.4633C19.0024 11.5737 18.9287 11.6628 18.8373 11.6628C18.7459 11.6628 18.6721 11.5737 18.6721 11.4633Z" fill="#7B4800"/>
<path fill-rule="evenodd" clip-rule="evenodd" d="M18.4199 11.3928C18.4199 11.3433 18.4362 11.2958 18.4652 11.2608C18.4942 11.2257 18.5335 11.2061 18.5745 11.2061C18.6155 11.2061 18.6548 11.2257 18.6838 11.2608C18.7128 11.2958 18.7291 11.3433 18.7291 11.3928C18.7291 11.4423 18.7128 11.4898 18.6838 11.5249C18.6548 11.5599 18.6155 11.5796 18.5745 11.5796C18.5335 11.5796 18.4942 11.5599 18.4652 11.5249C18.4362 11.4898 18.4199 11.4423 18.4199 11.3928Z" fill="#7B4800"/>
<path fill-rule="evenodd" clip-rule="evenodd" d="M18.4307 11.7183C18.4307 11.672 18.4459 11.6276 18.473 11.5949C18.5 11.5622 18.5368 11.5438 18.5751 11.5438C18.6134 11.5438 18.6501 11.5622 18.6772 11.5949C18.7043 11.6276 18.7195 11.672 18.7195 11.7183C18.7195 11.7645 18.7043 11.8089 18.6772 11.8416C18.6501 11.8743 18.6134 11.8927 18.5751 11.8927C18.5368 11.8927 18.5 11.8743 18.473 11.8416C18.4459 11.8089 18.4307 11.7645 18.4307 11.7183Z" fill="#7B4800"/>
<path fill-rule="evenodd" clip-rule="evenodd" d="M18.6172 11.6306C18.6172 11.5811 18.6335 11.5336 18.6625 11.4985C18.6915 11.4635 18.7308 11.4438 18.7718 11.4438C18.8128 11.4438 18.8521 11.4635 18.8811 11.4985C18.9101 11.5336 18.9264 11.5811 18.9264 11.6306C18.9264 11.6801 18.9101 11.7276 18.8811 11.7627C18.8521 11.7977 18.8128 11.8173 18.7718 11.8173C18.7308 11.8173 18.6915 11.7977 18.6625 11.7627C18.6335 11.7276 18.6172 11.6801 18.6172 11.6306Z" fill="#7B4800"/>
<path fill-rule="evenodd" clip-rule="evenodd" d="M17.1943 17.4515C17.1943 17.4971 17.2313 17.5341 17.2769 17.5341V17.5341C17.3225 17.5341 17.3595 17.4971 17.3595 17.4515V15.4701C17.3595 15.4245 17.3225 15.3876 17.2769 15.3876V15.3876C17.2313 15.3876 17.1943 15.4245 17.1943 15.4701V17.4515Z" fill="black"/>
<path fill-rule="evenodd" clip-rule="evenodd" d="M17.7299 17.9384L17.6443 17.9535C17.5975 17.9617 17.5546 17.9257 17.5546 17.8783V17.8566C17.5546 17.8264 17.5301 17.8019 17.4999 17.8019V17.8019C17.4696 17.8019 17.4451 17.8264 17.4451 17.8566V17.8957C17.4451 17.9452 17.4067 17.9861 17.3573 17.9893L17.0542 18.0086C16.9339 18.0086 16.8126 18.0001 16.7047 17.9889C16.6585 17.9841 16.6238 17.9448 16.6238 17.8983V17.8669C16.6238 17.8335 16.5967 17.8064 16.5634 17.8064V17.8064C16.53 17.8064 16.5029 17.8335 16.5029 17.8669V17.8782C16.5029 17.9226 16.4628 17.9564 16.419 17.9489L16.4107 17.9475C16.3671 17.94 16.3327 17.973 16.3623 18.0059C16.4201 18.07 16.5836 18.1538 17.0438 18.1538C17.7893 18.1538 17.7304 17.9384 17.7304 17.9384" fill="#7B4800"/>
<path fill-rule="evenodd" clip-rule="evenodd" d="M17.0226 17.5275V17.5275C17.6289 17.5275 17.8252 17.8445 17.2197 17.8747C17.1582 17.8777 17.0926 17.8794 17.0226 17.8794C16.9634 17.8794 16.9073 17.8784 16.8543 17.8765C16.2198 17.854 16.3883 17.5004 17.0226 17.5275V17.5275Z" fill="#7B4800"/>
<path fill-rule="evenodd" clip-rule="evenodd" d="M16.4572 16.7409C16.5811 16.218 16.7044 15.5519 17.069 15.9467V15.9467C17.4176 16.324 17.2013 17.2513 16.6994 17.3606C16.6381 17.3739 16.5791 17.3914 16.5241 17.4138C16.4932 17.4264 16.4604 17.4344 16.4271 17.4344V17.4344C16.3045 17.4344 16.2522 17.3472 16.2991 17.2339C16.3483 17.1149 16.4083 16.947 16.4572 16.7409Z" fill="white"/>
<path fill-rule="evenodd" clip-rule="evenodd" d="M16.6356 14.302C16.6463 14.3529 16.6046 14.3974 16.5526 14.3974V14.3974C16.5084 14.3974 16.4723 14.3644 16.458 14.3226C16.4404 14.2715 16.4136 14.2335 16.3775 14.2093C16.3485 14.1892 16.3164 14.1799 16.2812 14.1799C16.2129 14.1799 16.1575 14.2189 16.1138 14.2996C16.0701 14.3803 16.048 14.5003 16.048 14.6602C16.048 14.8225 16.0718 14.9365 16.119 15.0046C16.1662 15.0712 16.2201 15.1048 16.2804 15.1048C16.3395 15.1048 16.3877 15.0784 16.4257 15.025C16.4476 14.9942 16.4645 14.9581 16.4766 14.9163C16.492 14.8635 16.4478 14.8153 16.3929 14.8153V14.8153C16.3417 14.8153 16.3003 14.7739 16.3003 14.7227V14.7057C16.3003 14.6451 16.3494 14.596 16.4099 14.596H16.4759C16.5728 14.596 16.6514 14.6746 16.6514 14.7716V15.2405C16.6514 15.2744 16.624 15.3019 16.59 15.3019H16.5712C16.5506 15.3019 16.5333 15.2864 16.5311 15.2659V15.2659C16.5268 15.2266 16.4724 15.2154 16.4475 15.2461C16.44 15.2553 16.4327 15.2633 16.4257 15.2701C16.3793 15.3148 16.3221 15.337 16.2541 15.337C16.1426 15.337 16.0507 15.2764 15.9797 15.1555C15.9054 15.0346 15.8682 14.8684 15.8682 14.6578C15.8682 14.4448 15.9059 14.2735 15.9812 14.1451C16.0564 14.0167 16.1553 13.9525 16.2789 13.9525C16.386 13.9525 16.4721 13.9951 16.537 14.08C16.5848 14.1427 16.6177 14.2166 16.6356 14.302ZM17.474 14.7955V14.0758C17.474 14.0264 17.514 13.9864 17.5634 13.9864V13.9864C17.6127 13.9864 17.6528 14.0264 17.6528 14.0758V14.7955C17.6528 14.8855 17.66 14.9515 17.6736 14.9932C17.695 15.0667 17.7412 15.1039 17.8132 15.1039C17.8852 15.1039 17.9307 15.0667 17.9523 14.9932C17.9662 14.9512 17.9724 14.8855 17.9724 14.7955V14.0761C17.9724 14.0266 18.0125 13.9864 18.062 13.9864V13.9864C18.1116 13.9864 18.1517 14.0266 18.1517 14.0761V14.7955C18.1517 14.935 18.1378 15.0436 18.1102 15.1222C18.0581 15.2644 17.9595 15.3358 17.8132 15.3358C17.6669 15.3358 17.5678 15.265 17.5157 15.1222C17.4879 15.0445 17.474 14.935 17.474 14.7955ZM19.4654 13.9858C19.4076 13.9858 19.3574 14.0258 19.3445 14.0821L19.0903 15.1927C19.0774 15.2489 19.1201 15.3025 19.1778 15.3025V15.3025C19.2201 15.3025 19.2567 15.273 19.2656 15.2316L19.2794 15.1672C19.2964 15.0883 19.3661 15.0319 19.4469 15.0319H19.4809C19.5612 15.0319 19.6303 15.0885 19.6462 15.1672L19.6587 15.2288C19.6673 15.2717 19.705 15.3025 19.7488 15.3025V15.3025C19.8078 15.3025 19.8515 15.2477 19.8384 15.1902L19.5862 14.0823C19.5734 14.0258 19.5232 13.9858 19.4654 13.9858V13.9858ZM19.3779 14.6993C19.3971 14.6068 19.5293 14.607 19.5482 14.6996V14.6996C19.5592 14.7535 19.518 14.8039 19.463 14.8039V14.8039C19.4079 14.8039 19.3667 14.7533 19.3779 14.6993V14.6993ZM20.9771 15.0205L21.1122 14.1025C21.1221 14.0358 21.1793 13.9864 21.2467 13.9864V13.9864C21.3218 13.9864 21.3827 14.0473 21.3827 14.1223V15.2195C21.3827 15.2649 21.3459 15.3016 21.3006 15.3016V15.3016C21.2552 15.3016 21.2185 15.2649 21.2185 15.2195V14.4124L21.2192 14.3044L21.22 14.1982L21.0725 15.217C21.0655 15.2656 21.0239 15.3016 20.9748 15.3016V15.3016C20.9257 15.3016 20.884 15.2655 20.877 15.2169L20.7307 14.1982L20.7315 14.3044L20.7322 14.4124V15.2195C20.7322 15.2649 20.6955 15.3016 20.6502 15.3016V15.3016C20.6048 15.3016 20.5681 15.2649 20.5681 15.2195V14.124C20.5681 14.048 20.6297 13.9864 20.7057 13.9864V13.9864C20.7739 13.9864 20.8318 14.0364 20.8418 14.1038L20.9776 15.0205" fill="#C62139"/>
</svg>
