<svg width="40" height="31" viewBox="0 0 40 31" fill="none" xmlns="http://www.w3.org/2000/svg">
<path d="M1 1.77051C1 1.21822 1.44772 0.770508 2 0.770508H37.4991C38.0514 0.770508 38.4991 1.21822 38.4991 1.77051V28.9986C38.4991 29.5509 38.0514 29.9986 37.4991 29.9986H2C1.44772 29.9986 1 29.5509 1 28.9986V1.77051Z" fill="white"/>
<path fill-rule="evenodd" clip-rule="evenodd" d="M38.4994 20.9919C38.4993 21.3162 38.2873 21.6034 37.9746 21.6893C36.9353 21.9749 35.883 22.1784 34.8237 22.2986C34.7741 22.3042 34.7244 22.3063 34.6747 22.3026C33.7056 22.2298 31.9245 21.5005 30.9991 21.5379C30.0495 21.5763 28.1988 22.3457 27.2491 22.3069C26.2995 22.2681 24.4488 21.4995 23.4991 21.5379C22.5495 21.5763 20.6988 22.3457 19.7491 22.3069C18.7995 22.2681 16.9488 21.4995 15.9991 21.5379C15.0495 21.5763 13.1988 22.3438 12.2491 22.3069C11.2995 22.27 9.44875 21.5069 8.49913 21.5379C7.54951 21.5689 5.69875 22.3069 4.74913 22.3069C3.67054 22.1719 2.59845 21.9644 1.53734 21.6855C1.21827 21.6016 1 21.3105 1 20.9806V20.9806C1 20.4891 1.4708 20.1345 1.94823 20.2513C2.87525 20.4783 3.81016 20.6509 4.75 20.7685C5.69962 20.7685 7.55038 20.0301 8.5 19.9994C9.44962 19.9688 11.3004 20.7316 12.25 20.7685C13.1996 20.8054 15.0504 20.0378 16 19.9994C16.9496 19.961 18.8004 20.7301 19.75 20.7685C20.6996 20.8069 22.5504 20.0378 23.5 19.9994C24.4496 19.961 26.3004 20.7301 27.25 20.7685C28.1996 20.8069 30.0504 20.0378 31 19.9994C31.9254 19.962 33.7065 20.6913 34.6755 20.7641C34.7253 20.7679 34.7749 20.7658 34.8245 20.7602C35.7374 20.6566 36.6451 20.4911 37.5437 20.2646C38.0227 20.1439 38.4997 20.4979 38.4994 20.9919V20.9919Z" fill="white"/>
<path d="M38.4994 22.5298C38.4993 22.854 38.2873 23.1412 37.9746 23.2272C36.9353 23.5127 35.883 23.7162 34.8237 23.8364C34.7741 23.8421 34.7244 23.8441 34.6747 23.8404C33.7056 23.7676 31.9245 23.0383 30.9991 23.0757C30.0495 23.1141 28.1988 23.8835 27.2491 23.8448C26.2995 23.806 24.4488 23.0373 23.4991 23.0757C22.5495 23.1141 20.6988 23.8835 19.7491 23.8448C18.7995 23.806 16.9488 23.0373 15.9991 23.0757C15.0495 23.1141 13.1988 23.8817 12.2491 23.8448C11.2995 23.8078 9.44875 23.0447 8.49913 23.0757C7.54951 23.1067 5.69875 23.8448 4.74913 23.8448C3.67054 23.7097 2.59845 23.5023 1.53734 23.2233C1.21827 23.1395 1 22.8484 1 22.5185V22.5185C1 22.0269 1.4708 21.6723 1.94823 21.7892C2.87525 22.0161 3.81016 22.1887 4.75 22.3063C5.69962 22.3063 7.55038 21.5679 8.5 21.5373C9.44962 21.5066 11.3004 22.2694 12.25 22.3063C13.1996 22.3432 15.0504 21.5757 16 21.5373C16.9496 21.4989 18.8004 22.2679 19.75 22.3063C20.6996 22.3447 22.5504 21.5757 23.5 21.5373C24.4496 21.4989 26.3004 22.2679 27.25 22.3063C28.1996 22.3447 30.0504 21.5757 31 21.5373C31.9254 21.4999 33.7065 22.2292 34.6755 22.302C34.7253 22.3057 34.7749 22.3036 34.8245 22.298C35.7374 22.1944 36.6451 22.029 37.5437 21.8025C38.0227 21.6817 38.4997 22.0358 38.4994 22.5298V22.5298Z" fill="#1E50A0"/>
<path d="M38.4994 24.0684C38.4993 24.3926 38.2873 24.6798 37.9746 24.7657C36.9353 25.0513 35.883 25.2548 34.8237 25.375C34.7741 25.3806 34.7244 25.3827 34.6747 25.379C33.7056 25.3062 31.9245 24.5769 30.9991 24.6143C30.0495 24.6527 28.1988 25.4221 27.2491 25.3833C26.2995 25.3446 24.4488 24.5759 23.4991 24.6143C22.5495 24.6527 20.6988 25.4221 19.7491 25.3833C18.7995 25.3446 16.9488 24.5759 15.9991 24.6143C15.0495 24.6527 13.1988 25.4202 12.2491 25.3833C11.2995 25.3464 9.44875 24.5833 8.49913 24.6143C7.54951 24.6453 5.69875 25.3833 4.74913 25.3833C3.67054 25.2483 2.59845 25.0409 1.53734 24.7619C1.21827 24.6781 1 24.3869 1 24.057V24.057C1 23.5655 1.4708 23.2109 1.94823 23.3278C2.87525 23.5547 3.81016 23.7273 4.75 23.8449C5.69962 23.8449 7.55038 23.1065 8.5 23.0759C9.44962 23.0452 11.3004 23.808 12.25 23.8449C13.1996 23.8818 15.0504 23.1143 16 23.0759C16.9496 23.0375 18.8004 23.8065 19.75 23.8449C20.6996 23.8833 22.5504 23.1143 23.5 23.0759C24.4496 23.0375 26.3004 23.8065 27.25 23.8449C28.1996 23.8833 30.0504 23.1143 31 23.0759C31.9254 23.0384 33.7065 23.7677 34.6755 23.8405C34.7253 23.8443 34.7749 23.8422 34.8245 23.8366C35.7374 23.733 36.6451 23.5676 37.5437 23.341C38.0227 23.2203 38.4997 23.5743 38.4994 24.0684V24.0684Z" fill="white"/>
<path d="M38.4994 25.6067C38.4993 25.9309 38.2873 26.2181 37.9746 26.3041C36.9353 26.5896 35.883 26.7931 34.8237 26.9133C34.7741 26.919 34.7244 26.9211 34.6747 26.9173C33.7056 26.8445 31.9245 26.1152 30.9991 26.1526C30.0495 26.191 28.1988 26.9604 27.2491 26.9217C26.2995 26.8829 24.4488 26.1142 23.4991 26.1526C22.5495 26.191 20.6988 26.9604 19.7491 26.9217C18.7995 26.8829 16.9488 26.1142 15.9991 26.1526C15.0495 26.191 13.1988 26.9586 12.2491 26.9217C11.2995 26.8847 9.44875 26.1216 8.49913 26.1526C7.54951 26.1836 5.69875 26.9217 4.74913 26.9217C3.67054 26.7866 2.59845 26.5792 1.53734 26.3003C1.21827 26.2164 1 25.9253 1 25.5954V25.5954C1 25.1038 1.4708 24.7492 1.94823 24.8661C2.87525 25.093 3.81016 25.2656 4.75 25.3832C5.69962 25.3832 7.55038 24.6448 8.5 24.6142C9.44962 24.5835 11.3004 25.3463 12.25 25.3832C13.1996 25.4201 15.0504 24.6526 16 24.6142C16.9496 24.5758 18.8004 25.3448 19.75 25.3832C20.6996 25.4216 22.5504 24.6526 23.5 24.6142C24.4496 24.5758 26.3004 25.3448 27.25 25.3832C28.1996 25.4216 30.0504 24.6526 31 24.6142C31.9254 24.5768 33.7065 25.3061 34.6755 25.3789C34.7253 25.3826 34.7749 25.3805 34.8245 25.3749C35.7374 25.2713 36.6451 25.1059 37.5437 24.8794C38.0227 24.7586 38.4997 25.1127 38.4994 25.6067V25.6067ZM38.4995 28.773C38.4993 29.4059 37.9186 29.8795 37.2986 29.7523L34.8286 29.2458C34.7757 29.2349 34.7223 29.2279 34.6683 29.2281C33.6978 29.2331 31.9225 29.9612 30.9991 29.9985C30.0495 30.0369 28.1988 29.2679 27.2491 29.2295C26.2995 29.1911 24.4488 29.9601 23.4991 29.9985C22.5495 30.0369 20.6988 29.2679 19.7491 29.2295C18.7995 29.1911 16.9488 29.9601 15.9991 29.9985C15.0495 30.0369 13.1988 29.2664 12.2491 29.2295C11.2995 29.1926 9.44875 29.9679 8.49913 29.9985C7.54951 30.0292 5.69875 29.2295 4.74913 29.2295C3.92315 29.3329 3.10098 29.4788 2.28463 29.6667C1.63682 29.8158 1 29.3363 1 28.6716L1 28.2489C1 27.5842 1.6368 27.1047 2.2846 27.2538C3.10125 27.4418 3.92372 27.5877 4.75 27.6911C5.69962 27.6911 7.55038 26.9527 8.5 26.922C9.44962 26.8914 11.3004 27.6541 12.25 27.6911C13.1996 27.728 15.0504 26.9604 16 26.922C16.9496 26.8836 18.8004 27.6527 19.75 27.6911C20.6996 27.7295 22.5504 26.9604 23.5 26.922C24.4496 26.8836 26.3004 27.6527 27.25 27.6911C28.1996 27.7295 30.0504 26.9604 31 26.922C31.9254 26.8846 33.7065 27.6139 34.6755 27.6867C34.7253 27.6905 34.7749 27.6884 34.8245 27.6827C35.6206 27.5924 36.4127 27.455 37.1983 27.2712C37.8517 27.1182 38.4998 27.5989 38.4996 28.2699L38.4995 28.773Z" fill="#1E50A0"/>
<path d="M38.4994 27.145C38.4993 27.4693 38.2873 27.7565 37.9746 27.8424C36.9353 28.128 35.883 28.3315 34.8237 28.4517C34.7741 28.4573 34.7244 28.4594 34.6747 28.4556C33.7056 28.3828 31.9245 27.6535 30.9991 27.691C30.0495 27.7293 28.1988 28.4988 27.2491 28.46C26.2995 28.4212 24.4488 27.6526 23.4991 27.691C22.5495 27.7293 20.6988 28.4988 19.7491 28.46C18.7995 28.4212 16.9488 27.6526 15.9991 27.691C15.0495 27.7293 13.1988 28.4969 12.2491 28.46C11.2995 28.4231 9.44875 27.6599 8.49913 27.691C7.54951 27.722 5.69875 28.46 4.74913 28.46C3.67054 28.325 2.59845 28.1175 1.53734 27.8386C1.21827 27.7547 1 27.4636 1 27.1337V27.1337C1 26.6422 1.4708 26.2875 1.94823 26.4044C2.87525 26.6314 3.81016 26.804 4.75 26.9215C5.69962 26.9215 7.55038 26.1832 8.5 26.1525C9.44962 26.1219 11.3004 26.8846 12.25 26.9215C13.1996 26.9585 15.0504 26.1909 16 26.1525C16.9496 26.1141 18.8004 26.8832 19.75 26.9215C20.6996 26.9599 22.5504 26.1909 23.5 26.1525C24.4496 26.1141 26.3004 26.8832 27.25 26.9215C28.1996 26.9599 30.0504 26.1909 31 26.1525C31.9254 26.1151 33.7065 26.8444 34.6755 26.9172C34.7253 26.9209 34.7749 26.9189 34.8245 26.9132C35.7374 26.8097 36.6451 26.6442 37.5437 26.4177C38.0227 26.2969 38.4997 26.651 38.4994 27.145V27.145Z" fill="white"/>
<path d="M38.4994 16.3767C38.4993 16.7009 38.2873 16.9882 37.9746 17.0741C36.9353 17.3597 35.883 17.5632 34.8237 17.6834C34.7741 17.689 34.7244 17.6911 34.6747 17.6873C33.7056 17.6145 31.9245 16.8852 30.9991 16.9226C30.0495 16.961 28.1988 17.7304 27.2491 17.6917C26.2995 17.6529 24.4488 16.8842 23.4991 16.9226C22.5495 16.961 20.6988 17.7304 19.7491 17.6917C18.7995 17.6529 16.9488 16.8842 15.9991 16.9226C15.0495 16.961 13.1988 17.7286 12.2491 17.6917C11.2995 17.6548 9.44875 16.8916 8.49913 16.9226C7.54951 16.9537 5.69875 17.6917 4.74913 17.6917C3.67054 17.5566 2.59845 17.3492 1.53734 17.0703C1.21827 16.9864 1 16.6953 1 16.3654V16.3654C1 15.8738 1.4708 15.5192 1.94823 15.6361C2.87525 15.8631 3.81016 16.0356 4.75 16.1532C5.69962 16.1532 7.55038 15.4148 8.5 15.3842C9.44962 15.3536 11.3004 16.1163 12.25 16.1532C13.1996 16.1902 15.0504 15.4226 16 15.3842C16.9496 15.3458 18.8004 16.1148 19.75 16.1532C20.6996 16.1916 22.5504 15.4226 23.5 15.3842C24.4496 15.3458 26.3004 16.1148 27.25 16.1532C28.1996 16.1916 30.0504 15.4226 31 15.3842C31.9254 15.3468 33.7065 16.0761 34.6755 16.1489C34.7253 16.1526 34.7749 16.1505 34.8245 16.1449C35.7374 16.0413 36.6451 15.8759 37.5437 15.6494C38.0227 15.5286 38.4997 15.8827 38.4994 16.3767V16.3767Z" fill="#1E50A0"/>
<path d="M38.4994 17.915C38.4993 18.2393 38.2873 18.5265 37.9746 18.6124C36.9353 18.898 35.883 19.1015 34.8237 19.2217C34.7741 19.2273 34.7244 19.2294 34.6747 19.2257C33.7056 19.1529 31.9245 18.4236 30.9991 18.461C30.0495 18.4994 28.1988 19.2688 27.2491 19.23C26.2995 19.1912 24.4488 18.4226 23.4991 18.461C22.5495 18.4994 20.6988 19.2688 19.7491 19.23C18.7995 19.1912 16.9488 18.4226 15.9991 18.461C15.0495 18.4994 13.1988 19.2669 12.2491 19.23C11.2995 19.1931 9.44875 18.43 8.49913 18.461C7.54951 18.492 5.69875 19.23 4.74913 19.23C3.67054 19.095 2.59845 18.8875 1.53734 18.6086C1.21827 18.5247 1 18.2336 1 17.9037V17.9037C1 17.4122 1.4708 17.0576 1.94823 17.1744C2.87525 17.4014 3.81016 17.574 4.75 17.6916C5.69962 17.6916 7.55038 16.9532 8.5 16.9225C9.44962 16.8919 11.3004 17.6546 12.25 17.6916C13.1996 17.7285 15.0504 16.9609 16 16.9225C16.9496 16.8841 18.8004 17.6532 19.75 17.6916C20.6996 17.73 22.5504 16.9609 23.5 16.9225C24.4496 16.8841 26.3004 17.6532 27.25 17.6916C28.1996 17.73 30.0504 16.9609 31 16.9225C31.9254 16.8851 33.7065 17.6144 34.6755 17.6872C34.7253 17.691 34.7749 17.6889 34.8245 17.6832C35.7374 17.5797 36.6451 17.4142 37.5437 17.1877C38.0227 17.067 38.4997 17.421 38.4994 17.915V17.915Z" fill="white"/>
<path d="M38.4994 19.4534C38.4993 19.7776 38.2873 20.0648 37.9746 20.1507C36.9353 20.4363 35.883 20.6398 34.8237 20.76C34.7741 20.7656 34.7244 20.7677 34.6747 20.764C33.7056 20.6912 31.9245 19.9619 30.9991 19.9993C30.0495 20.0377 28.1988 20.8071 27.2491 20.7683C26.2995 20.7296 24.4488 19.9609 23.4991 19.9993C22.5495 20.0377 20.6988 20.8071 19.7491 20.7683C18.7995 20.7296 16.9488 19.9609 15.9991 19.9993C15.0495 20.0377 13.1988 20.8053 12.2491 20.7683C11.2995 20.7314 9.44875 19.9683 8.49913 19.9993C7.54951 20.0303 5.69875 20.7683 4.74913 20.7683C3.67054 20.6333 2.59845 20.4259 1.53734 20.1469C1.21827 20.0631 1 19.772 1 19.442V19.442C1 18.9505 1.4708 18.5959 1.94823 18.7128C2.87525 18.9397 3.81016 19.1123 4.75 19.2299C5.69962 19.2299 7.55038 18.4915 8.5 18.4609C9.44962 18.4302 11.3004 19.193 12.25 19.2299C13.1996 19.2668 15.0504 18.4993 16 18.4609C16.9496 18.4225 18.8004 19.1915 19.75 19.2299C20.6996 19.2683 22.5504 18.4993 23.5 18.4609C24.4496 18.4225 26.3004 19.1915 27.25 19.2299C28.1996 19.2683 30.0504 18.4993 31 18.4609C31.9254 18.4234 33.7065 19.1528 34.6755 19.2256C34.7253 19.2293 34.7749 19.2272 34.8245 19.2216C35.7374 19.118 36.6451 18.9526 37.5437 18.726C38.0227 18.6053 38.4997 18.9593 38.4994 19.4534V19.4534Z" fill="#1E50A0"/>
<path fill-rule="evenodd" clip-rule="evenodd" d="M38.4994 20.9919C38.4993 21.3162 38.2873 21.6034 37.9746 21.6893C36.9353 21.9749 35.883 22.1784 34.8237 22.2986C34.7741 22.3042 34.7244 22.3063 34.6747 22.3026C33.7056 22.2298 31.9245 21.5005 30.9991 21.5379C30.0495 21.5763 28.1988 22.3457 27.2491 22.3069C26.2995 22.2681 24.4488 21.4995 23.4991 21.5379C22.5495 21.5763 20.6988 22.3457 19.7491 22.3069C18.7995 22.2681 16.9488 21.4995 15.9991 21.5379C15.0495 21.5763 13.1988 22.3438 12.2491 22.3069C11.2995 22.27 9.44875 21.5069 8.49913 21.5379C7.54951 21.5689 5.69875 22.3069 4.74913 22.3069C3.67054 22.1719 2.59845 21.9644 1.53734 21.6855C1.21827 21.6016 1 21.3105 1 20.9806V20.9806C1 20.4891 1.4708 20.1345 1.94823 20.2513C2.87525 20.4783 3.81016 20.6509 4.75 20.7685C5.69962 20.7685 7.55038 20.0301 8.5 19.9994C9.44962 19.9688 11.3004 20.7316 12.25 20.7685C13.1996 20.8054 15.0504 20.0378 16 19.9994C16.9496 19.961 18.8004 20.7301 19.75 20.7685C20.6996 20.8069 22.5504 20.0378 23.5 19.9994C24.4496 19.961 26.3004 20.7301 27.25 20.7685C28.1996 20.8069 30.0504 20.0378 31 19.9994C31.9254 19.962 33.7065 20.6913 34.6755 20.7641C34.7253 20.7679 34.7749 20.7658 34.8245 20.7602C35.7374 20.6566 36.6451 20.4911 37.5437 20.2646C38.0227 20.1439 38.4997 20.4979 38.4994 20.9919V20.9919Z" fill="white"/>
<path d="M38.4994 10.2234C38.4993 10.5476 38.2873 10.8348 37.9746 10.9208C36.9353 11.2063 35.883 11.4098 34.8237 11.53C34.7741 11.5357 34.7244 11.5378 34.6747 11.534C33.7056 11.4612 31.9245 10.7319 30.9991 10.7693C30.0495 10.8077 28.1988 11.5771 27.2491 11.5384C26.2995 11.4996 24.4488 10.7309 23.4991 10.7693C22.5495 10.8077 20.6988 11.5771 19.7491 11.5384C18.7995 11.4996 16.9488 10.7309 15.9991 10.7693C15.0495 10.8077 13.1988 11.5753 12.2491 11.5384C11.2995 11.5014 9.44875 10.7383 8.49913 10.7693C7.54951 10.8003 5.69875 11.5384 4.74913 11.5384C3.67054 11.4033 2.59845 11.1959 1.53734 10.917C1.21827 10.8331 1 10.542 1 10.2121V10.2121C1 9.72053 1.4708 9.3659 1.94823 9.48279C2.87525 9.70974 3.81016 9.88232 4.75 9.99992C5.69962 9.99992 7.55038 9.26153 8.5 9.23088C9.44962 9.20024 11.3004 9.963 12.25 9.99992C13.1996 10.0368 15.0504 9.26928 16 9.23088C16.9496 9.19249 18.8004 9.96152 19.75 9.99992C20.6996 10.0383 22.5504 9.26928 23.5 9.23088C24.4496 9.19249 26.3004 9.96152 27.25 9.99992C28.1996 10.0383 30.0504 9.26928 31 9.23088C31.9254 9.19347 33.7065 9.92278 34.6755 9.99557C34.7253 9.99931 34.7749 9.99723 34.8245 9.9916C35.7374 9.88802 36.6451 9.72258 37.5437 9.49606C38.0227 9.37531 38.4997 9.72936 38.4994 10.2234V10.2234Z" fill="#1E50A0"/>
<path d="M38.4994 11.762C38.4993 12.0862 38.2873 12.3734 37.9746 12.4593C36.9353 12.7449 35.883 12.9484 34.8237 13.0686C34.7741 13.0742 34.7244 13.0763 34.6747 13.0726C33.7056 12.9998 31.9245 12.2705 30.9991 12.3079C30.0495 12.3463 28.1988 13.1157 27.2491 13.0769C26.2995 13.0382 24.4488 12.2695 23.4991 12.3079C22.5495 12.3463 20.6988 13.1157 19.7491 13.0769C18.7995 13.0382 16.9488 12.2695 15.9991 12.3079C15.0495 12.3463 13.1988 13.1138 12.2491 13.0769C11.2995 13.04 9.44875 12.2769 8.49913 12.3079C7.54951 12.3389 5.69875 13.0769 4.74913 13.0769C3.67054 12.9419 2.59845 12.7345 1.53734 12.4555C1.21827 12.3717 1 12.0805 1 11.7506V11.7506C1 11.2591 1.4708 10.9045 1.94823 11.0214C2.87525 11.2483 3.81016 11.4209 4.75 11.5385C5.69962 11.5385 7.55038 10.8001 8.5 10.7695C9.44962 10.7388 11.3004 11.5016 12.25 11.5385C13.1996 11.5754 15.0504 10.8079 16 10.7695C16.9496 10.7311 18.8004 11.5001 19.75 11.5385C20.6996 11.5769 22.5504 10.8079 23.5 10.7695C24.4496 10.7311 26.3004 11.5001 27.25 11.5385C28.1996 11.5769 30.0504 10.8079 31 10.7695C31.9254 10.732 33.7065 11.4613 34.6755 11.5341C34.7253 11.5379 34.7749 11.5358 34.8245 11.5302C35.7374 11.4266 36.6451 11.2612 37.5437 11.0346C38.0227 10.9139 38.4997 11.2679 38.4994 11.762V11.762Z" fill="white"/>
<path d="M38.4994 13.3C38.4993 13.6243 38.2873 13.9115 37.9746 13.9974C36.9353 14.283 35.883 14.4865 34.8237 14.6067C34.7741 14.6123 34.7244 14.6144 34.6747 14.6107C33.7056 14.5379 31.9245 13.8086 30.9991 13.846C30.0495 13.8844 28.1988 14.6538 27.2491 14.615C26.2995 14.5762 24.4488 13.8076 23.4991 13.846C22.5495 13.8844 20.6988 14.6538 19.7491 14.615C18.7995 14.5762 16.9488 13.8076 15.9991 13.846C15.0495 13.8844 13.1988 14.6519 12.2491 14.615C11.2995 14.5781 9.44875 13.815 8.49913 13.846C7.54951 13.877 5.69875 14.615 4.74913 14.615C3.67054 14.48 2.59845 14.2725 1.53734 13.9936C1.21827 13.9097 1 13.6186 1 13.2887V13.2887C1 12.7972 1.4708 12.4426 1.94823 12.5595C2.87525 12.7864 3.81016 12.959 4.75 13.0766C5.69962 13.0766 7.55038 12.3382 8.5 12.3075C9.44962 12.2769 11.3004 13.0397 12.25 13.0766C13.1996 13.1135 15.0504 12.3459 16 12.3075C16.9496 12.2691 18.8004 13.0382 19.75 13.0766C20.6996 13.115 22.5504 12.3459 23.5 12.3075C24.4496 12.2691 26.3004 13.0382 27.25 13.0766C28.1996 13.115 30.0504 12.3459 31 12.3075C31.9254 12.2701 33.7065 12.9994 34.6755 13.0722C34.7253 13.076 34.7749 13.0739 34.8245 13.0683C35.7374 12.9647 36.6451 12.7992 37.5437 12.5727C38.0227 12.452 38.4997 12.806 38.4994 13.3V13.3Z" fill="#1E50A0"/>
<path d="M38.4994 14.8386C38.4993 15.1629 38.2873 15.4501 37.9746 15.536C36.9353 15.8216 35.883 16.0251 34.8237 16.1453C34.7741 16.1509 34.7244 16.153 34.6747 16.1492C33.7056 16.0764 31.9245 15.3471 30.9991 15.3846C30.0495 15.423 28.1988 16.1924 27.2491 16.1536C26.2995 16.1148 24.4488 15.3462 23.4991 15.3846C22.5495 15.423 20.6988 16.1924 19.7491 16.1536C18.7995 16.1148 16.9488 15.3462 15.9991 15.3846C15.0495 15.423 13.1988 16.1905 12.2491 16.1536C11.2995 16.1167 9.44875 15.3535 8.49913 15.3846C7.54951 15.4156 5.69875 16.1536 4.74913 16.1536C3.67054 16.0186 2.59845 15.8111 1.53734 15.5322C1.21827 15.4483 1 15.1572 1 14.8273V14.8273C1 14.3358 1.4708 13.9811 1.94823 14.098C2.87525 14.325 3.81016 14.4976 4.75 14.6152C5.69962 14.6152 7.55038 13.8768 8.5 13.8461C9.44962 13.8155 11.3004 14.5782 12.25 14.6152C13.1996 14.6521 15.0504 13.8845 16 13.8461C16.9496 13.8077 18.8004 14.5768 19.75 14.6152C20.6996 14.6535 22.5504 13.8845 23.5 13.8461C24.4496 13.8077 26.3004 14.5768 27.25 14.6152C28.1996 14.6535 30.0504 13.8845 31 13.8461C31.9254 13.8087 33.7065 14.538 34.6755 14.6108C34.7253 14.6145 34.7749 14.6125 34.8245 14.6068C35.7374 14.5033 36.6451 14.3378 37.5437 14.1113C38.0227 13.9905 38.4997 14.3446 38.4994 14.8386V14.8386Z" fill="white"/>
<path d="M38.4992 4.06979C38.4992 4.39409 38.2872 4.68142 37.9745 4.76735C36.9352 5.05291 35.883 5.2564 34.8237 5.37659C34.774 5.38222 34.7244 5.38431 34.6747 5.38057C33.7056 5.30777 31.9245 4.57846 30.9991 4.61588C30.0495 4.65427 28.1987 5.42368 27.2491 5.38491C26.2995 5.34614 24.4487 4.57748 23.4991 4.61588C22.5495 4.65427 20.6987 5.42368 19.7491 5.38491C18.7995 5.34614 16.9487 4.57748 15.9991 4.61588C15.0495 4.65427 13.1987 5.42183 12.2491 5.38491C11.2995 5.34799 9.44875 4.58486 8.49913 4.61588C7.54951 4.64689 5.69875 5.38491 4.74913 5.38491C3.6705 5.24988 2.59837 5.04242 1.53721 4.76347C1.21822 4.67962 1 4.38858 1 4.05875V4.05875C1 3.56733 1.47068 3.2128 1.948 3.32966C2.87509 3.55664 3.81008 3.72923 4.75 3.84684C5.69962 3.84684 7.55038 3.10845 8.5 3.07781C9.44962 3.04716 11.3004 3.80992 12.25 3.84684C13.1996 3.88376 15.0504 3.1162 16 3.07781C16.9496 3.03941 18.8004 3.80844 19.75 3.84684C20.6996 3.88524 22.5498 3.1162 23.4994 3.07781C24.449 3.03941 26.2998 3.80844 27.2494 3.84684C28.199 3.88524 30.0498 3.1162 30.9994 3.07781C31.9248 3.04039 33.7059 3.7697 34.6749 3.8425C34.7247 3.84624 34.7743 3.84415 34.8239 3.83852C35.737 3.73493 36.6448 3.56944 37.5436 3.34286C38.0224 3.22214 38.4993 3.57594 38.4992 4.06979V4.06979Z" fill="#1E50A0"/>
<path d="M38.4994 5.60864C38.4993 5.93287 38.2873 6.2201 37.9746 6.30601C36.9353 6.59159 35.883 6.79509 34.8237 6.91529C34.7741 6.92092 34.7244 6.923 34.6747 6.91926C33.7056 6.84647 31.9245 6.11716 30.9991 6.15457C30.0495 6.19297 28.1988 6.96237 27.2491 6.92361C26.2995 6.88484 24.4488 6.11618 23.4991 6.15457C22.5495 6.19297 20.6988 6.96237 19.7491 6.92361C18.7995 6.88484 16.9488 6.11618 15.9991 6.15457C15.0495 6.19297 13.1988 6.96053 12.2491 6.92361C11.2995 6.88669 9.44875 6.12356 8.49913 6.15457C7.54951 6.18559 5.69875 6.92361 4.74913 6.92361C3.67054 6.78858 2.59845 6.58114 1.53734 6.30221C1.21827 6.21833 1 5.92723 1 5.59732V5.59732C1 5.10578 1.4708 4.75116 1.94823 4.86804C2.87525 5.095 3.81016 5.26757 4.75 5.38517C5.69962 5.38517 7.55038 4.64678 8.5 4.61614C9.44962 4.58549 11.3004 5.34825 12.25 5.38517C13.1996 5.42209 15.0504 4.65453 16 4.61614C16.9496 4.57774 18.8004 5.34677 19.75 5.38517C20.6996 5.42357 22.5504 4.65453 23.5 4.61614C24.4496 4.57774 26.3004 5.34677 27.25 5.38517C28.1996 5.42357 30.0504 4.65453 31 4.61614C31.9254 4.57872 33.7065 5.30803 34.6755 5.38083C34.7253 5.38457 34.7749 5.38248 34.8245 5.37685C35.7374 5.27328 36.6451 5.10783 37.5437 4.88132C38.0227 4.76056 38.4997 5.11461 38.4994 5.60864V5.60864Z" fill="white"/>
<path d="M38.4991 0.993237C38.4991 1.3176 38.2871 1.60503 37.9744 1.69097C36.9352 1.97651 35.8829 2.17999 34.8237 2.30018C34.7741 2.3058 34.7244 2.30789 34.6747 2.30415C33.7056 2.23135 31.9245 1.50204 30.9991 1.53946C30.0495 1.57786 28.1988 2.34726 27.2491 2.30849C26.2995 2.26973 24.449 1.50106 23.4994 1.53946C22.5498 1.57786 20.699 2.34726 19.7494 2.30849C18.7998 2.26973 16.949 1.50106 15.9994 1.53946C15.0498 1.57786 13.199 2.34541 12.2494 2.30849C11.2998 2.27157 9.44904 1.50845 8.49942 1.53946C7.5498 1.57047 5.69904 2.30849 4.74942 2.30849C3.67069 2.17347 2.59846 1.96602 1.53722 1.68705C1.21822 1.6032 1 1.31216 1 0.982333V0.982333C1 0.490916 1.47068 0.13638 1.948 0.253241C2.87509 0.48022 3.81008 0.652818 4.75 0.770425C5.69962 0.770425 7.55038 0.0320341 8.5 0.00139083C9.44962 -0.0292524 11.3004 0.733505 12.25 0.770425C13.1996 0.807345 15.0501 0.0397872 15.9997 0.00139083C16.9493 -0.0370055 18.8001 0.732029 19.7497 0.770425C20.6993 0.808821 22.5498 0.0397872 23.4994 0.00139083C24.449 -0.0370055 26.2998 0.732029 27.2494 0.770425C28.199 0.808821 30.0498 0.0397872 30.9991 0.00139083C31.9242 -0.0360251 33.7056 0.693284 34.6747 0.76608C34.7244 0.76982 34.7741 0.767736 34.8237 0.762107C35.7368 0.658506 36.6446 0.49301 37.5434 0.266412C38.0223 0.145693 38.4991 0.49942 38.4991 0.993237V0.993237Z" fill="#1E50A0"/>
<path d="M38.4992 2.53195C38.4992 2.85625 38.2872 3.14358 37.9745 3.22951C36.9352 3.51507 35.883 3.71856 34.8237 3.83875C34.774 3.84438 34.7244 3.84646 34.6747 3.84272C33.7056 3.76993 31.9245 3.04062 30.9991 3.07803C30.0495 3.11643 28.1987 3.88583 27.2491 3.84707C26.2995 3.8083 24.449 3.03964 23.4994 3.07803C22.5498 3.11643 20.699 3.88583 19.7494 3.84707C18.7998 3.8083 16.949 3.03964 15.9994 3.07803C15.0498 3.11643 13.199 3.88399 12.2494 3.84707C11.2998 3.81015 9.44904 3.04702 8.49942 3.07803C7.5498 3.10905 5.69904 3.84707 4.74942 3.84707C3.67069 3.71205 2.59846 3.50459 1.53722 3.22563C1.21822 3.14178 1 2.85074 1 2.52091V2.52091C1 2.02949 1.47068 1.67495 1.948 1.79182C2.87509 2.01879 3.81008 2.19139 4.75 2.309C5.69962 2.309 7.55038 1.57061 8.5 1.53997C9.44962 1.50932 11.3004 2.27208 12.25 2.309C13.1996 2.34592 15.0504 1.57836 16 1.53997C16.9496 1.50157 18.8004 2.2706 19.75 2.309C20.6996 2.3474 22.5498 1.57836 23.4994 1.53997C24.449 1.50157 26.2998 2.2706 27.2494 2.309C28.199 2.3474 30.0498 1.57836 30.9994 1.53997C31.9248 1.50255 33.7059 2.23186 34.6749 2.30465C34.7247 2.30839 34.7743 2.30631 34.8239 2.30068C35.737 2.19709 36.6448 2.0316 37.5436 1.80502C38.0224 1.6843 38.4993 2.0381 38.4992 2.53195V2.53195Z" fill="white"/>
<path d="M38.4994 7.14697C38.4993 7.4712 38.2873 7.75843 37.9746 7.84434C36.9353 8.12992 35.883 8.33342 34.8237 8.45362C34.7741 8.45925 34.7244 8.46133 34.6747 8.45759C33.7056 8.3848 31.9245 7.65549 30.9991 7.6929C30.0495 7.7313 28.1988 8.5007 27.2491 8.46194C26.2995 8.42317 24.4488 7.65451 23.4991 7.6929C22.5495 7.7313 20.6988 8.5007 19.7491 8.46194C18.7995 8.42317 16.9488 7.65451 15.9991 7.6929C15.0495 7.7313 13.1988 8.49886 12.2491 8.46194C11.2995 8.42502 9.44875 7.66189 8.49913 7.6929C7.54951 7.72392 5.69875 8.46194 4.74913 8.46194C3.67054 8.32691 2.59845 8.11947 1.53734 7.84054C1.21827 7.75666 1 7.46556 1 7.13565V7.13565C1 6.64411 1.4708 6.28949 1.94823 6.40637C2.87525 6.63333 3.81016 6.8059 4.75 6.9235C5.69962 6.9235 7.55038 6.18511 8.5 6.15447C9.44962 6.12382 11.3004 6.88658 12.25 6.9235C13.1996 6.96042 15.0504 6.19286 16 6.15447C16.9496 6.11607 18.8004 6.8851 19.75 6.9235C20.6996 6.9619 22.5504 6.19286 23.5 6.15447C24.4496 6.11607 26.3004 6.8851 27.25 6.9235C28.1996 6.9619 30.0504 6.19286 31 6.15447C31.9254 6.11705 33.7065 6.84636 34.6755 6.91916C34.7253 6.9229 34.7749 6.92081 34.8245 6.91518C35.7374 6.81161 36.6451 6.64616 37.5437 6.41965C38.0227 6.29889 38.4997 6.65294 38.4994 7.14697V7.14697Z" fill="#1E50A0"/>
<path d="M38.4994 8.6853C38.4993 9.00953 38.2873 9.29676 37.9746 9.38267C36.9353 9.66825 35.883 9.87175 34.8237 9.99195C34.7741 9.99758 34.7244 9.99966 34.6747 9.99592C33.7056 9.92313 31.9245 9.19382 30.9991 9.23123C30.0495 9.26963 28.1988 10.039 27.2491 10.0003C26.2995 9.9615 24.4488 9.19284 23.4991 9.23123C22.5495 9.26963 20.6988 10.039 19.7491 10.0003C18.7995 9.9615 16.9488 9.19284 15.9991 9.23123C15.0495 9.26963 13.1988 10.0372 12.2491 10.0003C11.2995 9.96335 9.44875 9.20022 8.49913 9.23123C7.54951 9.26225 5.69875 10.0003 4.74913 10.0003C3.67054 9.86524 2.59845 9.6578 1.53734 9.37887C1.21827 9.29499 1 9.00389 1 8.67398V8.67398C1 8.18244 1.4708 7.82782 1.94823 7.9447C2.87525 8.17166 3.81016 8.34423 4.75 8.46183C5.69962 8.46183 7.55038 7.72344 8.5 7.6928C9.44962 7.66215 11.3004 8.42491 12.25 8.46183C13.1996 8.49875 15.0504 7.73119 16 7.6928C16.9496 7.6544 18.8004 8.42343 19.75 8.46183C20.6996 8.50023 22.5504 7.73119 23.5 7.6928C24.4496 7.6544 26.3004 8.42343 27.25 8.46183C28.1996 8.50023 30.0504 7.73119 31 7.6928C31.9254 7.65538 33.7065 8.38469 34.6755 8.45749C34.7253 8.46123 34.7749 8.45914 34.8245 8.45351C35.7374 8.34994 36.6451 8.18449 37.5437 7.95798C38.0227 7.83722 38.4997 8.19127 38.4994 8.6853V8.6853Z" fill="white"/>
<path d="M1 1.77051C1 1.21822 1.44772 0.770508 2 0.770508H18.7494C19.3017 0.770508 19.7494 1.21822 19.7494 1.77051V14.3844C19.7494 14.9367 19.3017 15.3844 18.7494 15.3844H2C1.44772 15.3844 1 14.9367 1 14.3844V1.77051Z" fill="#1E50A0"/>
<path d="M4.22413 1.74455C4.04986 1.61158 3.83672 1.53955 3.61752 1.53955H2.60449C2.05221 1.53955 1.60449 1.98727 1.60449 2.53955V2.83828C1.60449 3.15012 1.74997 3.4441 1.99788 3.63327L17.1295 15.1794C17.3038 15.3124 17.517 15.3844 17.7362 15.3844H18.7492C19.3015 15.3844 19.7492 14.9367 19.7492 14.3844V14.0857C19.7492 13.7738 19.6037 13.4798 19.3558 13.2907L4.22413 1.74455Z" fill="white"/>
<path d="M19.3558 3.63327C19.6037 3.44411 19.7492 3.15012 19.7492 2.83828V2.53955C19.7492 1.98727 19.3015 1.53955 18.7492 1.53955H17.7362C17.517 1.53955 17.3038 1.61158 17.1295 1.74456L1.99788 13.2907C1.74997 13.4798 1.60449 13.7738 1.60449 14.0857V14.3844C1.60449 14.9367 2.05221 15.3844 2.60449 15.3844H3.61752C3.83673 15.3844 4.04986 15.3124 4.22413 15.1794L19.3558 3.63327Z" fill="white"/>
<path d="M1.60449 7.15454C1.60449 6.60226 2.05221 6.15454 2.60449 6.15454H18.7492C19.3015 6.15454 19.7492 6.60226 19.7492 7.15454V9.76948C19.7492 10.3218 19.3015 10.7695 18.7492 10.7695H2.60449C2.05221 10.7695 1.60449 10.3218 1.60449 9.76948V7.15454Z" fill="white"/>
<path d="M8.8623 2.53955C8.8623 1.98727 9.31002 1.53955 9.8623 1.53955H11.4912C12.0435 1.53955 12.4912 1.98727 12.4912 2.53955V14.3844C12.4912 14.9367 12.0435 15.3844 11.4912 15.3844H9.86231C9.31002 15.3844 8.8623 14.9367 8.8623 14.3844V2.53955Z" fill="white"/>
<path d="M10.0723 2.14442C10.0723 1.81036 10.3431 1.53955 10.6771 1.53955V1.53955C11.0112 1.53955 11.282 1.81036 11.282 2.14442V14.7795C11.282 15.1136 11.0112 15.3844 10.6771 15.3844V15.3844C10.3431 15.3844 10.0723 15.1136 10.0723 14.7795V2.14442Z" fill="#D22F27"/>
<path d="M1.60449 8.46215C1.60449 8.03732 1.94888 7.69293 2.37371 7.69293H18.98C19.4048 7.69293 19.7492 8.03732 19.7492 8.46215V8.46215C19.7492 8.88698 19.4048 9.23137 18.98 9.23137H2.37371C1.94888 9.23137 1.60449 8.88698 1.60449 8.46215V8.46215ZM19.7492 13.5923C19.7492 13.5914 19.7488 13.5905 19.748 13.5899L16.2436 10.9156C16.1193 10.8208 15.9673 10.7694 15.811 10.7694V10.7694C15.1288 10.7694 14.8361 11.6355 15.3785 12.0494L18.3245 14.2973C18.9081 14.7426 19.7492 14.3264 19.7492 13.5923V13.5923V13.5923ZM18.0718 2.81949C18.6142 2.40562 18.3215 1.53955 17.6392 1.53955V1.53955C17.4829 1.53955 17.3309 1.59092 17.2066 1.68574L12.7204 5.10912C12.576 5.21928 12.4913 5.3905 12.4913 5.5721V5.5721C12.4913 5.89375 12.7521 6.15449 13.0737 6.15449H13.3955C13.5937 6.15449 13.7864 6.08937 13.944 5.96914L18.0718 2.81949ZM1.60449 3.33163C1.60449 3.33256 1.60493 3.33343 1.60567 3.334L5.11007 6.00829C5.23434 6.10312 5.38633 6.15449 5.54265 6.15449V6.15449C6.22492 6.15449 6.5176 5.28843 5.9752 4.87456L3.02919 2.62664C2.44555 2.18131 1.60449 2.5975 1.60449 3.33163V3.33163V3.33163ZM3.28192 14.1044C2.73952 14.5183 3.03221 15.3844 3.71448 15.3844V15.3844C3.87079 15.3844 4.02278 15.333 4.14704 15.2382L8.63328 11.8148C8.77765 11.7046 8.86237 11.5334 8.86237 11.3518V11.3518C8.86237 11.0302 8.60162 10.7694 8.27998 10.7694H7.95819C7.75999 10.7694 7.56728 10.8346 7.4097 10.9548L3.28192 14.1044Z" fill="#D22F27"/>
<path fill-rule="evenodd" clip-rule="evenodd" d="M1 1.77051C1 1.21822 1.44772 0.770508 2 0.770508H37.4991C38.0514 0.770508 38.4991 1.21822 38.4991 1.77051V28.9986C38.4991 29.5509 38.0514 29.9986 37.4991 29.9986H2C1.44772 29.9986 1 29.5509 1 28.9986V1.77051Z" stroke="black" stroke-width="1.16469" stroke-linecap="round" stroke-linejoin="round"/>
</svg>
