<svg width="38" height="30" viewBox="0 0 38 30" fill="none" xmlns="http://www.w3.org/2000/svg">
<path d="M32.5 0H5C2.23858 0 0 2.23858 0 5V25C0 27.7614 2.23858 30 5 30H32.5C35.2614 30 37.5 27.7614 37.5 25V5C37.5 2.23858 35.2614 0 32.5 0Z" fill="#B9291D"/>
<path d="M25.5637 2.90371C19.8449 2.35746 20.8299 2.49121 19.1949 4.34621C19.0387 4.28121 18.8887 4.22371 18.7437 4.16871C18.5112 4.08246 18.2912 4.00621 18.0837 3.94371C17.5149 3.76996 17.0249 3.67871 16.5412 3.63371C16.4412 3.62496 16.3412 3.61621 16.2412 3.61121C15.8387 3.58621 15.3749 3.58496 14.9924 3.64746C13.8774 3.81871 13.1799 4.27621 11.9824 4.31496C12.0274 4.36621 12.0762 4.41246 12.1362 4.45496V4.45746C12.2474 4.52996 12.3787 4.60621 12.5349 4.66246C13.3912 4.98121 14.8237 4.96621 15.5424 4.30871C16.8012 4.44121 17.1099 4.78371 17.4312 5.18496C16.8874 5.09746 16.2949 4.96871 15.7837 5.52496C15.2337 5.74246 13.8924 5.07371 13.9262 6.07746C14.6849 5.48121 16.3449 6.11496 17.0837 6.61121C19.0174 6.67746 21.7674 5.54496 23.8174 5.52371H21.8099L24.2024 5.04371H21.4237C21.3699 4.98496 21.2537 4.91121 21.1562 4.84746C21.8149 4.41371 22.3899 3.65121 22.5474 3.27246C22.8324 3.26996 23.0924 3.25996 23.3362 3.24621C23.5387 3.23496 23.7274 3.21871 23.9087 3.19996C24.1874 3.17121 24.4449 3.13246 24.6962 3.08871C24.9887 3.03621 25.2749 2.97371 25.5649 2.90496L25.5637 2.90371Z" fill="#F2D347"/>
<path d="M24.15 14.62L26.2287 13.96L23.7737 13.6575C24.3825 13.2725 25.095 13.0575 25.8275 13.0438C25.1825 12.7388 24.47 12.6113 23.7725 12.67L25.4725 11.3038L23.0725 11.9088C23.5013 11.33 24.0887 10.8713 24.7662 10.5925C24.055 10.5413 23.345 10.68 22.715 10.9863L23.8063 9.09754L21.7863 10.5288C21.9763 9.83379 22.3587 9.19379 22.8912 8.69004C22.2087 8.89879 21.5975 9.28504 21.1212 9.79879L21.4563 7.64254L20.0912 9.70504C20.0175 8.98879 20.1437 8.25504 20.4575 7.59254C19.8962 8.03379 19.4662 8.61504 19.2062 9.26504L18.74 7.13379L18.2113 9.55254C17.8838 8.91129 17.735 8.18129 17.7887 7.44879C17.425 8.06254 17.2338 8.76004 17.2263 9.46129L16.0225 7.64254L16.4038 10.0888C15.8663 9.60879 15.4637 8.98129 15.25 8.28004C15.1325 8.98379 15.2063 9.70379 15.4525 10.3588L13.6725 9.09754L14.91 11.24C14.2363 10.9863 13.635 10.5475 13.1825 9.97129C13.3275 10.67 13.655 11.315 14.1225 11.8363L12.0075 11.3038L13.9363 12.855C13.2163 12.8625 12.4962 12.67 11.865 12.2963C12.2525 12.895 12.7913 13.3775 13.415 13.6963L11.25 13.9638L14.6625 15.0475C14.9212 19.3388 21.3925 20.0538 22.6163 15.9775C23.6275 15.4113 24.8425 15.3163 25.9313 15.715C25.44 15.1975 24.8225 14.8213 24.15 14.6238V14.62Z" fill="#F2D347"/>
<path d="M0 16.25H37.5V25C37.5 27.76 35.26 30 32.5 30H5C2.24 30 0 27.76 0 25V16.25Z" fill="#182C6D"/>
<path d="M35.2222 24.8762C33.3535 25.6237 31.536 25.6237 29.6697 24.8762C27.201 23.8874 24.5822 23.8824 21.891 24.8612C19.7772 25.6287 17.7235 25.6287 15.6097 24.8612C12.921 23.8824 10.3022 23.8874 7.83098 24.8762C5.96473 25.6237 4.14723 25.6237 2.27848 24.8762C1.52223 24.5737 0.762227 24.3737 0.000976562 24.2562V25.0012C0.000976562 25.7287 0.163477 26.4149 0.443476 27.0374C0.732226 27.1174 1.01973 27.1824 1.30973 27.2987C3.79348 28.2924 6.31473 28.2937 8.80098 27.2987C10.6822 26.5462 12.621 26.5499 14.7185 27.3137C17.3947 28.2874 20.1072 28.2874 22.7822 27.3137C24.881 26.5512 26.8185 26.5462 28.6997 27.2987C31.186 28.2937 33.7072 28.2924 36.191 27.2987C36.481 27.1824 36.7697 27.1174 37.0572 27.0374C37.336 26.4137 37.4997 25.7274 37.4997 25.0012V24.2562C36.7385 24.3749 35.9785 24.5737 35.2222 24.8762Z" fill="white"/>
<path d="M37.4997 19.0388C36.7385 19.1575 35.9785 19.3563 35.2222 19.6588C33.356 20.405 31.5385 20.4063 29.6697 19.6588C27.201 18.67 24.5822 18.665 21.891 19.6438C19.7772 20.4113 17.7235 20.4113 15.6097 19.6438C12.9185 18.665 10.3022 18.67 7.83098 19.6588C5.96473 20.405 4.14723 20.4063 2.27848 19.6588C1.52223 19.3563 0.762227 19.1563 0.000976562 19.0388V21.6863C0.434727 21.7788 0.870977 21.905 1.30973 22.0813C3.79598 23.075 6.31723 23.0738 8.80098 22.0813C10.6822 21.3288 12.621 21.3325 14.7185 22.0963C17.3947 23.0688 20.1072 23.0688 22.7822 22.0963C24.881 21.3325 26.8185 21.3288 28.6997 22.0813C31.186 23.075 33.7072 23.0738 36.191 22.0813C36.6297 21.9063 37.0647 21.78 37.4997 21.6863V19.0388Z" fill="white"/>
<path d="M37.4997 13.8213C36.7385 13.94 35.9785 14.1388 35.2222 14.4413C33.356 15.1875 31.5385 15.1888 29.6697 14.4413C27.201 13.4525 24.5822 13.4475 21.891 14.4263C19.7772 15.1938 17.7235 15.1938 15.6097 14.4263C12.9185 13.4475 10.3022 13.4525 7.83098 14.4413C5.96473 15.1875 4.14723 15.1888 2.27848 14.4413C1.52223 14.1388 0.762227 13.9388 0.000976562 13.8213V16.4688C0.434727 16.5613 0.870977 16.6875 1.30973 16.8638C3.79598 17.8575 6.31723 17.8563 8.80098 16.8638C10.6822 16.11 12.621 16.115 14.7185 16.8788C17.3947 17.8513 20.1072 17.8513 22.7822 16.8788C24.881 16.1163 26.8185 16.1113 28.6997 16.8638C31.186 17.8575 33.7072 17.8563 36.191 16.8638C36.6297 16.6888 37.0647 16.5625 37.4997 16.4688V13.8213Z" fill="white"/>
<path opacity="0.15" d="M32.5 0H5C2.23875 0 0 2.23875 0 5V25C0 27.7613 2.23875 30 5 30H32.5C35.2613 30 37.5 27.7613 37.5 25V5C37.5 2.23875 35.2613 0 32.5 0ZM36.25 25C36.25 27.0675 34.5675 28.75 32.5 28.75H5C2.9325 28.75 1.25 27.0675 1.25 25V5C1.25 2.9325 2.9325 1.25 5 1.25H32.5C34.5675 1.25 36.25 2.9325 36.25 5V25Z" fill="black"/>
<path opacity="0.2" d="M32.5 1.25H5C2.92875 1.25 1.25 2.92875 1.25 5V6.25C1.25 4.17875 2.92875 2.5 5 2.5H32.5C34.5712 2.5 36.25 4.17875 36.25 6.25V5C36.25 2.92875 34.5712 1.25 32.5 1.25Z" fill="white"/>
</svg>
