<svg width="38" height="30" viewBox="0 0 38 30" fill="none" xmlns="http://www.w3.org/2000/svg">
<g clip-path="url(#clip0_3032_2741)">
<path d="M2.24981 0H37.7502C38.3689 0 38.9307 0.271588 39.3385 0.709471C39.7471 1.14819 40 1.75153 40 2.41588V27.5173C40 28.1816 39.7471 28.7858 39.3393 29.2228C38.9315 29.6616 38.3689 29.9331 37.7502 29.9331H2.24981C1.63113 29.9331 1.06848 29.6616 0.6607 29.2237C0.252918 28.7858 0 28.1816 0 27.5173V2.41588C0 1.75153 0.252918 1.14819 0.6607 0.710306C1.06926 0.271588 1.63113 0 2.24981 0ZM37.7502 0.167131H2.24981C1.67393 0.167131 1.15019 0.420334 0.771206 0.827298C0.39144 1.2351 0.155642 1.79749 0.155642 2.41588V27.5173C0.155642 28.1357 0.39144 28.698 0.770428 29.1058C1.15019 29.5128 1.67393 29.766 2.24981 29.766H37.7502C38.3261 29.766 38.8498 29.5128 39.2296 29.1058C39.6086 28.698 39.8444 28.1357 39.8444 27.5173V2.41588C39.8444 1.79749 39.6086 1.2351 39.2296 0.828134C38.8498 0.420334 38.3261 0.167131 37.7502 0.167131Z" fill="#CCCCCC"/>
<path d="M2.10948 0.0835571H35.3911C36.511 0.0835571 37.4273 1.13314 37.4273 2.41587V27.5173C37.4273 28.8 36.511 29.8496 35.3911 29.8496H2.10948C0.989585 29.8496 0.0732422 28.8 0.0732422 27.5173V2.41587C0.0732422 1.13314 0.989585 0.0835571 2.10948 0.0835571Z" fill="#012A87"/>
<path d="M37.4273 14.9666H0.0732422V2.41587C0.0732422 1.13314 0.989585 0.0835571 2.10948 0.0835571H35.3911C36.511 0.0835571 37.4273 1.13314 37.4273 2.41587V14.9666Z" fill="#DC171D"/>
<path d="M0.883067 29.3759L17.6559 14.9667L0.883067 0.557556C0.392065 0.984576 0.0732422 1.65978 0.0732422 2.41605V27.5174C0.0732422 28.2737 0.392065 28.9489 0.883067 29.3759Z" fill="white"/>
<path d="M2.10948 0.0835571H35.3911C36.511 0.0835571 37.4273 1.13314 37.4273 2.41587V27.5173C37.4273 28.8 36.511 29.8496 35.3911 29.8496H2.10948C0.989585 29.8496 0.0732422 28.8 0.0732422 27.5173V2.41587C0.0732422 1.13314 0.989585 0.0835571 2.10948 0.0835571Z" fill="#012A87"/>
<path d="M37.4273 14.9666H0.0732422V2.41587C0.0732422 1.13314 0.989585 0.0835571 2.10948 0.0835571H35.3911C36.511 0.0835571 37.4273 1.13314 37.4273 2.41587V14.9666Z" fill="#DC171D"/>
<path d="M0.883067 29.3759L17.6559 14.9667L0.883067 0.557556C0.392065 0.984576 0.0732422 1.65978 0.0732422 2.41605V27.5174C0.0732422 28.2737 0.392065 28.9489 0.883067 29.3759Z" fill="white"/>
<path d="M8.90564 11.2429L8.91147 11.0081C8.91147 11.0081 8.80131 10.8067 8.92898 10.5911C8.92898 10.5911 8.65685 10.4256 8.72033 10.1682C8.72033 10.1682 8.47446 10.0964 8.4927 9.78634C8.4927 9.78634 8.22714 9.76545 8.20014 9.5064C8.20014 9.5064 7.93458 9.55654 7.81785 9.30417C7.81785 9.30417 7.55885 9.36267 7.48589 9.15459C7.48589 9.15459 7.23419 9.25403 7.08463 9.01002C7.08463 9.01002 6.81906 9.13286 6.70817 8.90222C6.598 9.13203 6.33244 9.01002 6.33244 9.01002C6.18506 9.2532 5.93117 9.15208 5.93117 9.15208C5.86113 9.361 5.60287 9.30166 5.60287 9.30166C5.48613 9.55403 5.2213 9.50389 5.2213 9.50389C5.19504 9.76211 4.9302 9.783 4.9302 9.783C4.95136 10.0939 4.70622 10.1641 4.70622 10.1641C4.77042 10.4214 4.49902 10.5861 4.49902 10.5861C4.63035 10.8033 4.52091 11.0031 4.52091 11.0031L4.51507 11.2195L8.90637 11.2429H8.90564Z" fill="#F9D90F"/>
<path d="M8.89487 11.2295L8.89925 11.0114C8.88612 10.9838 8.80076 10.7975 8.91238 10.5952C8.86204 10.561 8.65849 10.4064 8.70664 10.1774C8.65776 10.1582 8.47099 10.0688 8.48048 9.79803C8.42941 9.79051 8.22148 9.74706 8.19011 9.52143C8.13685 9.52812 7.91944 9.53898 7.81146 9.3192C7.76695 9.32672 7.55246 9.3543 7.4795 9.17129C7.43062 9.18633 7.21759 9.23982 7.08043 9.02589C7.03446 9.04511 6.81632 9.11948 6.70835 8.92895C6.60037 9.11948 6.38223 9.04427 6.33699 9.02589C6.20202 9.23814 5.98753 9.18466 5.93865 9.16878C5.86715 9.35263 5.65411 9.32505 5.60888 9.3167C5.50236 9.53647 5.28422 9.52561 5.23169 9.51892C5.20105 9.74372 4.99458 9.78717 4.94278 9.79469C4.95518 10.0654 4.76914 10.1549 4.72026 10.1732C4.76914 10.4022 4.56632 10.556 4.51598 10.5911C4.63198 10.795 4.54589 10.9813 4.53276 11.0072L4.52766 11.2069L8.89487 11.2295ZM8.92333 11.0081L8.91749 11.2437L8.90655 11.2429V11.2562C7.43938 11.2562 5.97075 11.2395 4.50285 11.2337L4.50942 10.9989L4.5116 10.9964C4.5116 10.9955 4.61666 10.8042 4.48972 10.5936L4.48242 10.581L4.49337 10.5744C4.4941 10.5735 4.75674 10.4147 4.69473 10.1674L4.69108 10.154L4.70348 10.1507C4.70348 10.1507 4.93913 10.083 4.91871 9.78383L4.91798 9.77046L4.92965 9.76962C4.93038 9.76962 5.185 9.74956 5.20981 9.50221L5.21126 9.48884L5.22294 9.49051C5.22367 9.49051 5.48048 9.53898 5.59283 9.2958L5.59648 9.28661L5.60523 9.28828C5.60596 9.28912 5.85402 9.34594 5.92041 9.14789L5.92479 9.13536L5.935 9.13954C5.93573 9.14037 6.18014 9.23731 6.32313 9.00249L6.32824 8.99413L6.33699 8.99748C6.33772 8.99748 6.59307 9.1153 6.6974 8.89636L6.70835 8.87463L6.71856 8.89553C6.82435 9.11614 7.0797 8.99831 7.08043 8.99748L7.08918 8.9933L7.09502 9.00249C7.23874 9.23814 7.48169 9.14204 7.48242 9.14204L7.49264 9.13787L7.49701 9.14956C7.56632 9.34678 7.81511 9.29163 7.81584 9.29079L7.82386 9.28912L7.82824 9.29831C7.94132 9.54149 8.1974 9.49302 8.19813 9.49302L8.21053 9.49135L8.21199 9.50472C8.23826 9.75207 8.49288 9.77296 8.49361 9.77296L8.50528 9.7738L8.50455 9.78717C8.48704 10.0855 8.72269 10.1549 8.72342 10.1549L8.7351 10.1582L8.73218 10.1716C8.67089 10.4189 8.93427 10.5785 8.935 10.5785L8.94594 10.5861L8.93865 10.5986C8.81535 10.8067 8.92114 11.0005 8.92114 11.0005L8.92333 11.0047V11.0081Z" fill="black"/>
<path d="M6.71604 9.82563C6.83423 9.96184 6.72407 10.0362 6.61536 9.96602C6.34761 9.73371 6.03389 9.60502 5.60272 9.74541C4.98258 9.74792 4.32451 9.7053 4.02319 10.0813C4.00204 10.154 3.83423 10.4281 4.48355 10.0262C4.44343 10.3045 4.74547 10.0772 4.97966 9.95098C4.81843 10.144 5.22626 10.1758 5.4838 9.98608C5.35758 10.1808 5.5801 10.1758 5.79095 10.1766C6.09956 10.1883 5.92956 10.4958 5.40063 10.5084C5.36196 10.505 5.21385 10.5852 5.41376 10.6437C5.50641 10.6496 5.43127 10.7975 5.75155 10.6086C5.73185 10.7189 5.86901 10.6981 6.06308 10.6287C6.17324 10.7281 6.26225 10.6254 6.35637 10.5735C6.76128 10.7549 7.29605 10.9362 7.43978 10.3078C7.7783 10.2627 8.05773 10.2059 7.90598 10.0588C8.34664 10.2643 8.37217 10.185 8.36561 10.0838C8.57645 10.1749 8.82159 10.2986 8.72164 10.0981C8.92519 10.1574 9.14698 10.1783 9.32062 10.2969C9.49644 10.4006 9.43954 10.2192 9.39795 10.1373C9.30821 9.97187 9.1944 9.9234 8.93759 9.91755C8.72018 9.91254 7.7017 9.58663 7.1713 9.93844H7.17422C7.16473 9.93844 6.95388 9.71115 6.95388 9.71115C7.00277 9.70947 7.03778 9.6819 7.06551 9.64012C7.27271 9.65181 7.47918 9.62925 7.68637 9.56574C7.78049 9.53148 7.83375 9.59583 7.83156 9.64346C7.91838 9.46964 7.79873 9.43371 7.71118 9.44123C7.36099 9.46379 7.15087 9.4429 6.98234 9.40947C6.64673 9.21727 6.24328 9.51142 6.61609 9.75376L6.71604 9.82563Z" fill="#BC715F"/>
<path d="M6.72457 9.81561C6.7625 9.8599 6.77855 9.89918 6.77855 9.9301C6.77855 9.94848 6.77345 9.96436 6.76469 9.97606C6.75521 9.98776 6.74281 9.99695 6.72821 10.002C6.69611 10.012 6.65234 10.0053 6.60929 9.97773L6.60783 9.97689C6.47505 9.86157 6.33133 9.77216 6.16717 9.7287C6.00302 9.68525 5.81917 9.68859 5.6054 9.75795L5.60394 9.75879H5.42009C4.86124 9.75711 4.30239 9.75544 4.03317 10.0889C4.03099 10.0972 4.02734 10.1064 4.02296 10.1164C4.00983 10.1499 3.99305 10.1933 4.00253 10.2134C4.02004 10.2518 4.12364 10.2334 4.47821 10.0145L4.49937 10.0011L4.49499 10.0287C4.48405 10.1039 4.5001 10.1373 4.53293 10.144C4.59859 10.1566 4.72554 10.0822 4.85321 10.0078C4.89407 9.98441 4.9342 9.96018 4.97432 9.93929L5.03196 9.90837L4.98818 9.96018C4.96338 9.98943 4.95317 10.0137 4.95462 10.0329C4.95535 10.0488 4.96557 10.063 4.98162 10.073C5.00059 10.0847 5.02685 10.093 5.05822 10.0972C5.16985 10.1106 5.34422 10.073 5.47773 9.97522L5.53172 9.93511L5.49305 9.99444C5.45073 10.0596 5.45073 10.0989 5.477 10.1215C5.52442 10.1624 5.64772 10.1632 5.77029 10.1632H5.79071C5.86878 10.1666 5.91839 10.1883 5.94101 10.2192C5.9556 10.2401 5.95997 10.2644 5.95268 10.2911C5.94611 10.3145 5.93079 10.3404 5.90599 10.3646C5.82719 10.4415 5.65428 10.5159 5.40039 10.5217H5.39966C5.3858 10.5209 5.35516 10.5326 5.33619 10.5502C5.33035 10.556 5.32525 10.5619 5.32379 10.5677C5.32233 10.5727 5.32306 10.5777 5.32671 10.5836C5.33619 10.5986 5.36245 10.6145 5.41498 10.6304C5.44636 10.6329 5.46095 10.6488 5.47481 10.6646C5.5018 10.6947 5.5288 10.7248 5.74621 10.5969L5.7681 10.5844L5.76299 10.6112C5.75496 10.6554 5.77977 10.673 5.82646 10.6722C5.88118 10.6722 5.96289 10.6504 6.0592 10.6162L6.06503 10.6137L6.07014 10.6187C6.15185 10.6914 6.22262 10.6446 6.29412 10.5978C6.31309 10.5844 6.33206 10.5719 6.35175 10.5619L6.35613 10.5593L6.36051 10.561C6.56187 10.6513 6.79533 10.7415 6.99597 10.7307C7.19295 10.7206 7.35856 10.6112 7.4286 10.3045L7.43079 10.2953L7.43882 10.2944C7.60662 10.2719 7.76056 10.2468 7.85248 10.2092C7.9342 10.1758 7.96265 10.1315 7.89845 10.0688L7.84227 10.0145L7.91012 10.0463C8.12899 10.1482 8.24353 10.18 8.3019 10.1733C8.35224 10.1674 8.35589 10.1281 8.35297 10.0847L8.35224 10.0638L8.42739 10.0964C8.55798 10.1541 8.68857 10.2117 8.72578 10.1875C8.73818 10.1791 8.736 10.1541 8.71119 10.1047L8.69806 10.0772L8.72432 10.0847C8.78269 10.1022 8.84105 10.1156 8.89942 10.129C9.04971 10.1641 9.2 10.1992 9.32549 10.2852C9.3627 10.307 9.38896 10.3153 9.40574 10.3145C9.41523 10.3137 9.42179 10.3095 9.42471 10.3028C9.42836 10.2953 9.42982 10.2827 9.42836 10.2694C9.42471 10.2293 9.40501 10.1783 9.3875 10.144C9.34446 10.0646 9.29485 10.0128 9.22554 9.98023C9.1555 9.94764 9.0643 9.93427 8.93736 9.93093C8.88848 9.93009 8.8002 9.91255 8.68711 9.89082C8.29169 9.81477 7.58546 9.67856 7.1769 9.95015L7.17398 9.9443V9.95182H7.12729L7.15282 9.93427C7.09592 9.88163 6.94636 9.72118 6.94563 9.72035L6.9252 9.69862L6.95365 9.69778C6.97554 9.69695 6.99451 9.69026 7.01129 9.67856C7.02807 9.6677 7.04339 9.65099 7.05652 9.63177L7.06017 9.62592L7.06601 9.62675C7.16888 9.6326 7.27174 9.63009 7.37461 9.61756C7.47748 9.60586 7.57962 9.58413 7.68249 9.55238C7.70511 9.54402 7.72554 9.54152 7.74378 9.54235C7.77004 9.54402 7.7912 9.55405 7.80725 9.56742C7.82038 9.57828 7.82987 9.59082 7.8357 9.60503C7.84665 9.57578 7.85102 9.55238 7.84957 9.53316C7.84919 9.52058 7.84564 9.50839 7.83935 9.49806C7.83337 9.48818 7.82535 9.48014 7.81601 9.47466C7.78755 9.45628 7.7467 9.45127 7.71168 9.45461C7.53585 9.46631 7.39577 9.46631 7.27758 9.45962C7.16012 9.45294 7.06455 9.43957 6.97992 9.42202H6.97773L6.97627 9.42118C6.83181 9.33845 6.67423 9.34848 6.575 9.4053C6.54363 9.42369 6.5181 9.44709 6.50132 9.47299C6.48527 9.49806 6.47651 9.52647 6.4787 9.55656C6.48308 9.61422 6.52539 9.6794 6.6217 9.74207C6.64285 9.75795 6.71143 9.80057 6.72457 9.81561ZM6.75521 9.9301C6.75521 9.90586 6.74135 9.87411 6.70852 9.83567L6.61002 9.76547C6.50569 9.69778 6.45973 9.62508 6.45535 9.55823C6.45317 9.52146 6.46265 9.4872 6.48235 9.45711C6.50132 9.42703 6.52977 9.40113 6.56479 9.38107C6.66912 9.3209 6.834 9.31004 6.98575 9.39611C7.06965 9.41283 7.16304 9.4262 7.27904 9.43288C7.39577 9.43957 7.53512 9.43873 7.70949 9.42787C7.74888 9.42452 7.79485 9.42954 7.82768 9.45127C7.84008 9.45879 7.85102 9.46965 7.85832 9.48302C7.86635 9.49639 7.87145 9.51227 7.87291 9.53149C7.8751 9.56241 7.86635 9.60085 7.84154 9.65015L7.81746 9.69945L7.81965 9.64263C7.82038 9.63762 7.81965 9.63177 7.81819 9.62592C7.81323 9.61115 7.80461 9.59837 7.79339 9.58915C7.78099 9.57828 7.76348 9.57076 7.74232 9.56993C7.727 9.56909 7.70876 9.5716 7.68906 9.57828C7.58473 9.61004 7.48113 9.6326 7.3768 9.6443C7.27466 9.65684 7.17325 9.65934 7.07111 9.65349C7.05725 9.67355 7.0412 9.69026 7.02369 9.70196C7.01056 9.71115 6.99597 9.71784 6.98065 9.72118C7.02734 9.77216 7.15064 9.90503 7.17106 9.92257C7.58838 9.65182 8.2946 9.78803 8.69076 9.86408C8.80312 9.88581 8.89066 9.90335 8.93809 9.90419C9.06795 9.90753 9.16134 9.9209 9.23429 9.95516C9.30871 9.98943 9.36124 10.0446 9.40793 10.1298C9.42617 10.1666 9.44806 10.2226 9.45171 10.266C9.45316 10.2852 9.45171 10.3028 9.44514 10.3162C9.43784 10.3312 9.42544 10.3404 9.40647 10.3412C9.38604 10.3429 9.35613 10.3329 9.31455 10.3086C9.19198 10.2242 9.04315 10.19 8.89504 10.1557C8.84397 10.144 8.7929 10.1315 8.74402 10.1181C8.76372 10.1674 8.75934 10.1967 8.73745 10.2109C8.69076 10.241 8.55433 10.1816 8.41863 10.1215L8.37778 10.1039C8.37851 10.1524 8.3661 10.1925 8.30409 10.2C8.24645 10.2067 8.14139 10.18 7.95025 10.0939C7.98527 10.1549 7.94587 10.1992 7.86051 10.2343C7.76785 10.2727 7.6161 10.2978 7.44903 10.3195C7.37461 10.6346 7.20171 10.7474 6.9967 10.7582C6.79388 10.7683 6.55968 10.6788 6.35686 10.5886C6.33935 10.5986 6.32257 10.6095 6.30579 10.6212C6.22919 10.6713 6.15185 10.7223 6.06066 10.6437C5.96508 10.6772 5.88337 10.6989 5.82646 10.6997C5.77102 10.6997 5.73818 10.6797 5.73745 10.632C5.52223 10.7549 5.49013 10.7198 5.45803 10.6839C5.44709 10.6713 5.43614 10.6588 5.4128 10.6571H5.41061C5.35078 10.6396 5.32014 10.6187 5.30774 10.5986C5.30382 10.5932 5.30116 10.5868 5.30001 10.58C5.29887 10.5731 5.29926 10.566 5.30117 10.5593C5.30482 10.5485 5.31211 10.5385 5.32087 10.5293C5.34422 10.5075 5.38288 10.4933 5.40112 10.495C5.64845 10.4891 5.81552 10.4181 5.89066 10.3437C5.91182 10.3229 5.92495 10.302 5.93006 10.2827C5.93444 10.266 5.93225 10.2502 5.92277 10.2368C5.90453 10.2109 5.86075 10.1933 5.79071 10.1908L5.77029 10.19C5.64334 10.19 5.51712 10.1891 5.46314 10.1432C5.43322 10.1173 5.42447 10.0805 5.44781 10.0254C5.31722 10.1064 5.16036 10.1365 5.05531 10.124C5.02102 10.119 4.99183 10.1106 4.96995 10.0964C4.9466 10.0813 4.93274 10.0613 4.93128 10.0346C4.93055 10.0203 4.93347 10.0045 4.94149 9.98692L4.86416 10.032C4.73283 10.1081 4.60224 10.1841 4.52928 10.1699C4.48697 10.1624 4.46289 10.1273 4.46946 10.0504C4.11416 10.2677 4.00472 10.2761 3.9821 10.2268C3.96678 10.1942 3.98648 10.144 4.0018 10.1056C4.00618 10.0947 4.00983 10.0847 4.01202 10.0772L4.01275 10.0747L4.01421 10.0722C4.28998 9.7287 4.85467 9.73037 5.42009 9.73205H5.6003C5.81698 9.66101 6.00521 9.65851 6.17228 9.7028C6.34008 9.74709 6.48673 9.83734 6.6217 9.95516C6.6589 9.97856 6.69538 9.98441 6.72165 9.97606C6.73186 9.97188 6.74062 9.96686 6.74645 9.95851C6.75156 9.95099 6.75521 9.94179 6.75521 9.9301Z" fill="black"/>
<path d="M6.79572 9.48554C6.72495 9.49724 6.65272 9.50727 6.625 9.56242C6.62719 9.47133 6.74611 9.46465 6.79572 9.48554Z" fill="black"/>
<path d="M6.75843 9.55402C6.77495 9.55402 6.78834 9.53831 6.78834 9.51892C6.78834 9.49954 6.77495 9.48383 6.75843 9.48383C6.74191 9.48383 6.72852 9.49954 6.72852 9.51892C6.72852 9.53831 6.74191 9.55402 6.75843 9.55402Z" fill="black"/>
<path d="M2.9541 10.6304C3.09272 11.5304 3.24666 12.4529 3.32181 13.3947C3.48669 14.7903 2.74544 15.9618 3.04968 17.3407C3.23061 18.0025 3.86607 18.3869 4.44754 18.463C5.21869 18.6301 6.15036 18.4638 6.71359 19.124C7.27609 18.4638 8.20848 18.6301 8.97964 18.463C9.5611 18.3869 10.1966 18.0025 10.3775 17.3407C10.6817 15.9618 9.94048 14.7903 10.1054 13.3947C10.1805 12.4529 10.3345 11.5304 10.4731 10.6304C9.11534 11.4744 7.77438 10.3763 6.71359 11.0783C5.65279 10.3763 4.31184 11.4744 2.9541 10.6304Z" fill="#DC171D"/>
<path d="M2.97034 10.6554L3.01922 10.9705C3.14179 11.761 3.26801 12.5691 3.33367 13.393C3.411 14.0465 3.28989 14.6507 3.17024 15.249C3.03454 15.9301 2.89957 16.6053 3.06081 17.3373C3.14471 17.6423 3.32637 17.888 3.554 18.071C3.81592 18.2816 4.13985 18.4095 4.44845 18.4496H4.44991C4.67097 18.498 4.9059 18.5181 5.14155 18.539C5.72375 18.5891 6.31032 18.6401 6.71378 19.1056C7.11723 18.6401 7.7038 18.5891 8.28527 18.539C8.52165 18.5181 8.75658 18.498 8.97764 18.4496H8.97837C9.28698 18.4095 9.61091 18.2816 9.87355 18.071C10.1012 17.888 10.2828 17.6423 10.3667 17.3373C10.528 16.6053 10.393 15.9301 10.2566 15.249C10.1369 14.6507 10.0165 14.0465 10.0939 13.393C10.1595 12.5691 10.2858 11.761 10.4083 10.9696L10.4572 10.6554C9.74952 11.085 9.04768 10.9939 8.38814 10.9095C7.78698 10.8317 7.22083 10.7582 6.71961 11.09L6.71378 11.0941L6.70794 11.09C6.20672 10.7582 5.64058 10.8317 5.03941 10.9095C4.37988 10.9939 3.67803 11.085 2.97034 10.6554ZM2.99588 10.9746L2.94043 10.617H2.95721L2.96013 10.6187C3.66854 11.059 4.37404 10.968 5.03722 10.8827C5.63985 10.8042 6.20745 10.7315 6.71378 11.0632C7.2201 10.7315 7.78771 10.8042 8.39033 10.8827C9.05351 10.968 9.75901 11.059 10.4674 10.6187L10.4886 10.6053L10.4317 10.9738C10.3084 11.7652 10.1829 12.5741 10.1172 13.3964V13.3972C10.0406 14.0457 10.161 14.6465 10.2799 15.2432C10.4164 15.9276 10.5521 16.6053 10.3894 17.344V17.3448C10.304 17.6557 10.1187 17.9064 9.88668 18.0927C9.62185 18.3058 9.29354 18.4354 8.98129 18.4763C8.75877 18.5248 8.52384 18.5448 8.28746 18.5657C7.70599 18.6159 7.12015 18.6668 6.7218 19.134L6.71378 19.1432L6.70502 19.134C6.3074 18.6668 5.72156 18.6159 5.14009 18.5657C4.90371 18.5448 4.66806 18.5248 4.44554 18.4763C4.13401 18.4354 3.80643 18.3058 3.54087 18.0927C3.30813 17.9064 3.12355 17.6557 3.03819 17.3448V17.344C2.8755 16.6053 3.0112 15.9276 3.14763 15.2432C3.26655 14.6465 3.38693 14.0457 3.31032 13.3972V13.3964C3.24466 12.5741 3.11917 11.766 2.99588 10.9746Z" fill="black"/>
<path d="M3.46094 11.3574C3.58059 12.1003 3.71337 12.8608 3.7783 13.6388C3.92057 14.7895 3.28073 15.7563 3.54265 16.8936C3.69951 17.4402 4.24815 17.7569 4.75009 17.8204C5.41619 17.9574 6.22164 17.8204 6.70753 18.3652C7.19416 17.8204 7.99888 17.9574 8.66497 17.8204C9.16692 17.7569 9.71556 17.4402 9.87242 16.8936C10.1351 15.7563 9.49523 14.7903 9.63676 13.6388C9.70243 12.8608 9.83521 12.1003 9.95486 11.3574C8.78243 12.0535 7.62388 11.1477 6.70753 11.7268C5.79192 11.1477 4.63336 12.0535 3.46094 11.3574Z" fill="#62AFE1"/>
<path d="M3.47741 11.3816L3.519 11.6373C3.62479 12.29 3.73349 12.9568 3.7904 13.6362C3.85679 14.1761 3.75246 14.6741 3.64959 15.1688C3.53213 15.7304 3.4154 16.2869 3.55475 16.8903C3.62698 17.141 3.7831 17.3432 3.98009 17.4945C4.20626 17.6674 4.48568 17.7736 4.75198 17.8062L4.75271 17.807C4.94385 17.8463 5.14667 17.863 5.35095 17.8797C5.8529 17.9215 6.35922 17.9633 6.70796 18.3468C7.05742 17.9633 7.56302 17.9215 8.06569 17.8797C8.26924 17.863 8.47279 17.8463 8.66321 17.807L8.66394 17.8062C8.93096 17.7736 9.21039 17.6674 9.43656 17.4945C9.63281 17.3432 9.78967 17.141 9.8619 16.8903C10.0005 16.2869 9.88451 15.7304 9.76705 15.1688C9.66345 14.6741 9.55913 14.1761 9.62552 13.6362C9.68315 12.9568 9.79113 12.29 9.89765 11.6373L9.93923 11.3816C9.32858 11.7343 8.72304 11.6599 8.15397 11.5897C7.63524 11.5254 7.14643 11.4652 6.71379 11.7393L6.70796 11.7426L6.70212 11.7393C6.27022 11.4652 5.7814 11.5254 5.26195 11.5897C4.69288 11.6599 4.08807 11.7343 3.47741 11.3816ZM3.49565 11.6424L3.44531 11.3323L3.46647 11.3457C4.07858 11.7084 4.68704 11.6332 5.25976 11.563C5.77994 11.4986 6.27095 11.4385 6.70796 11.7117C7.1457 11.4385 7.63597 11.4986 8.15689 11.563C8.72887 11.6332 9.33807 11.7084 9.94945 11.3457L9.97133 11.3323L9.92099 11.6424C9.81448 12.295 9.7065 12.961 9.64886 13.6396V13.6404C9.5832 14.1752 9.6868 14.6708 9.78967 15.1621C9.90786 15.7279 10.0253 16.2878 9.88451 16.8978H9.88379C9.8101 17.1552 9.65032 17.3624 9.44969 17.517C9.21988 17.6925 8.9368 17.7995 8.66686 17.8329C8.47498 17.873 8.27143 17.8897 8.06715 17.9064C7.56521 17.9482 7.05961 17.99 6.71671 18.3752L6.70796 18.3844L6.69993 18.3752C6.35703 17.99 5.85071 17.9482 5.34877 17.9064C5.14522 17.8897 4.94166 17.873 4.74906 17.8329C4.47912 17.7995 4.19604 17.6925 3.96696 17.517C3.76559 17.3624 3.60582 17.1552 3.53213 16.8978C3.39132 16.2878 3.50806 15.7279 3.62698 15.1621C3.72912 14.6708 3.83344 14.1752 3.76705 13.6404V13.6396C3.71015 12.961 3.60144 12.295 3.49565 11.6424Z" fill="black"/>
<path d="M6.07179 13.439L4.7002 14.5162V15.8123H8.71649V14.5162L7.34489 13.439H6.07179Z" fill="white"/>
<path d="M6.07947 13.4699L4.72611 14.5321V15.7822H8.68914V14.5321L7.33579 13.4699H6.07947ZM4.68452 14.4911L6.06342 13.4089H7.35257C7.81585 13.7733 8.27913 14.136 8.7424 14.5003V15.8432H4.67285V14.5003L4.68452 14.4911Z" fill="black"/>
<path d="M4.37305 15.5975V15.8457H4.5051V17.1192H8.9088V15.8457H9.04085V15.5975H4.37305Z" fill="white"/>
<path d="M4.40091 15.6284V15.8156H4.53297V17.0883H8.88341V15.8156H9.01546V15.6284H4.40091ZM4.34766 15.8757V15.5674H9.06872V15.8757H8.93666V17.1493H4.47971V15.8757H4.34766Z" fill="black"/>
<path d="M6.70845 12.0351L6.07227 12.7446V13.439H7.34537V12.7446L6.70845 12.0351Z" fill="white"/>
<path d="M6.70737 12.0777L6.09818 12.7571V13.4089H7.3173V12.7571L6.70737 12.0777ZM6.05295 12.7229L6.70737 11.9925L7.37055 12.732V13.4699H6.04492V12.732L6.05295 12.7229Z" fill="black"/>
<path d="M4.89844 14.6917H5.30043V15.422H4.89844V14.6917Z" fill="white"/>
<path d="M4.87109 14.6616H5.32635V15.4521H4.87109V14.6616ZM5.27382 14.7226H4.92435V15.3919H5.27382V14.7226Z" fill="black"/>
<path d="M6.04004 14.6917H6.44276V15.422H6.04004V14.6917Z" fill="white"/>
<path d="M6.01367 14.6616H6.46892V15.4521H6.01367V14.6616ZM6.4164 14.7226H6.06693V15.3919H6.4164V14.7226Z" fill="black"/>
<path d="M8.11523 14.6917H8.51796V15.422H8.11523V14.6917Z" fill="white"/>
<path d="M8.49159 14.7226H8.14213V15.3919H8.49159V14.7226ZM8.08887 14.6616H8.54412V15.4521H8.08887V14.6616Z" fill="black"/>
<path d="M6.97363 14.6917H7.37563V15.422H6.97363V14.6917Z" fill="white"/>
<path d="M7.34901 14.7226H6.99955V15.3919H7.34901V14.7226ZM6.94629 14.6616H7.40227V15.4521H6.94629V14.6616Z" fill="black"/>
<path d="M4.89844 15.961H5.30043V16.6914H4.89844V15.961Z" fill="white"/>
<path d="M4.87109 15.931H5.32635V16.7215H4.87109V15.931ZM5.27382 15.992H4.92435V16.6613H5.27382V15.992Z" fill="black"/>
<path d="M8.11523 15.961H8.51796V16.6914H8.11523V15.961Z" fill="white"/>
<path d="M8.49159 15.9919H8.14213V16.6613H8.49159V15.9919ZM8.08887 15.9309H8.54412V16.7214H8.08887V15.9309Z" fill="black"/>
<path d="M6.39258 15.92H7.02366V17.1192H6.39258V15.92Z" fill="white"/>
<path d="M6.99656 15.9501H6.41874V17.0883H6.99656V15.9501ZM6.36621 15.89H7.04982V17.1493H6.36621V15.89Z" fill="black"/>
<path d="M5.74316 15.5975H6.02551V17.1192H5.74316V15.5975Z" fill="white"/>
<path d="M5.99987 15.6284H5.77006V17.0891H5.99987V15.6284ZM5.7168 15.5674H6.05313V17.1493H5.7168V15.5674Z" fill="black"/>
<path d="M7.39062 15.5975H7.6737V17.1192H7.39062V15.5975Z" fill="white"/>
<path d="M7.36328 15.5674H7.69961V17.1493H7.36328V15.5674ZM7.64635 15.6284H7.41654V17.0891H7.64635V15.6284Z" fill="black"/>
<path d="M5.6377 15.2741H7.77826V15.6502H5.6377V15.2741Z" fill="white"/>
<path d="M7.75189 15.6192V15.305H5.66459V15.6192H7.75189ZM7.80515 15.244V15.6802H5.61133V15.244H7.80515Z" fill="black"/>
<path d="M6.07227 12.7136H7.34537V12.7746H6.07227V12.7136Z" fill="black"/>
<path d="M4.7002 14.4861H8.71649V14.5463H4.7002V14.4861Z" fill="black"/>
<path d="M4.27246 16.9604H9.14235V17.354H4.27246V16.9604Z" fill="white"/>
<path d="M4.24707 16.9295H9.16949V17.3849C7.52869 17.3849 5.88788 17.3833 4.24707 17.3849V16.9295ZM9.11623 16.9905H4.2996V17.3239H9.11623V16.9905Z" fill="black"/>
<path d="M6.46484 12.895H6.95074V13.2886H6.46484V12.895Z" fill="white"/>
<path d="M6.92441 12.9251H6.49177V13.2585H6.92441V12.9251ZM6.43851 12.8641H6.97694V13.3195H6.43851V12.8641ZM5.81984 15.2741V15.6501H5.76074V15.2741H5.81984ZM7.65471 15.2741V15.6501H7.59562V15.2741H7.65471ZM7.50223 15.2741V15.6501H7.44313V15.2741H7.50223ZM7.34902 15.2741V15.6501H7.28992V15.2741H7.34902ZM7.19581 15.2741V15.6501H7.13744V15.2741H7.19581ZM7.04333 15.2741V15.6501H6.98423V15.2741H7.04333ZM6.89012 15.2741V15.6501H6.83175V15.2741H6.89012ZM6.73764 15.2741V15.6501H6.67854V15.2741H6.73764ZM6.58443 15.2741V15.6501H6.52533V15.2741H6.58443ZM6.43195 15.2741V15.6501H6.37285V15.2741H6.43195ZM6.27874 15.2741V15.6501H6.21964V15.2741H6.27874ZM6.12553 15.2741V15.6501H6.06716V15.2741H6.12553ZM5.97305 15.2741V15.6501H5.91395V15.2741H5.97305ZM7.805 15.3V15.6501H7.75174V15.3H7.805Z" fill="black"/>
<path d="M4.64491 11.9624C4.94768 12.1839 5.09068 12.3878 5.09141 12.5774C4.71495 12.5549 4.37497 12.3518 4.64491 11.9624Z" fill="#008830"/>
<path d="M4.65178 11.9498C4.80426 12.061 4.91661 12.1688 4.99103 12.2724C5.0669 12.3777 5.10338 12.4788 5.10411 12.5774V12.5933L5.09025 12.5925C4.96038 12.5849 4.8349 12.5557 4.73568 12.5047C4.66418 12.4679 4.60654 12.4195 4.57152 12.3593C4.53577 12.2983 4.52337 12.2256 4.54453 12.1412C4.55839 12.0835 4.58757 12.0209 4.63427 11.9532L4.64156 11.9423L4.65178 11.9498ZM4.9706 12.2916C4.89983 12.1922 4.79258 12.0894 4.6474 11.9824C4.60727 12.0434 4.58174 12.0986 4.56933 12.1487C4.5511 12.2239 4.56204 12.2883 4.59341 12.3426C4.62551 12.3978 4.6795 12.4429 4.74662 12.4771C4.83855 12.5248 4.95528 12.5523 5.07712 12.5615C5.07274 12.4746 5.03772 12.3852 4.9706 12.2916Z" fill="black"/>
<path d="M4.88806 12.1638C5.17916 12.3535 5.34332 12.5599 5.39366 12.7813C5.09818 12.8406 4.78228 12.6802 4.88806 12.1638Z" fill="#008830"/>
<path d="M4.89508 12.1504C5.04172 12.2457 5.157 12.346 5.24163 12.4504C5.32626 12.5549 5.38098 12.6643 5.40724 12.778L5.41089 12.7939L5.3963 12.7964C5.31313 12.8131 5.22777 12.8122 5.1497 12.7922C5.07893 12.773 5.014 12.7362 4.96366 12.681C4.91259 12.6251 4.87611 12.5499 4.86152 12.4529C4.84912 12.371 4.85277 12.2741 4.87538 12.1604L4.87976 12.1404L4.89508 12.1504ZM5.22193 12.4713C5.14241 12.3727 5.03443 12.2783 4.89727 12.1872C4.87903 12.2883 4.87684 12.3744 4.88778 12.4479C4.90165 12.5373 4.93521 12.6075 4.9819 12.6593C5.02859 12.7103 5.08915 12.7446 5.15627 12.7621C5.22558 12.7805 5.30218 12.7822 5.37733 12.7688C5.35179 12.6668 5.29999 12.5674 5.22193 12.4713Z" fill="black"/>
<path d="M4.51179 12.4897C4.55119 12.8707 4.50304 13.144 4.37755 13.322C4.16087 13.0847 4.08572 12.6986 4.51179 12.4897Z" fill="#008830"/>
<path d="M4.52446 12.488C4.54416 12.6802 4.54197 12.8448 4.51936 12.9852C4.49601 13.1256 4.4515 13.2409 4.3873 13.332L4.37782 13.3446L4.3676 13.3329C4.30632 13.266 4.25598 13.1866 4.22461 13.1031C4.19615 13.0262 4.18302 12.9451 4.19251 12.8657C4.20126 12.7855 4.23263 12.7078 4.29173 12.6368C4.34207 12.5766 4.41211 12.5214 4.50622 12.4755L4.52227 12.468L4.52446 12.488ZM4.49309 12.9794C4.51498 12.8473 4.5179 12.6919 4.50039 12.5122C4.41794 12.554 4.35593 12.6042 4.31143 12.6577C4.25598 12.7237 4.2268 12.7955 4.21877 12.8691C4.21002 12.9434 4.22242 13.0195 4.24941 13.0914C4.27714 13.1666 4.32164 13.2376 4.37563 13.2994C4.43254 13.215 4.47193 13.1081 4.49309 12.9794Z" fill="black"/>
<path d="M4.51231 12.4905C4.7859 12.712 4.93108 12.9359 4.96245 13.1624C4.66333 13.1875 4.36275 12.9936 4.51231 12.4905Z" fill="#008830"/>
<path d="M4.51927 12.4788C4.65716 12.5899 4.76295 12.7028 4.8381 12.8156C4.91397 12.9301 4.9592 13.0445 4.97526 13.1599L4.97744 13.1766L4.96285 13.1774C4.87822 13.1849 4.79359 13.1749 4.71845 13.1457C4.64914 13.1181 4.58785 13.0746 4.54189 13.0136C4.49666 12.9526 4.46674 12.8732 4.46018 12.7755C4.45507 12.6927 4.46601 12.5966 4.49957 12.4855L4.50468 12.4671L4.51927 12.4788ZM4.81694 12.834C4.74617 12.727 4.64695 12.6209 4.51854 12.5147C4.49155 12.6133 4.48207 12.6994 4.48644 12.7738C4.49228 12.8649 4.52 12.9376 4.56232 12.9944C4.60463 13.0512 4.66154 13.0913 4.72647 13.1164C4.79432 13.1431 4.8702 13.1532 4.9468 13.1482C4.92929 13.0437 4.88698 12.9384 4.81694 12.834Z" fill="black"/>
<path d="M4.69386 12.1855L4.81935 12.2758L4.95505 12.2608L5.01195 12.3677C5.01195 12.3677 4.99663 12.5875 4.9959 12.6076C4.9959 12.6276 5.03822 12.7504 5.03822 12.7504L4.94629 12.8273L4.6997 12.9435L4.46915 12.7287L4.32397 12.7463L4.25977 12.539L4.33126 12.3627L4.51147 12.229L4.69386 12.1855Z" fill="#008830"/>
<path d="M4.70062 12.173L4.82319 12.2607L4.9618 12.2448L5.02528 12.3643V12.3693C5.02528 12.3693 5.00996 12.5891 5.00996 12.6075C5.00996 12.6217 5.05081 12.7454 5.05081 12.7454L5.05373 12.7562C4.90344 12.8816 4.8976 12.8657 4.6977 12.9601L4.46497 12.7445L4.31467 12.7621L4.24609 12.5381C4.2709 12.4763 4.2957 12.4145 4.32124 12.3526C4.38252 12.3058 4.44454 12.2599 4.50655 12.2147L4.69624 12.1696L4.70062 12.173ZM4.81297 12.2891L4.69113 12.2022L4.51676 12.2432L4.3424 12.3727L4.27455 12.5398L4.33291 12.7295L4.47299 12.7128L4.70208 12.9259L4.93992 12.8139L5.02236 12.7454C5.01214 12.7153 4.98296 12.6292 4.98296 12.6075C4.98369 12.5883 4.99609 12.4036 4.99828 12.371L4.94794 12.2766L4.81662 12.2916L4.81297 12.2891Z" fill="black"/>
<path d="M4.45706 12.295C4.33887 12.6543 4.18639 12.8716 4.00254 12.9635C3.90623 12.6376 3.99524 12.2565 4.45706 12.295Z" fill="#008830"/>
<path d="M4.46909 12.3008C4.40999 12.4813 4.34068 12.6276 4.26408 12.7387C4.18747 12.8515 4.10138 12.9301 4.008 12.9769L3.99486 12.9836L3.98976 12.9685C3.96276 12.8758 3.94963 12.7797 3.95547 12.6886C3.9613 12.605 3.98246 12.5265 4.02259 12.4604C4.06271 12.3944 4.12181 12.3418 4.20352 12.31C4.27137 12.2833 4.356 12.2716 4.45814 12.2799L4.47565 12.2816L4.46909 12.3008ZM4.24365 12.7203C4.31588 12.615 4.38081 12.478 4.43844 12.3092C4.34798 12.3033 4.27283 12.315 4.21155 12.3384C4.1364 12.3677 4.08095 12.417 4.04375 12.478C4.00654 12.539 3.98684 12.6125 3.98173 12.6911C3.97663 12.7721 3.98757 12.8591 4.01019 12.9426C4.09482 12.8975 4.17288 12.8231 4.24365 12.7203Z" fill="black"/>
<path d="M4.45717 12.3217C4.12813 12.2473 3.9151 12.1111 3.80566 11.9198C4.0705 11.756 4.4134 11.7927 4.45717 12.3217Z" fill="#008830"/>
<path d="M4.45394 12.3368C4.28833 12.2992 4.1519 12.2457 4.04246 12.178C3.93302 12.1095 3.85058 12.0259 3.7944 11.9273L3.78711 11.9139L3.79951 11.9064C3.87393 11.8596 3.95491 11.8295 4.03443 11.8212C4.10739 11.8128 4.17889 11.8237 4.24236 11.8588C4.30584 11.893 4.36128 11.9507 4.40214 12.0376C4.43643 12.1103 4.45977 12.2039 4.46999 12.32L4.47145 12.3401L4.45394 12.3368ZM4.05486 12.1512C4.15773 12.2156 4.28614 12.2657 4.44154 12.3025C4.43132 12.1997 4.40943 12.117 4.37879 12.0518C4.34085 11.9716 4.28978 11.9173 4.23069 11.8855C4.17159 11.8537 4.1052 11.8437 4.03662 11.8512C3.96585 11.8588 3.8929 11.8847 3.82505 11.9248C3.87831 12.0125 3.95418 12.0886 4.05486 12.1512Z" fill="black"/>
<path d="M5.08496 12.3343C5.41838 12.3686 5.65622 12.305 5.80797 12.1563C5.5942 11.9148 5.25495 11.8404 5.08496 12.3343Z" fill="#008830"/>
<path d="M5.10434 12.3209C5.26193 12.3351 5.39763 12.3276 5.51217 12.2991C5.6238 12.2707 5.71572 12.2223 5.78868 12.1554C5.73251 12.0952 5.66903 12.0468 5.60264 12.0167C5.53917 11.9883 5.47278 11.9766 5.40858 11.9883C5.34437 12 5.28163 12.0351 5.22618 12.1003C5.18022 12.1529 5.13936 12.2256 5.10434 12.3209ZM5.51801 12.3284C5.3969 12.3593 5.25245 12.3668 5.08392 12.3493L5.06641 12.3476L5.07297 12.3284C5.11018 12.2198 5.15614 12.1379 5.20721 12.0794C5.26704 12.0092 5.33489 11.9707 5.4042 11.9582C5.47351 11.9457 5.54428 11.9574 5.61286 11.9883C5.68654 12.0217 5.75658 12.0769 5.81714 12.1454L5.82808 12.1571L5.81714 12.1679C5.73907 12.244 5.63985 12.2983 5.51801 12.3284Z" fill="black"/>
<path d="M5.08594 12.3351C5.2873 12.6418 5.4872 12.8014 5.68565 12.8306C5.69878 12.4872 5.52076 12.1496 5.08594 12.3351Z" fill="#008830"/>
<path d="M5.1075 12.3418C5.20307 12.4855 5.29865 12.5966 5.39422 12.6744C5.48761 12.7512 5.58026 12.7972 5.67219 12.8139C5.67438 12.7262 5.66343 12.6393 5.63863 12.5632C5.61455 12.4897 5.57734 12.4245 5.527 12.3785C5.47593 12.3317 5.41173 12.3017 5.33221 12.2975C5.26727 12.2941 5.19213 12.3075 5.1075 12.3418ZM5.3789 12.6994C5.27822 12.6167 5.17681 12.498 5.0754 12.3434L5.06445 12.3276L5.08123 12.3209C5.17681 12.2799 5.26071 12.2641 5.33294 12.2674C5.41903 12.2724 5.48833 12.3042 5.54305 12.3543C5.59777 12.4053 5.63717 12.4738 5.6627 12.5524C5.69043 12.6376 5.7021 12.7345 5.69845 12.8315L5.69772 12.8482L5.68313 12.8457C5.58172 12.8306 5.48031 12.783 5.3789 12.6994Z" fill="black"/>
<path d="M4.98148 12.5223C5.23172 12.7763 5.35502 13.017 5.36523 13.246C5.06465 13.2343 4.78522 13.0028 4.98148 12.5223Z" fill="#008830"/>
<path d="M4.99015 12.5106C5.11637 12.6393 5.21048 12.7638 5.27468 12.8858C5.33889 13.0086 5.37318 13.1281 5.37828 13.2451L5.37901 13.2618L5.36442 13.261C5.27979 13.2576 5.19589 13.2367 5.12366 13.1983C5.058 13.1632 5.0011 13.1122 4.9617 13.0462C4.92157 12.9794 4.89968 12.8975 4.9026 12.7989C4.90552 12.7161 4.92595 12.6217 4.96899 12.5156L4.97629 12.4972L4.99015 12.5106ZM5.25207 12.9016C5.19151 12.7863 5.10323 12.6685 4.98577 12.5473C4.9493 12.6418 4.93179 12.7262 4.92887 12.7997C4.92668 12.8916 4.94711 12.9677 4.98359 13.0287C5.02006 13.0905 5.07332 13.1381 5.13534 13.1716C5.19954 13.2058 5.27468 13.225 5.35056 13.2301C5.34326 13.1239 5.31116 13.0136 5.25207 12.9016Z" fill="black"/>
<path d="M4.87779 12.9435C5.04924 13.2727 5.10323 13.5452 5.05143 13.7666C4.76908 13.6513 4.56334 13.3337 4.87779 12.9435Z" fill="#008830"/>
<path d="M4.88932 12.9359C4.97614 13.1022 5.03305 13.2535 5.0615 13.3922C5.09069 13.5318 5.09142 13.6571 5.06515 13.7708L5.0615 13.7866L5.04764 13.7808C4.96812 13.7482 4.8937 13.6997 4.83534 13.6379C4.78135 13.5811 4.74122 13.5125 4.72079 13.4357C4.70109 13.3588 4.70109 13.2727 4.73028 13.18C4.75435 13.1022 4.79959 13.0195 4.8689 12.9334L4.88057 12.9184L4.88932 12.9359ZM5.03597 13.3989C5.00897 13.2685 4.95572 13.1256 4.87619 12.9694C4.81637 13.0463 4.77697 13.1206 4.75508 13.1908C4.72882 13.2761 4.72809 13.3563 4.74633 13.4273C4.76457 13.4983 4.80251 13.5618 4.85358 13.6153C4.90537 13.6705 4.97177 13.7156 5.04326 13.7465C5.06442 13.6429 5.06223 13.5268 5.03597 13.3989Z" fill="black"/>
<path d="M4.75721 12.9225C4.79588 13.3036 4.747 13.5769 4.62005 13.754C4.4041 13.5159 4.33114 13.1298 4.75721 12.9225Z" fill="#008830"/>
<path d="M4.77079 12.9209C4.78976 13.1122 4.78684 13.2777 4.7635 13.4173C4.73942 13.5585 4.69492 13.673 4.63071 13.764L4.62123 13.7766L4.61102 13.7649C4.54973 13.698 4.49939 13.6186 4.46875 13.5351C4.4403 13.4574 4.42716 13.3763 4.43665 13.2969C4.44613 13.2167 4.4775 13.139 4.53733 13.0679C4.58767 13.0086 4.65771 12.9543 4.75182 12.9083L4.7686 12.9008L4.77079 12.9209ZM4.73723 13.4114C4.75912 13.2802 4.76277 13.1248 4.74599 12.9443C4.66354 12.9869 4.60153 13.0362 4.5563 13.0888C4.50085 13.1549 4.47167 13.2276 4.46291 13.3011C4.45416 13.3746 4.46656 13.4507 4.49282 13.5225C4.52055 13.5978 4.56505 13.6696 4.61904 13.7315C4.67595 13.6471 4.71534 13.5409 4.73723 13.4114Z" fill="black"/>
<path d="M4.53939 12.4947C4.51531 12.4755 4.49707 12.4413 4.4927 12.4078C4.48905 12.3786 4.49124 12.3602 4.50218 12.3201C4.50802 12.2992 4.51312 12.2817 4.51239 12.2817C4.51239 12.2808 4.50802 12.2791 4.50291 12.2783C4.49343 12.2758 4.49197 12.2766 4.47592 12.2942C4.41901 12.3544 4.36721 12.3828 4.33146 12.3744C4.2906 12.3644 4.27455 12.2984 4.2979 12.2332C4.31687 12.178 4.35335 12.1438 4.40004 12.1379C4.41755 12.1354 4.42485 12.1363 4.44454 12.1421C4.45768 12.1463 4.46789 12.1488 4.46789 12.1471C4.46716 12.1454 4.45695 12.1379 4.44527 12.1296C4.38764 12.0878 4.35408 12.0393 4.35189 11.9959C4.3497 11.9649 4.36794 11.9349 4.39858 11.9173C4.44965 11.8881 4.51458 11.909 4.5445 11.9649C4.55836 11.9908 4.56273 12.0126 4.56273 12.0669C4.56273 12.0986 4.56346 12.117 4.56565 12.1179C4.56711 12.1187 4.57222 12.1237 4.57587 12.1287L4.58316 12.1379L4.61162 12.1112C4.6408 12.0844 4.66196 12.0677 4.6853 12.0535C4.7174 12.0335 4.75607 12.0276 4.77504 12.0402C4.81736 12.0669 4.81736 12.1546 4.77504 12.2148C4.74075 12.2633 4.68822 12.2808 4.6408 12.2591C4.63059 12.2541 4.61526 12.2482 4.60724 12.2457L4.59338 12.2415L4.61526 12.2733C4.64445 12.3159 4.66123 12.3468 4.6729 12.3803C4.69479 12.4421 4.68311 12.4906 4.64299 12.5106C4.61162 12.5265 4.57076 12.5207 4.53939 12.4947Z" fill="#F9D90F"/>
<path d="M4.51901 12.4956C4.51025 12.4864 4.50296 12.4763 4.49639 12.4646C4.48764 12.4471 4.48107 12.4287 4.47888 12.4095C4.47681 12.3951 4.47657 12.3805 4.47815 12.366C4.47961 12.3518 4.48326 12.3359 4.48909 12.3151L4.49493 12.2942L4.48399 12.305C4.4548 12.3359 4.42635 12.3593 4.40082 12.3736C4.37382 12.3886 4.34902 12.3944 4.32786 12.3894C4.32494 12.3878 4.32129 12.3869 4.31837 12.3853C4.29941 12.3769 4.28627 12.3585 4.27898 12.3351C4.27241 12.3134 4.27168 12.2858 4.27679 12.2574C4.27825 12.2482 4.28117 12.2382 4.28481 12.2273C4.29503 12.1972 4.31035 12.173 4.32932 12.1554C4.34902 12.1371 4.37236 12.1262 4.3979 12.1229L4.41176 12.1212C4.39352 12.1053 4.3782 12.0894 4.36653 12.0727C4.34902 12.0476 4.3388 12.0217 4.33807 11.9967C4.33661 11.9783 4.34172 11.9591 4.35121 11.9432C4.36069 11.9273 4.37455 11.9139 4.39206 11.9039C4.42051 11.888 4.45335 11.8855 4.48253 11.8947C4.52718 11.9089 4.56132 11.9505 4.57081 12.0025C4.57372 12.0184 4.57518 12.0385 4.57518 12.0669C4.57518 12.0819 4.57518 12.0944 4.57591 12.1028C4.57591 12.1045 4.57227 12.1036 4.57008 12.1036C4.57227 12.1045 4.57518 12.107 4.5781 12.1103L4.58394 12.117L4.60291 12.0995C4.6175 12.0861 4.6299 12.0744 4.6423 12.0652C4.65471 12.0552 4.66638 12.0476 4.67805 12.0401C4.69556 12.0293 4.71526 12.0226 4.73277 12.0201C4.75174 12.0167 4.76852 12.0192 4.78092 12.0268C4.78457 12.0293 4.78749 12.0318 4.79041 12.0343C4.80792 12.051 4.81813 12.0777 4.81886 12.1087C4.82032 12.1371 4.81375 12.1697 4.79916 12.1989C4.79551 12.2073 4.79041 12.2165 4.78457 12.224C4.7656 12.2507 4.74153 12.2691 4.71599 12.2775C4.68973 12.2858 4.662 12.285 4.63574 12.2724L4.62917 12.2699C4.6423 12.2892 4.65252 12.3059 4.66127 12.3226C4.67076 12.3401 4.67805 12.3568 4.68462 12.3744C4.69629 12.4087 4.69921 12.4396 4.69337 12.4646C4.68681 12.4922 4.67149 12.5123 4.64741 12.5248C4.6299 12.534 4.60947 12.5365 4.58905 12.5332C4.56799 12.5303 4.54791 12.5214 4.53068 12.5073L4.51828 12.4964L4.51901 12.4956ZM4.51901 12.4488C4.5263 12.4621 4.53579 12.4738 4.546 12.4822L4.54892 12.4847C4.56205 12.4947 4.57737 12.5014 4.59196 12.5031C4.60801 12.5056 4.62334 12.5039 4.63647 12.4972C4.65325 12.4889 4.66346 12.4747 4.66784 12.4571C4.67222 12.4379 4.6693 12.4137 4.65981 12.3853C4.65471 12.3702 4.64741 12.3543 4.63866 12.3385C4.6299 12.3217 4.61896 12.3034 4.60437 12.2825L4.55767 12.2148L4.6102 12.2307L4.62698 12.2365L4.64522 12.2449C4.66638 12.2541 4.68827 12.2549 4.7087 12.2482C4.72912 12.2415 4.74882 12.2265 4.76414 12.2048C4.76852 12.1981 4.7729 12.1914 4.77655 12.1839C4.78822 12.1596 4.79333 12.1329 4.7926 12.1095C4.79187 12.0878 4.7853 12.0685 4.77363 12.0577L4.76852 12.0535C4.75835 12.0487 4.74717 12.0476 4.73642 12.0502C4.72183 12.0518 4.70578 12.0577 4.69046 12.0669C4.67951 12.0736 4.66857 12.0811 4.65763 12.0903C4.64595 12.0995 4.63355 12.1095 4.61969 12.1229L4.58102 12.1596C4.57445 12.1504 4.56789 12.1412 4.56059 12.1329C4.55986 12.1321 4.56059 12.132 4.55986 12.132C4.55403 12.1287 4.55038 12.1195 4.54965 12.1053C4.54892 12.0961 4.54819 12.0836 4.54819 12.0669C4.54819 12.041 4.54746 12.0226 4.54527 12.0084C4.54308 11.9955 4.53856 11.9833 4.53214 11.9724C4.51901 11.9482 4.49858 11.9315 4.47523 11.924C4.45189 11.9165 4.42635 11.9181 4.40373 11.9315C4.3906 11.939 4.38039 11.949 4.37309 11.9599C4.36653 11.9708 4.36361 11.9833 4.36434 11.995C4.36507 12.0134 4.37309 12.0334 4.38768 12.0535C4.40228 12.0752 4.42416 12.0961 4.45189 12.1162L4.46721 12.1287C4.47304 12.1329 4.47742 12.1379 4.47888 12.1412C4.47961 12.1429 4.48034 12.1446 4.48034 12.1471C4.48034 12.158 4.47523 12.1621 4.46721 12.163H4.4621C4.45772 12.1621 4.4497 12.1596 4.44021 12.1571C4.43146 12.1546 4.42489 12.1529 4.41906 12.1521C4.41395 12.1513 4.40884 12.1521 4.40082 12.1529C4.38039 12.1554 4.36142 12.1646 4.3461 12.1788C4.33078 12.1931 4.31837 12.2139 4.30962 12.239C4.3067 12.2474 4.30451 12.2557 4.30232 12.2641C4.29868 12.2866 4.29868 12.3084 4.30378 12.3251C4.30889 12.341 4.31692 12.3518 4.32786 12.3577L4.3337 12.3593C4.34829 12.3627 4.36726 12.3585 4.38914 12.346C4.41249 12.3334 4.43875 12.3117 4.46575 12.2833C4.47523 12.2733 4.48034 12.2683 4.48545 12.2658C4.49274 12.2607 4.49712 12.2616 4.50442 12.2632L4.51244 12.2658C4.51828 12.2674 4.52265 12.2708 4.52411 12.2766C4.52557 12.28 4.52411 12.2875 4.52193 12.2975L4.51463 12.3243C4.50879 12.3435 4.50587 12.3577 4.50442 12.3702C4.50157 12.3975 4.50675 12.4251 4.51901 12.4488ZM4.57008 12.1036C4.56935 12.1028 4.56862 12.1028 4.56935 12.1036H4.57008Z" fill="black"/>
<path d="M4.59557 12.224C4.58025 12.2674 4.54085 12.2908 4.50729 12.2749C4.47373 12.2599 4.45841 12.2123 4.47373 12.1688C4.48832 12.1254 4.52845 12.102 4.56201 12.1178C4.59557 12.1329 4.61089 12.1805 4.59557 12.224Z" fill="#F9D90F"/>
<path d="M4.58368 12.2181L4.58514 12.2156C4.59024 12.1989 4.59024 12.1805 4.58514 12.1655C4.58308 12.158 4.57959 12.1511 4.57492 12.1453C4.57025 12.1395 4.56452 12.135 4.55814 12.1321H4.55741C4.551 12.129 4.54405 12.1276 4.5371 12.128C4.53015 12.1285 4.52337 12.1307 4.51729 12.1346C4.50415 12.1421 4.49248 12.1563 4.48591 12.1738C4.4802 12.191 4.47995 12.21 4.48519 12.2273C4.48956 12.2424 4.49905 12.2549 4.51218 12.2608L4.51364 12.2616C4.52604 12.2666 4.54063 12.2658 4.55304 12.2582C4.56617 12.2507 4.57784 12.2365 4.58368 12.219V12.2181ZM4.60702 12.2332C4.59827 12.2566 4.58295 12.275 4.56471 12.285C4.54574 12.2967 4.52312 12.2984 4.50269 12.2892L4.49978 12.2875C4.49046 12.2828 4.48213 12.276 4.47533 12.2673C4.46853 12.2587 4.46344 12.2485 4.46038 12.2374C4.45308 12.2148 4.45308 12.1881 4.46184 12.163C4.47059 12.1379 4.48664 12.1179 4.50561 12.1078C4.52385 12.097 4.54501 12.0945 4.56471 12.1028L4.56763 12.1036C4.58805 12.1128 4.60265 12.1321 4.60994 12.1555C4.61724 12.178 4.61724 12.2048 4.60848 12.2298L4.60702 12.2332Z" fill="black"/>
<path d="M4.84087 12.0903C4.84087 12.1195 4.84525 12.1379 4.8613 12.178C4.86933 12.1989 4.87589 12.2156 4.87589 12.2165C4.87589 12.2173 4.87152 12.219 4.86714 12.2206C4.85838 12.224 4.85692 12.2232 4.83869 12.2064C4.77667 12.1513 4.72341 12.1262 4.69058 12.1387C4.65264 12.153 4.64608 12.2206 4.67599 12.285C4.70226 12.3393 4.74165 12.3711 4.78689 12.3727C4.80367 12.3736 4.81023 12.3719 4.8292 12.3635C4.84087 12.3585 4.85036 12.3552 4.85036 12.3569C4.84963 12.3585 4.8416 12.3677 4.83139 12.3777C4.78178 12.4245 4.75551 12.4772 4.75843 12.5206C4.76135 12.5532 4.78178 12.5816 4.81388 12.5967C4.86641 12.6218 4.9255 12.595 4.94739 12.5357C4.95761 12.5073 4.95834 12.4855 4.95177 12.4304C4.94739 12.3978 4.94593 12.3794 4.94812 12.3777C4.94958 12.3769 4.95323 12.3719 4.95688 12.366L4.96198 12.356L4.99335 12.3803C5.024 12.4053 5.04661 12.4204 5.07069 12.4329C5.10425 12.4496 5.14219 12.4521 5.15897 12.4379C5.19545 12.407 5.1845 12.3176 5.13635 12.2608C5.09695 12.2148 5.04515 12.2014 5.00211 12.2282C4.99262 12.234 4.97876 12.2415 4.97147 12.2449L4.95834 12.2499L4.97584 12.2156C4.99846 12.1697 5.01014 12.1362 5.0167 12.102C5.02983 12.0368 5.01305 11.9892 4.97147 11.9716C4.93937 11.9582 4.9007 11.9683 4.87735 11.9942C4.85328 12.0192 4.84014 12.056 4.84087 12.0903Z" fill="#F9D90F"/>
<path d="M4.85427 12.0902C4.85427 12.1036 4.85573 12.1144 4.85792 12.1261C4.86083 12.1387 4.86594 12.1529 4.87397 12.1721L4.88418 12.1988C4.88783 12.208 4.89002 12.2156 4.88929 12.2189C4.88856 12.2248 4.88418 12.2298 4.87834 12.2323L4.87105 12.2348C4.86375 12.2373 4.85937 12.239 4.85135 12.2348C4.84624 12.2323 4.84114 12.2273 4.83092 12.2189C4.80101 12.1913 4.77329 12.1721 4.74921 12.1612C4.72659 12.1512 4.70835 12.1479 4.69522 12.1529L4.69011 12.1554C4.68063 12.1612 4.67479 12.1729 4.67187 12.188C4.66896 12.2047 4.67115 12.2256 4.67698 12.2473C4.6799 12.2573 4.68355 12.2674 4.68793 12.2774C4.70033 12.3025 4.71492 12.3225 4.7317 12.3359C4.74848 12.3493 4.76745 12.3568 4.78715 12.3576C4.79517 12.3576 4.80028 12.3576 4.80539 12.3568C4.81049 12.356 4.8156 12.3534 4.82436 12.3493C4.83311 12.3459 4.84041 12.3434 4.84478 12.3417L4.84916 12.3409C4.85792 12.3409 4.86229 12.3451 4.86375 12.3551C4.86375 12.3568 4.86375 12.3585 4.86302 12.3601C4.86229 12.3643 4.85865 12.3693 4.85354 12.3752L4.83968 12.3894C4.81633 12.4119 4.79809 12.4353 4.78642 12.4579C4.77547 12.4796 4.77037 12.5005 4.77183 12.5197C4.77329 12.5323 4.77766 12.5448 4.78569 12.5557C4.79371 12.5665 4.80539 12.5757 4.81925 12.5824C4.84187 12.5933 4.86667 12.5933 4.88783 12.5833C4.90826 12.5741 4.92577 12.5557 4.93525 12.5298C4.93963 12.5172 4.94255 12.5064 4.94328 12.4922C4.94328 12.478 4.94182 12.4587 4.9389 12.432C4.93671 12.4153 4.93525 12.4027 4.93452 12.3936C4.93379 12.3785 4.93598 12.3685 4.94182 12.3651C4.94255 12.3643 4.94109 12.3651 4.94182 12.3643C4.94765 12.3543 4.95349 12.3443 4.9586 12.3342L5.00091 12.3677C5.01623 12.3802 5.02937 12.3902 5.04177 12.3977C5.05344 12.4061 5.06438 12.4128 5.07679 12.4186C5.09211 12.427 5.10816 12.4312 5.12202 12.432C5.13515 12.4328 5.14537 12.4303 5.1512 12.4253L5.15485 12.4228C5.16507 12.4103 5.16944 12.3902 5.16725 12.3668C5.16507 12.3409 5.15558 12.3133 5.13953 12.2883C5.13588 12.2824 5.13151 12.2766 5.12713 12.2707C5.10889 12.2507 5.08846 12.2373 5.06803 12.2314C5.0476 12.2273 5.02718 12.2298 5.00894 12.2415L4.99143 12.2507L4.97684 12.2582L4.92941 12.2791L4.96443 12.208C4.97538 12.1855 4.98413 12.1663 4.98997 12.1487C4.99653 12.1312 5.00091 12.1153 5.00456 12.0986C5.00967 12.0693 5.00894 12.0434 5.00237 12.0242C4.99924 12.0153 4.9945 12.0073 4.98846 12.0007C4.98243 11.994 4.97523 11.989 4.96735 11.9858C4.95349 11.9799 4.9389 11.9799 4.92504 11.9824C4.91045 11.9866 4.89658 11.9941 4.88637 12.005C4.87616 12.0158 4.86813 12.0292 4.86229 12.0443C4.85719 12.0576 4.85427 12.0718 4.85427 12.086V12.0902ZM4.83238 12.1345L4.83092 12.1236L4.828 12.1261V12.0902C4.828 12.071 4.83165 12.0509 4.83822 12.0317C4.84551 12.0142 4.85573 11.9966 4.86813 11.9824C4.88258 11.9677 4.90019 11.9576 4.91916 11.9532C4.93813 11.9488 4.95778 11.9502 4.97611 11.9573C5.00091 11.9674 5.01769 11.9866 5.02718 12.0133C5.03593 12.0384 5.03666 12.0693 5.0301 12.1053C5.02645 12.1236 5.02134 12.1412 5.01477 12.1604C5.00821 12.178 5.00018 12.1963 4.98924 12.2189L4.99581 12.2147C5.02061 12.1997 5.04687 12.1955 5.07314 12.2022C5.0994 12.2089 5.12421 12.2248 5.1461 12.2498C5.1512 12.2565 5.15631 12.2632 5.16069 12.2707C5.17966 12.2991 5.1906 12.3326 5.19352 12.3635C5.19644 12.3961 5.18987 12.4253 5.17309 12.4445L5.16725 12.4504C5.15631 12.4596 5.13953 12.4629 5.12056 12.4621C5.10378 12.4612 5.08408 12.4554 5.06584 12.4462C5.05344 12.4404 5.04104 12.4328 5.02791 12.4245C5.0155 12.4153 5.00164 12.4053 4.98559 12.3927L4.96662 12.3768L4.96224 12.3835C4.96006 12.3869 4.95714 12.3894 4.95495 12.3911L4.95422 12.3919C4.95568 12.391 4.96079 12.3894 4.96079 12.3911C4.96151 12.3994 4.96297 12.4119 4.96516 12.4278C4.96881 12.4562 4.97027 12.4763 4.96954 12.4938C4.96881 12.5114 4.96589 12.5256 4.96006 12.5415C4.94765 12.5749 4.92504 12.5991 4.89731 12.6117C4.87032 12.6242 4.83895 12.6242 4.80903 12.6108C4.7908 12.6025 4.7762 12.5899 4.76526 12.5749C4.75432 12.559 4.74702 12.5415 4.74556 12.5222C4.7441 12.4972 4.74994 12.4696 4.7638 12.4429C4.77329 12.4245 4.78569 12.4061 4.80174 12.3877H4.78642C4.76161 12.3869 4.73754 12.3777 4.71711 12.361C4.69668 12.3451 4.67917 12.3217 4.66531 12.2916C4.65947 12.2807 4.65509 12.2682 4.65218 12.2565C4.64464 12.2327 4.64263 12.2071 4.64634 12.1821C4.64999 12.1579 4.66093 12.1387 4.67771 12.1287C4.68063 12.127 4.68355 12.1253 4.6872 12.1245C4.70616 12.117 4.73097 12.1203 4.75869 12.1328C4.78569 12.1454 4.8156 12.1663 4.8477 12.1947L4.85719 12.203L4.84989 12.1846C4.84114 12.1638 4.83603 12.1479 4.83238 12.1345Z" fill="black"/>
<path d="M4.84491 12.2632C4.84637 12.2607 4.84783 12.2565 4.85002 12.2532C4.86972 12.2164 4.90766 12.2005 4.93757 12.2148L4.94632 12.2198C4.97405 12.2398 4.9828 12.2833 4.96675 12.3226C4.96529 12.3267 4.96383 12.3301 4.96164 12.3334C4.94195 12.3702 4.90401 12.3869 4.8741 12.3719C4.87105 12.3708 4.86811 12.3694 4.86534 12.3677C4.83762 12.3476 4.82886 12.3033 4.84491 12.2641V12.2632Z" fill="#F9D90F"/>
<path d="M4.8329 12.2565C4.83435 12.2532 4.83654 12.2482 4.838 12.2457C4.84968 12.2239 4.86646 12.2089 4.88469 12.2005C4.90366 12.1922 4.92409 12.1922 4.94233 12.2005L4.95255 12.2064C4.97005 12.2189 4.981 12.2381 4.98538 12.2607C4.98975 12.2816 4.98756 12.3067 4.97881 12.3292C4.97662 12.3326 4.97516 12.3376 4.97297 12.3418C4.9613 12.3627 4.94452 12.3785 4.92628 12.3861C4.90731 12.3944 4.88688 12.3952 4.86864 12.3861C4.865 12.3844 4.86135 12.3827 4.85843 12.3802C4.84092 12.3677 4.82998 12.3485 4.8256 12.3267C4.82122 12.305 4.82268 12.2808 4.83217 12.2582L4.8329 12.2565ZM4.86062 12.2607L4.85624 12.2707C4.84968 12.2875 4.84822 12.3042 4.85113 12.3192C4.85405 12.3342 4.86135 12.3468 4.87229 12.3543L4.87886 12.3585C4.89053 12.3643 4.90439 12.3635 4.9168 12.3576C4.92993 12.3526 4.9416 12.3409 4.94963 12.3259L4.95473 12.3167C4.9613 12.3 4.96276 12.2824 4.95984 12.2674C4.95698 12.253 4.9494 12.2405 4.93868 12.2323L4.93212 12.229C4.92611 12.2261 4.91966 12.2246 4.91315 12.2246C4.90663 12.2246 4.90018 12.2261 4.89418 12.229C4.88105 12.2348 4.86937 12.2457 4.86062 12.2607Z" fill="black"/>
<path d="M4.47044 12.9242C4.46388 12.89 4.46461 12.8674 4.47336 12.8164C4.47774 12.7905 4.48139 12.7688 4.48139 12.768C4.48139 12.7671 4.47555 12.7663 4.46972 12.7663C4.4595 12.7655 4.45804 12.7663 4.44126 12.7905C4.3829 12.8741 4.32745 12.9192 4.28659 12.915C4.23917 12.9109 4.21582 12.8348 4.23552 12.7513C4.2523 12.6811 4.29024 12.6326 4.34131 12.6159C4.36101 12.61 4.36903 12.61 4.39238 12.6134C4.40697 12.6159 4.41937 12.6167 4.41865 12.615C4.41719 12.6134 4.40551 12.605 4.39165 12.5975C4.32307 12.5582 4.28076 12.5064 4.27419 12.4546C4.26908 12.417 4.28659 12.3777 4.31942 12.351C4.37487 12.3059 4.44856 12.3184 4.48795 12.3794C4.50619 12.4086 4.51276 12.4329 4.51714 12.4997C4.52006 12.5373 4.52297 12.5591 4.52589 12.5599C4.52808 12.5607 4.53392 12.5657 4.5383 12.5716L4.54778 12.5816L4.57696 12.5432C4.60688 12.5056 4.62876 12.4813 4.6543 12.4588C4.68859 12.4287 4.73163 12.4145 4.75425 12.4262C4.80386 12.4504 4.81188 12.5557 4.76957 12.6368C4.73601 12.702 4.6791 12.7329 4.62366 12.7162C4.61125 12.712 4.59374 12.7078 4.58499 12.7061L4.56821 12.7036L4.59593 12.7379C4.63314 12.7847 4.6543 12.8181 4.67035 12.8557C4.70026 12.9267 4.69223 12.9869 4.64919 13.0203C4.61563 13.0454 4.56894 13.0454 4.53538 13.0237C4.50182 13.002 4.47847 12.9643 4.47044 12.9242Z" fill="#F9D90F"/>
<path d="M4.4586 12.9275C4.45495 12.9092 4.45276 12.8941 4.45349 12.8766C4.45422 12.859 4.45641 12.8398 4.46078 12.8139L4.46662 12.7813C4.4637 12.783 4.46006 12.7888 4.45203 12.8005C4.42212 12.8431 4.39293 12.8757 4.36521 12.8983C4.33676 12.9217 4.30976 12.9326 4.28642 12.93C4.28204 12.93 4.27839 12.9292 4.27474 12.9284C4.25359 12.9217 4.23754 12.9033 4.22732 12.8782C4.21857 12.8548 4.21419 12.8239 4.21638 12.7913C4.21784 12.7771 4.22003 12.7629 4.22294 12.7479C4.2317 12.7094 4.24702 12.6777 4.26599 12.6534C4.28569 12.6284 4.31049 12.6108 4.33895 12.6016C4.34843 12.5983 4.35573 12.5966 4.36302 12.5958C4.33749 12.5791 4.31706 12.5607 4.30101 12.5406C4.27912 12.5147 4.26526 12.4855 4.26161 12.4571C4.25869 12.4353 4.26234 12.4128 4.2711 12.3919C4.28058 12.3718 4.29444 12.3534 4.31268 12.3384C4.34259 12.3133 4.37907 12.3041 4.4119 12.31C4.44619 12.3158 4.47756 12.3359 4.49872 12.3702C4.50894 12.386 4.51623 12.4011 4.52134 12.4211C4.52572 12.4404 4.52863 12.4637 4.53155 12.498C4.53228 12.5172 4.53374 12.5323 4.5352 12.5415C4.53593 12.5456 4.52572 12.544 4.53009 12.5456C4.53228 12.5465 4.53593 12.549 4.53958 12.5523L4.5476 12.5598L4.56803 12.5331C4.58262 12.5139 4.59648 12.498 4.60889 12.4838C4.62129 12.4704 4.63369 12.4587 4.64683 12.447C4.66506 12.4312 4.68622 12.4186 4.70592 12.4119C4.72635 12.4053 4.74605 12.4053 4.75991 12.4119L4.76793 12.4161C4.79128 12.432 4.80514 12.4637 4.80952 12.5014C4.81421 12.5512 4.80447 12.6014 4.7818 12.6443C4.76356 12.6793 4.73875 12.7061 4.71103 12.7211C4.68257 12.7362 4.6512 12.7395 4.62056 12.7303L4.60451 12.7261L4.60597 12.7278C4.62494 12.7512 4.64026 12.7721 4.65266 12.7913C4.66506 12.8105 4.67455 12.8298 4.6833 12.849C4.69935 12.8874 4.70519 12.9234 4.70081 12.9543C4.69644 12.9869 4.68185 13.0136 4.65704 13.0328C4.63807 13.047 4.61618 13.0537 4.59357 13.0546C4.57095 13.0554 4.54833 13.0495 4.52936 13.037C4.51113 13.0245 4.4958 13.0086 4.48413 12.9902C4.47829 12.9819 4.47319 12.9727 4.46954 12.9626L4.46662 12.9693L4.4586 12.9275ZM4.47975 12.8774C4.47975 12.8908 4.48048 12.9025 4.4834 12.9167L4.48413 12.9209C4.48778 12.9392 4.49507 12.9568 4.50529 12.9718C4.51477 12.9877 4.52791 13.0011 4.5425 13.0103C4.55709 13.0203 4.57533 13.0245 4.59284 13.0245C4.61035 13.0236 4.62786 13.0178 4.64245 13.0069C4.66069 12.9936 4.67163 12.9735 4.67455 12.9501C4.6782 12.925 4.67309 12.8949 4.65923 12.8624C4.6512 12.8448 4.64245 12.8273 4.63077 12.8089C4.6191 12.7905 4.60451 12.7704 4.587 12.7487L4.53447 12.6827L4.587 12.691L4.60597 12.6952L4.62786 12.7011C4.65193 12.7086 4.67747 12.7053 4.69935 12.6936C4.7227 12.681 4.74386 12.6585 4.75918 12.6292C4.76283 12.6209 4.76648 12.6125 4.76939 12.605C4.78253 12.5707 4.7869 12.5356 4.78326 12.5047C4.78034 12.4763 4.77012 12.4537 4.75407 12.4429L4.74969 12.4395C4.74094 12.4353 4.72781 12.4362 4.71322 12.4412C4.69644 12.447 4.67893 12.4571 4.66288 12.4713C4.65047 12.4813 4.63953 12.493 4.62713 12.5064C4.61472 12.5189 4.60232 12.5348 4.58773 12.554L4.54906 12.6033L4.53009 12.5824L4.52353 12.5757C4.5228 12.5749 4.52353 12.5749 4.5228 12.5749C4.51623 12.5724 4.51185 12.5624 4.50894 12.5456C4.50748 12.5348 4.50602 12.5197 4.50456 12.5005C4.50237 12.4688 4.49945 12.4462 4.4958 12.4295C4.49143 12.4136 4.48559 12.4011 4.47756 12.3877C4.46005 12.361 4.43525 12.3443 4.40826 12.3401C4.38126 12.3351 4.35208 12.3426 4.328 12.3626C4.31341 12.3752 4.30174 12.3894 4.29517 12.4053C4.28861 12.4203 4.28569 12.437 4.28788 12.4529C4.29079 12.4754 4.30174 12.498 4.31998 12.5197C4.33895 12.5431 4.36521 12.5649 4.39804 12.5841L4.41701 12.5949C4.42358 12.6 4.42868 12.6041 4.43014 12.6075L4.43233 12.6125V12.615C4.43233 12.6225 4.42795 12.6284 4.42066 12.63L4.41555 12.6309C4.40971 12.6309 4.40096 12.63 4.39075 12.6284C4.3798 12.6267 4.37251 12.6259 4.36667 12.6267C4.3601 12.6267 4.35427 12.6284 4.34551 12.6309C4.32217 12.6384 4.30247 12.6526 4.28569 12.6735C4.26964 12.6944 4.2565 12.7228 4.24921 12.7554C4.24556 12.7688 4.2441 12.7813 4.24264 12.7938C4.24118 12.8214 4.2441 12.8465 4.25213 12.8657C4.25869 12.8832 4.26891 12.8949 4.28131 12.8991C4.2835 12.8991 4.28569 12.9 4.28861 12.9C4.30539 12.9016 4.32654 12.8924 4.34989 12.8732C4.37542 12.8532 4.40315 12.8222 4.43087 12.7813C4.44036 12.7679 4.44546 12.7612 4.45057 12.7571C4.45787 12.7504 4.46297 12.7504 4.471 12.7512L4.48048 12.7521C4.48705 12.7529 4.49143 12.7562 4.49362 12.7621L4.49434 12.7629C4.49507 12.7654 4.49435 12.7738 4.49289 12.7855L4.48705 12.8197C4.48267 12.844 4.48048 12.8615 4.47975 12.8774Z" fill="black"/>
<path d="M4.56894 12.6827C4.55653 12.7387 4.51422 12.7738 4.47482 12.7613C4.43542 12.7496 4.41354 12.6944 4.42667 12.6393C4.4398 12.5841 4.48212 12.549 4.52151 12.5607C4.56091 12.5733 4.58207 12.6276 4.56967 12.6827H4.56894Z" fill="#F9D90F"/>
<path d="M4.57075 12.7195C4.56272 12.7362 4.55251 12.7496 4.5401 12.7596C4.52041 12.7763 4.49633 12.783 4.47371 12.7771L4.47153 12.7763C4.44745 12.7688 4.42994 12.7487 4.41973 12.7228C4.40951 12.6986 4.40732 12.6677 4.41389 12.6376L4.41462 12.6351C4.42191 12.6041 4.43724 12.5782 4.45693 12.5624C4.47663 12.5457 4.50071 12.539 4.52332 12.5457L4.52551 12.5465C4.54886 12.5532 4.5671 12.5732 4.57731 12.5991C4.5868 12.6242 4.58972 12.6543 4.58315 12.6852V12.747L4.57075 12.7195ZM4.52478 12.7353C4.53865 12.7236 4.55032 12.7044 4.55616 12.681V12.6209L4.55324 12.6117C4.55025 12.6033 4.5457 12.5957 4.53991 12.5895C4.53411 12.5833 4.52721 12.5786 4.51968 12.5757H4.51822C4.5029 12.5707 4.48612 12.5757 4.47225 12.5874C4.45766 12.5991 4.44599 12.6184 4.44015 12.6418V12.6434C4.43432 12.6677 4.43578 12.6919 4.4438 12.7103C4.45037 12.7278 4.46204 12.742 4.47736 12.747H4.47809C4.49414 12.7521 4.51019 12.747 4.52478 12.7353Z" fill="black"/>
<path d="M4.89217 12.5658C4.88633 12.5984 4.88779 12.6209 4.89727 12.6702C4.90238 12.6953 4.90603 12.717 4.90603 12.7179C4.90603 12.7179 4.90092 12.7195 4.89508 12.7195C4.88487 12.7212 4.88341 12.7204 4.8659 12.697C4.80754 12.6168 4.75209 12.575 4.71269 12.5792C4.66673 12.585 4.64557 12.6594 4.666 12.7404C4.68424 12.8098 4.72218 12.8558 4.77325 12.87C4.79148 12.875 4.79951 12.8758 4.82213 12.8716C4.83745 12.8683 4.84839 12.8675 4.84766 12.8691C4.84693 12.8708 4.83526 12.8792 4.82213 12.8867C4.75647 12.9276 4.71561 12.9794 4.7105 13.0296C4.70685 13.0663 4.72436 13.1048 4.75719 13.1299C4.81191 13.1725 4.88414 13.1583 4.92062 13.0973C4.93813 13.068 4.94397 13.0438 4.94688 12.9794C4.94907 12.9418 4.95126 12.9201 4.95418 12.9193C4.95564 12.9184 4.96148 12.9134 4.96585 12.9084L4.97461 12.8984L5.00452 12.9343C5.03443 12.9711 5.05632 12.9936 5.08185 13.0145C5.11614 13.0429 5.15773 13.0555 5.17962 13.0446C5.22777 13.0187 5.23361 12.9159 5.19056 12.8382C5.15627 12.7747 5.10009 12.7463 5.04611 12.7647C5.0337 12.7689 5.01692 12.7739 5.00817 12.7747L4.99212 12.778L5.01838 12.7438C5.0534 12.6978 5.07383 12.6636 5.08842 12.6268C5.11687 12.5558 5.10739 12.4973 5.06434 12.4672C5.03078 12.4429 4.98555 12.4446 4.95345 12.4663C4.92135 12.4889 4.89873 12.5265 4.89217 12.5658Z" fill="#F9D90F"/>
<path d="M4.9056 12.5683C4.90268 12.5842 4.90195 12.5967 4.90268 12.6109C4.90341 12.6259 4.9056 12.6435 4.91071 12.6669L4.91654 12.7003C4.91873 12.7112 4.91946 12.7195 4.91873 12.7229C4.91654 12.7287 4.91144 12.7321 4.9056 12.7337L4.89612 12.7346C4.88809 12.7362 4.88298 12.7362 4.87569 12.7296C4.87058 12.7254 4.86547 12.7187 4.85672 12.7062C4.82754 12.6677 4.80054 12.6376 4.77501 12.6192C4.75166 12.6009 4.73123 12.5925 4.71445 12.5942L4.70789 12.5959C4.69548 12.6 4.686 12.6117 4.68016 12.6293C4.67287 12.6477 4.66995 12.6719 4.67287 12.6986C4.6736 12.7112 4.67579 12.7237 4.67943 12.7362C4.68746 12.7688 4.70059 12.7956 4.71737 12.8156C4.73342 12.8348 4.75385 12.8491 4.77647 12.8549C4.78522 12.8574 4.79106 12.8591 4.79689 12.8591C4.80273 12.8591 4.81003 12.8582 4.82024 12.8566C4.83045 12.8541 4.83921 12.8532 4.84432 12.8532H4.84942C4.85745 12.8549 4.86183 12.8591 4.86183 12.8691L4.8611 12.8741L4.85964 12.8758C4.85818 12.8791 4.8538 12.8842 4.84723 12.8883L4.829 12.9009C4.79689 12.9201 4.77209 12.9418 4.75385 12.9644C4.73634 12.9861 4.72613 13.0095 4.72394 13.0312C4.72248 13.0463 4.7254 13.0621 4.73196 13.0772C4.73926 13.0922 4.7502 13.1064 4.76479 13.1173C4.78887 13.1365 4.81732 13.1424 4.84359 13.1374C4.86985 13.1323 4.89393 13.1156 4.90998 13.0889C4.918 13.0755 4.92311 13.0638 4.92676 13.0479C4.93041 13.0312 4.93259 13.0095 4.93405 12.9786C4.93551 12.9594 4.93624 12.9443 4.9377 12.9335C4.93916 12.9176 4.94354 12.9075 4.9501 12.905C4.95083 12.905 4.9501 12.905 4.95083 12.9034L4.9574 12.8975L4.97564 12.8766L5.01431 12.9234C5.0289 12.9418 5.04203 12.9569 5.0537 12.9694C5.06611 12.9819 5.07778 12.992 5.08945 13.002C5.1055 13.0153 5.12301 13.0245 5.13906 13.0296C5.15365 13.0337 5.16679 13.0346 5.17481 13.0304L5.17919 13.0279C5.19451 13.017 5.20327 12.9936 5.20618 12.966C5.20837 12.9368 5.20327 12.9017 5.19086 12.8691C5.18722 12.8616 5.18357 12.8532 5.17992 12.8457C5.16387 12.8173 5.14344 12.7964 5.12009 12.7847C5.09821 12.7738 5.07413 12.7713 5.05006 12.7797L5.0289 12.7855C5.02233 12.7872 5.01577 12.7889 5.01066 12.7897L4.95886 12.7998L5.00847 12.7337C5.02598 12.7112 5.03984 12.692 5.05079 12.6727C5.06173 12.6552 5.06975 12.6376 5.07705 12.6201C5.08945 12.5875 5.09383 12.5582 5.09018 12.534C5.08653 12.5115 5.07559 12.4922 5.05735 12.4797C5.04349 12.4697 5.02598 12.4647 5.0092 12.4647C4.99169 12.4647 4.97491 12.4697 4.96032 12.4797C4.94646 12.4897 4.93405 12.5031 4.92457 12.5181C4.91581 12.5323 4.90925 12.5482 4.90633 12.5649L4.9056 12.5683ZM4.87569 12.6126V12.5917L4.87423 12.5925L4.87934 12.5624C4.88298 12.5407 4.89174 12.519 4.90341 12.5006C4.91436 12.4822 4.92895 12.4655 4.94646 12.4538C4.9647 12.4413 4.98731 12.4346 5.0092 12.4346C5.03109 12.4346 5.05297 12.4404 5.07121 12.4538C5.09675 12.4713 5.11134 12.4972 5.11645 12.529C5.12082 12.5591 5.11645 12.595 5.10113 12.6326C5.0931 12.6518 5.08435 12.6702 5.07267 12.6903C5.061 12.7095 5.04641 12.7304 5.0289 12.7538L5.02817 12.7546L5.04276 12.7504C5.07267 12.7404 5.10331 12.7429 5.13104 12.7571C5.15876 12.7705 5.18357 12.7956 5.20181 12.8298C5.20691 12.8382 5.21129 12.8474 5.21494 12.8566C5.22953 12.8942 5.23537 12.9343 5.23245 12.9694C5.2288 13.0062 5.21567 13.0371 5.19305 13.053L5.18576 13.058C5.17189 13.0655 5.15293 13.0655 5.1325 13.0588C5.11353 13.053 5.09237 13.0421 5.07413 13.027C5.061 13.0162 5.04933 13.0045 5.03619 12.992C5.02379 12.9786 5.01066 12.9635 4.99534 12.9443L4.97491 12.9201L4.96761 12.9276C4.96397 12.9301 4.96032 12.9335 4.95813 12.9343C4.95448 12.9351 4.96397 12.9335 4.96397 12.9376C4.96251 12.9468 4.96178 12.9619 4.96032 12.9803C4.95886 13.0137 4.95667 13.0362 4.95229 13.0555C4.94792 13.0747 4.94135 13.0897 4.93186 13.1056C4.91144 13.1399 4.88079 13.1608 4.84796 13.1674C4.81586 13.1741 4.78011 13.1658 4.7502 13.1424C4.73196 13.1282 4.7181 13.1106 4.70862 13.0914C4.69913 13.0713 4.69548 13.0496 4.69767 13.0279C4.70059 12.9995 4.71299 12.9711 4.73415 12.9443C4.74947 12.9251 4.76917 12.9059 4.79325 12.8892C4.78595 12.8883 4.77865 12.8875 4.7699 12.885C4.74218 12.8766 4.7181 12.8599 4.69767 12.8365C4.66884 12.7989 4.65099 12.7518 4.6466 12.702C4.64368 12.6702 4.6466 12.6401 4.65536 12.6167C4.66484 12.5917 4.68016 12.5741 4.70059 12.5666L4.71153 12.5641C4.73488 12.5616 4.76115 12.5716 4.7896 12.5933C4.81732 12.6142 4.8465 12.646 4.87642 12.6869C4.88371 12.697 4.88809 12.7028 4.89101 12.7045L4.88444 12.6736C4.87934 12.6485 4.87715 12.6293 4.87569 12.6126Z" fill="black"/>
<path d="M4.92304 12.7211C4.87489 12.7228 4.83549 12.7646 4.83695 12.8156C4.83768 12.8657 4.87854 12.9058 4.92742 12.9042C4.9763 12.9025 5.01497 12.8607 5.01424 12.8097C5.01278 12.7596 4.97265 12.7203 4.92377 12.7211H4.92304Z" fill="#F9D90F"/>
<path d="M4.92252 12.737C4.90209 12.737 4.88313 12.7462 4.86999 12.7613C4.85686 12.7755 4.84884 12.7938 4.84957 12.8147V12.8156C4.8503 12.8356 4.85905 12.854 4.87218 12.8674C4.88604 12.8816 4.90574 12.8899 4.9269 12.8891C4.94806 12.8883 4.9663 12.8791 4.98016 12.8649C4.99329 12.8507 5.00059 12.8314 5.00059 12.8106C5.00015 12.8004 4.99784 12.7905 4.99382 12.7814C4.98979 12.7723 4.98414 12.7643 4.97724 12.7579C4.96484 12.7454 4.94806 12.7379 4.92982 12.7362L4.92252 12.737ZM4.85175 12.7387C4.8678 12.7211 4.89042 12.7094 4.91523 12.7069L4.91596 12.7061H4.92252C4.95025 12.7053 4.97578 12.7161 4.99475 12.7345C5.01372 12.7537 5.02612 12.7805 5.02685 12.8097C5.02758 12.8398 5.01664 12.8665 4.9984 12.8866C4.98016 12.9058 4.95535 12.9184 4.92763 12.9192H4.9269C4.89918 12.92 4.87364 12.9092 4.8554 12.8908C4.84566 12.8816 4.83775 12.8702 4.83221 12.8572C4.82667 12.8443 4.82362 12.8301 4.82328 12.8157C4.82293 12.8013 4.82529 12.7869 4.83021 12.7736C4.83512 12.7604 4.84247 12.7484 4.85175 12.7387Z" fill="black"/>
<path d="M9.3786 13.5184H9.21007V13.3805H9.06635V13.2242H8.90219L8.90146 12.229L8.71469 11.8538L8.52719 12.229V13.2242H8.36304V13.3805H8.21931V13.5184H8.05078V13.7206L9.3786 13.7248V13.5184Z" fill="white"/>
<path d="M9.35444 13.5451H9.1859V13.4081H9.04291V13.251H8.87802V12.2365L8.7146 11.9081L8.55118 12.2365V13.251H8.38629V13.4081H8.24257V13.5451H8.07404V13.6939L9.35444 13.698V13.5451ZM9.23333 13.4908H9.40186V13.7515C8.94369 13.7499 8.48551 13.749 8.02734 13.7473V13.4908H8.19587V13.3538H8.3396V13.1967H8.50375V12.2223L8.7146 11.7994L8.92545 12.2214V13.1967H9.0896V13.3538H9.23333V13.4908Z" fill="black"/>
<path d="M6.72278 19.764C7.39691 19.7665 8.22643 19.6086 8.61529 19.378L9.46889 19.2919L9.48567 20.4844C8.76267 20.9415 7.0934 21.0393 6.72643 21.0359C6.35873 21.0393 4.66831 20.9398 3.94238 20.481L3.95187 19.2877L4.80693 19.3763C5.19579 19.6053 6.05012 19.764 6.72424 19.764H6.72278Z" fill="#F9D90F"/>
<path d="M3.94238 20.4811L4.82225 20.2504L3.9453 20.1067L3.94238 20.4811Z" fill="#F9B60F"/>
<path d="M1.74463 14.6766L2.49681 14.9507L2.26919 16.3446L1.55713 16.4716C1.55713 16.4716 1.43748 15.7379 1.74463 14.6758V14.6766Z" fill="#F9D90F"/>
<path d="M1.55762 16.4716L2.02017 15.7404L2.26968 16.3446L1.55762 16.4716Z" fill="#F9B60F"/>
<path d="M1.75649 14.6666L2.51014 14.9415C2.4328 15.4128 2.35547 15.885 2.27959 16.3563L1.54783 16.4866L1.54564 16.4741C1.54564 16.4716 1.42526 15.7379 1.73314 14.6733V14.6582L1.73679 14.6591L1.75649 14.5914V14.6666ZM2.48314 14.9599L1.75211 14.6933C1.47414 15.6644 1.55367 16.3546 1.56753 16.4557L2.25916 16.3329L2.48314 14.9599ZM3.93937 20.4685L4.82507 20.2379L4.83018 20.2638L3.94448 20.4944L3.93937 20.4685Z" fill="black"/>
<path d="M2.0319 15.7303L2.28068 16.3387L2.2588 16.3504L2.01074 15.742L2.0319 15.7303Z" fill="black"/>
<path d="M9.48631 20.4844L8.60645 20.2537L9.48339 20.11L9.48631 20.4844Z" fill="#F9B60F"/>
<path d="M11.6838 14.68L10.9316 14.9532L11.1593 16.3479L11.8706 16.475C11.8706 16.475 11.991 15.7413 11.6838 14.6791V14.68Z" fill="#F9D90F"/>
<path d="M11.8695 16.475L11.4077 15.7438L11.1582 16.348L11.8695 16.475Z" fill="#F9B60F"/>
<path d="M11.6757 14.6967L10.9447 14.9633L11.1687 16.3362L11.8603 16.4591C11.8742 16.358 11.9537 15.6677 11.6757 14.6967ZM10.9272 14.9407L11.6713 14.6699V14.5947L11.6903 14.6624L11.6947 14.6616V14.6766C12.0018 15.7412 11.8822 16.4749 11.8815 16.4766L11.88 16.49L11.1482 16.3596C11.0709 15.8883 10.9943 15.4162 10.9177 14.944L10.9272 14.9407ZM9.48336 20.4978L8.59766 20.2672L8.60276 20.2412L9.48846 20.4711L9.48336 20.4978Z" fill="black"/>
<path d="M11.4183 15.7454L11.1695 16.3538L11.1483 16.3421L11.3971 15.7337L11.4183 15.7454ZM6.72492 19.7499C7.06709 19.7515 7.45012 19.7114 7.79448 19.6412C8.1257 19.5735 8.42118 19.4783 8.61087 19.3663L8.61233 19.3655L9.48125 19.2769C9.48636 19.6822 9.49146 20.0875 9.49876 20.4928L9.49219 20.4961C9.2186 20.6691 8.8115 20.7902 8.38981 20.8747C7.69307 21.0142 6.9562 21.0518 6.72711 21.0493C6.4973 21.0518 5.75168 21.0134 5.04764 20.873C4.6223 20.7886 4.21155 20.6666 3.93723 20.4928L3.93066 20.4894C3.93358 20.0841 3.93723 19.678 3.94088 19.2727C4.23052 19.3028 4.52089 19.3312 4.81126 19.363L4.81272 19.3638C5.00168 19.4749 5.3008 19.5694 5.63567 19.637C5.98879 19.7089 6.38057 19.7499 6.72492 19.7499ZM7.79813 19.668C7.45304 19.7382 7.06928 19.7783 6.72492 19.7774C6.37911 19.7774 5.98587 19.7357 5.63203 19.6638C5.29569 19.5961 4.99511 19.5008 4.80396 19.3889L3.96422 19.3028L3.95474 20.4735C4.22614 20.6432 4.63178 20.7627 5.05129 20.8462C5.75459 20.9866 6.49803 21.0242 6.72638 21.0226C6.95547 21.0242 7.69015 20.9875 8.38616 20.8479C8.80202 20.7652 9.20401 20.6457 9.47468 20.4769L9.4579 19.307L8.61889 19.3914C8.42775 19.505 8.13081 19.6003 7.79813 19.668Z" fill="black"/>
<path d="M12.1319 15.6836L11.4074 15.7438C11.3906 16.4474 11.3162 19.1315 8.51758 19.2777L8.60513 20.2538C12.0115 20.2947 12.2705 16.9613 12.1319 15.6836Z" fill="#F9D90F"/>
<path d="M12.1223 15.6986L11.4198 15.7562C11.411 16.1164 11.3848 16.9554 11.017 17.7259C10.6457 18.5047 9.9278 19.2133 8.53139 19.2902L8.61602 20.2404C8.85897 20.2429 9.0866 20.2278 9.29817 20.1977C10.4713 20.0314 11.1805 19.3963 11.5985 18.6326C12.0166 17.8679 12.1428 16.9738 12.1486 16.2894C12.1508 16.0663 12.1399 15.8649 12.1223 15.6986ZM11.4074 15.7303C11.6365 15.7111 11.9195 15.6702 12.1435 15.6702L12.1442 15.6819C12.1632 15.8523 12.1741 16.0587 12.172 16.2894C12.1661 16.978 12.0392 17.8771 11.6182 18.6468C11.1973 19.4172 10.4823 20.0565 9.30109 20.2245C9.08587 20.2554 8.85387 20.2704 8.60581 20.2671H8.59487C8.56495 19.9328 8.53504 19.5986 8.50586 19.2643L8.51826 19.2635C9.91174 19.1916 10.6275 18.4872 10.9959 17.7133C11.3651 16.9387 11.3884 16.0947 11.3964 15.7437V15.7312L11.4074 15.7303Z" fill="black"/>
<path d="M1.29557 15.6802L2.02003 15.7403C2.03608 16.444 2.1105 19.1281 4.90987 19.2743L4.82232 20.2504C1.41594 20.2913 1.15695 16.9579 1.29557 15.6802Z" fill="#F9D90F"/>
<path d="M1.29626 15.6669L2.03167 15.7279V15.7404C2.0397 16.0914 2.06231 16.9354 2.43148 17.71C2.80064 18.4839 3.51562 19.1883 4.90983 19.261H4.92224C4.89232 19.5953 4.86241 19.9295 4.83323 20.2638H4.82228C4.57423 20.2671 4.34223 20.2521 4.127 20.2212C2.94582 20.0532 2.23084 19.4139 1.80988 18.6435C1.38892 17.8738 1.26197 16.9747 1.25614 16.2861C1.25395 16.0554 1.26489 15.849 1.28386 15.6794L1.28459 15.6669H1.29626ZM2.00832 15.7529L1.30575 15.6953C1.28824 15.8616 1.27729 16.063 1.27948 16.2861C1.28532 16.9705 1.41153 17.8646 1.82958 18.6293C2.24689 19.3931 2.95677 20.0282 4.12992 20.1944C4.3415 20.2245 4.56912 20.2396 4.81207 20.2371L4.8967 19.2869C3.5003 19.21 2.7824 18.5014 2.41105 17.7234C2.04334 16.9521 2.01708 16.1131 2.00832 15.7529Z" fill="black"/>
<path d="M6.24791 20.3515C6.22895 20.3657 6.20268 20.3699 6.17277 20.3682L6.0378 20.3599L6.04947 20.1668L6.18371 20.1752C6.20998 20.1769 6.23041 20.1827 6.24354 20.1919C6.27126 20.2078 6.28293 20.2379 6.28002 20.2788C6.27856 20.3148 6.26761 20.3382 6.24791 20.3515ZM6.02102 20.6557L6.03415 20.4201L6.19174 20.4326C6.24281 20.4376 6.28075 20.4217 6.30628 20.3925C6.33327 20.3632 6.34714 20.3248 6.3486 20.2822C6.35151 20.232 6.34057 20.1911 6.31431 20.161C6.2895 20.1318 6.25448 20.1167 6.20998 20.1117L5.98454 20.0958L5.95317 20.6499L6.02029 20.6549L6.02102 20.6557ZM6.53318 20.1919L6.69806 20.1936C6.72214 20.1961 6.74038 20.1994 6.75424 20.207C6.77977 20.2212 6.79145 20.2479 6.79145 20.288C6.79145 20.3248 6.78196 20.3499 6.76372 20.3649C6.74621 20.3783 6.72068 20.385 6.69004 20.385L6.53099 20.3824L6.53245 20.1919H6.53318ZM6.53026 20.6833L6.53172 20.4468L6.68639 20.4493C6.71411 20.4493 6.73381 20.4518 6.7484 20.4593C6.77102 20.471 6.78196 20.4969 6.78342 20.5312L6.78707 20.6248C6.78853 20.6465 6.78853 20.6607 6.78999 20.6699C6.79218 20.6766 6.79291 20.6833 6.79582 20.6883H6.87899L6.87754 20.6766C6.86805 20.6707 6.86076 20.6591 6.85711 20.6423C6.85419 20.6315 6.85273 20.6156 6.85273 20.5955L6.85054 20.5212C6.84981 20.4877 6.84471 20.4643 6.83376 20.4518C6.82355 20.4368 6.81041 20.4234 6.78999 20.4159C6.8126 20.4017 6.83011 20.3858 6.84325 20.3657C6.85492 20.344 6.86076 20.3164 6.86076 20.2822C6.86076 20.2187 6.83814 20.1752 6.79218 20.151C6.76664 20.1384 6.73527 20.1318 6.69733 20.1309L6.46533 20.1284L6.46314 20.685H6.53026V20.6833ZM7.08109 20.5671C7.05117 20.5253 7.03512 20.4735 7.03148 20.4125C7.02856 20.3357 7.04169 20.2763 7.07233 20.237C7.10297 20.1936 7.1431 20.1735 7.19563 20.1702C7.24889 20.1668 7.29193 20.1861 7.32403 20.2245C7.35686 20.2613 7.37583 20.3131 7.37948 20.3774C7.38094 20.4401 7.37146 20.4953 7.34665 20.5437C7.32185 20.5922 7.28099 20.6206 7.22116 20.6223C7.15769 20.6256 7.111 20.6089 7.08109 20.5671ZM7.00156 20.217C6.97019 20.2713 6.95779 20.3357 6.96071 20.4125C6.96581 20.4961 6.9877 20.5646 7.03002 20.6164C7.07744 20.6682 7.13945 20.6941 7.21606 20.6891C7.2985 20.685 7.35978 20.649 7.4021 20.5838C7.43566 20.5245 7.45244 20.456 7.44879 20.3707C7.44368 20.2955 7.42471 20.2337 7.38897 20.1877C7.34373 20.1259 7.27734 20.0992 7.1876 20.1033C7.10297 20.1092 7.04096 20.1443 7.00083 20.217H7.00156ZM1.62827 16.7139L1.63921 16.7833C1.61221 16.7891 1.59033 16.8017 1.57428 16.8184C1.54582 16.8485 1.53634 16.8944 1.54582 16.9571C1.5502 16.9838 1.55823 17.0097 1.56917 17.0306C1.59033 17.0724 1.61878 17.0891 1.65453 17.0833C1.68079 17.0774 1.6983 17.0657 1.70706 17.0448C1.71435 17.0231 1.72019 16.9914 1.72238 16.9496L1.7253 16.871C1.72749 16.8226 1.73259 16.785 1.74208 16.7641C1.75667 16.7256 1.78439 16.7022 1.82598 16.6939C1.87048 16.6847 1.90988 16.6964 1.94344 16.7256C1.977 16.7524 1.99962 16.7992 2.00764 16.8618C2.01859 16.9178 2.01348 16.9688 1.99378 17.0148C1.97554 17.0599 1.93906 17.0875 1.88362 17.0983L1.8734 17.0281C1.89894 17.0173 1.91791 17.0072 1.93031 16.993C1.9522 16.9646 1.95876 16.9245 1.95001 16.8694C1.94417 16.8251 1.93031 16.7958 1.91061 16.7816C1.89018 16.7649 1.87048 16.7582 1.8486 16.7624C1.82452 16.7666 1.80847 16.7816 1.80117 16.8067C1.79607 16.8226 1.79242 16.8577 1.7895 16.9103L1.78658 16.9914C1.78439 17.029 1.77929 17.0607 1.76834 17.0824C1.75083 17.1217 1.72019 17.146 1.67642 17.1543C1.6217 17.1652 1.57865 17.1501 1.54801 17.11C1.51737 17.0699 1.4984 17.0223 1.48819 16.963C1.47724 16.8928 1.48527 16.8384 1.51007 16.7941C1.53488 16.749 1.57428 16.7231 1.62827 16.7148V16.7139ZM1.59689 17.4476L2.07476 17.283L2.18639 17.6682L2.12802 17.6891L2.03683 17.3724L1.89164 17.4226L1.97627 17.7159L1.92009 17.7359L1.83692 17.4426L1.67496 17.4978L1.76761 17.8212L1.71071 17.8404L1.59689 17.4476ZM1.8092 18.1162L2.2484 17.8487L2.29582 17.9432L1.99378 18.3084L2.43444 18.2223L2.48041 18.315L2.04193 18.5808L2.01056 18.5189L2.26956 18.3627C2.27904 18.3568 2.29363 18.3476 2.31406 18.3351C2.33522 18.3242 2.35784 18.3092 2.38118 18.2958L1.94198 18.3819L1.90988 18.3159L2.20973 17.9515L2.19514 17.9599C2.18566 17.9657 2.16961 17.9749 2.14772 17.99C2.12583 18.005 2.10978 18.0142 2.09884 18.0192L1.84057 18.178L1.8092 18.1153V18.1162ZM2.62851 18.8574C2.60589 18.8515 2.58473 18.8373 2.56285 18.8114L2.47019 18.7019L2.59568 18.5707L2.68906 18.6802C2.7073 18.7003 2.71825 18.7203 2.72481 18.737C2.73357 18.7696 2.72481 18.7997 2.69855 18.8281C2.67447 18.8532 2.6504 18.8632 2.62851 18.8574ZM2.2754 18.9084L2.42861 18.7471L2.53731 18.8733C2.57233 18.9142 2.60808 18.9334 2.64529 18.9326C2.68396 18.9301 2.71679 18.9134 2.74597 18.8824C2.77807 18.849 2.79412 18.8097 2.79412 18.768C2.79339 18.7279 2.77734 18.6894 2.74743 18.6543L2.5913 18.4713L2.22724 18.854L2.27394 18.9084H2.2754ZM2.71314 19.3554L2.97724 18.8824L3.28877 19.0989L3.25594 19.1557L2.99986 18.9802L2.92107 19.1231L3.15672 19.2869L3.12608 19.3412L2.89042 19.1783L2.80069 19.3387L3.05969 19.5167L3.02904 19.5727L2.71314 19.3554ZM3.49378 19.2635L3.6521 19.3212C3.67399 19.3295 3.69077 19.3396 3.70171 19.3504C3.72141 19.3721 3.72724 19.4039 3.71557 19.4415C3.70536 19.4749 3.69077 19.4967 3.66742 19.5058C3.64699 19.51 3.62073 19.51 3.59081 19.4992L3.44125 19.444L3.49378 19.2635ZM3.35662 19.729L3.42301 19.5033L3.57039 19.5585C3.59665 19.566 3.61562 19.5769 3.6251 19.5877C3.64334 19.607 3.64845 19.6345 3.6397 19.6688L3.61781 19.7582C3.6127 19.7808 3.60978 19.795 3.60759 19.8017C3.60759 19.8084 3.60759 19.8159 3.60905 19.8209L3.68639 19.8501L3.69149 19.8376C3.68347 19.8301 3.67836 19.8159 3.67909 19.7992C3.68055 19.7891 3.68347 19.7724 3.68785 19.7532L3.70682 19.6813C3.71484 19.6496 3.71776 19.6262 3.71046 19.6095C3.70463 19.5911 3.69514 19.5752 3.67909 19.5602C3.70317 19.5552 3.72433 19.546 3.74256 19.5309C3.76007 19.5142 3.77394 19.49 3.78269 19.4574C3.80093 19.3972 3.79072 19.3471 3.75205 19.3086C3.73235 19.2894 3.70463 19.2719 3.66815 19.256L3.44636 19.1783L3.29169 19.7056L3.35662 19.729ZM9.25229 19.3772C9.29898 19.3688 9.33984 19.3721 9.37632 19.388C9.43031 19.4081 9.46606 19.4549 9.48721 19.5259L9.42009 19.5351C9.40623 19.4967 9.38653 19.4707 9.35881 19.4549C9.33182 19.4415 9.29826 19.4373 9.25886 19.4432C9.2129 19.4499 9.17642 19.4749 9.15015 19.5167C9.12389 19.5602 9.11513 19.6203 9.12535 19.6964C9.13337 19.7599 9.15307 19.8134 9.1859 19.8493C9.21581 19.8869 9.26105 19.9003 9.32014 19.8919C9.36392 19.8844 9.39967 19.8652 9.4252 19.8309C9.45219 19.7983 9.46022 19.7482 9.45292 19.6838L9.2968 19.7081L9.2895 19.6462L9.50691 19.6128L9.54485 19.9078L9.50181 19.9145L9.47554 19.846C9.4573 19.876 9.43906 19.8994 9.42301 19.9128C9.39529 19.9362 9.35881 19.9513 9.31358 19.9579C9.25521 19.9663 9.20195 19.9538 9.1538 19.917C9.10127 19.8702 9.06844 19.8025 9.05677 19.7097C9.04436 19.6178 9.05823 19.5401 9.09616 19.4791C9.13191 19.4198 9.18371 19.3863 9.25229 19.3763V19.3772ZM9.74329 19.3446L9.90015 19.2836C9.92131 19.2744 9.93955 19.2719 9.9556 19.2744C9.98405 19.2777 10.0052 19.2978 10.0162 19.3362C10.0271 19.3696 10.0264 19.3989 10.0132 19.4189C9.99937 19.4398 9.97822 19.4549 9.94757 19.4666L9.80093 19.5234L9.74329 19.3446ZM9.8914 19.8075L9.81917 19.5827L9.96508 19.5267C9.99208 19.5167 10.011 19.5117 10.0249 19.5142C10.0504 19.5184 10.0694 19.5368 10.0825 19.571L10.1139 19.6563C10.1205 19.6772 10.1263 19.6905 10.1307 19.6964C10.1329 19.7039 10.1373 19.7089 10.1409 19.7131L10.2197 19.6822L10.2161 19.6696C10.2044 19.6696 10.1934 19.6621 10.1854 19.6471C10.1788 19.637 10.1737 19.622 10.1657 19.6045L10.1409 19.5343C10.13 19.5033 10.1183 19.485 10.1044 19.4733C10.0913 19.4641 10.0738 19.4582 10.0534 19.4565C10.0694 19.4357 10.0818 19.4148 10.0862 19.3897C10.0913 19.3646 10.0898 19.3362 10.0796 19.3045C10.0607 19.2451 10.0249 19.2125 9.97311 19.2067C9.94612 19.2042 9.91547 19.21 9.87899 19.2234L9.65939 19.3078L9.8272 19.8351L9.89213 19.8092L9.8914 19.8075ZM10.4648 19.5443L10.1949 19.0746L10.5028 18.859L10.5356 18.9159L10.2832 19.093L10.3656 19.2359L10.5991 19.0713L10.6297 19.1265L10.3963 19.2911L10.4882 19.449L10.745 19.2685L10.7778 19.3237L10.4641 19.5443H10.4648ZM10.7202 18.7304L10.8012 18.6318C10.8391 18.5875 10.8778 18.5682 10.9208 18.5749C10.9631 18.5799 11.0062 18.6067 11.0514 18.6543C11.0645 18.6652 11.0755 18.6802 11.0864 18.6961C11.1061 18.727 11.1178 18.7538 11.1251 18.7805C11.1309 18.8139 11.1288 18.844 11.1185 18.8724C11.112 18.8875 11.101 18.9033 11.0842 18.9234L11.0025 19.0212L10.7202 18.7295V18.7304ZM11.1368 18.956C11.1944 18.8866 11.2075 18.8097 11.1762 18.7228C11.156 18.6716 11.1264 18.626 11.0894 18.5891C11.039 18.5365 10.9865 18.5081 10.9303 18.5022C10.8683 18.4955 10.815 18.5206 10.7683 18.5766L10.6305 18.7404L10.9982 19.1214L11.136 18.9568L11.1368 18.956ZM11.433 18.5306L11.0076 18.2323L11.0434 18.1696L11.4695 18.4663L11.433 18.5315V18.5306ZM11.6074 18.198L11.1463 17.9758L11.2893 17.6039L11.3447 17.6306L11.2287 17.9365L11.3673 18.0025L11.476 17.7201L11.5293 17.7468L11.4213 18.0284L11.5767 18.1045L11.6964 17.7944L11.7525 17.8203L11.6066 18.198H11.6074ZM11.8306 17.5496L11.344 17.415L11.3615 17.329L11.816 17.1643L11.4213 17.0557L11.4366 16.988L11.9233 17.1184L11.9065 17.2019L11.4512 17.3716L11.8466 17.4777L11.8313 17.5496H11.8306ZM11.8036 16.8376L11.8109 16.7674C11.8386 16.7691 11.8627 16.7649 11.8809 16.754C11.9167 16.7323 11.9378 16.6914 11.9444 16.6295C11.9473 16.6011 11.9466 16.5752 11.9408 16.551C11.9313 16.505 11.9087 16.4783 11.8722 16.4733C11.8452 16.4699 11.8255 16.4766 11.8116 16.4933C11.7985 16.5125 11.7846 16.5409 11.7737 16.5802L11.7503 16.6529C11.735 16.7006 11.7212 16.7331 11.7066 16.7515C11.6825 16.7858 11.6504 16.7975 11.6088 16.7933C11.5643 16.7866 11.5286 16.7657 11.503 16.7265C11.4775 16.6905 11.4673 16.6387 11.4753 16.576C11.4804 16.5192 11.4979 16.4707 11.5278 16.4323C11.5563 16.3972 11.5986 16.3813 11.6533 16.3889L11.6467 16.4591C11.6205 16.4591 11.5986 16.4641 11.5833 16.4758C11.5548 16.4933 11.5388 16.5301 11.5329 16.5852C11.5286 16.6312 11.5329 16.6613 11.5483 16.6847C11.5628 16.7047 11.5818 16.7173 11.6044 16.7206C11.6285 16.7231 11.6467 16.7148 11.6606 16.6939C11.6701 16.6797 11.6818 16.6487 11.6978 16.5978L11.7212 16.5217C11.7321 16.4858 11.746 16.459 11.7613 16.4398C11.789 16.4081 11.8248 16.3955 11.8693 16.3997C11.9233 16.4072 11.9612 16.434 11.9802 16.4816C11.9991 16.5301 12.0057 16.5827 12.0006 16.6421C11.9933 16.7089 11.9729 16.7616 11.9371 16.7967C11.9014 16.8326 11.8569 16.8443 11.8036 16.8376Z" fill="#012A87"/>
</g>
<defs>
<clipPath id="clip0_3032_2741">
<rect width="37.5" height="30" fill="white"/>
</clipPath>
</defs>
</svg>
