<svg width="38" height="30" viewBox="0 0 38 30" fill="none" xmlns="http://www.w3.org/2000/svg">
<g clip-path="url(#clip0_3041_3734)">
<path d="M0 0H37.5V30H0V0Z" fill="white"/>
<path d="M0 22.264V0H37V4.876L0 22.264Z" fill="#DD7500"/>
<path d="M0 28.56V0H37.5V0.48L0 28.56ZM0 29.52V30H37.5V12.24L0 29.52Z" fill="#003893"/>
<path d="M7.09475 1.30432L7.34584 6.67756L8.22152 3.71678L7.82998 6.84418L9.27217 4.27621L8.26467 7.16732L10.1737 5.16687L8.62012 7.62376L10.8658 6.32816L8.87043 8.1832L11.3013 7.6793L9.00068 8.80727L13.1758 9.13041L9.00068 9.45355L11.3013 10.5805L8.87043 10.0766L10.8658 11.9327L8.62012 10.636L10.1737 13.0929L8.26467 11.0935L9.27217 13.9836L7.82998 11.4156L8.22152 14.544L7.34584 11.5833L7.09475 16.9565L6.84366 11.5833L5.9672 14.544L6.35875 11.4156L4.91733 13.9836L5.92405 11.0935L4.01498 13.0929L5.56938 10.636L3.32291 11.9327L5.31829 10.0766L2.88821 10.5805L5.18882 9.45355L1.01367 9.13041L5.18882 8.80727L2.88821 7.6793L5.31829 8.1832L3.32291 6.32816L5.56938 7.62376L4.01498 5.16687L5.92405 7.16732L4.91733 4.27621L6.35875 6.84418L5.9672 3.71678L6.84366 6.67756L7.09475 1.30432Z" fill="white"/>
</g>
<defs>
<clipPath id="clip0_3041_3734">
<rect width="37.5" height="30" rx="4" fill="white"/>
</clipPath>
</defs>
</svg>
