<svg width="38" height="30" viewBox="0 0 38 30" fill="none" xmlns="http://www.w3.org/2000/svg">
<path d="M37.5 8.75H0V21.25H37.5V8.75Z" fill="#ED3F32"/>
<path d="M5 0H32.5C35.2596 0 37.5 2.24038 37.5 5V10H0V5C0 2.24038 2.24038 0 5 0Z" fill="#0331AF"/>
<path d="M32.5 30L5 30C2.24037 30 0 27.7596 0 25V20L37.5 20V25C37.5 27.7596 35.2596 30 32.5 30Z" fill="#009641"/>
<path opacity="0.15" d="M32.5 0H5C2.23862 0 0 2.2385 0 5V25C0 27.7615 2.23862 30 5 30H32.5C35.2615 30 37.5 27.7615 37.5 25V5C37.5 2.2385 35.2615 0 32.5 0ZM36.25 25C36.25 27.0679 34.5679 28.75 32.5 28.75H5C2.93213 28.75 1.25 27.0679 1.25 25V5C1.25 2.93213 2.93213 1.25 5 1.25H32.5C34.5679 1.25 36.25 2.93213 36.25 5V25Z" fill="black"/>
<path opacity="0.2" d="M32.5 1.25H5C2.92887 1.25 1.25 2.92887 1.25 5V6.25C1.25 4.17887 2.92887 2.5 5 2.5H32.5C34.5711 2.5 36.25 4.17887 36.25 6.25V5C36.25 2.92887 34.5711 1.25 32.5 1.25Z" fill="white"/>
<path d="M13.125 23.125C17.6123 23.125 21.25 19.4873 21.25 15C21.25 10.5127 17.6123 6.875 13.125 6.875C8.63769 6.875 5 10.5127 5 15C5 19.4873 8.63769 23.125 13.125 23.125Z" fill="#F6E64D"/>
<path d="M14.5031 20.7836C14.25 20.5719 13.7847 20.4552 13.2904 20.4286V20.0455C13.7134 19.9322 14.0341 19.3941 14.0341 18.7461C14.0341 18.0981 13.7134 17.56 13.2904 17.4467V17.3266C13.702 17.3891 14.114 17.68 14.3006 18.1414C14.7064 19.1446 15.0532 19.5724 15.0532 19.5724C15.0532 19.5724 14.8379 18.6656 14.7289 17.4989C14.6787 16.9619 14.2259 16.5855 13.2902 16.5462V16.377H14.5022V16.0465H13.2902V15.8814C13.8201 15.8307 14.2267 15.5421 14.2267 15.1926C14.2267 14.8431 13.8201 14.5545 13.2902 14.5039V14.3387H14.5022V14.0082H13.2902V13.8419C13.9257 13.832 14.7304 13.7341 14.7777 12.8237C14.81 12.2029 15.0256 11.5841 15.0256 11.5841C15.0256 11.5841 14.5672 12.1349 14.3921 12.4931C14.0776 13.1361 13.7092 13.2665 13.2902 13.288V13.0579C13.8201 12.978 14.2267 12.522 14.2267 11.9697C14.2267 11.4175 13.8201 10.9616 13.2902 10.8816V9.721C13.6127 9.4535 13.9774 9.04137 14.3417 8.38525C14.5426 8.0235 14.4467 7.86462 14.4471 7.86537C14.4471 7.86537 14.4574 7.88824 14.3082 8.01749C13.982 8.29999 13.6249 8.48475 13.2901 8.63762V6.90125H12.9596V8.78487C12.4619 9.00574 12.0661 9.203 11.9871 9.64125C11.9766 9.69962 11.9632 10.3051 11.9489 10.4532C11.9489 10.4532 12.034 10.4645 12.2355 10.3004C12.3239 10.2284 12.595 10.1819 12.9597 9.95837V10.8816C12.4299 10.9615 12.0231 11.4175 12.0231 11.9697C12.0231 12.522 12.4297 12.978 12.9597 13.0579V13.288C12.5407 13.2665 12.1724 13.1361 11.8579 12.4931C11.6826 12.1349 11.2244 11.5841 11.2244 11.5841C11.2244 11.5841 11.44 12.2027 11.4722 12.8237C11.5195 13.7341 12.3242 13.8319 12.9597 13.8419V14.0082H11.7476V14.3387H12.9597V14.5039C12.4299 14.5545 12.0231 14.8431 12.0231 15.1926C12.0231 15.5421 12.4297 15.8309 12.9597 15.8814V16.0465H11.7476V16.377H12.9597V16.5462C12.0242 16.5856 11.5712 16.9619 11.5211 17.4989C11.4121 18.6656 11.1967 19.5724 11.1967 19.5724C11.1967 19.5724 11.5436 19.1446 11.9494 18.1414C12.136 17.68 12.5481 17.389 12.9596 17.3266V17.4467C12.5366 17.5599 12.2159 18.098 12.2159 18.7461C12.2159 19.3942 12.5366 19.9322 12.9596 20.0455V20.4241C12.4127 20.4386 11.8791 20.5604 11.6004 20.7835C11.1835 21.1172 10.1152 22.2016 9.8916 22.4436C10.9092 22.8887 12.0072 23.1204 13.118 23.1244C13.1235 23.1244 13.1287 23.1244 13.1342 23.1244C14.1896 23.1177 15.2336 22.9056 16.2077 22.4999C16.0272 22.3027 15.05 21.2412 14.5031 20.7836Z" fill="black"/>
</svg>
