<svg width="38" height="30" viewBox="0 0 38 30" fill="none" xmlns="http://www.w3.org/2000/svg">
<path d="M32.5 0H5C2.23858 0 0 2.23858 0 5V25C0 27.7614 2.23858 30 5 30H32.5C35.2614 30 37.5 27.7614 37.5 25V5C37.5 2.23858 35.2614 0 32.5 0Z" fill="#071B65"/>
<path d="M32.5 0H5C2.23858 0 0 2.23858 0 5V25C0 27.7614 2.23858 30 5 30H32.5C35.2614 30 37.5 27.7614 37.5 25V5C37.5 2.23858 35.2614 0 32.5 0Z" fill="#071B65"/>
<path d="M0 13.75H37.5V16.25H0V13.75Z" fill="#F6CA4F"/>
<path opacity="0.15" d="M32.5 0H5C2.23875 0 0 2.23875 0 5V25C0 27.7613 2.23875 30 5 30H32.5C35.2613 30 37.5 27.7613 37.5 25V5C37.5 2.23875 35.2613 0 32.5 0ZM36.25 25C36.25 27.0675 34.5675 28.75 32.5 28.75H5C2.9325 28.75 1.25 27.0675 1.25 25V5C1.25 2.9325 2.9325 1.25 5 1.25H32.5C34.5675 1.25 36.25 2.9325 36.25 5V25Z" fill="black"/>
<path opacity="0.2" d="M32.5 1.25H5C2.92875 1.25 1.25 2.92875 1.25 5V6.25C1.25 4.17875 2.92875 2.5 5 2.5H32.5C34.5712 2.5 36.25 4.17875 36.25 6.25V5C36.25 2.92875 34.5712 1.25 32.5 1.25Z" fill="white"/>
<path d="M10.625 25L10.0587 22.7375L8.4375 24.4138L9.07875 22.1712L6.83625 22.8125L8.5125 21.1912L6.25 20.625L8.5125 20.0588L6.83625 18.4375L9.07875 19.0788L8.4375 16.8362L10.0587 18.5125L10.625 16.25L11.1913 18.5125L12.8125 16.8362L12.1713 19.0788L14.4138 18.4375L12.7375 20.0588L15 20.625L12.7375 21.1912L14.4138 22.8125L12.1713 22.1712L12.8125 24.4138L11.1913 22.7375L10.625 25Z" fill="white"/>
</svg>
