<svg width="38" height="30" viewBox="0 0 38 30" fill="none" xmlns="http://www.w3.org/2000/svg">
<path d="M32.5 0H5C2.23858 0 0 2.23858 0 5V25C0 27.7614 2.23858 30 5 30H32.5C35.2614 30 37.5 27.7614 37.5 25V5C37.5 2.23858 35.2614 0 32.5 0Z" fill="#FEDE02"/>
<path d="M32.5 0H5C2.23858 0 0 2.23858 0 5V25C0 27.7614 2.23858 30 5 30H32.5C35.2614 30 37.5 27.7614 37.5 25V5C37.5 2.23858 35.2614 0 32.5 0Z" fill="#FEDE02"/>
<path d="M5 0H18.75V15H0V5C0 2.24037 2.24037 0 5 0Z" fill="#001B69"/>
<path d="M6.875 12.2171V15H11.875V12.216L15.6714 15H18.75V13.4486L14.0476 10H18.75V5H15.325L18.75 2.48837V0H16.9488L11.875 3.72113V0H6.875V3.49187L2.80425 0.505375C1.84487 0.973 1.06737 1.73463 0.57225 2.67775L3.73737 5H0V10H4.704L0 13.4499V15H3.08025L6.875 12.2171Z" fill="white"/>
<path d="M1.00696 1.98639L5.11371 5.00002H6.81821L1.69921 1.24414C1.44384 1.46852 1.21221 1.71477 1.00696 1.98639Z" fill="#CA0A2B"/>
<path d="M0 15L6.81825 10V11.25L1.70463 15H0Z" fill="#CA0A2B"/>
<path d="M10.625 15H8.125V8.75H0V6.25H8.125V0H10.625V6.25H18.75V8.75H10.625V15Z" fill="#CA0A2B"/>
<path d="M4.37821 7.77344L5.13121 7.22644H4.20046L3.91284 6.34106L3.62521 7.22644H2.69434L3.44746 7.77344L3.15971 8.65881L3.91284 8.11169L4.66584 8.65881L4.37821 7.77344Z" fill="#FEDE02"/>
<path d="M14.9641 7.77344L15.7171 7.22644H14.7863L14.4986 6.34106L14.211 7.22644H13.2803L14.0333 7.77344L13.7456 8.65881L14.4986 8.11169L15.2518 8.65881L14.9641 7.77344Z" fill="#FEDE02"/>
<path d="M9.84013 3.6853L10.5933 3.13818H9.66237L9.37475 2.25293L9.08713 3.13818H8.15625L8.90937 3.6853L8.62175 4.57055L9.37475 4.02355L10.1277 4.57055L9.84013 3.6853Z" fill="#FEDE02"/>
<path d="M9.84013 11.6931L10.5933 11.146H9.66237L9.37475 10.2607L9.08713 11.146H8.15625L8.90937 11.6931L8.62175 12.5784L9.37475 12.0312L10.1277 12.5784L9.84013 11.6931Z" fill="#FEDE02"/>
<path d="M9.37523 9.46312C10.4594 9.46312 11.3384 8.58419 11.3384 7.49999C11.3384 6.41579 10.4594 5.53687 9.37523 5.53687C8.29103 5.53687 7.41211 6.41579 7.41211 7.49999C7.41211 8.58419 8.29103 9.46312 9.37523 9.46312Z" fill="#001B69"/>
<path d="M10.0858 7.73571L11.2356 6.90033H9.8144L9.37515 5.54858L8.9359 6.90033H7.51465L8.66452 7.73571L8.22527 9.08733L9.37515 8.25196L10.525 9.08733L10.0858 7.73571Z" fill="#FEDE02"/>
<path d="M18.75 14.5834L12.5 10V11.25L17.6136 15H18.75V14.5834Z" fill="#CA0A2B"/>
<path d="M18.7504 0H18.4399L11.6143 5.0055H13.3188L18.7504 1.02238V0Z" fill="#CA0A2B"/>
<path opacity="0.15" d="M32.5 0H5C2.23862 0 0 2.2385 0 5V25C0 27.7615 2.23862 30 5 30H32.5C35.2615 30 37.5 27.7615 37.5 25V5C37.5 2.2385 35.2615 0 32.5 0ZM36.25 25C36.25 27.0679 34.5679 28.75 32.5 28.75H5C2.93212 28.75 1.25 27.0679 1.25 25V5C1.25 2.93213 2.93212 1.25 5 1.25H32.5C34.5679 1.25 36.25 2.93213 36.25 5V25Z" fill="black"/>
<path opacity="0.2" d="M32.5 1.25H5C2.92887 1.25 1.25 2.92887 1.25 5V6.25C1.25 4.17887 2.92887 2.5 5 2.5H32.5C34.5711 2.5 36.25 4.17887 36.25 6.25V5C36.25 2.92887 34.5711 1.25 32.5 1.25Z" fill="white"/>
</svg>
