<svg width="38" height="30" viewBox="0 0 38 30" fill="none" xmlns="http://www.w3.org/2000/svg">
<g clip-path="url(#clip0_3045_2280)">
<path d="M37.5 0H0V30H37.5V0Z" fill="#012169"/>
<path d="M0 0L18.75 15ZM18.75 0L0 15Z" fill="black"/>
<path d="M0 0L18.75 15M18.75 0L0 15" stroke="white" stroke-width="3"/>
<mask id="mask0_3045_2280" style="mask-type:luminance" maskUnits="userSpaceOnUse" x="0" y="0" width="22" height="20">
<path d="M0 0V7.5H21.875V15H18.75L0 0ZM18.75 0H9.375V20H0V15L18.75 0Z" fill="white"/>
</mask>
<g mask="url(#mask0_3045_2280)">
<path d="M0 0L18.75 15ZM18.75 0L0 15Z" fill="black"/>
<path d="M0 0L18.75 15M18.75 0L0 15" stroke="#C8102E" stroke-width="2"/>
</g>
<path d="M9.375 0V20ZM0 7.5H21.875Z" fill="black"/>
<path d="M9.375 0V20M0 7.5H21.875" stroke="white" stroke-width="5"/>
<path d="M9.375 0V20ZM0 7.5H21.875Z" fill="black"/>
<path d="M9.375 0V20M0 7.5H21.875" stroke="#C8102E" stroke-width="3"/>
<path d="M18.75 0V15H0V30H37.5V0H18.75Z" fill="#012169"/>
<path d="M25.0219 15.908C24.6219 16.45 24.2407 17.242 24.1469 17.958C23.8832 19.972 23.5332 20.42 22.9932 19.988C22.9932 21.07 23.5857 21.152 23.8457 20.52C23.8457 21.534 24.0757 22.414 24.5944 23.164C24.8132 23.48 24.8544 23.264 24.7507 22.914C24.6469 22.564 24.6469 21.434 24.4394 20.786C24.7719 21.168 25.2607 20.952 25.2194 19.904C24.7932 20.304 24.3694 20.288 24.3257 19.338C24.2719 18.224 24.5432 16.606 25.0219 15.908Z" fill="#F7E017" stroke="black" stroke-width="0.03"/>
<path d="M24.5156 7.89798C24.5444 7.49798 24.4906 7.08798 24.3081 6.82998C23.9556 6.33398 23.6106 6.49798 23.3531 6.89798C22.9681 6.56598 22.7644 7.74398 22.3281 7.54598C22.4006 7.92798 22.5156 8.09398 22.7331 7.96198C22.5044 8.29398 22.7331 8.69398 22.4631 9.09198C22.9519 9.34198 23.2119 8.90998 23.1906 8.15998C23.3781 8.42598 23.6681 8.40998 23.8244 8.10998C23.5644 7.97598 23.5631 7.61598 23.6681 7.27798C23.8244 6.77998 24.5569 6.79998 24.5156 7.89798Z" fill="#F7E017" stroke="black" stroke-width="0.03"/>
<path d="M25.6434 13.6839C25.0922 14.1499 24.0847 13.9499 23.9909 12.8019C23.8972 11.6539 24.5934 11.1379 24.7809 10.9899C25.0722 10.7559 25.3009 11.1719 25.2072 11.6559C25.5297 11.4739 25.6022 10.8739 25.4459 10.5259C25.8722 10.5759 26.2672 10.0599 26.4334 9.32793C26.2834 9.55593 25.8759 9.40193 25.5409 9.36793C25.6447 9.18593 25.6434 8.82993 25.6122 8.64593C25.2597 9.22593 24.7497 8.95993 24.0747 10.6399C24.1784 10.0579 24.3759 8.89393 24.4909 8.12793C24.5022 8.05193 24.5109 7.97593 24.5172 7.89793C24.5572 6.79993 23.8259 6.77993 23.6697 7.27993C23.8409 7.58793 23.7509 7.94793 23.6897 8.49393C23.6172 9.14193 23.4609 10.6399 23.3259 11.1379C23.2847 10.3559 22.9622 10.3059 22.8997 9.92393C22.8059 10.0239 22.7547 10.2899 22.7747 10.4719C22.6597 10.2719 22.2647 10.5219 22.1197 10.2219C21.9634 10.7199 22.2134 11.2199 22.4734 11.4359C22.3222 11.4519 22.2859 11.7439 22.1197 11.7439C22.3434 12.1599 22.5722 12.3259 22.8372 12.3599C23.1022 12.3939 23.2997 12.5519 23.4609 13.0659C23.7209 13.8999 24.7109 14.4399 25.6434 13.6839Z" fill="#337321" stroke="black" stroke-width="0.03"/>
<path d="M27.0158 12.6679C26.7046 14.0479 25.8521 15.0299 25.4671 15.1799C24.8121 15.4339 23.4771 16.4719 23.1196 17.0059C23.0633 16.9859 23.0108 16.9539 22.9721 16.9099C22.7958 16.7099 22.6496 16.0619 22.9621 15.5119C23.9396 14.0479 24.9896 14.6799 25.6446 13.6819C25.0933 14.1479 24.0858 13.9479 23.9921 12.7999C24.5846 13.0499 25.6558 13.0659 26.5071 11.6019C26.6208 11.8039 26.9533 12.4359 27.0158 12.6679Z" fill="#F7E017" stroke="black" stroke-width="0.03"/>
<path d="M25.0226 15.908C24.5288 16.578 24.2726 18.224 24.3251 19.338C24.3401 19.648 24.3938 19.858 24.4763 19.986C24.5126 19.354 24.7876 17.72 25.4889 16.992C26.0814 16.376 27.0063 14.996 27.3501 13.416C27.2876 13.134 27.1839 12.934 26.9864 12.734C26.6451 14.226 25.7338 14.942 25.0226 15.908Z" fill="#337321" stroke="black" stroke-width="0.03"/>
<path d="M26.698 12.028C26.5218 12.452 26.1205 13.034 25.7368 13.268C25.8193 13.118 25.8455 12.928 25.8505 12.77C25.3618 13.07 24.3843 13.036 23.9893 12.804C24.5818 13.054 25.653 13.07 26.5043 11.606C26.5893 11.754 26.6618 11.886 26.698 12.028Z" fill="#316D3A" stroke="black" stroke-width="0.03"/>
<path d="M22.9618 15.512C22.1668 16.702 22.6918 17.74 23.003 17.974C22.9205 18.806 23.408 18.706 23.398 19.404C23.5955 19.222 23.648 18.738 23.6168 18.356C23.8668 18.788 24.5005 18.306 24.6355 19.104C24.7193 18.222 24.293 17.342 23.763 17.424C23.9818 17.108 23.8568 16.592 23.6493 16.46C23.608 17.108 23.1505 17.108 22.973 16.91C22.7955 16.71 22.6493 16.062 22.9618 15.512Z" fill="#337321" stroke="black" stroke-width="0.03"/>
<path d="M24.6821 23.08C24.5959 23.16 24.6021 23.338 24.6559 23.454C24.7646 23.686 24.5784 24.214 24.9309 24.328C25.0346 24.362 25.1146 24.26 25.1546 24.07C25.2634 23.546 24.9159 23.488 24.8846 23.238C24.8534 22.988 24.7546 23.014 24.6821 23.08Z" fill="#F7E017" stroke="black" stroke-width="0.03"/>
<path d="M24.9789 24.062C24.8626 24.148 24.7601 24.27 24.8076 24.868C24.8264 25.116 24.8176 25.716 24.6826 25.724C24.7651 25.79 24.9426 25.862 25.0151 25.708C25.0851 25.896 25.2439 25.842 25.3064 25.608C25.3889 25.716 25.5039 25.534 25.5039 25.376C25.5764 25.45 25.7226 25.342 25.6851 24.986C25.7739 25.036 25.8876 24.936 25.9289 24.844C25.7989 24.802 25.4714 24.52 25.3939 24.296C25.3164 24.07 25.1139 23.962 24.9789 24.062Z" fill="#F7E017" stroke="black" stroke-width="0.03"/>
<path d="M23.1768 7.23995C23.2293 7.11595 23.288 6.99995 23.353 6.89795" stroke="black" stroke-width="0.03"/>
<path d="M25.1543 9.44192C25.2455 9.35792 25.3855 9.34792 25.5405 9.36392" stroke="black" stroke-width="0.03"/>
<path d="M25.0139 25.708C24.9777 25.624 24.9639 25.276 24.9902 25.064" stroke="black" stroke-width="0.03"/>
<path d="M25.3051 25.608C25.2476 25.538 25.1389 25.296 25.1201 25.084" stroke="black" stroke-width="0.03"/>
<path d="M25.5026 25.376C25.4301 25.322 25.2526 24.956 25.2139 24.72" stroke="black" stroke-width="0.03"/>
<path d="M25.6841 24.9839C25.5978 24.9539 25.3353 24.6799 25.2266 24.3899" stroke="black" stroke-width="0.03"/>
<path d="M30.4773 15.53C31.7561 17.244 31.8386 18.606 31.6411 19.406C31.5373 18.658 31.0073 17.494 30.4561 17.194L30.4773 15.53Z" fill="#F7E017" stroke="black" stroke-width="0.03"/>
<path d="M28.1913 14.564H30.5613C30.5613 14.564 30.5613 15.562 30.5613 19.054C30.5613 22.88 29.2313 25.142 27.8788 26.338C26.5275 25.14 25.1963 22.878 25.1963 19.054C25.1963 15.562 25.1963 14.564 25.1963 14.564H26.86C26.8625 14.796 26.8763 15.146 27.0475 15.496C27.44 15.434 27.8838 14.964 28.1913 14.564Z" fill="#337321" stroke="black" stroke-width="0.03"/>
<path d="M30.5607 14.564C30.5607 14.564 30.5607 15.562 30.5607 19.054C30.5607 20.208 30.4395 21.222 30.2332 22.104L27.8795 15.194L25.5257 22.104C25.3195 21.22 25.1982 20.208 25.1982 19.054C25.1982 15.562 25.1982 14.564 25.1982 14.564H30.5607Z" fill="#006EC7" stroke="black" stroke-width="0.03"/>
<path d="M30.3051 21.774C30.2638 21.978 30.1876 22.308 30.1301 22.512L27.8801 15.82L25.6301 22.512C25.5713 22.308 25.4963 21.978 25.4551 21.774L27.8813 14.578L30.3051 21.774Z" fill="#F7E017"/>
<path d="M28.9482 24.236C29.0107 24.286 29.1257 24.378 29.1769 24.412C29.3019 24.012 29.3219 23.448 29.2807 22.948C29.1457 23.498 28.6882 23.48 28.5632 23.812C28.6394 23.874 28.7107 23.954 28.7719 24.024C28.6157 24.274 28.2507 24.692 28.0432 24.792V21.224C28.0432 20.974 27.9907 20.766 27.9907 20.558C27.9907 20.558 27.9907 19.986 27.9907 19.82C27.9907 19.654 27.9694 19.412 27.8769 19.412C27.7832 19.412 27.7632 19.654 27.7632 19.82C27.7632 19.986 27.7632 20.558 27.7632 20.558C27.7632 20.766 27.7107 21.008 27.7107 21.224V24.792C27.5969 24.26 27.1482 24.442 26.9407 23.91C27.0219 23.878 27.1082 23.868 27.1907 23.894C27.0344 23.046 26.6082 22.98 26.5257 22.73C26.5257 23.08 26.4319 23.894 26.5782 24.244C26.6107 24.182 26.6594 24.116 26.7194 24.06C26.8957 24.676 27.6907 24.678 27.8782 25.692C28.0282 25.318 28.5694 24.886 28.9482 24.236Z" fill="#F7E017" stroke="black" stroke-width="0.03"/>
<path d="M27.8783 21.268C28.0546 21.268 28.6158 21.176 28.8196 21.176C28.8721 21.176 28.9158 21.05 28.9158 20.894C28.9158 20.738 28.8733 20.612 28.8196 20.612C28.6171 20.612 28.0558 20.52 27.8783 20.52C27.7021 20.52 27.1408 20.612 26.9371 20.612C26.8846 20.612 26.8408 20.738 26.8408 20.894C26.8408 21.05 26.8833 21.176 26.9371 21.176C27.1408 21.176 27.7021 21.268 27.8783 21.268Z" fill="#F7E017" stroke="black" stroke-width="0.03"/>
<path d="M27.765 19.806C27.7275 19.758 27.6788 19.728 27.6238 19.728C27.5063 19.728 27.41 19.868 27.41 20.04C27.41 20.212 27.505 20.352 27.6238 20.352C27.7413 20.352 27.8363 20.212 27.8363 20.04C27.8363 19.906 27.9575 19.906 27.9575 20.04C27.9575 20.31 27.8075 20.528 27.6238 20.528C27.4388 20.528 27.29 20.31 27.29 20.04C27.29 19.77 27.44 19.552 27.6238 19.552C27.6788 19.552 27.7313 19.572 27.7775 19.606C27.7738 19.65 27.765 19.734 27.765 19.806Z" fill="#F7E017" stroke="black" stroke-width="0.03"/>
<path d="M26.9385 21.1759C26.991 21.1759 27.0335 21.0499 27.0335 20.8939C27.0335 20.7379 26.991 20.6119 26.9385 20.6119" fill="#F7E017"/>
<path d="M26.9385 21.1759C26.991 21.1759 27.0335 21.0499 27.0335 20.8939C27.0335 20.7379 26.991 20.6119 26.9385 20.6119" stroke="black" stroke-width="0.03"/>
<path d="M27.0156 21.1759C27.0681 21.1759 27.1106 21.0499 27.1106 20.8939C27.1106 20.7379 27.0681 20.6119 27.0156 20.6119" fill="#F7E017"/>
<path d="M27.0156 21.1759C27.0681 21.1759 27.1106 21.0499 27.1106 20.8939C27.1106 20.7379 27.0681 20.6119 27.0156 20.6119" stroke="black" stroke-width="0.03"/>
<path d="M27.5293 21.234C27.593 21.234 27.6443 21.082 27.6443 20.894C27.6443 20.706 27.593 20.554 27.5293 20.554" fill="#F7E017"/>
<path d="M27.5293 21.234C27.593 21.234 27.6443 21.082 27.6443 20.894C27.6443 20.706 27.593 20.554 27.5293 20.554" stroke="black" stroke-width="0.03"/>
<path d="M27.6484 21.248C27.7147 21.248 27.7684 21.088 27.7684 20.892C27.7684 20.696 27.7147 20.536 27.6484 20.536" fill="#F7E017"/>
<path d="M27.6484 21.248C27.7147 21.248 27.7684 21.088 27.7684 20.892C27.7684 20.696 27.7147 20.536 27.6484 20.536" stroke="black" stroke-width="0.03"/>
<path d="M28.0488 21.252C28.1163 21.252 28.1701 21.09 28.1701 20.892C28.1701 20.694 28.1151 20.532 28.0488 20.532" fill="#F7E017"/>
<path d="M28.0488 21.252C28.1163 21.252 28.1701 21.09 28.1701 20.892C28.1701 20.694 28.1151 20.532 28.0488 20.532" stroke="black" stroke-width="0.03"/>
<path d="M28.1738 21.242C28.2401 21.242 28.2938 21.086 28.2938 20.894C28.2938 20.702 28.2401 20.546 28.1738 20.546" fill="#F7E017"/>
<path d="M28.1738 21.242C28.2401 21.242 28.2938 21.086 28.2938 20.894C28.2938 20.702 28.2401 20.546 28.1738 20.546" stroke="black" stroke-width="0.03"/>
<path d="M28.7324 21.18C28.7862 21.18 28.8299 21.052 28.8299 20.892C28.8299 20.732 28.7862 20.604 28.7324 20.604" fill="#F7E017"/>
<path d="M28.7324 21.18C28.7862 21.18 28.8299 21.052 28.8299 20.892C28.8299 20.732 28.7862 20.604 28.7324 20.604" stroke="black" stroke-width="0.03"/>
<path d="M26.7197 24.06C26.7835 23.998 26.861 23.942 26.9422 23.912Z" fill="#F7E017"/>
<path d="M26.7197 24.06C26.7835 23.998 26.861 23.942 26.9422 23.912" stroke="black" stroke-width="0.03"/>
<path d="M28.8347 24.0939C28.8159 24.0719 28.7947 24.0499 28.7734 24.0239Z" fill="#F7E017"/>
<path d="M28.8347 24.0939C28.8159 24.0719 28.7947 24.0499 28.7734 24.0239" stroke="black" stroke-width="0.03"/>
<path d="M28.9482 24.236C29.0932 23.986 29.2145 23.704 29.282 23.38Z" fill="#F7E017"/>
<path d="M28.9482 24.236C29.0932 23.986 29.2145 23.704 29.282 23.38" stroke="black" stroke-width="0.03"/>
<path d="M27.4023 17.7399C27.4023 17.6579 27.4436 17.6239 27.4923 17.5659C27.5511 17.4959 27.5748 17.4619 27.6273 17.4619H28.3098C28.3598 17.4619 28.3723 17.4819 28.3723 17.5579V19.0399C28.3723 19.1139 28.3611 19.1359 28.3098 19.1359H27.4023V17.7239" fill="white"/>
<path d="M27.4023 17.7399C27.4023 17.6579 27.4436 17.6239 27.4923 17.5659C27.5511 17.4959 27.5748 17.4619 27.6273 17.4619H28.3098C28.3598 17.4619 28.3723 17.4819 28.3723 17.5579V19.0399C28.3723 19.1139 28.3611 19.1359 28.3098 19.1359H27.4023V17.7239" stroke="black" stroke-width="0.03"/>
<path d="M28.1414 19.266C28.2314 19.266 28.2152 19.262 28.2777 19.162C28.3439 19.058 28.3377 19.066 28.3377 18.97V17.612C28.3377 17.542 28.3264 17.522 28.2802 17.522H27.6489C27.5989 17.522 27.5777 17.554 27.5239 17.62C27.4789 17.674 27.4414 17.708 27.4414 17.784V19.266H28.1414Z" fill="#E5E5E5" stroke="black" stroke-width="0.03"/>
<path d="M28.2086 19.2339C28.2086 19.3079 28.1973 19.3299 28.1461 19.3299H27.4636C27.4123 19.3299 27.4023 19.3099 27.4023 19.2339V17.7499C27.4023 17.6759 27.4136 17.6539 27.4636 17.6539H28.1461C28.1973 17.6539 28.2086 17.6739 28.2086 17.7499V19.2339Z" fill="white" stroke="black" stroke-width="0.03"/>
<path d="M29.5313 13.694C29.6638 13.932 29.7076 14.25 29.6351 14.562H29.4376C29.5201 14.162 29.4688 13.782 29.1151 13.732C28.5863 13.658 27.9713 15.296 27.0463 15.494C26.7763 14.978 26.7901 13.996 27.1338 13.53C26.9563 12.712 26.5826 11.812 26.3226 11.424C26.1526 11.38 25.9563 11.358 25.8301 11.37C25.9651 10.904 26.3501 10.414 26.6626 10.214C26.7126 10.096 26.7676 9.982 26.8176 9.88C26.8488 9.24 28.7513 9.54 29.1563 9.938C29.1576 10.656 29.3338 13.046 29.5313 13.694Z" fill="#96877D" stroke="black" stroke-width="0.03"/>
<path d="M27.2256 14.132C27.1806 13.024 26.9006 12.11 26.5068 11.488C26.6943 11.572 27.0781 11.572 27.3381 11.272C27.6806 10.906 28.5756 10.266 28.9031 10.54C28.9293 10.632 28.9443 10.84 28.9243 10.972C28.8468 10.64 27.9831 11.154 27.7393 11.312C27.5056 11.486 27.4018 11.72 27.4843 12.244C27.3493 12.062 27.3956 11.886 27.2556 11.754C27.3118 11.97 27.3581 12.36 27.3743 12.676C27.3218 12.452 27.2293 11.97 27.0256 11.686C27.2018 12.234 27.3556 13.552 27.2831 14.252C27.4231 14.252 27.7331 14.032 27.8568 13.874C27.7481 14.124 27.4331 14.298 27.2306 14.364C27.1393 14.538 27.0768 14.988 27.0818 15.238C27.0681 14.93 27.1281 14.18 27.2256 14.132Z" fill="black"/>
<path d="M29.5307 13.6939C29.3582 13.3879 29.037 13.2219 28.627 13.3999C28.6895 13.3499 28.8245 13.2659 28.9445 13.2339C28.9295 13.0599 28.8307 12.3099 28.8145 12.1279L28.9295 12.0539C28.987 12.5039 29.0595 13.0179 29.1057 13.2259C29.142 13.2419 29.2257 13.2679 29.2982 13.3259C29.267 13.1519 29.0907 11.8959 29.0957 11.7619L29.252 11.6279C29.3132 12.3099 29.412 13.2999 29.5307 13.6939Z" fill="black"/>
<path d="M29.4384 14.5639C29.5209 14.1639 29.4696 13.7839 29.1159 13.7339C28.8421 13.6959 28.5446 14.1219 28.1934 14.5639H29.4384Z" fill="#96877D" stroke="black" stroke-width="0.03"/>
<path d="M27.1412 10.98C26.985 11.014 26.6375 10.964 26.46 10.872C26.47 10.796 26.4887 10.72 26.5112 10.636C26.4025 10.752 26.195 10.98 26.1162 11.138C26.3662 11.222 26.8812 11.264 27.1412 10.98Z" fill="#96877D" stroke="black" stroke-width="0.03"/>
<path d="M27.1348 13.532C27.1923 13.798 27.2298 14.054 27.2348 14.282" stroke="black" stroke-width="0.03"/>
<path d="M26.6637 10.2159C26.57 10.4359 26.4875 10.6719 26.46 10.8719C26.6362 10.9639 26.985 11.0139 27.1412 10.9799" stroke="black" stroke-width="0.03"/>
<path d="M26.3232 11.426C26.3907 11.444 26.4532 11.464 26.507 11.488C26.6945 11.572 27.0782 11.572 27.3382 11.272C27.5982 10.972 28.3045 10.042 29.1057 9.94202" stroke="black" stroke-width="0.03"/>
<path d="M26.1172 11.138C26.3672 11.222 26.8822 11.262 27.1409 10.98C27.7434 10.324 28.3259 9.94001 28.9084 9.89001" stroke="black" stroke-width="0.03"/>
<path d="M30.4775 15.53C31.35 16.494 31.995 17.426 32.1825 18.922C32.37 20.418 32.7238 20.818 33.16 20.418C33.0563 21.282 32.515 21.382 32.0588 20.718C32.1 21.716 31.8513 22.914 31.2063 23.346C31.165 22.748 31.4125 22.274 31.3413 21.782C31.31 21.566 31.3 21.066 31.4763 20.834C31.1338 21.016 30.5925 20.668 30.5413 19.852C30.9363 20.152 31.445 20.202 31.6425 19.402C31.8388 18.606 31.7563 17.242 30.4775 15.53Z" fill="#337321" stroke="black" stroke-width="0.03"/>
<path d="M31.5801 7.74593C31.8501 6.61593 32.5576 6.73193 32.7963 7.21393C33.4926 6.58193 33.5863 8.01193 34.1788 7.72993C34.1688 7.99593 33.9713 8.24593 33.7526 8.22793C33.9813 8.55993 33.6588 9.05993 34.1476 9.35793C33.7313 9.68993 33.1501 9.34193 32.9938 8.42593C32.8588 8.85793 32.3701 8.85793 32.1726 8.50993C32.5988 8.32793 32.5676 7.69593 32.3288 7.44593C32.0876 7.19393 31.6626 7.29593 31.5801 7.74593Z" fill="#337321" stroke="black" stroke-width="0.03"/>
<path d="M29.4711 10.2359C29.6649 11.2359 30.0661 12.1679 30.4986 12.8019C30.9974 13.5339 31.7511 13.3499 32.1724 12.6519C32.1824 14.0439 31.2811 14.1519 30.7799 13.7159C30.5586 13.5239 30.3799 13.6239 30.5924 13.9319C30.9149 14.3979 31.6199 14.7439 32.4524 15.0299C33.9074 15.5279 33.3886 17.3759 32.9624 17.3579C33.0849 17.3539 33.1849 17.1499 33.0086 16.8959C31.7461 15.0779 29.1786 15.7939 29.2199 11.7359C28.9499 12.7999 27.8374 12.3839 28.3574 11.1199C28.5236 11.3359 28.8149 11.3519 28.8986 11.0199C28.9636 10.7619 28.9211 10.3119 28.6299 9.92393C28.6774 9.91793 28.7811 9.92393 28.7699 9.73193C28.7824 9.84393 28.8461 10.0099 29.0099 9.95393C29.0561 10.0719 29.1061 10.1499 29.1724 10.1079C29.1849 10.0999 29.2249 10.0679 29.2086 9.94993C29.2211 10.1739 29.3849 10.2519 29.4711 10.2359Z" fill="#337321" stroke="black" stroke-width="0.03"/>
<path d="M30.7789 13.716C31.3814 14.348 32.0639 14.348 32.6914 13.184C32.8889 12.818 33.2001 12.502 33.4189 12.468C33.6376 12.434 33.6264 12.102 33.7926 12.036C33.6889 11.986 33.6476 11.786 33.4914 11.812C33.8814 11.596 33.7664 11.096 33.9589 10.856C33.8026 10.948 33.5589 10.574 33.3351 11.048C33.3926 10.832 33.3139 10.574 33.2576 10.474C33.2789 10.724 32.9514 10.774 32.8889 11.406C32.8539 11.76 32.7326 11.738 32.7126 11.19C32.6976 10.788 32.5776 9.676 32.4326 9.112C32.2876 8.546 32.2539 7.77 32.4514 7.654C32.4214 7.574 32.3801 7.502 32.3289 7.45C32.0876 7.198 31.6639 7.3 31.5801 7.75C31.3101 8.88 32.0689 9.53 32.0064 10.76C31.8926 9.846 30.9664 9.612 30.9776 8.714C30.6764 8.93 30.7176 9.33 30.8326 9.646C30.6451 9.18 30.2189 9.946 29.8551 9.314C29.8139 10.146 30.2714 10.462 30.6451 10.494C30.4576 11.026 30.7076 11.476 30.9564 11.624C30.9664 10.692 32.1601 11.074 32.1726 12.672C32.1826 14.032 31.2676 14.148 30.7789 13.716Z" fill="#F7E017" stroke="black" stroke-width="0.03"/>
<path d="M32.452 15.03C33.907 15.528 33.3882 17.376 32.962 17.358C32.6907 17.348 32.432 16.984 32.4157 16.668C32.1045 16.934 32.187 17.458 32.4257 17.666C31.7707 17.542 31.4957 18.232 31.4795 18.988C31.5995 18.638 31.9632 18.614 32.0982 18.688C32.2332 18.762 32.582 18.804 32.722 18.554C32.607 18.712 32.7945 19.078 32.6332 19.36C33.1795 19.326 33.4182 18.512 33.3245 18.154C34.032 17.126 33.897 15.446 32.452 15.03Z" fill="#F7E017" stroke="black" stroke-width="0.03"/>
<path d="M31.3452 22.932C31.4402 23.026 31.4277 23.226 31.3639 23.352C31.2352 23.604 31.4289 24.206 31.0327 24.308C30.9152 24.338 30.8289 24.218 30.7902 24.004C30.6827 23.412 31.0727 23.372 31.1139 23.094C31.1564 22.818 31.2652 22.852 31.3452 22.932Z" fill="#F7E017" stroke="black" stroke-width="0.03"/>
<path d="M30.9868 24.006C31.1143 24.11 31.2243 24.254 31.1568 24.918C31.128 25.194 31.1218 25.864 31.273 25.882C31.178 25.95 30.9793 26.016 30.9018 25.84C30.818 26.044 30.643 25.972 30.5793 25.708C30.483 25.822 30.3605 25.61 30.3655 25.434C30.2818 25.512 30.123 25.382 30.173 24.986C30.073 25.036 29.948 24.916 29.9043 24.812C30.0505 24.774 30.423 24.482 30.5168 24.236C30.6093 23.992 30.838 23.886 30.9868 24.006Z" fill="#F7E017" stroke="black" stroke-width="0.03"/>
<path d="M30.9014 25.842C30.9439 25.752 30.9689 25.362 30.9451 25.124" stroke="black" stroke-width="0.03"/>
<path d="M30.5801 25.7099C30.6463 25.6359 30.7738 25.3739 30.8001 25.1379" stroke="black" stroke-width="0.03"/>
<path d="M30.3643 25.4359C30.4468 25.3799 30.6543 24.9839 30.7043 24.7219" stroke="black" stroke-width="0.03"/>
<path d="M30.1719 24.988C30.2681 24.962 30.5694 24.674 30.6981 24.356" stroke="black" stroke-width="0.03"/>
<path d="M29.2193 11.7379C29.2018 13.4419 29.6443 14.3059 30.258 14.8659C30.0305 14.6479 30.1293 13.8999 29.8218 13.6579C29.8943 13.6499 30.0093 13.8159 30.1905 13.7499C30.1018 13.4339 29.9568 12.9519 29.6193 12.8859C29.708 12.8699 29.9005 12.9199 30.0243 12.8439C29.848 12.4099 29.3805 12.6179 29.2193 11.7379Z" fill="#F7E017" stroke="black" stroke-width="0.03"/>
<path d="M29.1095 10.116C29.072 10.096 29.0408 10.036 29.0095 9.95796C28.8458 10.014 28.782 9.84796 28.7695 9.73596C28.7795 9.92796 28.677 9.91996 28.6283 9.92596C28.9208 10.314 28.9633 10.764 28.8983 11.022C28.8145 11.354 28.5245 11.338 28.357 11.122C28.3358 11.828 28.9083 12.062 29.1158 11.172C29.1158 11.322 29.2358 11.306 29.267 11.504C29.4145 11.122 29.302 10.572 29.1095 10.116Z" fill="#F7E017" stroke="black" stroke-width="0.03"/>
<path d="M28.1961 6.73997C27.9361 6.35797 27.8161 5.71797 27.8273 5.35197C27.8373 4.98597 27.9311 4.58597 28.2636 4.75397C28.1598 4.75397 28.2323 5.08597 28.1236 5.11997C28.2123 5.16997 28.3311 5.05397 28.3473 4.97797C28.3686 5.09397 28.5036 5.06197 28.5136 5.19397C28.5661 5.12797 28.5086 4.80397 28.4311 4.73597C28.4886 4.68597 28.5198 4.42797 28.4936 4.30397C28.4411 4.31997 28.3636 4.43797 28.3486 4.60397C28.3748 4.46997 28.3436 4.13797 28.1973 4.08797C28.1561 4.17997 28.1448 4.40397 28.2023 4.52797C28.0673 4.47797 27.8698 4.61997 27.8223 4.80197C27.8323 4.58197 27.8523 4.26797 27.9373 4.06997C27.9661 4.00397 27.8961 3.88797 27.8411 4.04597C27.7398 3.72997 27.4698 3.56397 27.3498 3.72197C27.2298 3.87997 27.0698 3.64797 26.9711 3.89597C26.8723 4.14597 26.5373 4.17197 26.5548 4.43597C26.5648 4.59397 26.5411 4.83797 26.4923 4.92597C26.3723 5.14197 26.5498 5.29997 26.5811 5.49197C26.5598 4.85997 27.1886 3.62997 27.8186 4.11197C27.7611 4.26997 27.7111 4.58597 27.6936 4.96797C27.6673 5.53397 27.7198 6.33197 28.0623 6.79797L28.1961 6.73997Z" fill="#337321" stroke="black" stroke-width="0.03"/>
<path d="M28.3819 4.75998C28.3781 4.60998 28.5407 4.41598 28.7582 4.41998C29.0207 4.42398 29.2232 4.80598 29.4332 4.76998C29.6432 4.73198 29.5394 4.91998 29.4957 4.96998C29.4519 5.01998 29.4256 5.09398 29.4406 5.18598C29.4556 5.27798 29.4294 5.33798 29.3444 5.25198C29.1569 5.06398 28.9707 5.32598 28.7232 5.18198C28.5119 5.05398 28.3881 4.98398 28.3819 4.75998Z" fill="#C8102E" stroke="black" stroke-width="0.03"/>
<path d="M27.3126 8.68596C27.2088 8.16196 26.8138 7.58796 26.6213 7.45596L26.6113 7.17396C26.7151 7.10796 26.9651 6.79196 27.0788 6.61596C27.8588 7.21396 28.9188 6.36596 29.4076 5.48596L29.5951 5.66796L29.5013 5.86796L29.4026 5.78396C29.2826 6.01596 28.8363 6.68796 28.7013 6.82996C28.8826 6.90396 29.1313 6.95396 29.2001 6.94796C29.6363 6.44796 29.9788 5.99996 30.1451 5.96596L30.2851 6.26596L30.1601 6.40796L30.0613 6.31596C29.5938 6.93196 29.0638 8.27796 28.8551 9.17596C28.5651 9.07596 27.5251 9.14196 27.3126 8.68596Z" fill="#96877D" stroke="black" stroke-width="0.03"/>
<path d="M28.7009 6.82999C28.6334 6.80199 28.5759 6.77199 28.5397 6.73999C28.4559 6.86399 28.2484 6.97199 27.9834 6.98999" stroke="black" stroke-width="0.03"/>
<path d="M27.353 8.50192C27.283 7.88192 27.3943 7.19592 27.5918 6.98792C28.023 7.44592 28.7618 7.44592 29.198 6.94592" stroke="black" stroke-width="0.03"/>
<path d="M27.3535 8.17803C27.686 8.16203 28.4085 8.25203 28.5848 8.29403C28.761 8.33603 29.0573 8.45203 29.016 8.59403" stroke="black" stroke-width="0.03"/>
<path d="M27.5071 8.09001L27.6034 7.93801L27.5071 7.78601L27.4121 7.93601L27.5071 8.09001Z" stroke="black" stroke-width="0.03"/>
<path d="M27.7331 4.99392C27.6131 4.72792 27.2844 4.64392 27.2131 5.00192C27.1819 5.15992 27.1356 5.32592 27.0569 5.40192C26.9794 5.47592 26.9969 5.70392 27.0306 5.80192C27.1131 6.04392 27.0406 6.27592 27.2019 6.43392C27.2019 6.24192 27.3781 6.04392 27.5294 5.99392C27.6806 5.94392 27.9081 5.72792 27.9394 5.48592C27.9719 5.24192 28.0244 5.04192 27.7331 4.99392Z" fill="#337321" stroke="black" stroke-width="0.03"/>
<path d="M26.9846 7.38794H27.0259L27.0271 7.84194C27.0359 7.84594 27.0446 7.85394 27.0521 7.86194L27.2971 7.63594L27.3184 7.69394L27.0721 7.92194C27.0734 7.93594 27.0746 7.95194 27.0734 7.96594L27.3184 8.19194L27.2971 8.24994L27.0496 8.02594C27.0434 8.03594 27.0346 8.04594 27.0259 8.04994V8.50194H26.9846V8.04794C26.9759 8.04394 26.9671 8.03594 26.9596 8.02794L26.7146 8.25394L26.6934 8.19594L26.9396 7.96794C26.9384 7.95394 26.9371 7.93794 26.9384 7.92394L26.6934 7.69794L26.7146 7.63994L26.9609 7.86594C26.9671 7.85594 26.9759 7.84594 26.9846 7.84194V7.38794Z" fill="#96877D" stroke="black" stroke-width="0.03"/>
<path d="M27.3542 8.50001C27.2655 8.64401 27.1417 8.73201 27.0042 8.73201C26.7317 8.73201 26.5117 8.38001 26.5117 7.94401C26.5117 7.50801 26.7317 7.15601 27.0042 7.15601C27.1642 7.15601 27.3055 7.27801 27.3955 7.46601C27.3705 7.56601 27.3405 7.78801 27.338 7.88801C27.3205 7.61601 27.178 7.40401 27.003 7.40401C26.8167 7.40401 26.6667 7.64601 26.6667 7.94201C26.6667 8.24001 26.818 8.48001 27.003 8.48001C27.158 8.48001 27.293 8.30601 27.3317 8.07601C27.333 8.18001 27.3355 8.41801 27.3542 8.50001Z" fill="#96877D" stroke="black" stroke-width="0.03"/>
<path d="M26.7968 9.24996C26.7656 9.19196 26.7081 9.03396 26.7143 8.91796C26.7606 8.90996 26.8493 8.95996 26.8906 9.02596C26.8856 8.94196 26.8643 8.75996 26.8756 8.67596C26.9331 8.70996 27.0518 8.81796 27.0943 8.94196C27.0843 8.85796 27.0631 8.64196 27.0843 8.50996C27.1468 8.56796 27.2506 8.72596 27.2718 8.83396C27.2768 8.66796 27.3131 8.39396 27.3443 8.32596C27.3906 8.39996 27.4643 8.46796 27.5106 8.56796C27.5206 8.43396 27.5631 8.27596 27.6243 8.23596C27.6706 8.31996 27.7443 8.50996 27.7593 8.72596C27.8056 8.70196 27.8681 8.57596 27.8943 8.50996C27.9206 8.57596 27.9468 8.69196 27.9306 8.83396C27.9881 8.74996 28.0556 8.63396 28.0706 8.53396C28.1118 8.58396 28.1906 8.70796 28.2106 8.84196C28.2006 8.73396 28.2056 8.54196 28.1843 8.43396C28.2618 8.49996 28.3243 8.61596 28.3406 8.74196C28.3618 8.62596 28.4081 8.41796 28.4493 8.36796C28.4906 8.50196 28.5331 8.65996 28.5268 8.79196C28.5531 8.70796 28.5943 8.55996 28.6356 8.52596C28.6718 8.61796 28.6668 8.81796 28.6568 8.92596C28.6931 8.84196 28.7606 8.74396 28.8018 8.70996C28.8068 8.75996 28.8118 8.85996 28.8018 8.93396C28.8481 8.89196 28.9268 8.66796 28.9531 8.55196C29.0256 8.60996 29.0981 8.80996 29.1043 8.90996C29.1568 8.87596 29.2606 8.72796 29.2918 8.64396C29.2918 8.70196 29.3081 8.85996 29.2868 8.98396C29.3181 8.93396 29.3493 8.83396 29.3643 8.79196C29.3856 8.87596 29.3693 9.07396 29.3481 9.18196C29.3943 9.11596 29.4631 9.07396 29.5043 9.07396C29.5093 9.21596 29.4468 9.46396 29.3893 9.64796C28.8918 9.42596 27.8468 9.34196 26.7968 9.24996Z" fill="#337321" stroke="black" stroke-width="0.03"/>
<path d="M28.5372 4.84597C28.5347 4.78397 28.6197 4.64597 28.7734 4.64797C28.9572 4.64997 29.1272 4.86597 29.2734 4.84997C29.4209 4.83397 29.3484 4.91197 29.3172 4.93197C29.2859 4.95197 29.2684 4.98397 29.2784 5.01997C29.2897 5.05797 29.2709 5.08197 29.2109 5.04797C29.0797 4.97197 28.9484 5.07797 28.7759 5.01997C28.6272 4.96597 28.5409 4.93797 28.5372 4.84597Z" fill="#F7E017"/>
<path d="M26.9583 9.74994C26.8021 10.0499 26.6471 9.99994 26.6158 9.80794C26.5846 9.61594 26.6996 9.52594 26.6571 9.35794C26.6158 9.19194 26.7246 9.11594 26.7771 9.19194C26.8296 9.26594 26.9958 9.02594 27.0683 9.27594C27.1408 9.52594 27.1983 9.69994 27.1571 9.79994C27.1146 9.89994 26.9896 9.84994 26.9583 9.74994Z" fill="#F7E017" stroke="black" stroke-width="0.03"/>
<path d="M27.6284 9.29995C27.5996 9.18995 27.7609 8.97995 27.8446 9.12995C27.9284 9.27995 28.0584 8.96795 28.1309 9.20395C28.2034 9.44195 28.2271 9.56595 28.2634 9.69795C28.2996 9.83195 28.0659 9.90195 27.9934 9.78595C28.0034 9.86395 27.7909 9.92595 27.7334 9.70195C27.7021 9.58395 27.6684 9.44595 27.6284 9.29995Z" fill="#F7E017" stroke="black" stroke-width="0.03"/>
<path d="M28.7092 9.43803C28.6705 9.32203 28.8605 9.15603 28.9592 9.36803C28.9855 9.28003 29.173 9.26403 29.1855 9.51803C29.198 9.77203 29.2042 9.92203 29.2092 10.022C29.2142 10.122 29.0955 10.214 29.0092 9.96003C28.8555 10.01 28.7855 9.87203 28.768 9.72803C28.7492 9.58003 28.7305 9.50803 28.7092 9.43803Z" fill="#F7E017" stroke="black" stroke-width="0.03"/>
<path d="M27.06 9.27193C27.0363 9.18793 27.1925 9.02193 27.2988 9.14793C27.405 9.27193 27.5525 9.03993 27.6163 9.26393C27.7438 9.71793 27.7513 9.74993 27.7125 9.83793C27.6738 9.92593 27.5075 9.89193 27.465 9.77193C27.4575 9.85593 27.3138 9.84193 27.2388 9.77593C27.1538 9.69993 27.0938 9.42193 27.06 9.27193Z" fill="#337321" stroke="black" stroke-width="0.03"/>
<path d="M28.1531 9.29197C28.1168 9.16397 28.3606 9.04997 28.4681 9.27597C28.5231 9.19597 28.6418 9.19197 28.7093 9.43797C28.7768 9.68397 28.7868 9.81997 28.7381 9.88197C28.7031 9.92597 28.5768 9.95997 28.5356 9.84797C28.4781 9.90597 28.3018 9.85597 28.2631 9.69797C28.2243 9.54197 28.1906 9.40397 28.1531 9.29197Z" fill="#337321" stroke="black" stroke-width="0.03"/>
<path d="M29.1886 9.538C29.1836 9.422 29.3161 9.368 29.3649 9.538C29.4149 9.708 29.5724 9.554 29.5861 9.838C29.5886 9.892 29.5674 10.1 29.5186 10.2C29.4699 10.3 29.2274 10.2 29.2124 9.988C29.1961 9.774 29.1911 9.654 29.1886 9.538Z" fill="#337321" stroke="black" stroke-width="0.03"/>
<path d="M26.9584 9.74995C26.9009 9.62595 26.8234 9.42595 26.7246 9.64195" stroke="black" stroke-width="0.03"/>
<path d="M27.4658 9.76994C27.4321 9.69994 27.3883 9.58194 27.3721 9.49194" stroke="black" stroke-width="0.03"/>
<path d="M27.993 9.78805C27.9568 9.74605 27.9018 9.66405 27.873 9.57605" stroke="black" stroke-width="0.03"/>
<path d="M27.9463 9.34998C28.0375 9.36598 28.1 9.50398 28.1275 9.56598C28.1563 9.62798 28.2163 9.73997 28.2625 9.75397" stroke="black" stroke-width="0.03"/>
<path d="M28.5358 9.84997C28.5046 9.76997 28.4733 9.69997 28.4658 9.64197" stroke="black" stroke-width="0.03"/>
<path d="M28.4688 9.276C28.5 9.346 28.5238 9.404 28.5413 9.472" stroke="black" stroke-width="0.03"/>
<path d="M29.0079 9.958C28.9667 9.834 28.9017 9.712 28.8467 9.672" stroke="black" stroke-width="0.03"/>
<path d="M28.9883 9.5C28.9933 9.746 29.1983 9.762 29.207 9.936" stroke="black" stroke-width="0.03"/>
<path d="M29.3643 9.53796C29.3855 9.59996 29.393 9.66196 29.3955 9.76596" stroke="black" stroke-width="0.03"/>
</g>
<defs>
<clipPath id="clip0_3045_2280">
<rect width="37.5" height="30" rx="5" fill="white"/>
</clipPath>
</defs>
</svg>
