<svg width="38" height="30" viewBox="0 0 38 30" fill="none" xmlns="http://www.w3.org/2000/svg">
<path d="M0 8.75H37.5V21.25H0V8.75Z" fill="white"/>
<path d="M5 0H32.5C35.26 0 37.5 2.24 37.5 5V10H0V5C0 2.24 2.24 0 5 0Z" fill="black"/>
<path d="M32.5 30L5 30C2.24 30 0 27.76 0 25V20L37.5 20V25C37.5 27.76 35.26 30 32.5 30Z" fill="#429543"/>
<path d="M1.58875 28.6387L17.5 15L1.58875 1.36121C0.61625 2.27371 0 3.56121 0 4.99996V25C0 26.4387 0.61625 27.7262 1.58875 28.6387Z" fill="#DA403E"/>
<path opacity="0.15" d="M32.5 0H5C2.23875 0 0 2.23875 0 5V25C0 27.7613 2.23875 30 5 30H32.5C35.2613 30 37.5 27.7613 37.5 25V5C37.5 2.23875 35.2613 0 32.5 0ZM36.25 25C36.25 27.0675 34.5675 28.75 32.5 28.75H5C2.9325 28.75 1.25 27.0675 1.25 25V5C1.25 2.9325 2.9325 1.25 5 1.25H32.5C34.5675 1.25 36.25 2.9325 36.25 5V25Z" fill="black"/>
<path opacity="0.2" d="M32.5 1.25H5C2.92875 1.25 1.25 2.92875 1.25 5V6.25C1.25 4.17875 2.92875 2.5 5 2.5H32.5C34.5712 2.5 36.25 4.17875 36.25 6.25V5C36.25 2.92875 34.5712 1.25 32.5 1.25Z" fill="white"/>
</svg>
