<svg width="38" height="30" viewBox="0 0 38 30" fill="none" xmlns="http://www.w3.org/2000/svg">
<path d="M32.5 0H5C2.23858 0 0 2.23858 0 5V25C0 27.7614 2.23858 30 5 30H32.5C35.2614 30 37.5 27.7614 37.5 25V5C37.5 2.23858 35.2614 0 32.5 0Z" fill="#071B65"/>
<path d="M5.12648 0H5.00023C2.52398 0 0.481484 1.805 0.0839844 4.1675L32.374 30H32.5002C34.9765 30 37.019 28.195 37.4165 25.8325L5.12648 0Z" fill="white"/>
<path d="M26.5625 18.75H23.4375L35.855 28.6838C36.3388 28.2425 36.735 27.7125 37.0163 27.1125L26.5625 18.75Z" fill="#B92932"/>
<path d="M0.483398 2.88616L10.9371 11.2499H14.0621L1.64465 1.31616C1.1609 1.75741 0.764648 2.28616 0.483398 2.88616Z" fill="#B92932"/>
<path d="M5.00023 30H5.12648L37.4165 4.1675C37.019 1.80375 34.9765 0 32.5002 0H32.374L0.0839844 25.8325C0.481484 28.1963 2.52398 30 5.00023 30Z" fill="white"/>
<path d="M22.5 0H15V30H22.5V0Z" fill="white"/>
<path d="M37.5 11.25H0V18.75H37.5V11.25Z" fill="white"/>
<path d="M21.25 0H16.25V30H21.25V0Z" fill="#B92932"/>
<path d="M37.5 17.5V12.5L0 12.5V17.5L37.5 17.5Z" fill="#B92932"/>
<path d="M34.0275 0.262451L22.5 9.48245V11.25H23.4375L35.8663 1.32495C35.3425 0.844951 34.7188 0.486201 34.0275 0.262451Z" fill="#B92932"/>
<path d="M1.66016 28.6962C2.17766 29.1637 2.79016 29.5162 3.46891 29.7362L15.0002 20.5112V18.7512H14.0627L1.66016 28.6962Z" fill="#B92932"/>
<path opacity="0.15" d="M32.5 0H5C2.23875 0 0 2.23875 0 5V25C0 27.7613 2.23875 30 5 30H32.5C35.2613 30 37.5 27.7613 37.5 25V5C37.5 2.23875 35.2613 0 32.5 0ZM36.25 25C36.25 27.0675 34.5675 28.75 32.5 28.75H5C2.9325 28.75 1.25 27.0675 1.25 25V5C1.25 2.9325 2.9325 1.25 5 1.25H32.5C34.5675 1.25 36.25 2.9325 36.25 5V25Z" fill="black"/>
<path opacity="0.2" d="M32.5 1.25H5C2.92875 1.25 1.25 2.92875 1.25 5V6.25C1.25 4.17875 2.92875 2.5 5 2.5H32.5C34.5712 2.5 36.25 4.17875 36.25 6.25V5C36.25 2.92875 34.5712 1.25 32.5 1.25Z" fill="white"/>
</svg>
