<svg width="38" height="30" viewBox="0 0 38 30" fill="none" xmlns="http://www.w3.org/2000/svg">
<path d="M0 25C0 27.7615 2.2385 30 5 30H32.5C35.2615 30 37.5 27.7615 37.5 25V13.75H0V25Z" fill="#022588"/>
<path d="M32.5 0H5C2.2385 0 0 2.2385 0 5V15H37.5V5C37.5 2.2385 35.2615 0 32.5 0Z" fill="#DD1216"/>
<path d="M1.64463 28.6842L18.75 15L1.64463 1.31573C0.641 2.23023 0 3.53523 0 4.99998V25C0 26.4647 0.641 27.7697 1.64463 28.6842Z" fill="white"/>
<path opacity="0.15" d="M32.5 0H5C2.23862 0 0 2.2385 0 5V25C0 27.7615 2.23862 30 5 30H32.5C35.2615 30 37.5 27.7615 37.5 25V5C37.5 2.2385 35.2615 0 32.5 0ZM36.25 25C36.25 27.0679 34.5679 28.75 32.5 28.75H5C2.93213 28.75 1.25 27.0679 1.25 25V5C1.25 2.93213 2.93213 1.25 5 1.25H32.5C34.5679 1.25 36.25 2.93213 36.25 5V25Z" fill="black"/>
<path opacity="0.2" d="M32.5 1.25H5C2.92887 1.25 1.25 2.92887 1.25 5V6.25C1.25 4.17887 2.92887 2.5 5 2.5H32.5C34.5711 2.5 36.25 4.17887 36.25 6.25V5C36.25 2.92887 34.5711 1.25 32.5 1.25Z" fill="white"/>
<path d="M9.77264 10.61C9.75051 10.6049 9.49189 10.4527 9.55777 10.2301C9.53589 10.2321 9.29777 10.1509 9.32389 9.88836C9.30339 9.89424 9.04639 9.85861 9.02352 9.63699C9.00327 9.64574 8.74764 9.67561 8.63052 9.45774C8.61264 9.46336 8.36039 9.50586 8.29314 9.32299C8.27602 9.33461 8.02414 9.40736 7.88252 9.19499C7.86839 9.21236 7.58289 9.29411 7.49427 9.08911C7.40689 9.29349 7.12227 9.21236 7.10752 9.19499C6.96727 9.40674 6.71477 9.33299 6.69689 9.32111C6.63289 9.50311 6.37989 9.46224 6.36302 9.45549C6.24639 9.67336 5.99114 9.64349 5.97077 9.63461C5.95652 9.85661 5.69114 9.88974 5.67214 9.88536C5.70427 10.1489 5.45952 10.2281 5.44164 10.2264C5.50889 10.4489 5.25102 10.6009 5.22852 10.606C5.36239 10.7802 5.26702 10.97 5.25664 10.9772L5.24989 11.1855C5.26227 11.1855 9.72114 11.2061 9.73252 11.2061V11.1941L9.74376 11.1944L9.74939 10.9817C9.73927 10.9747 9.64139 10.7834 9.77264 10.61Z" fill="#F9DA05"/>
<path d="M10.2421 10.2048C10.1506 10.0585 10.0344 10.0097 9.76375 10.0041C9.7155 10.0031 9.62575 9.9881 9.51213 9.96897C9.11988 9.90297 8.39213 9.7806 7.96713 10.0196C7.94075 9.99897 7.8425 9.90835 7.77125 9.8416C7.80625 9.83447 7.8365 9.81472 7.86338 9.78185C8.07813 9.7921 8.28963 9.76947 8.49275 9.71472C8.55075 9.6966 8.58525 9.71385 8.60063 9.72585C8.61688 9.73847 8.62638 9.7561 8.62563 9.7721L8.623 9.82272L8.648 9.77872C8.68288 9.71735 8.68925 9.66822 8.66688 9.63272C8.63175 9.57697 8.5405 9.57897 8.51375 9.58097C8.12975 9.6026 7.91788 9.5776 7.77625 9.5531C7.56313 9.44772 7.31538 9.50672 7.25175 9.62622C7.23038 9.66647 7.20138 9.77185 7.3935 9.88072L7.49438 9.94397C7.53713 9.9876 7.552 10.0276 7.534 10.0512C7.51563 10.0755 7.46238 10.0812 7.4065 10.0498C7.08275 9.80485 6.75213 9.7416 6.36625 9.8511C6.30525 9.8511 6.244 9.8511 6.18275 9.8511C5.61688 9.84985 5.03188 9.8481 4.75188 10.1541L4.74938 10.1583C4.74713 10.1651 4.74313 10.1738 4.73863 10.1836C4.72125 10.2218 4.6975 10.2743 4.7265 10.3012C4.75425 10.3271 4.83525 10.3375 5.21463 10.1347C5.21063 10.1802 5.22025 10.2108 5.24363 10.228C5.30775 10.275 5.45775 10.1987 5.6165 10.118C5.64263 10.1047 5.66925 10.0912 5.69538 10.0782C5.67588 10.1156 5.68788 10.1411 5.69888 10.1545C5.7595 10.2281 6.01625 10.2167 6.21138 10.1125C6.19588 10.1437 6.19375 10.1697 6.2045 10.1913C6.2375 10.2575 6.38413 10.2581 6.5395 10.2588H6.55963C6.64913 10.2617 6.7045 10.2877 6.70425 10.3266C6.70388 10.4048 6.51063 10.5222 6.16338 10.5295C6.13775 10.5281 6.06688 10.5532 6.06038 10.5927C6.055 10.6262 6.09175 10.6526 6.17538 10.6738C6.19888 10.675 6.20888 10.6847 6.2215 10.6971C6.26088 10.7355 6.30238 10.7533 6.50588 10.6511C6.5065 10.6675 6.51238 10.6808 6.52338 10.6908C6.56113 10.7251 6.65713 10.7161 6.83438 10.6617C6.92788 10.7315 7.00725 10.6856 7.084 10.6412C7.10113 10.6313 7.11888 10.6211 7.13638 10.6125C7.33938 10.6916 7.55975 10.764 7.75363 10.764C7.84388 10.764 7.92838 10.7483 8.00275 10.7105C8.12125 10.6501 8.20375 10.537 8.24813 10.374C8.55063 10.3388 8.7425 10.3013 8.76575 10.2247C8.77075 10.2081 8.76763 10.1906 8.7565 10.1723C9.05325 10.289 9.13113 10.2765 9.16538 10.2516C9.18813 10.235 9.19338 10.2085 9.19325 10.1818C9.20713 10.1871 9.22125 10.1926 9.23525 10.198C9.42013 10.269 9.53475 10.3092 9.56963 10.2687C9.58313 10.253 9.58225 10.2292 9.56638 10.1948C9.61713 10.207 9.66913 10.2176 9.71963 10.2278C9.86825 10.258 10.0219 10.2892 10.1474 10.3642C10.2109 10.3971 10.2523 10.4022 10.2738 10.3797C10.3163 10.3352 10.2454 10.2105 10.2421 10.2048Z" fill="#BD715F"/>
<path d="M3.67383 10.6498C3.81483 11.4497 3.9712 12.2694 4.04808 13.1068C4.21545 14.347 3.46108 15.3883 3.77058 16.6134C3.95533 17.2013 4.60183 17.543 5.19358 17.6108C5.97858 17.7592 6.92745 17.6113 7.50045 18.1984C8.07345 17.6112 9.02233 17.7592 9.80733 17.6108C10.3991 17.543 11.0456 17.2013 11.2303 16.6134C11.5398 15.3883 10.7855 14.347 10.9528 13.1068C11.0297 12.2694 11.1862 11.4497 11.3271 10.6498C9.94533 11.3999 8.58008 10.424 7.50045 11.048C6.42083 10.4242 5.05558 11.4 3.67383 10.6498Z" fill="#DD1216"/>
<path d="M6.6153 11.2956C6.86505 11.3007 7.07955 11.3421 7.2673 11.4506L7.4998 11.5848L7.7323 11.4506C8.10768 11.2337 8.59005 11.2852 9.2483 11.3585C9.6918 11.4078 10.2111 11.4436 10.7524 11.3341C10.6543 11.8963 10.5469 12.4533 10.4916 13.049C10.3946 13.776 10.5642 14.41 10.6908 14.9685C10.8162 15.521 10.8984 15.9921 10.7803 16.4806C10.6686 16.8182 10.2044 17.0968 9.75368 17.1485L9.7368 17.1507L9.72043 17.1538C9.3893 17.2165 8.96155 17.2183 8.5113 17.2792C8.1763 17.3245 7.82505 17.4507 7.49968 17.6561C7.1743 17.4507 6.82305 17.3245 6.48805 17.2792C6.0378 17.2185 5.61055 17.2165 5.27943 17.1538L5.26255 17.1507L5.24568 17.1485C4.79518 17.0968 4.33155 16.8183 4.21943 16.481C4.10105 15.9923 4.18343 15.5211 4.30893 14.9685C4.43568 14.41 4.6053 13.776 4.50818 13.049C4.4528 12.4532 4.34543 11.8963 4.2473 11.3341C4.78843 11.4435 5.30755 11.4078 5.75093 11.3585C6.08005 11.3218 6.36555 11.2905 6.6153 11.2956Z" fill="#62B1E3"/>
<path d="M9.76228 16.2481V15.3117H9.89678V15.0374H9.56503V14.0887L8.16866 13.1317V12.5171L7.49378 11.8604L6.81903 12.5171V13.1317L5.42266 14.0887V15.0374H5.09103V15.3117H5.22541V16.2481H4.98828V16.6524H9.99941V16.2481H9.76228Z" fill="white"/>
<path d="M13.0283 15.1395L13.0269 15.1281L12.7657 15.147C12.7406 14.8945 12.6818 14.5774 12.5663 14.2325L11.7796 14.4837L12.0146 15.7417L12.2239 15.7742C12.0754 17.2199 11.0027 18.306 9.32418 18.3231L9.3378 18.4565C8.45868 18.8494 6.5418 18.8357 5.66318 18.456L5.67705 18.3201C3.99905 18.3035 2.92518 17.2161 2.7773 15.7712C2.78543 15.77 2.97918 15.74 2.98668 15.7387C2.9898 15.722 3.2188 14.4957 3.22168 14.4807C3.1358 14.4534 2.50268 14.2524 2.4348 14.2296C2.3193 14.5746 2.26055 14.8916 2.23543 15.1441L1.97418 15.1252C1.69068 16.6832 2.68955 18.9727 4.66943 19.1445L4.66705 19.4115C6.84843 20.1155 8.15643 20.1182 10.3343 19.4144L10.3299 19.1477C12.3058 18.9785 13.3077 16.6936 13.0283 15.1395Z" fill="#F9DA05"/>
</svg>
