<svg width="38" height="30" viewBox="0 0 38 30" fill="none" xmlns="http://www.w3.org/2000/svg">
<g clip-path="url(#clip0_3032_2376)">
<path d="M0 0H37.5V30H0V0Z" fill="#012169"/>
<path d="M6.86233 25.9088C6.4887 25.9038 10.3753 22.5945 13.6284 18.3555C17.8917 12.8 27.0741 3.90523 29.7736 2.45986C30.0557 2.3088 29.1949 3.22896 29.0831 3.52706C26.201 8.98507 28.5014 19.2845 32.1034 24.462C33.1865 25.7874 33.1311 25.857 35.139 25.9869V26.2869L6.86231 25.9089L6.86233 25.9088ZM6.62793 26.5108C6.62793 26.5108 6.3537 26.8242 6.35449 27.0577C6.35539 27.3167 6.66212 27.6592 6.66212 27.6592L34.5526 28.1514L35.0653 27.6045L34.3476 26.8936L6.62793 26.5108V26.5108Z" fill="#FFD100"/>
<path d="M8.08203 3.2652H7.14453V4.0152L8.08203 3.2652Z" fill="white"/>
<path d="M8.08183 3.26543L7.32338 4.14711L7.04785 3.54034L8.08183 3.26543Z" fill="white"/>
<path d="M7.72443 4.94867L7.5 3.60199L6.98892 3.91366L7.72443 4.94867Z" fill="white"/>
<path d="M7.67883 5.0283L6.965 4.23854L7.28516 3.53986L7.67883 5.0283Z" fill="white"/>
<path d="M6.538 5.02878L7.32324 4.09906L7.07451 3.54033L6.538 5.02878Z" fill="white"/>
<path d="M6.56527 5.07215L6.89166 3.60174L7.30078 3.78967L6.56527 5.07215Z" fill="white"/>
<path d="M6.20695 3.21738L6.99219 4.14709L7.24092 3.58837L6.20695 3.21738Z" fill="white"/>
<path d="M6.20801 3.26544L7.11712 3.35417L7.14551 4.01544L6.20801 3.26544Z" fill="white"/>
<path d="M7.0799 2.17542L6.85547 3.52209L7.36655 3.83376L7.0799 2.17542Z" fill="white"/>
<path d="M7.08815 2.17588L7.43478 3.67988L7.0459 3.83423L7.08815 2.17588Z" fill="white"/>
<path d="M11.6396 8.51135H10.8584V9.13635L11.6396 8.51135Z" fill="white"/>
<path d="M11.639 8.51157L11.0069 9.2463L10.7773 8.74066L11.639 8.51157Z" fill="white"/>
<path d="M11.3403 9.91435L11.1533 8.79211L10.7274 9.05184L11.3403 9.91435Z" fill="white"/>
<path d="M11.3036 9.98066L10.7088 9.32253L10.9756 8.7403L11.3036 9.98066Z" fill="white"/>
<path d="M10.3534 9.98106L11.0078 9.2063L10.8005 8.74069L10.3534 9.98106Z" fill="white"/>
<path d="M10.3754 10.0172L10.6473 8.79188L10.9883 8.94849L10.3754 10.0172Z" fill="white"/>
<path d="M10.0761 8.47151L10.7305 9.24628L10.9377 8.78067L10.0761 8.47151Z" fill="white"/>
<path d="M10.0771 8.5116L10.8347 8.58554L10.8584 9.1366L10.0771 8.5116Z" fill="white"/>
<path d="M10.8042 7.60329L10.6172 8.72552L11.0431 8.98525L10.8042 7.60329Z" fill="white"/>
<path d="M10.8106 7.60364L11.0995 8.85697L10.7754 8.9856L10.8106 7.60364Z" fill="white"/>
<path d="M3.75 10.2394H2.8125V10.9894L3.75 10.2394Z" fill="white"/>
<path d="M3.7498 10.2396L2.99134 11.1213L2.71582 10.5145L3.7498 10.2396Z" fill="white"/>
<path d="M3.39142 11.9229L3.16699 10.5762L2.65591 10.8879L3.39142 11.9229Z" fill="white"/>
<path d="M3.34582 12.0025L2.632 11.2128L2.95215 10.5141L3.34582 12.0025Z" fill="white"/>
<path d="M2.20499 12.003L2.99023 11.0732L2.7415 10.5145L2.20499 12.003Z" fill="white"/>
<path d="M2.23226 12.0463L2.55865 10.5759L2.96777 10.7639L2.23226 12.0463Z" fill="white"/>
<path d="M1.87394 10.1916L2.65918 11.1213L2.90792 10.5626L1.87394 10.1916Z" fill="white"/>
<path d="M1.875 10.2397L2.78411 10.3284L2.8125 10.9897L1.875 10.2397Z" fill="white"/>
<path d="M2.74689 9.14966L2.52246 10.4963L3.03354 10.808L2.74689 9.14966Z" fill="white"/>
<path d="M2.75515 9.15012L3.10177 10.6541L2.71289 10.8085L2.75515 9.15012Z" fill="white"/>
<path d="M8.23828 21.1839H7.14453V22.0589L8.23828 21.1839Z" fill="white"/>
<path d="M8.23756 21.1842L7.3527 22.2128L7.03125 21.5049L8.23756 21.1842Z" fill="white"/>
<path d="M7.82043 23.148L7.55859 21.5769L6.96233 21.9405L7.82043 23.148Z" fill="white"/>
<path d="M7.76788 23.2409L6.93508 22.3195L7.30859 21.5044L7.76788 23.2409Z" fill="white"/>
<path d="M6.4374 23.2414L7.35352 22.1567L7.06332 21.5049L6.4374 23.2414Z" fill="white"/>
<path d="M6.46905 23.2921L6.84984 21.5766L7.32715 21.7958L6.46905 23.2921Z" fill="white"/>
<path d="M6.05068 21.1282L6.9668 22.2128L7.25699 21.561L6.05068 21.1282Z" fill="white"/>
<path d="M6.05078 21.1843L7.11141 21.2878L7.14453 22.0593L6.05078 21.1843Z" fill="white"/>
<path d="M7.06847 19.9126L6.80664 21.4837L7.4029 21.8473L7.06847 19.9126Z" fill="white"/>
<path d="M7.0786 19.9132L7.48299 21.6678L7.0293 21.8479L7.0786 19.9132Z" fill="white"/>
</g>
<defs>
<clipPath id="clip0_3032_2376">
<rect width="37.5" height="30" rx="5" fill="white"/>
</clipPath>
</defs>
</svg>
