<svg width="38" height="30" viewBox="0 0 38 30" fill="none" xmlns="http://www.w3.org/2000/svg">
<path d="M32.5 0H5C2.23858 0 0 2.23858 0 5V25C0 27.7614 2.23858 30 5 30H32.5C35.2614 30 37.5 27.7614 37.5 25V5C37.5 2.23858 35.2614 0 32.5 0Z" fill="#0A9DE0"/>
<path d="M5 0H18.75V15H0V5C0 2.24037 2.24037 0 5 0Z" fill="#001B69"/>
<path d="M6.875 12.2171V15H11.875V12.216L15.6714 15H18.75V13.4486L14.0476 10H18.75V5H15.325L18.75 2.48837V0H16.9488L11.875 3.72113V0H6.875V3.49187L2.80425 0.505375C1.84487 0.973 1.06737 1.73463 0.57225 2.67775L3.73737 5H0V10H4.704L0 13.4499V15H3.08025L6.875 12.2171Z" fill="white"/>
<path d="M1.00696 1.98639L5.11371 5.00002H6.81821L1.69921 1.24414C1.44384 1.46852 1.21221 1.71477 1.00696 1.98639Z" fill="#CA0A2B"/>
<path d="M0 15L6.81825 10V11.25L1.70463 15H0Z" fill="#CA0A2B"/>
<path d="M10.625 15H8.125V8.75H0V6.25H8.125V0H10.625V6.25H18.75V8.75H10.625V15Z" fill="#CA0A2B"/>
<path d="M18.75 14.5834L12.5 10V11.25L17.6136 15H18.75V14.5834Z" fill="#CA0A2B"/>
<path d="M18.7504 0H18.4399L11.6143 5.0055H13.3188L18.7504 1.02238V0Z" fill="#CA0A2B"/>
<path opacity="0.15" d="M32.5 0H5C2.23862 0 0 2.2385 0 5V25C0 27.7615 2.23862 30 5 30H32.5C35.2615 30 37.5 27.7615 37.5 25V5C37.5 2.2385 35.2615 0 32.5 0ZM36.25 25C36.25 27.0679 34.5679 28.75 32.5 28.75H5C2.93212 28.75 1.25 27.0679 1.25 25V5C1.25 2.93213 2.93212 1.25 5 1.25H32.5C34.5679 1.25 36.25 2.93213 36.25 5V25Z" fill="black"/>
<path opacity="0.2" d="M32.5 1.25H5C2.92887 1.25 1.25 2.92887 1.25 5V6.25C1.25 4.17887 2.92887 2.5 5 2.5H32.5C34.5711 2.5 36.25 4.17887 36.25 6.25V5C36.25 2.92887 34.5711 1.25 32.5 1.25Z" fill="white"/>
<path d="M14.458 25.8576L13.9574 24.317L13.4569 25.8576H11.8369L13.1475 26.8099L12.6469 28.3505L13.9574 27.3984L15.268 28.3505L14.7674 26.8099L16.078 25.8576H14.458Z" fill="#FEDE02"/>
<path d="M20.5688 18.1691L19.2582 19.1214L17.9476 18.1691L18.4482 19.7099L17.1377 20.662H18.7576L19.2582 22.2026L19.7588 20.662H21.3787L20.0682 19.7099L20.5688 18.1691Z" fill="#FEDE02"/>
<path d="M20.0682 25.0111L20.5688 23.4705L19.2582 24.4226L17.9476 23.4705L18.4482 25.0111L17.1377 25.9634H18.7576L19.2582 27.504L19.7588 25.9634H21.3787L20.0682 25.0111Z" fill="#FEDE02"/>
<path d="M25.8705 10.9594L24.56 11.9115L23.2493 10.9594L23.75 12.5L22.4395 13.4521H24.0593L24.56 14.9929L25.0606 13.4521H26.6805L25.37 12.5L25.8705 10.9594Z" fill="#FEDE02"/>
<path d="M25.37 23.5268L25.8705 21.9861L24.56 22.9383L23.2493 21.9861L23.75 23.5268L22.4395 24.479H24.0593L24.56 26.0196L25.0606 24.479H26.6805L25.37 23.5268Z" fill="#FEDE02"/>
<path d="M30.3236 9.26288L29.0131 10.2151L27.7025 9.26288L28.2031 10.8036L26.8926 11.7558H28.5125L29.0131 13.2964L29.5137 11.7558H31.1336L29.8231 10.8036L30.3236 9.26288Z" fill="#FEDE02"/>
<path d="M29.5137 19.284L29.0131 17.7433L28.5125 19.284H26.8926L28.2031 20.2361L27.7025 21.7768L29.0131 20.8246L30.3236 21.7768L29.8231 20.2361L31.1336 19.284H29.5137Z" fill="#FEDE02"/>
<path d="M32.6562 7.30086L32.1556 8.84161L33.4662 7.88936L34.7767 8.84161L34.2762 7.30086L35.5867 6.34873H33.9668L33.4662 4.80811L32.9656 6.34873H31.3457L32.6562 7.30086Z" fill="#FEDE02"/>
<path d="M33.9668 16.5273L33.4662 14.9866L32.9656 16.5273H31.3457L32.6562 17.4795L32.1556 19.0201L33.4662 18.068L34.7767 19.0201L34.2762 17.4795L35.5867 16.5273H33.9668Z" fill="#FEDE02"/>
</svg>
