<svg width="38" height="30" viewBox="0 0 38 30" fill="none" xmlns="http://www.w3.org/2000/svg">
<path d="M32.5 0H5C2.23858 0 0 2.23858 0 5V25C0 27.7614 2.23858 30 5 30H32.5C35.2614 30 37.5 27.7614 37.5 25V5C37.5 2.23858 35.2614 0 32.5 0Z" fill="white"/>
<path opacity="0.15" d="M32.5 0H5C2.23862 0 0 2.2385 0 5V25C0 27.7615 2.23862 30 5 30H32.5C35.2615 30 37.5 27.7615 37.5 25V5C37.5 2.2385 35.2615 0 32.5 0ZM36.25 25C36.25 27.0679 34.5679 28.75 32.5 28.75H5C2.93213 28.75 1.25 27.0679 1.25 25V5C1.25 2.93213 2.93213 1.25 5 1.25H32.5C34.5679 1.25 36.25 2.93213 36.25 5V25Z" fill="black"/>
<path opacity="0.2" d="M32.5 1.25H5C2.92887 1.25 1.25 2.92887 1.25 5V6.25C1.25 4.17887 2.92887 2.5 5 2.5H32.5C34.5711 2.5 36.25 4.17887 36.25 6.25V5C36.25 2.92887 34.5711 1.25 32.5 1.25Z" fill="white"/>
<path d="M13.4178 17.5983L13.3968 17.4978L13.3458 17.5869C13.344 17.5899 13.1688 17.8926 12.9628 17.9918C12.9474 17.9998 12.586 18.1921 12.5688 18.5661C12.5688 18.5666 12.5683 18.5869 12.566 18.617C12.5513 18.4579 12.5708 18.2103 12.7349 18.0063C13.036 17.6321 13.15 17.3079 12.8903 16.6666L12.8259 16.5078L12.8152 16.6788C12.8149 16.6823 12.7905 17.0323 12.5639 17.2294L12.5494 17.242C12.305 17.4543 12.2783 17.494 12.2822 17.9866C12.2828 18.0213 12.2757 18.1064 12.2402 18.1561C12.188 18.0756 12.0697 17.8838 12.0328 17.7494L12.0317 17.7455C11.9839 17.5713 11.9677 17.5121 12.1617 17.3216C12.1882 17.3036 12.3482 17.1884 12.4542 16.964C12.5583 16.7438 12.6269 16.3726 12.3634 15.856L12.2968 15.7254L12.2898 15.8719C12.2897 15.8751 12.2719 16.1928 12.0507 16.3769C11.8205 16.5684 11.8167 16.7104 11.809 16.9931C11.8083 17.0205 11.8075 17.0495 11.8065 17.08C11.801 17.2443 11.7929 17.3206 11.7839 17.3605C11.6899 17.1596 11.4533 16.5734 11.715 16.2413C11.749 16.1981 11.7815 16.1585 11.812 16.1211C12.0907 15.7806 12.2179 15.6253 11.8732 14.888L11.7915 14.7134L11.7989 14.906C11.799 14.9099 11.8105 15.295 11.5348 15.482C11.2204 15.6953 11.2864 16.1741 11.2892 16.1929C11.2893 16.1941 11.299 16.2899 11.2797 16.3874C11.1872 16.166 10.9925 15.5913 11.2955 15.2578C11.6363 14.8829 11.6784 14.6114 11.4838 14.0475L11.4249 13.8769L11.4082 14.0566C11.4079 14.0589 11.3848 14.2866 11.2135 14.4081C11.0113 14.5516 10.8593 14.7026 10.8942 15.221C10.8972 15.2918 10.8997 15.453 10.8877 15.5651C10.8323 15.4531 10.746 15.2663 10.7142 15.1298C10.6664 14.9248 10.6473 14.8084 10.7708 14.6055C10.7818 14.5874 10.7957 14.5664 10.8114 14.5425C10.9814 14.2845 11.3795 13.6804 10.8002 12.8505L10.7368 12.7598L10.7293 12.8701C10.729 12.8729 10.7085 13.151 10.5584 13.3978C10.4105 13.6408 10.4553 13.921 10.4913 14.1461C10.4955 14.1726 10.4997 14.1984 10.5033 14.2234C10.5237 14.3618 10.4879 14.4993 10.4587 14.5821C10.3885 14.4236 10.2467 14.0419 10.2892 13.624C10.349 13.0359 10.1095 12.5641 9.5773 12.2221L9.53867 12.1973L9.52042 12.2395C9.50442 12.2765 9.13555 13.1515 9.66692 13.6114C9.67105 13.6155 10.0665 14.011 10.1937 14.4949C10.0902 14.4574 9.86105 14.3304 9.64467 13.9091C9.51392 13.6545 9.23667 13.3571 8.65967 13.3865C8.6498 13.387 8.64267 13.3875 8.63967 13.3874L8.5918 13.3828L8.59717 13.4305C8.5983 13.4399 8.71505 14.3728 9.6958 14.635L9.6993 14.6358C9.70517 14.6368 10.2929 14.7414 10.4005 15.1643L10.4013 15.167C10.4022 15.1696 10.4743 15.3865 10.5219 15.5523C10.4517 15.5063 10.3433 15.4181 10.2404 15.2661C10.2274 15.2469 10.2155 15.229 10.2044 15.2121C10.0489 14.9778 10.0074 14.9456 9.44567 14.8898C9.44342 14.8895 9.21492 14.8609 9.09655 14.7031L8.97605 14.5426L9.02767 14.7365C9.03042 14.7466 9.09505 14.986 9.24305 15.2284C9.44255 15.5551 9.69755 15.7259 9.98242 15.7226L9.98605 15.7224C10.008 15.7199 10.502 15.6776 10.8277 16.3029C10.8158 16.2949 10.8032 16.2864 10.7902 16.2774C10.688 16.2073 10.4512 16.0973 10.0118 16.1496C9.63205 16.1948 9.49517 16.1454 9.39517 16.1093C9.3808 16.1041 9.36717 16.0991 9.35367 16.0948L9.2603 16.0643L9.3073 16.1505C9.3113 16.1579 9.6623 16.7891 10.183 16.789C10.2615 16.789 10.3438 16.7746 10.4294 16.7418C10.5683 16.6883 10.7014 16.6895 10.8252 16.7455C11.0325 16.8395 11.1749 17.0671 11.2524 17.2245C11.232 17.2058 11.2099 17.1849 11.1867 17.1621C11.0553 17.0333 10.8068 16.9089 10.3668 17.0486C10.3638 17.0498 10.0613 17.1639 9.75942 17.072L9.67092 17.045L9.71342 17.1271C9.71667 17.1334 10.0415 17.7444 10.7774 17.6406C11.2738 17.5708 11.4987 17.8625 11.5855 18.0308C11.5673 18.0181 11.549 18.0046 11.5328 17.9916C11.4693 17.9405 11.2194 17.7861 10.6728 17.9483C10.1879 18.092 10.0065 17.9344 10.005 17.9331L9.82492 17.7628L9.94405 17.9801C9.95617 18.0023 10.2479 18.5238 10.8138 18.5858L10.8162 18.586H10.8185C10.8313 18.5858 11.1337 18.5813 11.2688 18.531C11.3597 18.4973 11.656 18.415 11.8827 18.6666C11.8642 18.662 11.8429 18.6551 11.8194 18.6446L11.8168 18.6436C11.8009 18.6379 11.4242 18.5055 11.1304 18.7514L11.1277 18.754C11.1253 18.7564 10.887 18.9938 10.5587 18.9486L10.4412 18.9325L10.5262 19.0153C10.531 19.02 10.6493 19.1335 10.8605 19.1998C10.9418 19.2253 11.0439 19.2454 11.1637 19.2454C11.3292 19.2454 11.5284 19.2069 11.7525 19.0908L11.7574 19.0878C11.7597 19.0861 11.9819 18.9288 12.1367 19.0468C12.332 19.1956 12.7344 18.9445 12.7797 18.9154L12.7999 18.9015L12.7973 18.8775C12.7972 18.876 12.784 18.7224 13.0909 18.6039C13.2577 18.5395 13.372 18.3894 13.4217 18.1698C13.4598 18.001 13.4584 17.7926 13.4178 17.5983Z" fill="#51914C"/>
<path d="M27.4586 16.028L27.9222 16.2768L25.893 18.6533L27.7035 15.1719L28.0831 15.556L28.6722 12.8891L26.8376 14.8278L27.3426 14.9604L26.7993 15.9959L26.718 13.4161L25.4217 15.7898L25.9422 15.7803L25.2256 18.8251L25.6003 19.0944L25.6348 18.9455L25.7163 18.9931L25.7577 18.9136L26.007 19.1926L28.2281 16.5681L28.5161 17.0325L29.6593 14.5744L27.4586 16.028ZM25.9377 17.6381L26.3436 15.886L26.7371 16.1144L25.9377 17.6381Z" fill="#387FBF"/>
<path d="M17.0686 9.86013C16.7952 10.202 16.8207 10.0808 16.6162 10.037C16.7228 10.1733 16.9642 10.3349 17.08 10.2998C16.8881 10.5858 16.8457 10.5758 16.7233 10.6729C17.0702 10.5615 22.5647 11.6024 20.6628 9.98025C20.8021 9.95563 21.0076 9.90813 21.0791 9.78375C20.6468 9.59663 20.3088 9.16725 20.2046 9.00225C20.4225 9.0165 20.5131 8.9835 20.6018 8.9675C19.9945 8.16438 20.239 7.9455 20.0068 7.25025C19.616 6.28338 18.4946 6.10663 17.95 6.79375C17.716 6.78863 17.6447 6.91538 17.6082 7.05238C16.9495 6.88875 16.5976 7.83438 16.7771 7.97338C17.0587 7.64 18.0332 7.55763 18.0036 8.19213C17.6696 8.67188 17.5325 9.46413 17.1436 9.33575C17.2272 9.38363 17.3708 9.46025 17.444 9.46863C17.2645 9.611 17.0782 9.84775 17.0686 9.86013Z" fill="#ECC658"/>
<path d="M33.0888 6.53486C31.6403 6.13661 30.1463 7.52036 27.7721 7.75086L27.771 7.75236C18.9544 9.68549 26.2948 11.2241 22.4245 11.1056C22.4021 11.2152 21.9354 13.5016 22.5525 13.9075L22.441 14.6904C22.516 14.8066 23.1243 15.021 23.3561 14.7281C23.4705 14.9576 24.2789 14.8324 24.2696 14.5435C24.4431 14.7149 25.0436 14.5209 25.0299 14.2446C25.3476 14.3981 25.998 13.8079 25.7056 13.4745C26.1381 13.5547 26.347 12.9277 26.1089 12.7024C26.4171 12.6695 27.6588 12.6512 27.5288 11.9874C27.809 11.9199 28.7803 11.7366 28.5836 11.1619C28.9544 11.0481 30.0036 10.9637 29.7925 10.2806C30.0718 10.1559 31.3424 10.0059 31.2065 9.19087C31.4416 9.12249 32.58 8.74111 32.3256 8.14749C32.569 8.08811 32.9514 7.66799 32.7846 7.30962C32.9758 7.23462 33.2998 6.82186 33.0888 6.53486Z" fill="#ECC658"/>
<path d="M11.8149 13.1672C11.9015 13.4411 12.1419 13.479 12.2935 13.4736C11.9994 13.8069 12.6514 14.3986 12.9688 14.2445C12.9549 14.5211 13.5558 14.7145 13.729 14.5434C13.7196 14.8325 14.5285 14.9572 14.6424 14.728C14.8736 15.0211 15.4833 14.8064 15.5575 14.6902L15.446 13.9075C16.0631 13.5014 15.5965 11.2156 15.574 11.1055C11.7124 11.2242 19.034 9.67961 10.2275 7.75224L10.2264 7.75074C8.57663 7.66711 3.53125 5.11649 5.21388 7.30949C5.04688 7.66749 5.42988 8.08836 5.67288 8.14736C5.41863 8.74111 6.55688 9.12236 6.79213 9.19074C6.655 10.005 7.92825 10.1567 8.20613 10.2805C7.99575 10.9646 9.04488 11.0475 9.415 11.1617C9.218 11.7362 10.1899 11.9199 10.4699 11.9872C10.3403 12.6512 11.5811 12.6694 11.8898 12.7022C11.824 12.7851 11.7438 12.9424 11.8149 13.1672Z" fill="#ECC658"/>
<path d="M15.7534 18.0121C15.641 17.7201 16.8633 17.3559 16.9718 16.8515C16.9291 16.4985 15.7225 15.0617 15.5556 14.8572C15.4651 15.4546 14.8989 15.8237 14.3748 16.4505C13.9475 16.8822 14.239 17.9765 13.6838 18.2007C13.7335 18.2044 13.7764 18.2094 13.8353 18.209C13.4556 18.9145 12.7823 18.4411 12.0948 18.7864C11.813 18.8887 11.4676 19.8392 11.8724 19.9637C11.8831 20.0716 12.0286 20.2242 12.1784 20.1807C12.4679 20.5542 13.4335 20.2802 13.489 19.7276C13.5665 19.3327 13.6348 19.2932 13.7008 19.2552C14.102 19.0554 14.4843 18.8327 14.9643 18.6565C14.9636 18.7271 14.9921 18.8269 15.018 18.8945C15.0916 18.433 15.5233 18.7885 15.7534 18.0121Z" fill="#ECC658"/>
<path d="M21.3346 17.6679C21.0306 16.2424 19.7354 17.2676 19.2873 18.1861C19.1276 18.0093 18.8724 18.0093 18.7128 18.1861C18.264 17.2663 16.9691 16.2436 16.6654 17.6679C15.5878 18.7415 14.8423 19.4595 15.5324 19.9229C15.5154 20.2124 15.7764 20.3866 15.9938 20.3379C15.9608 20.6173 16.1506 20.8323 16.3759 20.8123C16.3621 21.1311 16.5819 21.369 16.8364 21.331C16.864 21.6865 17.1576 21.8586 17.4173 21.745C17.356 22.4534 18.1679 22.472 18.3528 21.9524C18.3401 23.1839 19.6601 23.1835 19.6474 21.9525C19.8326 22.4726 20.644 22.4526 20.5829 21.745C20.8428 21.8585 21.1358 21.6869 21.1638 21.331C21.4184 21.3688 21.6378 21.1313 21.6241 20.8123C21.85 20.8319 22.0389 20.6174 22.0063 20.3379C22.224 20.3865 22.4845 20.2125 22.4678 19.9229C23.1576 19.4596 22.4124 18.7418 21.3346 17.6679Z" fill="#ECC658"/>
<path d="M25.9425 18.8203C25.2853 18.4041 24.5404 18.9376 24.1653 18.209C24.2237 18.2094 24.2674 18.2043 24.3168 18.2008C23.7618 17.9773 24.0529 16.8819 23.6257 16.4505C23.103 15.825 22.5332 15.4531 22.445 14.8566C22.1472 15.362 20.1372 17.0998 21.6445 17.4181C22.4492 17.8573 22.2687 18.5425 22.7502 18.605C22.9929 18.7134 22.9275 18.7574 22.9814 18.8986C23.0073 18.8299 23.037 18.728 23.0363 18.6564C23.5172 18.8334 23.8982 19.0549 24.2998 19.2551C24.3658 19.2931 24.4339 19.3326 24.5115 19.7274C24.5674 20.2806 25.532 20.5536 25.8222 20.1808C25.9718 20.2244 26.1177 20.0715 26.1282 19.9638C26.5152 19.8658 26.2067 18.9109 25.9425 18.8203Z" fill="#ECC658"/>
<path d="M19.0001 18.6149C19.0001 18.6149 22.8394 16.9136 22.849 12.9779H15.1514C15.161 16.9136 19.0001 18.6149 19.0001 18.6149Z" fill="white"/>
<path d="M15.7432 12.9778V15.4925C15.7432 15.4925 16.0373 16.0758 16.3353 16.4415V12.9778H15.7432ZM16.9274 12.9778V17.1231C16.9274 17.1231 17.2977 17.4863 17.5195 17.6613V12.9778H16.9274ZM18.1117 12.9778V18.1018C18.1117 18.1018 18.5342 18.3746 18.7038 18.4641V12.9778H18.1117Z" fill="#971E35"/>
<path d="M22.2565 12.9778V15.4925C22.2565 15.4925 21.9624 16.0758 21.6644 16.4415V12.9778H22.2565ZM21.0723 12.9778V17.1231C21.0723 17.1231 20.702 17.4863 20.4801 17.6613V12.9778H21.0723ZM19.888 12.9778V18.1018C19.888 18.1018 19.4655 18.3746 19.2959 18.4641V12.9778H19.888Z" fill="#971E35"/>
<path d="M25.308 20.9116L25.3892 20.7574L25.1772 20.3944L25.2452 20.1163L25.4318 19.8791L25.4327 19.8671C25.437 19.8041 25.4178 19.7495 25.3891 19.7035L25.386 19.6984C25.3861 19.6986 25.386 19.6983 25.386 19.6984L25.3771 19.6841C25.2633 19.5021 25.0446 19.4995 25.0333 19.4995H25.0095L24.7255 20.05L24.1717 20.0483L23.9417 20.4853L23.8 20.4504L22.1367 22.3958L23.0135 22.4619L23.1682 23.3774L23.6807 22.778L23.5573 23.2991L24.3628 22.9231L24.9076 23.6549L25.5096 21.1124L25.308 20.9116Z" fill="#387FBF"/>
<path d="M13.1004 19.606L13.079 19.6072C12.632 19.6334 12.6395 19.9952 12.6397 19.9989L12.64 20.0082L12.6445 20.0164C12.6467 20.0201 12.8564 20.3994 13.0748 20.7734C13.5105 21.5197 13.5684 21.5469 13.6042 21.5469H13.6083C13.6258 21.5464 13.6408 21.5364 13.6485 21.5202C13.6673 21.4807 13.7017 21.4782 13.7017 21.4782C14.2385 21.49 14.3234 21.3889 14.3367 21.3575L14.3452 21.3374L13.1004 19.606Z" fill="#51914C"/>
<path d="M22.8481 10.1184C22.8481 10.1184 20.9643 11.1039 18.9993 10.0376C17.0344 11.1039 15.1504 10.1184 15.1504 10.1184V12.9778H22.848L22.8481 10.1184Z" fill="#1A2663"/>
<path d="M7.05784 12.4586C7.21134 12.5285 7.34397 12.5888 7.34559 12.7458C7.34622 12.8101 7.32684 12.903 7.28659 13.0298L6.36509 15.9175L5.44272 13.0298C5.40409 12.9085 5.38422 12.8128 5.38372 12.745C5.38259 12.6026 5.49022 12.5448 5.66597 12.4621L5.84772 12.3763H3.88672L4.07759 12.4558C4.21509 12.513 4.31447 12.5544 4.36284 12.647C4.38884 12.6969 4.44472 12.8333 4.51659 13.0535L5.76922 16.8818C5.83309 17.078 5.84672 17.1549 5.84672 17.1848C5.84722 17.3475 5.75159 17.4153 5.55072 17.4973L5.36672 17.5724H7.40909L7.12747 17.4958C6.79334 17.4049 6.83309 17.2056 6.83484 17.1975L6.83547 17.1941C6.84447 17.133 6.86534 17.0293 6.91347 16.8819L8.16609 13.0535C8.23797 12.8329 8.29384 12.6966 8.31984 12.647C8.37109 12.549 8.47509 12.5074 8.60684 12.4546L8.80259 12.3763H6.87809L7.05784 12.4586Z" fill="#387FBF"/>
<path d="M33.1195 17.2975C33.098 17.2627 33.087 17.2097 33.087 17.14V12.8055C33.087 12.738 33.0976 12.686 33.1185 12.6511C33.1348 12.6236 33.2337 12.502 33.3831 12.4525L33.6127 12.3765H31.7363L31.9216 12.4516C32.0667 12.5105 32.1683 12.6201 32.189 12.6534C32.2097 12.687 32.2202 12.7381 32.2202 12.8054V17.1399C32.2202 17.2096 32.2097 17.2621 32.189 17.2956C32.1713 17.3242 32.0708 17.4295 31.9201 17.4981L31.7563 17.5726H33.5422L33.3877 17.4985C33.2432 17.4291 33.1416 17.3334 33.1195 17.2975Z" fill="#387FBF"/>
</svg>
