<svg width="38" height="30" viewBox="0 0 38 30" fill="none" xmlns="http://www.w3.org/2000/svg">
<g clip-path="url(#clip0_2993_14630)">
<path d="M32.75 30L17.75 30L17.75 0L32.75 0C35.5096 0 37.75 2.24038 37.75 5V25C37.75 27.7596 35.5096 30 32.75 30Z" fill="white"/>
<path d="M5.25 0H19V30H5.25C2.49038 30 0.25 27.7596 0.25 25V5C0.25 2.24038 2.49038 0 5.25 0Z" fill="#FFF301"/>
<path opacity="0.15" d="M32.75 0H5.25C2.48863 0 0.25 2.2385 0.25 5V25C0.25 27.7615 2.48863 30 5.25 30H32.75C35.5115 30 37.75 27.7615 37.75 25V5C37.75 2.2385 35.5115 0 32.75 0ZM36.5 25C36.5 27.0679 34.8179 28.75 32.75 28.75H5.25C3.18213 28.75 1.5 27.0679 1.5 25V5C1.5 2.93213 3.18213 1.25 5.25 1.25H32.75C34.8179 1.25 36.5 2.93213 36.5 5V25Z" fill="black"/>
<path opacity="0.2" d="M32.75 1.25H5.25C3.17887 1.25 1.5 2.92887 1.5 5V6.25C1.5 4.17887 3.17887 2.5 5.25 2.5H32.75C34.8211 2.5 36.5 4.17887 36.5 6.25V5C36.5 2.92887 34.8211 1.25 32.75 1.25Z" fill="white"/>
<path d="M34.526 12.2066C34.9116 11.8529 34.1286 11.4803 34.0974 12.0019C33.965 11.9435 33.7864 12.0151 33.6887 12.1395C33.5552 12.1053 33.4417 12.1745 33.4266 12.3096C32.5295 12.9311 31.5684 13.7929 30.699 14.4635C30.5594 14.5696 30.145 14.9106 29.9997 15.0239C29.8376 14.9778 29.7089 15.0783 29.718 15.2496L28.6476 16.1074C28.4941 15.9919 28.3514 15.9498 28.2736 16.012C28.2057 15.9795 27.9855 16.0861 28.1065 16.2008C27.9115 17.5829 25.5011 17.2361 25.2931 18.5926C25.1974 18.4373 24.8749 18.608 24.9024 18.7858C24.513 18.4958 24.3999 19.0923 24.713 19.2735C24.1535 18.7695 23.2656 18.6768 22.6129 19.0558C22.7374 18.8286 22.4126 18.7776 22.3102 18.9498C22.4537 17.9466 21.1064 19.0295 22.1155 19.105C21.9306 19.1651 21.8905 19.4931 22.15 19.4245C21.6237 20.0056 21.5269 20.8663 21.911 21.5499C21.6884 21.4225 21.6292 21.7459 21.8037 21.8513C20.8071 21.7104 21.8777 23.0524 21.9619 22.0496C22.025 22.2195 22.31 22.2773 22.2896 22.0418C23.016 22.7906 23.8746 23.0148 24.7076 22.4831C24.7216 23.2946 25.801 22.4419 25.0139 22.2408C25.6971 21.591 25.6982 20.6929 25.2016 19.8861C25.3281 20.2138 25.8425 20.0213 25.6392 19.7099C25.8311 19.8049 26.0369 19.409 25.9152 19.3728C27.2164 19.5211 27.6649 16.8825 28.8662 17.1419C29.0087 17.2043 29.1055 17.0994 29.0954 17.042C29.173 16.9798 29.1637 16.8314 29.0854 16.6563L30.1602 15.8036C30.3142 15.8528 30.4554 15.7476 30.4426 15.5796L30.9259 15.1963C31.2361 15.5408 31.4946 15.0789 31.6799 14.8351C31.6857 15.6034 31.2197 15.986 31.9231 16.5528C31.9332 16.5848 32.1109 16.4236 32.1251 16.4231C32.0609 16.7631 32.1966 17.0914 32.5859 17.0716C32.5956 17.0539 33.4329 16.4136 33.4335 16.3908C33.412 16.2183 33.54 15.9165 33.2512 15.929C33.2297 15.9234 32.7714 15.2549 32.7386 15.2819C32.5939 15.3688 32.4924 15.5274 32.549 15.6989L32.4364 15.782L32.2325 15.5443C32.5477 15.4925 32.4846 14.9988 32.3199 14.8175L32.4995 14.6606L32.5655 14.7399C32.5229 14.8883 32.5909 15.0911 32.7146 15.1816C32.7837 15.1106 32.9539 14.913 32.903 14.7999L33.0002 14.7168L33.1491 14.9274C32.6502 15.2573 33.3485 15.9943 33.7064 16.1101C33.7382 16.1054 34.5149 15.3994 34.5326 15.3761C34.5817 15.1354 34.4777 14.8035 34.2906 14.6413C34.2806 14.6073 34.1095 14.783 34.0987 14.7826C34.1925 14.4776 33.8891 14.0525 33.7035 13.8405C33.6919 13.8093 33.5421 13.9574 33.5299 13.958C33.5207 13.8676 33.5442 13.5441 33.4461 13.4893C33.6892 13.3788 34.0225 13.2206 33.8037 12.9161C33.8237 12.8941 33.8404 12.8699 33.8532 12.8439C33.9831 12.8604 34.0805 12.7578 34.0746 12.6251C34.2144 12.5568 34.3244 12.4106 34.2999 12.2564C34.3782 12.2766 34.4617 12.2578 34.526 12.2066Z" fill="#FFCD19"/>
<path d="M34.1184 22.0833C34.1024 21.8868 33.8708 21.7599 33.6968 21.8514C33.8699 21.7485 33.815 21.424 33.5895 21.55C33.9735 20.8664 33.8767 20.0058 33.3504 19.4246C33.61 19.4933 33.5695 19.165 33.3849 19.1051C34.3943 19.0291 33.0463 17.947 33.1902 18.9499C33.0877 18.7776 32.7633 18.8288 32.8874 19.0558C32.5935 18.891 32.2582 18.8091 31.9169 18.823C31.4965 18.8403 31.0993 19.0014 30.7874 19.2736C31.1038 19.091 30.9788 18.4954 30.598 18.7858C30.6253 18.6083 30.3028 18.4374 30.2073 18.5929C30.041 17.2443 27.4549 17.5543 27.4225 16.1761C27.4594 16.0339 27.2908 15.9975 27.2267 16.0121C27.1489 15.9501 27.0063 15.9921 26.8528 16.1076L25.7824 15.2498C25.7915 15.0785 25.6628 14.9779 25.5007 15.024C25.353 14.9089 24.943 14.5713 24.8014 14.4636C23.9319 13.7928 22.9712 12.9314 22.0738 12.3098C22.0587 12.1748 21.9453 12.1054 21.8118 12.1396C21.7142 12.0153 21.5355 11.9436 21.4032 12.002C21.2439 11.2548 20.4368 12.2703 21.2003 12.2564C21.1758 12.4106 21.2859 12.5568 21.4255 12.6251C21.4197 12.7578 21.5169 12.8604 21.6469 12.8439C21.6599 12.8699 21.6765 12.894 21.6964 12.9161C21.4778 13.2206 21.8109 13.3788 22.054 13.4893C21.956 13.5428 21.9792 13.8693 21.9703 13.9579C21.9562 13.9579 21.8095 13.8088 21.7965 13.8403C21.6107 14.0529 21.308 14.477 21.4015 14.7824C21.1838 14.4966 21.1133 14.8059 20.9705 14.9605C20.9604 14.9675 20.9712 15.3663 20.9678 15.3759C20.9843 15.4009 21.7629 16.1028 21.794 16.1099C22.1518 15.9938 22.8502 15.2573 22.3513 14.9271L22.5002 14.7165L22.5974 14.7996C22.5465 14.9123 22.7167 15.1114 22.786 15.1815C22.9094 15.0906 22.9777 14.8879 22.9348 14.7398L23.0009 14.6605L23.1805 14.8174C23.0158 14.9986 22.9528 15.4925 23.2679 15.5441L23.064 15.7819L22.9514 15.6988C23.0078 15.527 22.9067 15.3685 22.7618 15.2818C22.7293 15.256 22.2702 15.9228 22.2492 15.9289C21.9618 15.9166 22.0874 16.217 22.067 16.3906C22.0633 16.4096 22.909 17.0586 22.9147 17.0715C23.3025 17.0911 23.44 16.7643 23.3754 16.4241C23.3882 16.4229 23.5674 16.5841 23.577 16.5534C24.2785 15.987 23.82 15.6054 23.8229 14.8381C24.0075 15.0809 24.2658 15.5398 24.5748 15.196L25.0575 15.5789C25.0455 15.7496 25.1864 15.8514 25.3405 15.8034L26.4154 16.656C26.3369 16.8313 26.3277 16.9798 26.4055 17.0419C26.3845 17.1423 26.6257 17.2339 26.6675 17.055C27.9897 17.2119 28.2389 19.4126 29.5855 19.3725C29.4539 19.4936 29.6937 19.7789 29.8615 19.7096C29.6583 20.0215 30.1732 20.2131 30.2993 19.8858C29.8024 20.6924 29.8037 21.5909 30.4869 22.2405C29.6994 22.4421 30.7795 23.2939 30.7932 22.4829C31.6263 23.0146 32.4847 22.7904 33.2112 22.0415C33.19 22.2785 33.4778 22.2166 33.5389 22.0494C33.44 22.4889 34.1657 22.5311 34.1184 22.0833Z" fill="#BFC0C1"/>
<path d="M29.5827 15.395C29.7373 15.0526 29.0119 14.1791 28.9277 13.4561C28.7222 13.4804 28.3807 13.5826 28.0943 13.5781C27.7132 13.7619 28.7592 15.9814 29.0419 15.7991C29.0619 15.861 29.562 15.3875 29.5827 15.395Z" fill="#FFCD19"/>
<path d="M25.9161 16.2143C25.9118 16.2106 25.9061 16.2104 25.9009 16.2125C25.6417 15.9811 25.2951 15.6861 24.9281 15.7798C24.7804 14.5139 25.5469 12.331 25.1247 11.0038C24.5583 9.87175 23.5429 9.84588 22.7732 10.9828L22.7518 10.9618C22.6574 10.8794 22.4899 11.1159 22.6564 11.1758C22.5553 11.1791 21.8589 11.4196 22.1921 11.497C22.1374 11.641 22.2006 11.6495 22.3288 11.6336C22.1916 11.7719 22.2767 11.7699 22.4207 11.7673C22.3978 11.8209 22.3253 11.9334 22.4471 11.8684C22.4659 11.9638 22.3994 12.0525 22.5446 12.0531C22.5183 12.1585 22.5518 12.1893 22.6569 12.1733C22.6516 12.2416 22.6344 12.3193 22.7338 12.2989C22.7111 12.3809 22.7003 12.4398 22.8088 12.4124C22.8168 12.8396 23.3719 12.0456 23.4524 11.9605C23.5499 12.166 23.8363 11.9864 23.6446 11.842C23.7783 11.7266 23.9193 11.6028 24.1211 11.4348C24.0831 13.1335 22.7472 16.7079 25.4671 16.4375C25.6022 16.4381 26.1532 16.3751 25.9161 16.2143Z" fill="#FFCD19"/>
<path d="M27.5479 13.5862C27.1993 13.5711 26.9127 13.5414 26.5962 13.4481C26.2743 14.3737 26.0458 15.022 25.8057 15.2874C25.8548 15.3625 26.3665 15.7835 26.4582 15.8C26.9773 15.7281 27.3603 14.2986 27.5479 13.5862Z" fill="#FFCD19"/>
<path d="M33.4014 11.465C33.3879 11.2796 32.9711 11.2214 32.8448 11.1755C33.0115 11.1156 32.8435 10.879 32.7495 10.9615L32.7043 11.0061C32.372 10.6395 31.9246 10.0757 31.4593 10.0669C29.1585 10.8592 30.8468 14.1481 30.5729 15.7794C30.1771 15.691 29.8796 15.9711 29.5989 16.2116C29.3198 16.3556 29.8948 16.4452 30.0335 16.4372C32.7434 16.7075 31.4243 13.1634 31.3833 11.4655C31.5529 11.6185 31.695 11.7549 31.8241 11.8739C31.6969 12.0319 31.9748 12.1352 32.0489 11.9602C32.1303 12.0464 32.6839 12.8387 32.6924 12.4121C32.8011 12.4397 32.79 12.3802 32.7674 12.2986C32.8668 12.3192 32.8495 12.2411 32.8441 12.173C32.9496 12.1891 32.9826 12.158 32.9565 12.0529C33.1019 12.0521 33.035 11.9636 33.054 11.8681C33.1759 11.9332 33.1031 11.8202 33.0804 11.767C33.225 11.7697 33.3091 11.7714 33.1724 11.6334C33.3011 11.6494 33.3634 11.6405 33.3091 11.4967C33.3219 11.4896 33.4195 11.4991 33.4014 11.465Z" fill="#FFCD19"/>
<path d="M29.9781 10.5626C29.9412 10.5277 29.8244 10.6166 29.7747 10.6181C29.7483 10.4424 29.6949 10.4056 29.6098 10.6137C29.5224 9.96124 29.2733 10.1185 29.2978 9.56599C29.4216 9.55049 29.4667 9.37524 29.3657 9.30211C29.4373 9.02699 29.5674 8.57074 29.3219 8.96586C29.1377 8.90836 29.0142 8.85511 28.9376 9.04661C28.6886 8.63086 28.3508 8.36211 27.9847 8.28136C27.9834 8.20461 27.9677 8.08124 27.8902 8.01024C27.8922 8.00861 27.8662 7.70161 27.8667 7.69949C28.1431 7.75749 28.1736 7.71024 28.1471 7.43786C28.1591 7.40736 27.8729 7.45836 27.8668 7.45174C27.9133 7.19536 27.8964 7.13799 27.6227 7.17049C27.5926 7.15824 27.6413 7.44574 27.6348 7.45174C27.3584 7.39374 27.3283 7.44124 27.3546 7.71336C27.3433 7.74411 27.6283 7.69274 27.6349 7.69949C27.6354 7.70111 27.6096 8.00899 27.6114 8.01011C27.5336 8.08124 27.5179 8.20486 27.5167 8.28124C27.1504 8.36199 26.8127 8.63061 26.5636 9.04636C26.4876 8.74149 26.1951 9.10549 26.1034 8.86199C25.9651 8.61161 26.0809 9.14661 26.1361 9.30374C26.0396 9.37736 26.0837 9.54674 26.2033 9.56474C26.2286 10.1186 25.9789 9.95961 25.8917 10.6145C25.8068 10.4065 25.7529 10.4416 25.7266 10.6182C25.2763 10.4087 25.7268 10.8959 25.6238 11.0536C25.5494 11.1986 25.8912 11.0874 25.9361 11.1511C25.9331 11.2966 25.4799 11.8905 25.9263 11.8122C25.9296 11.8629 25.8674 11.9167 25.8382 11.9416C25.6433 11.8646 25.8038 12.0874 25.9019 12.2295C25.7284 12.3274 25.8954 12.596 26.0606 12.4827C26.1047 12.7761 25.7927 13.28 26.3533 13.0771C26.3247 13.0971 26.3023 13.1179 26.2862 13.1391C26.1511 13.1916 26.1591 13.3359 26.3003 13.328C26.6074 13.7062 28.8939 13.7062 29.2011 13.328C29.3398 13.3362 29.3512 13.195 29.2193 13.1409C29.2044 13.1195 29.1832 13.0986 29.1557 13.0785C29.7113 13.2771 29.3934 12.7699 29.4411 12.4827C29.6077 12.6039 29.7803 12.3257 29.5992 12.23C29.6973 12.0879 29.8584 11.8646 29.6632 11.9417C29.6339 11.9169 29.5716 11.8629 29.5749 11.8121C30.0214 11.8906 29.5693 11.2986 29.5651 11.1512C29.6158 11.1006 29.8404 11.1614 29.8871 11.1071C29.7867 10.9222 29.9979 10.7746 29.9781 10.5626Z" fill="#FFCD19"/>
</g>
<defs>
<clipPath id="clip0_2993_14630">
<rect width="38" height="30" fill="white"/>
</clipPath>
</defs>
</svg>
