<svg width="38" height="30" viewBox="0 0 38 30" fill="none" xmlns="http://www.w3.org/2000/svg">
<path d="M32.5 0H5C2.23858 0 0 2.23858 0 5V25C0 27.7614 2.23858 30 5 30H32.5C35.2614 30 37.5 27.7614 37.5 25V5C37.5 2.23858 35.2614 0 32.5 0Z" fill="#2B48A1"/>
<path opacity="0.15" d="M32.5 0H5C2.23875 0 0 2.23875 0 5V25C0 27.7613 2.23875 30 5 30H32.5C35.2613 30 37.5 27.7613 37.5 25V5C37.5 2.23875 35.2613 0 32.5 0ZM36.25 25C36.25 27.0675 34.5675 28.75 32.5 28.75H5C2.9325 28.75 1.25 27.0675 1.25 25V5C1.25 2.9325 2.9325 1.25 5 1.25H32.5C34.5675 1.25 36.25 2.9325 36.25 5V25Z" fill="black"/>
<path d="M18.9453 10.2487C18.8741 11.9537 20.6491 10.7362 21.2353 12.1099C21.8441 12.6624 22.0403 14.0124 23.3966 13.9337C23.1941 14.9124 22.9841 15.1562 24.1016 15.3787C24.6566 15.0524 24.6903 15.6637 25.0566 15.8574C25.3678 15.7787 25.9716 15.4849 26.1378 16.0962C25.6741 17.2387 25.2203 18.5387 24.5041 19.1524C23.0803 19.1187 26.1603 20.5887 23.9766 20.2949C23.6766 19.5674 23.1303 20.6449 22.6691 20.7474C22.5491 22.0274 21.8078 22.3149 21.2366 20.9612C16.3628 21.6112 19.5853 24.0099 16.9866 24.2312C16.2191 17.6662 14.8603 21.2974 13.8678 18.4724C13.7128 17.8274 13.1416 17.5474 12.6991 17.0899C13.0178 16.2449 12.7978 16.0087 11.9703 15.6699C11.8916 14.8962 12.8603 14.5824 13.4791 15.0787C14.0228 14.9087 14.2366 14.2962 15.0141 14.2612C16.2941 14.3074 15.9403 13.9362 16.1191 13.0412C16.7591 12.5237 17.1966 12.7449 17.3516 11.8724C17.9703 11.6574 16.2716 10.9849 17.2141 10.6024C17.7891 10.5037 18.5428 9.60994 18.9491 10.2512" fill="#C8A75E"/>
<path d="M20.8914 6.83877L20.5439 5.77002L20.2002 6.83877H19.0752L19.9852 7.50002L19.6377 8.56877L20.5427 7.90752L21.4527 8.56877L21.1052 7.50002L22.0152 6.83877H20.8914Z" fill="white"/>
<path d="M24.4276 7.46121L24.0801 6.39746L23.7363 7.46121H22.6113L23.5213 8.12246L23.1738 9.19121L24.0788 8.52996L24.9888 9.19121L24.6413 8.12246L25.5513 7.46121H24.4276Z" fill="white"/>
<path d="M27.8016 8.68875L27.4579 7.625L27.1104 8.68875H25.9854L26.8954 9.35L26.5479 10.4187L27.4579 9.7575L28.3629 10.4187L28.0154 9.35L28.9254 8.68875H27.8016Z" fill="white"/>
<path d="M17.2996 6.83877L16.9559 5.77002L16.6084 6.83877H15.4834L16.3934 7.50002L16.0459 8.56877L16.9559 7.90752L17.8609 8.56877L17.5134 7.50002L18.4234 6.83877H17.2984H17.2996Z" fill="white"/>
<path d="M13.7635 7.46121L13.4198 6.39746L13.0723 7.46121H11.9473L12.8573 8.12246L12.5098 9.19121L13.4198 8.52996L14.3248 9.19121L13.9773 8.12246L14.8873 7.46121H13.7635Z" fill="white"/>
<path d="M10.3905 8.68875L10.043 7.625L9.69922 8.68875H8.57422L9.48422 9.35L9.13672 10.4187L10.0417 9.7575L10.9517 10.4187L10.6042 9.35L11.5142 8.68875H10.3892H10.3905Z" fill="white"/>
<path opacity="0.2" d="M32.5 1.25H5C2.92875 1.25 1.25 2.92875 1.25 5V6.25C1.25 4.17875 2.92875 2.5 5 2.5H32.5C34.5712 2.5 36.25 4.17875 36.25 6.25V5C36.25 2.92875 34.5712 1.25 32.5 1.25Z" fill="white"/>
</svg>
