<svg width="38" height="30" viewBox="0 0 38 30" fill="none" xmlns="http://www.w3.org/2000/svg">
<g clip-path="url(#clip0_3041_3750)">
<path d="M37.5 0H0V30H37.5V0Z" fill="white"/>
<path d="M9.2002 6.3026V3.03629H10.0878L10.6683 5.52206L11.2408 3.03629H12.1323V6.3026H11.5697V3.66826L10.9773 6.3026H10.3632L9.76285 3.66826V6.3026H9.2002ZM13.8282 3.69044L13.4241 5.08078H14.2344L13.8282 3.69044ZM13.4795 3.03629H14.173L15.225 6.3026H14.595L14.3968 5.63071H13.2656L13.0734 6.3026H12.4414L13.4795 3.03629ZM16.8297 6.3026H16.2294V5.08522L15.1695 3.03628H15.9045L16.5286 4.44437L17.1051 3.03628H17.7906L16.8297 5.08522V6.3026ZM18.5375 4.67277C18.5375 5.032 18.6088 5.3114 18.7515 5.51097C18.8941 5.70906 19.0936 5.80811 19.3498 5.80811C19.6087 5.80811 19.8101 5.70906 19.9541 5.51097C20.098 5.3114 20.17 5.032 20.17 4.67277C20.17 4.31354 20.098 4.03489 19.9541 3.83679C19.8101 3.63722 19.6087 3.53744 19.3498 3.53743C19.0936 3.53744 18.8941 3.63648 18.7515 3.83457C18.6088 4.03267 18.5375 4.31206 18.5375 4.67277ZM17.9253 4.67277C17.9253 4.14502 18.0534 3.72666 18.3097 3.41769C18.5672 3.10725 18.9139 2.95203 19.3498 2.95203C19.7857 2.95203 20.1324 3.10725 20.3899 3.41769C20.6488 3.72814 20.7782 4.1465 20.7782 4.67277C20.7782 5.19905 20.6488 5.61741 20.3899 5.92785C20.1324 6.2383 19.7857 6.39352 19.3498 6.39352C18.9139 6.39352 18.5672 6.2383 18.3097 5.92785C18.0534 5.61741 17.9253 5.19905 17.9253 4.67277ZM21.858 6.30261V3.61948H20.9922V3.03629H23.3181V3.61948H22.4583V6.30261H21.858ZM24.2671 6.30261V3.61948H23.4013V3.03629H25.7272V3.61948H24.8674V6.30261H24.2671ZM26.0719 6.30261V3.03629H28.1898V3.60396H26.6643V4.30024H28.0591V4.85904H26.6643V5.69946H28.2611V6.30261L26.0719 6.30261Z" fill="#D42E12"/>
<path d="M11.0281 8.68885C10.7744 8.73173 10.5832 8.81536 10.3277 8.99977C10.2455 9.05981 10.1686 9.1027 10.1543 9.09627C10.14 9.08983 10.124 9.03837 10.1168 8.97619C10.1097 8.91829 10.0936 8.85182 10.0811 8.83252C10.0453 8.77248 10.0114 8.8218 9.94527 9.02336C9.91489 9.11985 9.88094 9.21206 9.87201 9.22492C9.83984 9.2721 9.79695 9.25494 9.74513 9.17775C9.69331 9.09841 9.61469 9.07482 9.59682 9.13272C9.59146 9.14987 9.59503 9.21849 9.60575 9.28711C9.63792 9.48867 9.5861 9.51869 9.43957 9.3836C9.3127 9.26567 9.26445 9.24208 9.21621 9.2721C9.16617 9.30426 9.16796 9.34929 9.23229 9.52727C9.28768 9.68166 9.29126 9.79316 9.23765 9.7031C9.22335 9.67952 9.15724 9.62591 9.08933 9.58731C9.02143 9.54657 8.916 9.4801 8.85346 9.43721C8.79092 9.39647 8.70515 9.34715 8.66226 9.32785C8.58364 9.29569 8.15835 9.22064 8.12261 9.23565C8.11189 9.23993 8.17086 9.29783 8.25127 9.36645C8.42817 9.51226 8.76769 9.88537 8.76769 9.93254C8.76769 9.96042 8.74803 9.96471 8.62473 9.95184C8.46213 9.93469 8.4657 9.92826 8.50144 10.132C8.51395 10.2027 8.51573 10.2499 8.50501 10.2628C8.49429 10.2756 8.4389 10.2713 8.35491 10.2499C8.28165 10.2327 8.21732 10.2177 8.21017 10.2177C8.18337 10.2177 8.19587 10.3871 8.2334 10.5308C8.26914 10.6659 8.26914 10.6788 8.24055 10.7023C8.20481 10.7345 8.16371 10.7195 7.8921 10.5694C7.73127 10.4793 7.69018 10.4643 7.60262 10.4686C7.54722 10.4708 7.48111 10.4858 7.4543 10.5029L7.40427 10.5329L7.52042 10.6831C7.65801 10.8632 7.79739 11.1033 7.81883 11.1998C7.85815 11.3607 7.72591 11.3885 7.28097 11.3199C7.03795 11.2813 6.87355 11.2877 6.79314 11.3392C6.7306 11.3778 6.51617 11.618 6.51617 11.6501C6.51617 11.6609 6.61981 11.6759 6.74668 11.6823C7.01293 11.6952 7.20592 11.7509 7.36496 11.856C7.51506 11.9546 7.51148 11.9761 7.34887 11.9761C7.21307 11.9761 7.13444 12.0018 7.06297 12.0704C7.02902 12.1026 7.02902 12.1047 7.06297 12.1498C7.11479 12.2184 7.21486 12.272 7.33815 12.2956C7.40069 12.3084 7.4543 12.3213 7.45788 12.3277C7.46145 12.332 7.40606 12.347 7.33458 12.3599C7.14874 12.3964 6.88785 12.4886 6.76098 12.5658C6.64661 12.6344 6.64125 12.6429 6.61802 12.8424L6.6073 12.9238L6.66448 12.9088C6.75383 12.8853 7.21486 12.8724 7.28991 12.8917C7.40427 12.9217 7.3721 12.9517 7.1952 12.9775C6.97362 13.0096 6.84854 13.0396 6.78957 13.0761L6.74311 13.1061L6.8396 13.1619C6.89321 13.194 7.01651 13.2391 7.11479 13.2626C7.53293 13.3656 7.58475 13.4235 7.23451 13.402C6.94682 13.3849 6.83245 13.3977 6.84139 13.4513C6.85032 13.5114 7.02723 13.6143 7.21128 13.6701C7.32386 13.7044 7.28097 13.7301 7.09692 13.7387C6.93073 13.7451 6.80565 13.7966 6.75383 13.8802C6.71273 13.9424 6.73775 14.2254 6.78599 14.2619C6.79672 14.2683 6.81816 14.2598 6.83424 14.2426C6.85032 14.2233 6.92359 14.1761 6.99685 14.1332C7.13444 14.0539 7.13623 14.0539 7.33279 14.0904C7.41678 14.1054 7.49004 14.189 7.55258 14.3434C7.58296 14.4163 7.6455 14.5321 7.69196 14.6007C7.73842 14.6693 7.79203 14.7487 7.8099 14.7765C7.84385 14.8258 7.84385 14.828 7.80633 14.9181C7.78667 14.9695 7.76523 15.0274 7.75987 15.0467C7.7277 15.1797 7.1809 15.1346 6.75026 14.9631C6.57871 14.8945 6.32497 14.7444 6.21061 14.6436L6.12305 14.5664V14.65C6.12305 14.8559 6.25707 15.2054 6.39108 15.3491L6.47686 15.4413L6.3893 15.6428C6.2803 15.8937 6.27315 15.9902 6.35713 16.091C6.38751 16.1296 6.40895 16.1725 6.40181 16.1896C6.39645 16.2068 6.34999 16.2497 6.29817 16.284C6.13734 16.3933 6.14449 16.3826 6.21061 16.4234C6.24277 16.4448 6.33033 16.4662 6.40181 16.4727C6.48043 16.4812 6.54297 16.4963 6.55369 16.5134C6.59837 16.5777 6.50545 16.7193 6.34462 16.8351C6.31782 16.8544 6.33748 16.8629 6.45363 16.8844C6.53225 16.8972 6.64661 16.9101 6.70737 16.9123L6.81816 16.9165L6.78063 16.998C6.73596 17.0945 6.65198 17.1996 6.58229 17.2511L6.53225 17.2897L6.58765 17.2982C6.61802 17.3047 6.68057 17.3004 6.72703 17.2918C6.86104 17.2661 7.02365 17.2704 7.05939 17.3004C7.11479 17.3497 7.06833 17.4612 6.92895 17.622L6.80744 17.7635L6.88606 17.7786C7.03438 17.8043 7.222 17.7764 7.32207 17.7142C7.37389 17.6842 7.41856 17.6606 7.42214 17.6649C7.44715 17.6971 7.35066 18.008 7.28812 18.0938C7.27382 18.1131 7.26668 18.1367 7.27382 18.1474C7.28097 18.156 7.37746 18.1624 7.48647 18.1624C7.64193 18.1624 7.7009 18.1538 7.74736 18.1238C7.78131 18.1045 7.81169 18.0873 7.81526 18.0873C7.81705 18.0873 7.82062 18.1324 7.82062 18.1881C7.82062 18.261 7.80811 18.3061 7.77416 18.3597L7.72949 18.4304H7.77952C7.89567 18.4283 8.17086 18.3211 8.26914 18.2353C8.33347 18.1817 8.33883 18.1838 8.33883 18.2632C8.33704 18.3532 8.29773 18.484 8.25663 18.5398C8.2191 18.5912 8.22804 18.5912 8.40316 18.5376C8.56041 18.4905 8.69979 18.424 8.77126 18.3639C8.83738 18.3061 8.84453 18.3125 8.83023 18.4025C8.81415 18.5098 8.7802 18.5719 8.71229 18.6148C8.68192 18.632 8.66047 18.6534 8.66583 18.6577C8.68013 18.677 9.05717 18.6063 9.14294 18.5698C9.18583 18.5526 9.23586 18.5205 9.25373 18.5012C9.28411 18.469 9.2859 18.469 9.2859 18.5205C9.2859 18.5505 9.26624 18.6191 9.24122 18.6749C9.21621 18.7306 9.19655 18.7799 9.19655 18.7864C9.19655 18.8035 9.29483 18.7671 9.40919 18.707C9.47173 18.6727 9.545 18.6449 9.5718 18.6449C9.63256 18.6449 9.70403 18.7113 9.75943 18.8164C9.78981 18.8743 9.83627 18.9172 9.92561 18.9708L10.0507 19.0458L10.0578 18.9579C10.0668 18.8786 10.3616 17.948 10.3902 17.9115C10.4027 17.8965 10.7619 18.1924 11.1086 18.5012C11.3176 18.6877 11.7983 19.2603 11.9395 19.4919C12.3272 20.1266 12.4541 20.564 12.4559 21.2716C12.4559 21.6619 12.4344 21.8699 12.3594 22.2451C12.195 23.0471 11.8126 23.8105 11.3784 24.1965C11.0925 24.4516 10.7547 24.5374 10.1257 24.5138C9.36452 24.4859 8.8892 24.2951 8.53718 23.8812C8.27629 23.5725 8.10474 23.1693 8.03326 22.6976C8.02254 22.6204 8.01361 22.4317 8.01361 22.2794C8.01361 21.7562 8.11189 21.3939 8.32632 21.1172C8.51216 20.8792 8.71051 20.7484 8.96425 20.7012C9.20548 20.6562 9.48067 20.7527 9.65043 20.9393C9.76836 21.0701 9.77372 21.1322 9.6808 21.3553C9.59861 21.5547 9.59146 21.6061 9.64328 21.6683C9.69153 21.7262 9.79159 21.7241 9.90596 21.6576C10.0721 21.5654 10.1543 21.3402 10.14 21.0272C10.1257 20.7463 10.0167 20.564 9.77015 20.4139C9.5307 20.2702 9.40919 20.2424 9.03573 20.2445C8.72659 20.2445 8.69442 20.2488 8.54432 20.3045C8.24412 20.4139 8.06186 20.5597 7.92069 20.7956C7.59904 21.3402 7.42214 22.2752 7.52578 22.8799C7.60619 23.3409 7.82062 23.8405 8.11904 24.2522C8.62295 24.9513 9.29126 25.2708 10.2508 25.2708C10.962 25.2708 11.4659 25.1078 11.9663 24.7175C12.5238 24.2844 12.8848 23.7226 13.1903 22.8155C13.2725 22.5668 13.3047 22.4124 13.319 22.198C13.3243 22.0929 13.3386 22.0071 13.3547 21.9857C13.4262 21.887 13.4512 21.6061 13.4065 21.4239L13.3797 21.3209L13.4351 21.263C13.5334 21.158 13.5227 20.9307 13.4119 20.7784L13.3601 20.7077L13.419 20.6369C13.4959 20.5426 13.5298 20.3646 13.5155 20.1287C13.5066 19.9657 13.4458 19.7384 13.4119 19.7384C13.3762 19.7384 13.3994 19.6806 13.4512 19.6441C13.5316 19.5862 13.5745 19.4897 13.5745 19.361C13.5745 19.1016 13.4852 18.7027 13.419 18.6727C13.3922 18.6599 13.3869 18.602 13.4119 18.602C13.453 18.602 13.5084 18.4004 13.5173 18.2181C13.528 17.9887 13.4905 17.8129 13.4119 17.7185L13.3601 17.6542L13.4155 17.5169C13.4637 17.399 13.4709 17.3647 13.4619 17.2661C13.4423 17.0388 13.2332 16.6185 13.076 16.4941C13.0188 16.4491 13.0027 16.4234 13.0027 16.374C13.0027 16.2304 12.9044 16.0181 12.74 15.8058C12.5685 15.5871 12.5131 15.4884 12.4773 15.334C12.4523 15.2354 12.4255 15.1839 12.3505 15.0939C12.2629 14.9888 12.0771 14.8559 11.9663 14.8216C11.943 14.8151 11.9305 14.7937 11.9305 14.7594C11.9287 14.6221 11.7876 14.3927 11.6625 14.3241C11.6 14.2898 11.591 14.2769 11.591 14.2147C11.591 14.1268 11.5303 14.0389 11.3873 13.921C11.2515 13.8116 11.0371 13.7451 10.7065 13.7108C10.0114 13.6422 9.70225 13.5028 9.37524 13.1125C9.17689 12.8767 9.10006 12.718 9.02858 12.4049C8.96961 12.1455 8.96604 11.9032 9.01964 11.7145C9.05717 11.5815 9.17689 11.3113 9.19834 11.3113C9.20548 11.3113 9.19476 11.3821 9.17511 11.4657C9.12865 11.6694 9.12329 12.0039 9.16617 12.1669C9.22514 12.3942 9.34129 12.5636 9.5039 12.6644C9.61469 12.733 9.6683 12.748 9.85771 12.7695C10.0543 12.7909 10.1865 12.8381 10.2508 12.9088C10.3473 13.0161 10.5635 13.0289 10.7708 12.9431C10.8244 12.9196 10.9245 12.8938 10.9942 12.8874L11.1228 12.8724L11.289 13.0118C11.4606 13.1533 12.2021 13.6551 12.3326 13.7172C12.5703 13.8309 12.8383 13.7516 12.9509 13.535C13.042 13.3613 12.9598 13.1983 12.572 12.778C12.2575 12.4392 12.1825 12.3234 12.1414 12.1262C12.1235 12.0425 12.0663 11.8603 12.0109 11.723C11.8805 11.3864 11.8787 11.3285 12.002 11.1741C12.0503 11.1119 12.1039 11.0261 12.1182 10.9811C12.1468 10.9018 12.1593 10.7216 12.1396 10.6959C12.1289 10.6852 12.0092 10.7152 11.9466 10.7431C11.927 10.7517 11.9234 10.7195 11.9287 10.5715C11.9323 10.4558 11.9252 10.3635 11.9127 10.3228L11.8894 10.2585L11.8251 10.3335C11.759 10.4107 11.7107 10.43 11.6893 10.3893C11.6839 10.3786 11.6714 10.3164 11.6625 10.252C11.6446 10.117 11.5732 9.90681 11.5553 9.93254C11.5481 9.94112 11.5321 9.98615 11.5195 10.029C11.5088 10.0741 11.4927 10.1105 11.4838 10.1105C11.4767 10.1105 11.4642 10.0591 11.457 9.99687C11.4373 9.81246 11.4159 9.73527 11.3677 9.68166C11.3283 9.63663 11.3176 9.63449 11.3051 9.66022C11.2962 9.67737 11.2872 9.71597 11.2872 9.74599C11.2872 9.84034 11.2372 10.0312 11.1711 10.192C11.0424 10.5008 10.9209 10.4708 10.6708 10.0741C10.5278 9.84677 10.5064 9.77601 10.5457 9.67308C10.6404 9.43292 11.0371 9.10913 11.4105 8.96975C11.4802 8.94402 11.5374 8.91614 11.5374 8.90757C11.5374 8.86683 11.4481 8.77033 11.3694 8.7253C11.2801 8.67598 11.1765 8.66526 11.0281 8.68885Z" fill="#DFDFDF"/>
<path d="M7.33662 12.9504C7.45009 12.8748 6.89957 12.8867 6.78318 12.8881C6.70437 12.9167 6.63199 12.9579 6.60778 12.9444C6.58356 12.9309 6.60304 12.8253 6.62759 12.6458C6.71424 12.5605 6.80395 12.5147 6.89947 12.4813C6.99052 12.4426 7.07087 12.4172 7.17477 12.3774C7.27438 12.3631 7.30663 12.3686 7.44839 12.3315C7.28211 12.2997 7.16406 12.3241 6.99874 12.1152C7.06556 12.0669 7.09188 12.0059 7.17224 11.9828C7.25259 11.9621 7.28081 11.9654 7.34681 11.9654C7.47331 11.9654 7.5103 11.9931 7.42565 11.9199C7.341 11.8467 7.17934 11.7635 6.99784 11.7239C6.83834 11.6909 6.59634 11.6899 6.4797 11.6843C6.53324 11.5573 6.63284 11.4831 6.69334 11.4039C6.79234 11.2587 7.01984 11.262 7.36084 11.328C7.89984 11.4072 7.93284 11.3279 7.59184 10.8131L7.3751 10.5269L7.5126 10.4614L7.66272 10.4565C7.80572 10.4961 7.98784 10.6284 8.09784 10.6812C8.27384 10.7736 8.26427 10.6865 8.20927 10.5149C8.16527 10.3697 8.19719 10.3705 8.18012 10.2098C8.26812 10.2098 8.50016 10.3155 8.50016 10.2495C8.50016 10.1703 8.46973 10.1172 8.45266 9.93509C8.52966 9.93509 8.7023 9.95991 8.74027 9.95007C8.77824 9.94024 8.68743 9.83523 8.59491 9.73572L8.35681 9.47965L8.02049 9.20751L8.51952 9.28251C8.67352 9.28251 8.91716 9.48325 9.04641 9.5641C9.11104 9.60453 9.17235 9.61705 9.2112 9.66593C9.30007 9.70552 9.19328 9.8112 9.25767 9.71388C9.29051 9.64307 9.13841 9.43373 9.15908 9.32434C9.26813 9.0748 9.51254 9.53167 9.56572 9.45786C9.66747 9.44466 9.51591 9.16034 9.5966 9.1027C9.71177 9.02044 9.77734 9.303 9.83933 9.25304C9.90132 9.20307 9.94147 8.8409 10.0395 8.7954C10.1374 8.7499 10.0975 9.16502 10.1635 9.10892C10.3065 8.99012 10.616 8.75701 10.8706 8.71473C10.9979 8.69358 11.1462 8.64966 11.2717 8.67681C11.3973 8.70396 11.5158 8.80754 11.5499 8.93407C11.3808 8.99325 11.3541 8.99871 11.1781 9.09111C11.0021 9.17031 10.7711 9.36831 10.6611 9.50031C10.4741 9.75111 10.4741 9.77751 10.6831 10.0943C10.9471 10.5299 11.0791 10.5035 11.2221 10.0019C11.2826 9.80391 11.2638 9.67813 11.2925 9.61073C11.3091 9.62525 11.3693 9.65518 11.4055 9.72314C11.4372 9.78259 11.4655 10.0454 11.4652 10.114C11.4916 10.0946 11.5164 10.0083 11.5411 9.86991C11.6073 10.0229 11.6262 10.0732 11.6482 10.1458C11.6702 10.2184 11.6511 10.4111 11.7171 10.4111C11.7556 10.4111 11.8024 10.3219 11.8843 10.235C11.9551 10.3945 11.945 10.5938 11.9168 10.7449C11.9722 10.7232 12.0858 10.6767 12.141 10.6705C12.1582 10.75 12.1571 10.8457 12.1437 10.9181C12.1036 11.0216 12.0911 11.1107 12.0031 11.1899C11.8711 11.3219 11.8711 11.4011 12.0031 11.7047C12.0911 11.9027 12.1571 12.1271 12.1571 12.2195C12.1571 12.2987 12.3551 12.5627 12.6081 12.8135C12.9161 13.1303 13.0261 13.3283 12.9821 13.4735C12.8721 13.7903 12.5311 13.8827 12.2231 13.6847C12.0801 13.5923 11.7611 13.3811 11.5081 13.2095C11.3376 13.0973 11.2254 12.975 11.1214 12.8965C10.9543 12.8938 10.8269 12.9123 10.6831 12.9983C10.4631 13.0379 10.2871 13.0115 10.2431 12.9323C10.1991 12.8531 10.0231 12.7871 9.85812 12.7871C9.41812 12.7871 9.13005 12.4379 9.11284 11.9266C9.10622 11.7044 9.13121 11.564 9.19267 11.3139C8.94984 11.7741 8.93555 11.9863 9.02277 12.3923C9.12784 12.9591 9.61612 13.6847 10.6941 13.6979C10.8976 13.7045 11.0681 13.7738 11.2606 13.82C11.3836 13.9075 11.646 14.0748 11.5927 14.2847C11.7923 14.3486 11.9293 14.5969 11.9322 14.8006C12.4223 14.9766 12.4871 15.3215 12.4871 15.3875C12.4871 15.4535 12.6081 15.6515 12.7621 15.8231C12.9161 15.9947 13.0182 16.2722 12.9992 16.4252C13.1697 16.5308 13.2308 16.685 13.3345 16.8527C13.4224 17.0668 13.5688 17.3333 13.3529 17.6536C13.5789 17.7542 13.569 18.5222 13.3885 18.6335C13.5213 18.743 13.5498 19.0102 13.5781 19.3739C13.5794 19.4963 13.5464 19.6059 13.3845 19.7027C13.4276 19.7288 13.4619 19.8005 13.4854 19.8943C13.5089 19.988 13.5216 20.1039 13.5214 20.2182C13.5213 20.3325 13.5084 20.4453 13.4807 20.5331C13.453 20.6208 13.4105 20.6835 13.3513 20.6976C13.5531 20.8558 13.5483 21.2742 13.3743 21.3173C13.4718 21.5309 13.4411 21.9507 13.3168 22.0331C13.344 22.464 13.2018 22.7696 13.1265 22.9973C12.9759 23.4527 12.7776 23.8388 12.5289 24.163C12.2802 24.4873 11.9811 24.7496 11.6291 24.9575C10.8591 25.4063 9.55013 25.3931 8.80213 24.9311C8.14213 24.5219 7.60313 23.6375 7.49313 22.7795C7.39413 22.0139 7.70213 20.8919 8.09813 20.5355C8.72513 19.9811 9.94613 20.1659 10.1221 20.8391C10.2101 21.1823 10.1001 21.5915 9.89113 21.6839C9.61613 21.8027 9.50613 21.6443 9.66013 21.3539C9.77013 21.1295 9.75913 21.0635 9.58313 20.8919C9.05513 20.4299 8.26313 20.8391 8.07613 21.6575C7.84513 22.7135 8.20813 23.7827 8.94513 24.2183C9.56113 24.5879 10.8041 24.6143 11.2441 24.2843C12.1021 23.6375 12.6411 21.8819 12.3771 20.5619C12.2341 19.8359 11.6401 18.9383 10.8701 18.3179L10.3861 17.9087L10.2101 18.4499C10.1166 18.7337 10.0341 18.8913 10.0564 19.0706C9.91345 18.966 9.86188 18.9849 9.76327 18.8735C9.71927 18.7547 9.63813 18.6215 9.51713 18.6611C9.48963 18.671 9.32289 18.7888 9.15688 18.8159C9.21408 18.6556 9.272 18.6509 9.26524 18.491C9.17624 18.6272 8.92125 18.6442 8.59063 18.6861C8.8493 18.5085 8.8002 18.4737 8.81942 18.3243C8.72042 18.4587 8.47331 18.5425 8.18759 18.6042C8.33491 18.4195 8.30971 18.3626 8.32417 18.1945C8.17928 18.3655 7.82635 18.4611 7.69546 18.451C7.81011 18.291 7.81198 18.2931 7.80974 18.0951C7.68107 18.2163 7.4433 18.1993 7.23065 18.1541C7.36175 17.9857 7.40188 17.7999 7.40935 17.6588C7.23695 17.8511 6.9546 17.8097 6.77014 17.7729C6.91463 17.6191 7.0022 17.5325 7.04707 17.436C7.09936 17.3147 7.06413 17.2751 6.88813 17.2751C6.76713 17.2751 6.6834 17.3682 6.50483 17.2861C6.76375 17.1633 6.8341 16.7662 6.89222 16.7582C7.12385 16.7263 6.56995 17.2641 7.06582 17.1509C7.18968 17.1295 7.24601 17.1321 7.33788 17.1384C7.2735 17.2519 7.26252 17.2566 7.20713 17.3411C7.14488 17.4512 7.13248 17.5947 6.9852 17.6875C7.11022 17.6884 7.21241 17.7021 7.2952 17.6232C7.37798 17.5444 7.37886 17.5123 7.55339 17.3615C7.57718 17.5194 7.56543 17.551 7.55253 17.6556C7.53021 17.8367 7.50107 17.8844 7.45566 18.0276C7.64513 18.0803 7.76161 18.0086 7.79471 17.9104C7.84418 17.8484 7.91489 17.6905 8.01202 17.6586C8.05147 17.8009 8.00948 17.8064 7.99498 17.9269C7.95369 18.0624 7.94341 18.1589 7.90803 18.2861C8.10032 18.2204 8.21841 18.1372 8.34012 17.9615C8.54912 17.7503 8.54912 17.7503 8.48312 18.0275C8.45595 18.2123 8.46252 18.2536 8.40662 18.4131C8.5918 18.3744 8.76362 18.2717 8.85712 18.0935C8.96712 17.8955 8.97812 17.9087 8.93412 18.1595C8.92791 18.3282 8.95234 18.3555 8.91773 18.5187C9.08583 18.4761 9.20912 18.3971 9.29712 18.2255C9.40712 18.0275 9.41812 18.0407 9.37412 18.2915C9.34662 18.4499 9.39712 18.4826 9.31921 18.6479C9.50916 18.5506 9.51712 18.5753 9.58312 18.4499C9.62712 18.3443 9.69966 18.4853 9.78766 18.6833C9.85916 18.8351 9.91723 18.8467 9.9705 18.8541C9.98359 18.7383 10.0231 18.6611 10.1111 18.4103C10.2101 18.1199 10.2761 17.8823 10.2651 17.8559C10.2431 17.8427 9.96812 17.6711 9.66012 17.4731C9.34112 17.2883 9.07712 17.0771 9.07712 16.9979C9.07712 16.9319 9.02212 16.8791 8.94512 16.8791C8.76912 16.8791 8.30712 16.3511 8.30712 16.1531C8.30712 16.0607 8.20812 15.8363 8.08712 15.6647C7.92212 15.4007 7.73512 15.3083 7.24012 15.2423C6.8902 15.1681 6.59655 15.0575 6.41512 14.9387C6.32434 14.8817 6.31191 14.8335 6.2422 14.801C6.23945 14.8703 6.27762 15.0839 6.40412 15.2291C6.47562 15.3215 6.54885 15.3416 6.61392 15.3898C6.55272 15.4645 6.50862 15.6053 6.45912 15.7043C6.34912 15.9155 6.34912 15.9815 6.50312 16.0475C6.64612 16.1135 6.64612 16.1531 6.52512 16.2455C6.47562 16.2917 6.40109 16.3235 6.34891 16.3639C6.43066 16.3882 6.49459 16.3944 6.65059 16.3465C6.84859 16.2027 6.86373 16.2451 6.77812 16.3907C6.70798 16.5177 6.66055 16.6596 6.55857 16.7582C6.67534 16.7656 6.72862 16.7405 6.83312 16.6943C6.94312 16.6415 7.03623 16.6061 6.96066 16.811C6.88884 16.9542 6.92849 16.734 6.86033 16.923C6.74289 16.9502 6.47617 16.9166 6.28114 16.86C6.45664 16.7445 6.5208 16.6542 6.5428 16.5948C6.5758 16.476 6.48112 16.4831 6.39312 16.4831C6.35462 16.4831 6.22736 16.5016 6.13227 16.375C6.21128 16.3234 6.33138 16.2767 6.40367 16.1678C6.17816 16.0118 6.30919 15.7753 6.36175 15.663C6.40526 15.5732 6.40882 15.5257 6.45937 15.4325C6.38996 15.4265 6.28862 15.2687 6.23912 15.1631C6.13462 14.9387 6.08926 14.7255 6.10441 14.5421C6.25348 14.68 6.31126 14.7246 6.40412 14.7799C6.56171 14.893 6.89996 15.0353 7.19881 15.0895C7.49766 15.1437 7.75712 15.1367 7.75712 15.0047C7.75712 14.8727 7.87672 14.8837 7.79022 14.7781C7.62827 14.5805 7.5411 14.4031 7.49067 14.2282C7.39639 14.0913 7.27733 14.0812 7.11953 14.0792C7.0358 14.1329 6.87249 14.1797 6.79712 14.3104C6.72622 14.2697 6.68969 14.0076 6.72559 13.8828C6.74101 13.8292 6.92319 13.7266 7.02591 13.7222C7.12864 13.7179 7.18316 13.753 7.27364 13.707C7.16715 13.6702 7.10893 13.6723 6.99798 13.606C6.89931 13.547 6.80369 13.5119 6.8166 13.4368C6.83258 13.3438 7.37825 13.4072 7.45525 13.4105C7.5185 13.4138 7.33597 13.3229 7.20146 13.3025C7.11321 13.2645 6.91648 13.2794 6.71746 13.1021C6.86431 12.9889 6.94168 13.0365 7.06209 12.9832M7.51533 13.0049C7.47104 13.1168 6.94066 13.0864 7.08815 13.1326C7.08815 13.1326 7.4978 13.2232 7.63338 13.3629C7.65736 13.4865 7.51442 13.5413 7.51442 13.5413L6.99491 13.4748C6.98934 13.5602 7.49991 13.5924 7.48234 13.7206C7.47664 13.7621 7.5106 13.8404 7.34069 13.8172C7.18597 13.8257 6.99614 13.8068 6.88126 13.8781C6.7978 13.9281 6.78774 14.0391 6.81396 14.1342C6.88953 14.0603 7.00976 13.9994 7.07576 13.973C7.21669 13.9511 7.31864 13.9858 7.41387 14.0347C7.5091 14.0836 7.5753 14.136 7.65812 14.3315C7.71312 14.5031 7.88912 14.7011 8.05412 14.7803C8.23012 14.8463 8.51132 15.0271 8.63712 15.2291C8.77658 15.4531 8.88066 15.6345 9.21658 15.8674C9.54658 16.2238 9.26158 16.0971 9.40292 16.1232C9.7817 16.1929 9.99012 16.2983 10.0561 16.4039C10.1331 16.5095 10.3091 16.6283 10.4521 16.6679C10.6061 16.7207 10.7271 16.8131 10.7271 16.8791C10.7271 16.9583 10.8041 17.0111 10.9031 17.0111C11.1451 17.0111 12.2231 18.3707 12.4211 18.9119C12.7951 19.9283 12.8611 20.2979 12.8611 21.2879C12.8501 21.9479 12.7841 22.5419 12.6851 22.8191C12.4651 23.4395 11.527 24.6861 11.274 24.6861C11.2292 24.7012 11.2473 24.6957 11.1943 24.706C11.17 24.7495 11.1561 24.7538 11.0701 24.8019C10.9452 24.8769 10.7851 24.9134 10.5898 24.9201C10.3945 24.9268 10.1641 24.9036 9.89859 24.8589C9.63306 24.8143 9.3727 24.7482 9.17871 24.671C8.98473 24.5937 8.91337 24.552 8.85712 24.4807C8.84032 24.4594 8.79566 24.4317 8.80311 24.339C8.76321 24.3826 8.67045 24.3723 8.55963 24.2519C8.46962 24.1542 8.38301 24.1087 8.42812 24.0104C8.30907 23.9955 8.2888 23.9348 8.19501 23.7766C8.13333 23.6726 8.0632 23.5806 8.09324 23.4334C8.01126 23.4529 7.97061 23.3153 7.92365 23.1849C7.88248 23.0706 7.80906 22.915 7.90041 22.8586C7.79538 22.8617 7.81511 22.7077 7.80234 22.6005C7.78957 22.4933 7.76324 22.3269 7.86913 22.2978C7.76066 22.2567 7.80708 22.1222 7.82341 22.0016C7.84633 21.8324 7.85928 21.7409 7.94929 21.7186C7.86884 21.6754 7.91788 21.5167 7.9709 21.3001C8.01341 21.1264 8.11084 21.063 8.22296 21.0919C8.11572 20.9937 8.31154 20.8336 8.35362 20.7915C8.47054 20.6744 8.60346 20.6309 8.62957 20.707C8.61831 20.5645 9.03296 20.5519 9.19159 20.5734C9.35023 20.5949 9.48962 20.6807 9.63812 20.8259C9.86912 21.0503 9.88012 21.1163 9.75912 21.3539C9.61612 21.6575 9.72612 21.7235 9.93512 21.4727C10.1551 21.2087 10.0891 20.8787 9.77012 20.5751C9.52812 20.3375 9.36312 20.2979 8.94512 20.3375C8.20812 20.4299 7.91112 20.7071 7.70212 21.5255C7.37212 22.8851 7.82312 24.2315 8.81312 24.8123C9.25312 25.0631 9.51712 25.1291 10.2321 25.1291C11.2771 25.1159 11.9261 24.8123 12.5311 24.0071C12.9051 23.5187 13.3231 22.2428 13.1911 22.0052C12.9764 21.8956 13.1911 21.8951 13.2571 21.8951C13.3451 21.8951 13.3781 21.3482 13.2143 21.2488C13.5412 21.2503 13.3681 20.76 13.1712 20.6635C13.3475 20.6585 13.4347 20.4517 13.4399 20.2329C13.4451 20.0142 13.3684 19.7835 13.2168 19.7305C13.1026 19.6907 13.2078 19.6542 13.3151 19.6249C13.443 19.5901 13.4921 19.5671 13.4764 19.2937C13.4574 19.1145 13.4048 18.815 13.2966 18.7598C13.1852 18.7029 13.0117 18.6864 12.915 18.676C13.0324 18.6306 13.1444 18.6042 13.2351 18.5951C13.4331 18.4961 13.4999 18.0156 13.3219 17.881C13.1438 17.7465 12.6957 18.0109 12.6722 17.9018C12.7595 17.7871 13.0302 17.7589 13.1504 17.654C13.2975 17.4805 13.4331 17.3147 13.1911 16.9055C13.0701 16.6811 13.0894 16.6255 12.9493 16.5635C12.7636 16.5545 12.3653 16.8545 12.0606 16.8428C12.2001 16.7035 12.6748 16.5916 12.8262 16.4598C12.9777 16.328 12.8627 16.1233 12.7071 15.8891C12.5201 15.6911 12.4431 15.6779 12.2011 15.8099C12.0361 15.8891 11.775 15.9716 11.492 16.0284C11.6018 15.8924 12.1021 15.7439 12.2121 15.6383C12.4211 15.4535 12.4211 15.376 12.2231 15.112L11.9269 14.9659L11.5961 15.1763C11.3541 15.3083 10.9796 15.465 10.9796 15.4254C10.9796 15.399 11.3211 15.2159 11.4971 15.0971C11.6841 14.9783 11.798 14.8067 11.798 14.7143C11.798 14.3843 11.5443 14.3405 11.1554 14.6658C10.9574 14.8044 10.4631 14.9852 10.4335 14.9185C10.3969 14.8358 10.765 14.7548 10.9471 14.6483C11.1279 14.5245 11.4675 14.3216 11.4675 14.216C11.4228 14.0369 11.2221 13.9091 10.3531 13.7903C9.70412 13.6979 9.36312 13.4471 9.07712 12.8795C8.72512 12.1931 8.79112 11.5991 9.26412 11.0579L9.66012 10.6091L9.42912 11.0315C9.00012 11.7707 9.20912 12.6551 9.81412 12.6551C9.95712 12.6551 10.1661 12.7211 10.2761 12.8135C10.4301 12.9191 10.5642 12.8963 10.6935 12.8506L10.9037 12.7764L10.9766 12.7575L10.6721 12.5099C10.3311 12.3119 10.1881 11.9291 10.3751 11.7047C10.4411 11.6255 10.4631 11.7047 10.4301 11.9159C10.3861 12.1667 10.4301 12.2855 10.5841 12.3515C10.6941 12.4175 10.9141 12.5627 11.0571 12.6947C11.5301 13.1039 12.1681 13.5791 12.2341 13.5791C12.2671 13.5791 12.2121 13.4471 12.0911 13.2755C11.9701 13.1171 12.0361 13.1435 12.2341 13.3679C12.5311 13.6847 12.6191 13.7243 12.7621 13.5791C13.0041 13.3415 12.9711 13.2359 12.5531 12.9191C12.3001 12.7475 12.1241 12.4703 12.0361 12.1535C11.9701 11.8895 11.8601 11.5991 11.8161 11.5199C11.7501 11.4275 11.7831 11.3087 11.8821 11.2031C11.9756 11.1107 12.0691 10.8961 12.0591 10.8175C12.0157 10.8273 11.9827 10.8419 11.9371 10.8731C11.8821 10.9127 11.8271 10.8599 11.8271 10.7411C11.8271 10.6817 11.8652 10.4567 11.8549 10.4014C11.829 10.4587 11.7501 10.5893 11.7171 10.6091C11.6621 10.6487 11.5961 10.6091 11.5961 10.5167C11.5796 10.3253 11.5591 10.2693 11.5455 10.1793C11.5229 10.2285 11.409 10.4258 11.3573 10.4732C11.4012 10.3275 11.3665 9.85981 11.3476 9.81635C11.3444 9.94164 11.2856 10.1643 11.2679 10.2449C11.1511 10.4425 11.1227 10.4857 10.9912 10.5335C10.8798 10.5384 10.8261 10.4837 10.6721 10.2659C10.5181 10.0415 10.4239 9.87337 10.415 9.75896C10.415 9.64016 10.7413 9.17032 11.1278 8.99355C11.2915 8.9222 11.3137 8.90197 11.4141 8.8698C11.3868 8.86241 11.3466 8.81656 11.2272 8.78981C11.1647 8.7758 10.9114 8.77685 10.748 8.86998C10.6018 8.92623 10.264 9.09939 10.11 9.28419C10.0265 9.30106 10.1212 8.96387 10.0237 9.01255C9.92626 9.06122 9.96481 9.41242 9.88253 9.46509C9.75914 9.54407 9.73922 9.28475 9.68422 9.28475C9.62922 9.29135 9.72854 9.59238 9.62639 9.66253C9.55953 9.70845 9.32796 9.36739 9.30046 9.42019C9.28018 9.46139 9.47925 9.74343 9.42558 9.78533C9.35929 9.84801 9.3657 9.93193 9.21906 9.86225C9.09889 9.78951 8.56807 9.38961 8.43135 9.40106C8.55823 9.50094 8.65683 9.62229 8.79442 9.77311C9.01442 10.0503 9.0766 10.0848 8.9006 10.117C8.7371 10.0848 8.6967 10.0255 8.61602 10.091C8.57568 10.1238 8.65292 10.3737 8.59827 10.4136C8.54361 10.4536 8.35599 10.3657 8.33502 10.3917C8.25115 10.4957 8.40035 10.635 8.35085 10.7868C8.28485 11.0112 8.25185 11.0112 8.03185 10.8264C7.85585 10.6746 7.63091 10.5659 7.62415 10.6234C7.61528 10.6989 7.66885 10.734 7.76785 10.9056C8.08685 11.4468 7.99885 11.5524 7.37185 11.4732C7.37185 11.4732 6.86128 11.2944 6.70835 11.5745C6.85941 11.5405 7.22131 11.6269 7.31782 11.6771C7.3701 11.7043 7.48331 11.7857 7.58105 11.8789C7.62993 11.9256 7.60165 11.9622 7.57206 12.0652C7.45764 12.1147 7.33296 12.145 7.19796 12.1359C7.60623 12.3331 7.56968 12.1701 7.71769 12.2691C7.61137 12.4796 7.52676 12.464 7.16313 12.5251C7.07307 12.5768 6.98603 12.6012 6.88703 12.6342C6.78528 12.6672 6.72234 12.7619 6.74746 12.7727C6.77259 12.7835 6.87238 12.7532 6.9845 12.74C7.11598 12.742 7.0479 12.7406 7.34257 12.777C7.48032 12.8174 7.54198 12.9387 7.51533 13.0049Z" fill="black"/>
<path d="M11.2586 11.6822C11.2586 11.7594 11.2212 11.8219 11.1752 11.8219C11.1291 11.8219 11.0918 11.7594 11.0918 11.6822C11.0918 11.6051 11.1291 11.5426 11.1752 11.5426C11.2201 11.5426 11.2569 11.6022 11.2585 11.6773" fill="black"/>
<path d="M11.4254 11.7852C11.3726 11.9455 11.2175 12.026 11.0791 11.9648C10.9406 11.9037 10.8711 11.7242 10.9239 11.5639C10.9767 11.4036 11.1318 11.3232 11.2702 11.3844C11.4085 11.4454 11.478 11.6245 11.4255 11.7847" stroke="black" stroke-width="0.085"/>
<path d="M10.4551 11.2656C10.8023 11.0459 11.2821 11.3868 11.2821 11.3868" stroke="black" stroke-width="0.085"/>
<path d="M7.85228 15.0499C7.83988 14.9791 7.86676 14.9439 7.9623 14.8704C8.08017 14.8879 8.28497 14.9886 8.41475 15.1265C8.63587 15.3615 8.66943 15.449 8.79406 15.6501C8.74321 15.7709 8.71017 15.797 8.61374 15.9096C8.51584 15.9865 8.45786 16.0333 8.39136 16.0714C8.33826 15.8739 8.2737 15.7762 8.12704 15.5492C8.05846 15.4237 7.85574 15.3281 7.75293 15.2351C7.77512 15.1369 7.81577 15.1292 7.85228 15.0499Z" fill="#DFDFDF"/>
<path d="M8.67958 15.9817C8.78083 15.9033 8.80771 15.7924 8.878 15.7416C8.97061 15.7894 8.94652 15.8031 9.09685 15.8916C9.25846 16.0142 9.2 15.9869 9.32463 16.188C9.27379 16.3088 9.24705 16.3652 9.16956 16.4929C9.08429 16.585 9.08314 16.6545 9.00401 16.7684C8.8562 16.7224 8.76007 16.655 8.64499 16.4962C8.56377 16.3782 8.46839 16.3735 8.42871 16.1746C8.53297 16.0914 8.61782 16.0534 8.67958 15.9817Z" fill="#DFDFDF"/>
<path d="M9.25351 16.5424C9.3295 16.4186 9.34375 16.3304 9.40773 16.2417C9.51928 16.2592 9.60884 16.2805 9.74022 16.3311C9.92077 16.378 9.94439 16.4491 10.0375 16.5669C9.98661 16.6877 9.97881 16.8426 9.9392 17.0612C9.91076 17.2139 9.88435 17.2985 9.83047 17.4352C9.68267 17.3588 9.57391 17.2915 9.4462 17.1933C9.31448 17.098 9.18752 17.0025 9.12891 16.8035C9.19529 16.6597 9.19174 16.6141 9.25351 16.5424Z" fill="#DFDFDF"/>
<path d="M10.0432 17.1333C10.075 16.964 10.0703 16.7849 10.1406 16.6508C10.2521 16.6683 10.2343 16.7123 10.3657 16.7629C10.5021 16.8325 10.5951 16.8506 10.6693 17.029C10.549 17.1649 10.5222 17.1456 10.4826 17.3642C10.4542 17.5169 10.5099 17.7303 10.456 17.867C10.3082 17.7906 10.2941 17.746 10.1664 17.6478C10.0347 17.5526 10.0214 17.5933 9.9375 17.4928C9.98494 17.3188 10.013 17.2353 10.0432 17.1333Z" fill="#DFDFDF"/>
<path d="M10.5856 17.3758C10.649 17.2216 10.6759 17.1864 10.7462 17.1129C10.8767 17.1759 10.9346 17.1366 11.0597 17.2706C11.1771 17.3704 11.4217 17.6158 11.5148 17.7336C11.4261 17.7862 11.3432 17.8225 11.2398 17.9855C11.1363 18.1484 11.166 18.1925 11.1058 18.3746C10.9958 18.2907 10.9439 18.246 10.8415 18.1706C10.735 18.0526 10.6901 18.0176 10.5684 17.9171C10.6158 17.7506 10.5681 17.5081 10.5856 17.3758Z" fill="#DFDFDF"/>
<path d="M11.3117 18.0879C11.3751 17.9338 11.4651 17.9062 11.5354 17.8326C11.6659 17.8956 11.7176 18.0306 11.8426 18.1645C11.9979 18.3704 12.0215 18.4037 12.0957 18.5291C11.9817 18.5968 11.9494 18.6029 11.8459 18.7128C11.7388 18.8265 11.709 18.8289 11.6361 18.9276C11.5578 18.821 11.569 18.8294 11.4665 18.7085C11.3601 18.5905 11.3467 18.5934 11.2061 18.4399C11.2472 18.2658 11.2689 18.2051 11.3117 18.0879Z" fill="#DFDFDF"/>
<path d="M11.9181 18.8228C11.9941 18.752 12.0652 18.7017 12.1292 18.6509C12.1902 18.7366 12.2482 18.8034 12.2849 18.8994C12.3455 18.9917 12.3502 19.0098 12.399 19.1352C12.2851 19.2029 12.2969 19.1862 12.2124 19.2356C12.1302 19.2835 12.0944 19.3365 11.9963 19.4125C11.918 19.3059 11.9734 19.3446 11.8709 19.2237C11.8213 19.1511 11.7953 19.0934 11.7178 19.0005C11.8283 18.8871 11.8437 18.8718 11.9181 18.8228Z" fill="#DFDFDF"/>
<path d="M12.2183 19.357C12.3101 19.3051 12.3496 19.2775 12.4262 19.238C12.4778 19.3541 12.4916 19.3716 12.5282 19.4676C12.551 19.5486 12.5683 19.5894 12.6077 19.7223C12.5221 19.7598 12.4961 19.7696 12.44 19.8C12.3826 19.831 12.322 19.8744 12.2555 19.9201C12.1929 19.7794 12.1946 19.8105 12.1585 19.7275C12.1246 19.6474 12.1018 19.6238 12.04 19.5157C12.1317 19.4326 12.1597 19.4021 12.2183 19.357Z" fill="#DFDFDF"/>
<path d="M12.4457 19.9033C12.5375 19.8514 12.5368 19.864 12.6134 19.8246C12.665 19.9406 12.7011 20.1456 12.7289 20.2712C12.7493 20.4137 12.7666 20.5724 12.7726 20.7455C12.6915 20.7642 12.7249 20.7527 12.654 20.7696C12.5834 20.7864 12.5796 20.7896 12.5042 20.8273C12.4818 20.6384 12.4624 20.5342 12.4216 20.4051C12.3944 20.3143 12.3381 20.1085 12.2764 20.0005C12.3546 19.9495 12.3871 19.9485 12.4457 19.9033Z" fill="#DFDFDF"/>
<path d="M12.6441 20.881C12.6724 20.8731 12.7028 20.8671 12.7627 20.8612C12.7741 21.1085 12.7745 21.1688 12.7687 21.4149C12.7535 21.6726 12.7507 21.8822 12.7164 22.1437C12.6777 22.1303 12.6688 22.1161 12.5979 22.1116C12.527 22.107 12.5312 22.1056 12.458 22.1111C12.5093 21.8659 12.511 21.7819 12.5262 21.4899C12.5325 21.2625 12.532 21.189 12.5167 20.9329C12.5727 20.9114 12.5966 20.8967 12.6441 20.881Z" fill="#DFDFDF"/>
<path d="M12.5463 22.231C12.5746 22.2231 12.6451 22.2331 12.705 22.2272C12.6405 22.662 12.5874 22.8242 12.4656 23.0917C12.3209 23.344 12.1797 23.5804 11.9937 23.8205C11.9707 23.8014 11.955 23.7761 11.9331 23.7508C11.912 23.7264 11.8943 23.719 11.8691 23.6915C12.0811 23.3552 12.1186 23.2551 12.2453 22.947C12.3499 22.6393 12.3673 22.555 12.4368 22.2186C12.4927 22.2453 12.4988 22.2467 12.5463 22.231Z" fill="#DFDFDF"/>
<path d="M11.8809 23.8221C11.9171 23.8502 11.8994 23.8403 11.9549 23.8826C11.868 24.0067 11.8059 24.0778 11.644 24.2703C11.5216 24.378 11.485 24.472 11.2345 24.5932C11.2047 24.553 11.2034 24.5477 11.1889 24.5219C11.1749 24.4971 11.169 24.4908 11.1533 24.4425C11.2805 24.3955 11.4309 24.289 11.5264 24.1739C11.6845 24.0107 11.7242 23.9372 11.8295 23.7776C11.8538 23.7967 11.865 23.8037 11.8809 23.8221Z" fill="#DFDFDF"/>
<path d="M11.0898 24.5664C11.1098 24.6043 11.1022 24.6152 11.1209 24.6598C11.0073 24.741 10.9819 24.7479 10.7032 24.8131C10.3608 24.827 10.2165 24.8172 10.0557 24.7912C10.0615 24.7398 10.062 24.735 10.0639 24.6864C10.0657 24.6405 10.0607 24.6555 10.0638 24.6063C10.384 24.6318 10.4813 24.606 10.6079 24.5962C10.8359 24.5707 11.0077 24.5064 11.0618 24.4899C11.0862 24.5431 11.0834 24.5291 11.0898 24.5664Z" fill="#DFDFDF"/>
<path d="M9.97161 24.695C9.96474 24.7355 9.96612 24.7223 9.9558 24.7803C9.69041 24.7249 9.68513 24.7318 9.36403 24.6523C9.122 24.5698 9.04214 24.5071 8.89247 24.4115C8.88158 24.3481 8.88459 24.3557 8.89662 24.3293C8.91248 24.2945 8.90052 24.3056 8.93641 24.2794C9.11435 24.4076 9.30498 24.4452 9.4071 24.4864C9.65065 24.5465 9.77115 24.5626 9.97707 24.5889C9.97464 24.6448 9.97413 24.6576 9.97161 24.695Z" fill="#DFDFDF"/>
<path d="M8.82431 24.2477C8.78402 24.2842 8.78099 24.3012 8.73037 24.2928C8.6477 24.279 8.63706 24.2509 8.55767 24.1731C8.51874 24.135 8.45827 24.0611 8.47031 24.0347C8.48616 23.9999 8.51292 23.8952 8.54804 23.9634C8.57876 24.023 8.70973 24.1152 8.78736 24.1791C8.84911 24.23 8.83997 24.2334 8.82431 24.2477Z" fill="#DFDFDF"/>
<path d="M8.42762 23.9209C8.38064 23.9387 8.39242 23.9499 8.35378 23.9098C8.32244 23.8772 8.30064 23.8224 8.24357 23.7419C8.211 23.696 8.14585 23.5637 8.14282 23.5338C8.13412 23.4481 8.17393 23.3915 8.20492 23.4625C8.2602 23.5891 8.3309 23.7214 8.42862 23.8282C8.484 23.8888 8.44635 23.9138 8.42762 23.9209Z" fill="#DFDFDF"/>
<path d="M8.14121 23.3691C8.09423 23.3869 8.09931 23.3981 8.06067 23.358C8.02934 23.3255 7.99801 23.2408 7.96163 23.1446C7.94021 23.088 7.89264 23.0032 7.90998 22.9472C7.92924 22.885 7.99689 22.8424 8.0145 22.9188C8.04626 23.0565 8.05671 23.0583 8.11097 23.2202C8.13187 23.2826 8.15994 23.362 8.14121 23.3691Z" fill="#DFDFDF"/>
<path d="M7.98731 22.7825C7.96892 22.8249 7.93502 22.8198 7.87999 22.7901C7.83564 22.7662 7.85229 22.6821 7.84567 22.5767C7.84212 22.5201 7.83249 22.4674 7.84537 22.3927C7.85657 22.3278 7.95869 22.3042 7.96552 22.383C7.97049 22.4404 7.96343 22.4738 7.9727 22.572C7.98769 22.7307 8.00167 22.7494 7.98731 22.7825Z" fill="#DFDFDF"/>
<path d="M7.94739 22.228C7.9367 22.2638 7.89287 22.2519 7.86686 22.2142C7.83586 22.1693 7.87264 22.0901 7.87495 22.0008C7.87642 21.944 7.88961 21.8868 7.91482 21.8168C7.93048 21.7733 7.98704 21.7681 7.98809 21.8473C7.9886 21.8859 7.97948 21.9362 7.97072 22.0202C7.9611 22.1124 7.96447 22.1708 7.94739 22.228Z" fill="#DFDFDF"/>
<path d="M8.02573 21.6682C8.01504 21.7041 7.96734 21.6701 7.95858 21.6223C7.94544 21.5505 7.98692 21.4715 8.00463 21.3848C8.01949 21.3119 8.04684 21.2253 8.09584 21.1767C8.13159 21.1412 8.19624 21.1216 8.1825 21.1991C8.17185 21.2592 8.10023 21.3737 8.07584 21.4711C8.05355 21.5602 8.04281 21.611 8.02573 21.6682Z" fill="#DFDFDF"/>
<path d="M8.31779 21.028C8.28609 21.0295 8.24928 21.0402 8.25957 20.9928C8.26875 20.9505 8.30294 20.9297 8.36812 20.8678C8.40142 20.8361 8.45999 20.7783 8.49281 20.7588C8.53064 20.7363 8.60491 20.7081 8.57947 20.7812C8.56882 20.8118 8.53515 20.8246 8.47504 20.8738C8.41104 20.9262 8.33933 21.027 8.31779 21.028Z" fill="#DFDFDF"/>
<path d="M26.4719 8.68885C26.7256 8.73173 26.9168 8.81536 27.1723 8.99977C27.2545 9.05981 27.3314 9.1027 27.3457 9.09627C27.36 9.08983 27.376 9.03837 27.3832 8.97619C27.3903 8.91829 27.4064 8.85182 27.4189 8.83252C27.4547 8.77248 27.4886 8.8218 27.5547 9.02336C27.5851 9.11985 27.6191 9.21206 27.628 9.22492C27.6602 9.2721 27.703 9.25494 27.7549 9.17775C27.8067 9.09841 27.8853 9.07482 27.9032 9.13272C27.9085 9.14987 27.905 9.21849 27.8942 9.28711C27.8621 9.48867 27.9139 9.51869 28.0604 9.3836C28.1873 9.26567 28.2355 9.24208 28.2838 9.2721C28.3338 9.30426 28.332 9.34929 28.2677 9.52727C28.2123 9.68166 28.2087 9.79316 28.2624 9.7031C28.2766 9.67952 28.3428 9.62591 28.4107 9.58731C28.4786 9.54657 28.584 9.4801 28.6465 9.43721C28.7091 9.39647 28.7949 9.34715 28.8377 9.32785C28.9164 9.29569 29.3417 9.22064 29.3774 9.23565C29.3881 9.23993 29.3291 9.29783 29.2487 9.36645C29.0718 9.51226 28.7323 9.88537 28.7323 9.93254C28.7323 9.96042 28.752 9.96471 28.8753 9.95184C29.0379 9.93469 29.0343 9.92826 28.9986 10.132C28.9861 10.2027 28.9843 10.2499 28.995 10.2628C29.0057 10.2756 29.0611 10.2713 29.1451 10.2499C29.2184 10.2327 29.2827 10.2177 29.2898 10.2177C29.3166 10.2177 29.3041 10.3871 29.2666 10.5308C29.2309 10.6659 29.2309 10.6788 29.2595 10.7023C29.2952 10.7345 29.3363 10.7195 29.6079 10.5694C29.7687 10.4793 29.8098 10.4643 29.8974 10.4686C29.9528 10.4708 30.0189 10.4858 30.0457 10.5029L30.0957 10.5329L29.9796 10.6831C29.842 10.8632 29.7026 11.1033 29.6812 11.1998C29.6419 11.3607 29.7741 11.3885 30.219 11.3199C30.4621 11.2813 30.6264 11.2877 30.7069 11.3392C30.7694 11.3778 30.9838 11.618 30.9838 11.6501C30.9838 11.6609 30.8802 11.6759 30.7533 11.6823C30.4871 11.6952 30.2941 11.7509 30.135 11.856C29.9849 11.9546 29.9885 11.9761 30.1511 11.9761C30.2869 11.9761 30.3656 12.0018 30.437 12.0704C30.471 12.1026 30.471 12.1047 30.437 12.1498C30.3852 12.2184 30.2851 12.272 30.1618 12.2956C30.0993 12.3084 30.0457 12.3213 30.0421 12.3277C30.0386 12.332 30.0939 12.347 30.1654 12.3599C30.3513 12.3964 30.6122 12.4886 30.739 12.5658C30.8534 12.6344 30.8587 12.6429 30.882 12.8424L30.8927 12.9238L30.8355 12.9088C30.7462 12.8853 30.2851 12.8724 30.2101 12.8917C30.0957 12.9217 30.1279 12.9517 30.3048 12.9775C30.5264 13.0096 30.6515 13.0396 30.7104 13.0761L30.7569 13.1061L30.6604 13.1619C30.6068 13.194 30.4835 13.2391 30.3852 13.2626C29.9671 13.3656 29.9153 13.4235 30.2655 13.402C30.5532 13.3849 30.6675 13.3977 30.6586 13.4513C30.6497 13.5114 30.4728 13.6143 30.2887 13.6701C30.1761 13.7044 30.219 13.7301 30.4031 13.7387C30.5693 13.7451 30.6943 13.7966 30.7462 13.8802C30.7873 13.9424 30.7623 14.2254 30.714 14.2619C30.7033 14.2683 30.6818 14.2598 30.6658 14.2426C30.6497 14.2233 30.5764 14.1761 30.5031 14.1332C30.3656 14.0539 30.3638 14.0539 30.1672 14.0904C30.0832 14.1054 30.01 14.189 29.9474 14.3434C29.917 14.4163 29.8545 14.5321 29.808 14.6007C29.7616 14.6693 29.708 14.7487 29.6901 14.7765C29.6561 14.8258 29.6561 14.828 29.6937 14.9181C29.7133 14.9695 29.7348 15.0274 29.7401 15.0467C29.7723 15.1797 30.3191 15.1346 30.7497 14.9631C30.9213 14.8945 31.175 14.7444 31.2894 14.6436L31.377 14.5664V14.65C31.377 14.8559 31.2429 15.2054 31.1089 15.3491L31.0231 15.4413L31.1107 15.6428C31.2197 15.8937 31.2269 15.9902 31.1429 16.091C31.1125 16.1296 31.091 16.1725 31.0982 16.1896C31.1036 16.2068 31.15 16.2497 31.2018 16.284C31.3627 16.3933 31.3555 16.3826 31.2894 16.4234C31.2572 16.4448 31.1697 16.4662 31.0982 16.4727C31.0196 16.4812 30.957 16.4963 30.9463 16.5134C30.9016 16.5777 30.9946 16.7193 31.1554 16.8351C31.1822 16.8544 31.1625 16.8629 31.0464 16.8844C30.9677 16.8972 30.8534 16.9101 30.7926 16.9123L30.6818 16.9165L30.7194 16.998C30.764 17.0945 30.848 17.1996 30.9177 17.2511L30.9677 17.2897L30.9124 17.2982C30.882 17.3047 30.8194 17.3004 30.773 17.2918C30.639 17.2661 30.4763 17.2704 30.4406 17.3004C30.3852 17.3497 30.4317 17.4612 30.5711 17.622L30.6926 17.7635L30.6139 17.7786C30.4656 17.8043 30.278 17.7764 30.1779 17.7142C30.1261 17.6842 30.0814 17.6606 30.0779 17.6649C30.0528 17.6971 30.1493 18.008 30.2119 18.0938C30.2262 18.1131 30.2333 18.1367 30.2262 18.1474C30.219 18.156 30.1225 18.1624 30.0135 18.1624C29.8581 18.1624 29.7991 18.1538 29.7526 18.1238C29.7187 18.1045 29.6883 18.0873 29.6847 18.0873C29.683 18.0873 29.6794 18.1324 29.6794 18.1881C29.6794 18.261 29.6919 18.3061 29.7258 18.3597L29.7705 18.4304H29.7205C29.6043 18.4283 29.3291 18.3211 29.2309 18.2353C29.1665 18.1817 29.1612 18.1838 29.1612 18.2632C29.163 18.3532 29.2023 18.484 29.2434 18.5398C29.2809 18.5912 29.272 18.5912 29.0968 18.5376C28.9396 18.4905 28.8002 18.424 28.7287 18.3639C28.6626 18.3061 28.6555 18.3125 28.6698 18.4025C28.6859 18.5098 28.7198 18.5719 28.7877 18.6148C28.8181 18.632 28.8395 18.6534 28.8342 18.6577C28.8199 18.677 28.4428 18.6063 28.3571 18.5698C28.3142 18.5526 28.2641 18.5205 28.2463 18.5012C28.2159 18.469 28.2141 18.469 28.2141 18.5205C28.2141 18.5505 28.2338 18.6191 28.2588 18.6749C28.2838 18.7306 28.3035 18.7799 28.3035 18.7864C28.3035 18.8035 28.2052 18.7671 28.0908 18.707C28.0283 18.6727 27.955 18.6449 27.9282 18.6449C27.8674 18.6449 27.796 18.7113 27.7406 18.8164C27.7102 18.8743 27.6637 18.9172 27.5744 18.9708L27.4493 19.0458L27.4422 18.9579C27.4332 18.8786 27.1384 17.948 27.1098 17.9115C27.0973 17.8965 26.7381 18.1924 26.3914 18.5012C26.1824 18.6877 25.7017 19.2603 25.5605 19.4919C25.1728 20.1266 25.0459 20.564 25.0441 21.2716C25.0441 21.6619 25.0656 21.8699 25.1406 22.2451C25.305 23.0471 25.6874 23.8105 26.1216 24.1965C26.4075 24.4516 26.7453 24.5374 27.3743 24.5138C28.1355 24.4859 28.6108 24.2951 28.9628 23.8812C29.2237 23.5725 29.3953 23.1693 29.4667 22.6976C29.4775 22.6204 29.4864 22.4317 29.4864 22.2794C29.4864 21.7562 29.3881 21.3939 29.1737 21.1172C28.9878 20.8792 28.7895 20.7484 28.5358 20.7012C28.2945 20.6562 28.0193 20.7527 27.8496 20.9393C27.7316 21.0701 27.7263 21.1322 27.8192 21.3553C27.9014 21.5547 27.9085 21.6061 27.8567 21.6683C27.8085 21.7262 27.7084 21.7241 27.594 21.6576C27.4279 21.5654 27.3457 21.3402 27.36 21.0272C27.3743 20.7463 27.4833 20.564 27.7298 20.4139C27.9693 20.2702 28.0908 20.2424 28.4643 20.2445C28.7734 20.2445 28.8056 20.2488 28.9557 20.3045C29.2559 20.4139 29.4381 20.5597 29.5793 20.7956C29.901 21.3402 30.0779 22.2752 29.9742 22.8799C29.8938 23.3409 29.6794 23.8405 29.381 24.2522C28.8771 24.9513 28.2087 25.2708 27.2492 25.2708C26.538 25.2708 26.0341 25.1078 25.5337 24.7175C24.9762 24.2844 24.6152 23.7226 24.3097 22.8155C24.2275 22.5668 24.1953 22.4124 24.181 22.198C24.1757 22.0929 24.1614 22.0071 24.1453 21.9857C24.0738 21.887 24.0488 21.6061 24.0935 21.4239L24.1203 21.3209L24.0649 21.263C23.9666 21.158 23.9773 20.9307 24.0881 20.7784L24.1399 20.7077L24.081 20.6369C24.0041 20.5426 23.9702 20.3646 23.9845 20.1287C23.9934 19.9657 24.0542 19.7384 24.0881 19.7384C24.1238 19.7384 24.1006 19.6806 24.0488 19.6441C23.9684 19.5862 23.9255 19.4897 23.9255 19.361C23.9255 19.1016 24.0148 18.7027 24.081 18.6727C24.1078 18.6599 24.1131 18.602 24.0881 18.602C24.047 18.602 23.9916 18.4004 23.9827 18.2181C23.972 17.9887 24.0095 17.8129 24.0881 17.7185L24.1399 17.6542L24.0845 17.5169C24.0363 17.399 24.0291 17.3647 24.0381 17.2661C24.0577 17.0388 24.2668 16.6185 24.424 16.4941C24.4812 16.4491 24.4973 16.4234 24.4973 16.374C24.4973 16.2304 24.5956 16.0181 24.76 15.8058C24.9315 15.5871 24.9869 15.4884 25.0227 15.334C25.0477 15.2354 25.0745 15.1839 25.1495 15.0939C25.2371 14.9888 25.4229 14.8559 25.5337 14.8216C25.557 14.8151 25.5695 14.7937 25.5695 14.7594C25.5713 14.6221 25.7124 14.3927 25.8375 14.3241C25.9 14.2898 25.909 14.2769 25.909 14.2147C25.909 14.1268 25.9697 14.0389 26.1127 13.921C26.2485 13.8116 26.4629 13.7451 26.7935 13.7108C27.4886 13.6422 27.7978 13.5028 28.1248 13.1125C28.3231 12.8767 28.3999 12.718 28.4714 12.4049C28.5304 12.1455 28.534 11.9032 28.4804 11.7145C28.4428 11.5815 28.3231 11.3113 28.3017 11.3113C28.2945 11.3113 28.3052 11.3821 28.3249 11.4657C28.3714 11.6694 28.3767 12.0039 28.3338 12.1669C28.2749 12.3942 28.1587 12.5636 27.9961 12.6644C27.8853 12.733 27.8317 12.748 27.6423 12.7695C27.4457 12.7909 27.3135 12.8381 27.2492 12.9088C27.1527 13.0161 26.9365 13.0289 26.7292 12.9431C26.6756 12.9196 26.5755 12.8938 26.5058 12.8874L26.3772 12.8724L26.211 13.0118C26.0394 13.1533 25.2979 13.6551 25.1674 13.7172C24.9297 13.8309 24.6617 13.7516 24.5491 13.535C24.458 13.3613 24.5402 13.1983 24.928 12.778C25.2425 12.4392 25.3175 12.3234 25.3586 12.1262C25.3765 12.0425 25.4337 11.8603 25.4891 11.723C25.6195 11.3864 25.6213 11.3285 25.498 11.1741C25.4497 11.1119 25.3961 11.0261 25.3818 10.9811C25.3532 10.9018 25.3407 10.7216 25.3604 10.6959C25.3711 10.6852 25.4908 10.7152 25.5534 10.7431C25.573 10.7517 25.5766 10.7195 25.5713 10.5715C25.5677 10.4558 25.5748 10.3635 25.5873 10.3228L25.6106 10.2585L25.6749 10.3335C25.741 10.4107 25.7893 10.43 25.8107 10.3893C25.8161 10.3786 25.8286 10.3164 25.8375 10.252C25.8554 10.117 25.9268 9.90681 25.9447 9.93254C25.9519 9.94112 25.9679 9.98615 25.9805 10.029C25.9912 10.0741 26.0073 10.1105 26.0162 10.1105C26.0233 10.1105 26.0358 10.0591 26.043 9.99687C26.0627 9.81246 26.0841 9.73527 26.1323 9.68166C26.1717 9.63663 26.1824 9.63449 26.1949 9.66022C26.2038 9.67737 26.2128 9.71597 26.2128 9.74599C26.2128 9.84034 26.2628 10.0312 26.3289 10.192C26.4576 10.5008 26.5791 10.4708 26.8292 10.0741C26.9722 9.84677 26.9936 9.77601 26.9543 9.67308C26.8596 9.43292 26.4629 9.10913 26.0895 8.96975C26.0198 8.94402 25.9626 8.91614 25.9626 8.90757C25.9626 8.86683 26.0519 8.77033 26.1306 8.7253C26.2199 8.67598 26.3235 8.66526 26.4719 8.68885Z" fill="#DFDFDF"/>
<path d="M30.1634 12.9504C30.0499 12.8748 30.6004 12.8867 30.7168 12.8881C30.7956 12.9167 30.868 12.9579 30.8922 12.9444C30.9164 12.9309 30.897 12.8253 30.8724 12.6458C30.7858 12.5605 30.696 12.5147 30.6005 12.4813C30.5095 12.4426 30.4291 12.4172 30.3252 12.3774C30.2256 12.3631 30.1934 12.3686 30.0516 12.3315C30.2179 12.2997 30.3359 12.3241 30.5013 12.1152C30.4344 12.0669 30.4081 12.0059 30.3278 11.9828C30.2474 11.9621 30.2192 11.9654 30.1532 11.9654C30.0267 11.9654 29.9897 11.9931 30.0744 11.9199C30.159 11.8467 30.3207 11.7635 30.5022 11.7239C30.6617 11.6909 30.9037 11.6899 31.0203 11.6843C30.9668 11.5573 30.8672 11.4831 30.8067 11.4039C30.7077 11.2587 30.4802 11.262 30.1392 11.328C29.6002 11.4072 29.5672 11.3279 29.9082 10.8131L30.1249 10.5269L29.9874 10.4614L29.8373 10.4565C29.6943 10.4961 29.5122 10.6284 29.4022 10.6812C29.2262 10.7736 29.2357 10.6865 29.2907 10.5149C29.3347 10.3697 29.3028 10.3705 29.3199 10.2098C29.2319 10.2098 28.9998 10.3155 28.9998 10.2495C28.9998 10.1703 29.0303 10.1172 29.0473 9.93509C28.9703 9.93509 28.7977 9.95991 28.7597 9.95007C28.7218 9.94024 28.8126 9.83523 28.9051 9.73572L29.1432 9.47965L29.4795 9.20751L28.9805 9.28251C28.8265 9.28251 28.5828 9.48325 28.4536 9.5641C28.389 9.60453 28.3276 9.61705 28.2888 9.66593C28.1999 9.70552 28.3067 9.8112 28.2423 9.71388C28.2095 9.64307 28.3616 9.43373 28.3409 9.32434C28.2319 9.0748 27.9875 9.53167 27.9343 9.45786C27.8325 9.44466 27.9841 9.16034 27.9034 9.1027C27.7882 9.02044 27.7227 9.303 27.6607 9.25304C27.5987 9.20307 27.5585 8.8409 27.4605 8.7954C27.3626 8.7499 27.4025 9.16502 27.3365 9.10892C27.1935 8.99012 26.884 8.75701 26.6294 8.71473C26.5021 8.69358 26.3538 8.64966 26.2283 8.67681C26.1027 8.70396 25.9842 8.80754 25.9501 8.93407C26.1192 8.99325 26.1459 8.99871 26.3219 9.09111C26.4979 9.17031 26.7289 9.36831 26.8389 9.50031C27.0259 9.75111 27.0259 9.77751 26.8169 10.0943C26.5529 10.5299 26.4209 10.5035 26.2779 10.0019C26.2174 9.80391 26.2362 9.67813 26.2075 9.61073C26.1909 9.62525 26.1307 9.65518 26.0945 9.72314C26.0628 9.78259 26.0345 10.0454 26.0348 10.114C26.0084 10.0946 25.9836 10.0083 25.9589 9.86991C25.8927 10.0229 25.8738 10.0732 25.8518 10.1458C25.8298 10.2184 25.8489 10.4111 25.7829 10.4111C25.7444 10.4111 25.6976 10.3219 25.6157 10.235C25.5449 10.3945 25.555 10.5938 25.5832 10.7449C25.5278 10.7232 25.4142 10.6767 25.359 10.6705C25.3418 10.75 25.3429 10.8457 25.3563 10.9181C25.3964 11.0216 25.4089 11.1107 25.4969 11.1899C25.6289 11.3219 25.6289 11.4011 25.4969 11.7047C25.4089 11.9027 25.3429 12.1271 25.3429 12.2195C25.3429 12.2987 25.1449 12.5627 24.8919 12.8135C24.5839 13.1303 24.4739 13.3283 24.5179 13.4735C24.6279 13.7903 24.9689 13.8827 25.2769 13.6847C25.4199 13.5923 25.7389 13.3811 25.9919 13.2095C26.1624 13.0973 26.2746 12.975 26.3786 12.8965C26.5457 12.8938 26.6731 12.9123 26.8169 12.9983C27.0369 13.0379 27.2129 13.0115 27.2569 12.9323C27.3009 12.8531 27.4769 12.7871 27.6419 12.7871C28.0819 12.7871 28.3699 12.4379 28.3872 11.9266C28.3938 11.7044 28.3688 11.564 28.3073 11.3139C28.5502 11.7741 28.5644 11.9863 28.4772 12.3923C28.3722 12.9591 27.8839 13.6847 26.8059 13.6979C26.6024 13.7045 26.4319 13.7738 26.2394 13.82C26.1164 13.9075 25.854 14.0748 25.9073 14.2847C25.7077 14.3486 25.5707 14.5969 25.5678 14.8006C25.0777 14.9766 25.0129 15.3215 25.0129 15.3875C25.0129 15.4535 24.8919 15.6515 24.7379 15.8231C24.5839 15.9947 24.4818 16.2722 24.5008 16.4252C24.3303 16.5308 24.2692 16.685 24.1655 16.8527C24.0776 17.0668 23.9312 17.3333 24.1471 17.6536C23.9211 17.7542 23.931 18.5222 24.1115 18.6335C23.9787 18.743 23.9502 19.0102 23.9219 19.3739C23.9206 19.4963 23.9536 19.6059 24.1155 19.7027C24.0724 19.7288 24.0381 19.8005 24.0146 19.8943C23.9911 19.988 23.9784 20.1039 23.9786 20.2182C23.9787 20.3325 23.9916 20.4453 24.0193 20.5331C24.047 20.6208 24.0895 20.6835 24.1487 20.6976C23.9469 20.8558 23.9517 21.2742 24.1257 21.3173C24.0282 21.5309 24.0589 21.9507 24.1832 22.0331C24.156 22.464 24.2982 22.7696 24.3735 22.9973C24.5241 23.4527 24.7224 23.8388 24.9711 24.163C25.2198 24.4873 25.5189 24.7496 25.8709 24.9575C26.6409 25.4063 27.9499 25.3931 28.6979 24.9311C29.3579 24.5219 29.8969 23.6375 30.0069 22.7795C30.1059 22.0139 29.7979 20.8919 29.4019 20.5355C28.7749 19.9811 27.5539 20.1659 27.3779 20.8391C27.2899 21.1823 27.3999 21.5915 27.6089 21.6839C27.8839 21.8027 27.9939 21.6443 27.8399 21.3539C27.7299 21.1295 27.7409 21.0635 27.9169 20.8919C28.4449 20.4299 29.2369 20.8391 29.4239 21.6575C29.6549 22.7135 29.2919 23.7827 28.5549 24.2183C27.9389 24.5879 26.6959 24.6143 26.2559 24.2843C25.3979 23.6375 24.8589 21.8819 25.1229 20.5619C25.2659 19.8359 25.8599 18.9383 26.6299 18.3179L27.1139 17.9087L27.2899 18.4499C27.3834 18.7337 27.4659 18.8913 27.4436 19.0706C27.5866 18.966 27.6381 18.9849 27.7367 18.8735C27.7807 18.7547 27.8619 18.6215 27.9829 18.6611C28.0104 18.671 28.1771 18.7888 28.3431 18.8159C28.2859 18.6556 28.228 18.6509 28.2348 18.491C28.3238 18.6272 28.5788 18.6442 28.9094 18.6861C28.6507 18.5085 28.6998 18.4737 28.6806 18.3243C28.7796 18.4587 29.0267 18.5425 29.3124 18.6042C29.1651 18.4195 29.1903 18.3626 29.1758 18.1945C29.3207 18.3655 29.6737 18.4611 29.8045 18.451C29.6899 18.291 29.688 18.2931 29.6903 18.0951C29.8189 18.2163 30.0567 18.1993 30.2694 18.1541C30.1383 17.9857 30.0981 17.7999 30.0906 17.6588C30.263 17.8511 30.5454 17.8097 30.7299 17.7729C30.5854 17.6191 30.4978 17.5325 30.4529 17.436C30.4006 17.3147 30.4359 17.2751 30.6119 17.2751C30.7329 17.2751 30.8166 17.3682 30.9952 17.2861C30.7362 17.1633 30.6659 16.7662 30.6078 16.7582C30.3762 16.7263 30.93 17.2641 30.4342 17.1509C30.3103 17.1295 30.254 17.1321 30.1621 17.1384C30.2265 17.2519 30.2375 17.2566 30.2929 17.3411C30.3551 17.4512 30.3675 17.5947 30.5148 17.6875C30.3898 17.6884 30.2876 17.7021 30.2048 17.6232C30.122 17.5444 30.1211 17.5123 29.9466 17.3615C29.9228 17.5194 29.9346 17.551 29.9475 17.6556C29.9698 17.8367 29.9989 17.8844 30.0443 18.0276C29.8549 18.0803 29.7384 18.0086 29.7053 17.9104C29.6558 17.8484 29.5851 17.6905 29.488 17.6586C29.4485 17.8009 29.4905 17.8064 29.505 17.9269C29.5463 18.0624 29.5566 18.1589 29.592 18.2861C29.3997 18.2204 29.2816 18.1372 29.1599 17.9615C28.9509 17.7503 28.9509 17.7503 29.0169 18.0275C29.0441 18.2123 29.0375 18.2536 29.0934 18.4131C28.9082 18.3744 28.7364 18.2717 28.6429 18.0935C28.5329 17.8955 28.5219 17.9087 28.5659 18.1595C28.5721 18.3282 28.5477 18.3555 28.5823 18.5187C28.4142 18.4761 28.2909 18.3971 28.2029 18.2255C28.0929 18.0275 28.0819 18.0407 28.1259 18.2915C28.1534 18.4499 28.1029 18.4826 28.1808 18.6479C27.9908 18.5506 27.9829 18.5753 27.9169 18.4499C27.8729 18.3443 27.8003 18.4853 27.7123 18.6833C27.6408 18.8351 27.5828 18.8467 27.5295 18.8541C27.5164 18.7383 27.4769 18.6611 27.3889 18.4103C27.2899 18.1199 27.2239 17.8823 27.2349 17.8559C27.2569 17.8427 27.5319 17.6711 27.8399 17.4731C28.1589 17.2883 28.4229 17.0771 28.4229 16.9979C28.4229 16.9319 28.4779 16.8791 28.5549 16.8791C28.7309 16.8791 29.1929 16.3511 29.1929 16.1531C29.1929 16.0607 29.2919 15.8363 29.4129 15.6647C29.5779 15.4007 29.7649 15.3083 30.2599 15.2423C30.6098 15.1681 30.9034 15.0575 31.0849 14.9387C31.1757 14.8817 31.1881 14.8335 31.2578 14.801C31.2606 14.8703 31.2224 15.0839 31.0959 15.2291C31.0244 15.3215 30.9512 15.3416 30.8861 15.3898C30.9473 15.4645 30.9914 15.6053 31.0409 15.7043C31.1509 15.9155 31.1509 15.9815 30.9969 16.0475C30.8539 16.1135 30.8539 16.1531 30.9749 16.2455C31.0244 16.2917 31.0989 16.3235 31.1511 16.3639C31.0693 16.3882 31.0054 16.3944 30.8494 16.3465C30.6514 16.2027 30.6363 16.2451 30.7219 16.3907C30.792 16.5177 30.8394 16.6596 30.9414 16.7582C30.8247 16.7656 30.7714 16.7405 30.6669 16.6943C30.5569 16.6415 30.4638 16.6061 30.5393 16.811C30.6112 16.9542 30.5715 16.734 30.6397 16.923C30.7571 16.9502 31.0238 16.9166 31.2189 16.86C31.0434 16.7445 30.9792 16.6542 30.9572 16.5948C30.9242 16.476 31.0189 16.4831 31.1069 16.4831C31.1454 16.4831 31.2726 16.5016 31.3677 16.375C31.2887 16.3234 31.1686 16.2767 31.0963 16.1678C31.3218 16.0118 31.1908 15.7753 31.1383 15.663C31.0947 15.5732 31.0912 15.5257 31.0406 15.4325C31.11 15.4265 31.2114 15.2687 31.2609 15.1631C31.3654 14.9387 31.4107 14.7255 31.3956 14.5421C31.2465 14.68 31.1887 14.7246 31.0959 14.7799C30.9383 14.893 30.6 15.0353 30.3012 15.0895C30.0023 15.1437 29.7429 15.1367 29.7429 15.0047C29.7429 14.8727 29.6233 14.8837 29.7098 14.7781C29.8717 14.5805 29.9589 14.4031 30.0093 14.2282C30.1036 14.0913 30.2227 14.0812 30.3805 14.0792C30.4642 14.1329 30.6275 14.1797 30.7029 14.3104C30.7738 14.2697 30.8103 14.0076 30.7744 13.8828C30.759 13.8292 30.5768 13.7266 30.4741 13.7222C30.3714 13.7179 30.3168 13.753 30.2264 13.707C30.3329 13.6702 30.3911 13.6723 30.502 13.606C30.6007 13.547 30.6963 13.5119 30.6834 13.4368C30.6674 13.3438 30.1217 13.4072 30.0447 13.4105C29.9815 13.4138 30.164 13.3229 30.2985 13.3025C30.3868 13.2645 30.5835 13.2794 30.7825 13.1021C30.6357 12.9889 30.5583 13.0365 30.4379 12.9832M29.9847 13.0049C30.029 13.1168 30.5593 13.0864 30.4119 13.1326C30.4119 13.1326 30.0022 13.2232 29.8666 13.3629C29.8426 13.4865 29.9856 13.5413 29.9856 13.5413L30.5051 13.4748C30.5107 13.5602 30.0001 13.5924 30.0177 13.7206C30.0234 13.7621 29.9894 13.8404 30.1593 13.8172C30.314 13.8257 30.5039 13.8068 30.6187 13.8781C30.7022 13.9281 30.7123 14.0391 30.686 14.1342C30.6105 14.0603 30.4902 13.9994 30.4242 13.973C30.2833 13.9511 30.1814 13.9858 30.0861 14.0347C29.9909 14.0836 29.9247 14.136 29.8419 14.3315C29.7869 14.5031 29.6109 14.7011 29.4459 14.7803C29.2699 14.8463 28.9887 15.0271 28.8629 15.2291C28.7234 15.4531 28.6193 15.6345 28.2834 15.8674C27.9534 16.2238 28.2384 16.0971 28.0971 16.1232C27.7183 16.1929 27.5099 16.2983 27.4439 16.4039C27.3669 16.5095 27.1909 16.6283 27.0479 16.6679C26.8939 16.7207 26.7729 16.8131 26.7729 16.8791C26.7729 16.9583 26.6959 17.0111 26.5969 17.0111C26.3549 17.0111 25.2769 18.3707 25.0789 18.9119C24.7049 19.9283 24.6389 20.2979 24.6389 21.2879C24.6499 21.9479 24.7159 22.5419 24.8149 22.8191C25.0349 23.4395 25.973 24.6861 26.226 24.6861C26.2708 24.7012 26.2527 24.6957 26.3057 24.706C26.33 24.7495 26.3439 24.7538 26.4299 24.8019C26.5548 24.8769 26.7149 24.9134 26.9102 24.9201C27.1055 24.9268 27.3359 24.9036 27.6014 24.8589C27.8669 24.8143 28.1273 24.7482 28.3213 24.671C28.5153 24.5937 28.5866 24.552 28.6429 24.4807C28.6597 24.4594 28.7043 24.4317 28.6969 24.339C28.7368 24.3826 28.8295 24.3723 28.9404 24.2519C29.0304 24.1542 29.117 24.1087 29.0719 24.0104C29.1909 23.9955 29.2112 23.9348 29.305 23.7766C29.3667 23.6726 29.4368 23.5806 29.4068 23.4334C29.4887 23.4529 29.5294 23.3153 29.5763 23.1849C29.6175 23.0706 29.6909 22.915 29.5996 22.8586C29.7046 22.8617 29.6849 22.7077 29.6977 22.6005C29.7104 22.4933 29.7368 22.3269 29.6309 22.2978C29.7393 22.2567 29.6929 22.1222 29.6766 22.0016C29.6537 21.8324 29.6407 21.7409 29.5507 21.7186C29.6312 21.6754 29.5821 21.5167 29.5291 21.3001C29.4866 21.1264 29.3892 21.063 29.277 21.0919C29.3843 20.9937 29.1885 20.8336 29.1464 20.7915C29.0295 20.6744 28.8965 20.6309 28.8704 20.707C28.8817 20.5645 28.467 20.5519 28.3084 20.5734C28.1498 20.5949 28.0104 20.6807 27.8619 20.8259C27.6309 21.0503 27.6199 21.1163 27.7409 21.3539C27.8839 21.6575 27.7739 21.7235 27.5649 21.4727C27.3449 21.2087 27.4109 20.8787 27.7299 20.5751C27.9719 20.3375 28.1369 20.2979 28.5549 20.3375C29.2919 20.4299 29.5889 20.7071 29.7979 21.5255C30.1279 22.8851 29.6769 24.2315 28.6869 24.8123C28.2469 25.0631 27.9829 25.1291 27.2679 25.1291C26.2229 25.1159 25.5739 24.8123 24.9689 24.0071C24.5949 23.5187 24.1769 22.2428 24.3089 22.0052C24.5236 21.8956 24.3089 21.8951 24.2429 21.8951C24.1549 21.8951 24.1219 21.3482 24.2857 21.2488C23.9588 21.2503 24.1319 20.76 24.3288 20.6635C24.1525 20.6585 24.0653 20.4517 24.0601 20.2329C24.0549 20.0142 24.1316 19.7835 24.2832 19.7305C24.3974 19.6907 24.2922 19.6542 24.1849 19.6249C24.057 19.5901 24.0079 19.5671 24.0236 19.2937C24.0426 19.1145 24.0952 18.815 24.2034 18.7598C24.3148 18.7029 24.4883 18.6864 24.585 18.676C24.4676 18.6306 24.3556 18.6042 24.2649 18.5951C24.0669 18.4961 24.0001 18.0156 24.1781 17.881C24.3562 17.7465 24.8043 18.0109 24.8278 17.9018C24.7405 17.7871 24.4698 17.7589 24.3496 17.654C24.2025 17.4805 24.0669 17.3147 24.3089 16.9055C24.4299 16.6811 24.4106 16.6255 24.5507 16.5635C24.7364 16.5545 25.1347 16.8545 25.4394 16.8428C25.2999 16.7035 24.8252 16.5916 24.6738 16.4598C24.5223 16.328 24.6373 16.1233 24.7929 15.8891C24.9799 15.6911 25.0569 15.6779 25.2989 15.8099C25.4639 15.8891 25.725 15.9716 26.008 16.0284C25.8982 15.8924 25.3979 15.7439 25.2879 15.6383C25.0789 15.4535 25.0789 15.376 25.2769 15.112L25.5731 14.9659L25.9039 15.1763C26.1459 15.3083 26.5204 15.465 26.5204 15.4254C26.5204 15.399 26.1789 15.2159 26.0029 15.0971C25.8159 14.9783 25.702 14.8067 25.702 14.7143C25.702 14.3843 25.9557 14.3405 26.3446 14.6658C26.5426 14.8044 27.0369 14.9852 27.0665 14.9185C27.1031 14.8358 26.735 14.7548 26.5529 14.6483C26.3721 14.5245 26.0325 14.3216 26.0325 14.216C26.0772 14.0369 26.2779 13.9091 27.1469 13.7903C27.7959 13.6979 28.1369 13.4471 28.4229 12.8795C28.7749 12.1931 28.7089 11.5991 28.2359 11.0579L27.8399 10.6091L28.0709 11.0315C28.4999 11.7707 28.2909 12.6551 27.6859 12.6551C27.5429 12.6551 27.3339 12.7211 27.2239 12.8135C27.0699 12.9191 26.9358 12.8963 26.8065 12.8506L26.5963 12.7764L26.5234 12.7575L26.8279 12.5099C27.1689 12.3119 27.3119 11.9291 27.1249 11.7047C27.0589 11.6255 27.0369 11.7047 27.0699 11.9159C27.1139 12.1667 27.0699 12.2855 26.9159 12.3515C26.8059 12.4175 26.5859 12.5627 26.4429 12.6947C25.9699 13.1039 25.3319 13.5791 25.2659 13.5791C25.2329 13.5791 25.2879 13.4471 25.4089 13.2755C25.5299 13.1171 25.4639 13.1435 25.2659 13.3679C24.9689 13.6847 24.8809 13.7243 24.7379 13.5791C24.4959 13.3415 24.5289 13.2359 24.9469 12.9191C25.1999 12.7475 25.3759 12.4703 25.4639 12.1535C25.5299 11.8895 25.6399 11.5991 25.6839 11.5199C25.7499 11.4275 25.7169 11.3087 25.6179 11.2031C25.5244 11.1107 25.4309 10.8961 25.4409 10.8175C25.4843 10.8273 25.5173 10.8419 25.5629 10.8731C25.6179 10.9127 25.6729 10.8599 25.6729 10.7411C25.6729 10.6817 25.6348 10.4567 25.6451 10.4014C25.671 10.4587 25.7499 10.5893 25.7829 10.6091C25.8379 10.6487 25.9039 10.6091 25.9039 10.5167C25.9204 10.3253 25.9409 10.2693 25.9545 10.1793C25.9771 10.2285 26.091 10.4258 26.1427 10.4732C26.0988 10.3275 26.1335 9.85981 26.1524 9.81635C26.1556 9.94164 26.2144 10.1643 26.2321 10.2449C26.3489 10.4425 26.3773 10.4857 26.5088 10.5335C26.6202 10.5384 26.6739 10.4837 26.8279 10.2659C26.9819 10.0415 27.0761 9.87337 27.085 9.75896C27.085 9.64016 26.7587 9.17032 26.3722 8.99355C26.2085 8.9222 26.1863 8.90197 26.0859 8.8698C26.1132 8.86241 26.1534 8.81656 26.2728 8.78981C26.3353 8.7758 26.5886 8.77685 26.752 8.86998C26.8982 8.92623 27.236 9.09939 27.39 9.28419C27.4735 9.30106 27.3788 8.96387 27.4763 9.01255C27.5737 9.06122 27.5352 9.41242 27.6175 9.46509C27.7409 9.54407 27.7608 9.28475 27.8158 9.28475C27.8708 9.29135 27.7715 9.59238 27.8736 9.66253C27.9405 9.70845 28.172 9.36739 28.1995 9.42019C28.2198 9.46139 28.0208 9.74343 28.0744 9.78533C28.1407 9.84801 28.1343 9.93193 28.2809 9.86225C28.4011 9.78951 28.9319 9.38961 29.0687 9.40106C28.9418 9.50094 28.8432 9.62229 28.7056 9.77311C28.4856 10.0503 28.4234 10.0848 28.5994 10.117C28.7629 10.0848 28.8033 10.0255 28.884 10.091C28.9243 10.1238 28.8471 10.3737 28.9017 10.4136C28.9564 10.4536 29.144 10.3657 29.165 10.3917C29.2489 10.4957 29.0997 10.635 29.1492 10.7868C29.2152 11.0112 29.2482 11.0112 29.4682 10.8264C29.6442 10.6746 29.8691 10.5659 29.8758 10.6234C29.8847 10.6989 29.8312 10.734 29.7322 10.9056C29.4132 11.4468 29.5012 11.5524 30.1282 11.4732C30.1282 11.4732 30.6387 11.2944 30.7917 11.5745C30.6406 11.5405 30.2787 11.6269 30.1822 11.6771C30.1299 11.7043 30.0167 11.7857 29.9189 11.8789C29.8701 11.9256 29.8983 11.9622 29.9279 12.0652C30.0424 12.1147 30.167 12.145 30.302 12.1359C29.8938 12.3331 29.9303 12.1701 29.7823 12.2691C29.8886 12.4796 29.9732 12.464 30.3369 12.5251C30.4269 12.5768 30.514 12.6012 30.613 12.6342C30.7147 12.6672 30.7777 12.7619 30.7525 12.7727C30.7274 12.7835 30.6276 12.7532 30.5155 12.74C30.384 12.742 30.4521 12.7406 30.1574 12.777C30.0197 12.8174 29.958 12.9387 29.9847 13.0049Z" fill="black"/>
<path d="M26.2414 11.6822C26.2414 11.7594 26.2788 11.8219 26.3248 11.8219C26.3709 11.8219 26.4082 11.7594 26.4082 11.6822C26.4082 11.6051 26.3709 11.5426 26.3248 11.5426C26.2799 11.5426 26.2431 11.6022 26.2415 11.6773" fill="black"/>
<path d="M26.0746 11.7852C26.1274 11.9455 26.2825 12.026 26.4209 11.9648C26.5594 11.9037 26.6289 11.7242 26.5761 11.5639C26.5233 11.4036 26.3682 11.3232 26.2298 11.3844C26.0915 11.4454 26.022 11.6245 26.0745 11.7847" stroke="black" stroke-width="0.085"/>
<path d="M27.0449 11.2656C26.6977 11.0459 26.2179 11.3868 26.2179 11.3868" stroke="black" stroke-width="0.085"/>
<path d="M29.6477 15.0499C29.6601 14.9791 29.6332 14.9439 29.5377 14.8704C29.4198 14.8879 29.215 14.9886 29.0852 15.1265C28.8641 15.3615 28.8306 15.449 28.7059 15.6501C28.7568 15.7709 28.7898 15.797 28.8863 15.9096C28.9842 15.9865 29.0421 16.0333 29.1086 16.0714C29.1617 15.8739 29.2263 15.7762 29.373 15.5492C29.4415 15.4237 29.6443 15.3281 29.7471 15.2351C29.7249 15.1369 29.6842 15.1292 29.6477 15.0499Z" fill="#DFDFDF"/>
<path d="M28.8204 15.9817C28.7192 15.9033 28.6923 15.7924 28.622 15.7416C28.5294 15.7894 28.5535 15.8031 28.4032 15.8916C28.2415 16.0142 28.3 15.9869 28.1754 16.188C28.2262 16.3088 28.2529 16.3652 28.3304 16.4929C28.4157 16.585 28.4169 16.6545 28.496 16.7684C28.6438 16.7224 28.7399 16.655 28.855 16.4962C28.9362 16.3782 29.0316 16.3735 29.0713 16.1746C28.967 16.0914 28.8822 16.0534 28.8204 15.9817Z" fill="#DFDFDF"/>
<path d="M28.2465 16.5424C28.1705 16.4186 28.1562 16.3304 28.0923 16.2417C27.9807 16.2592 27.8912 16.2805 27.7598 16.3311C27.5792 16.378 27.5556 16.4491 27.4625 16.5669C27.5134 16.6877 27.5212 16.8426 27.5608 17.0612C27.5892 17.2139 27.6157 17.2985 27.6695 17.4352C27.8173 17.3588 27.9261 17.2915 28.0538 17.1933C28.1855 17.098 28.3125 17.0025 28.3711 16.8035C28.3047 16.6597 28.3083 16.6141 28.2465 16.5424Z" fill="#DFDFDF"/>
<path d="M27.4568 17.1333C27.425 16.964 27.4297 16.7849 27.3594 16.6508C27.2479 16.6683 27.2657 16.7123 27.1343 16.7629C26.9979 16.8325 26.9049 16.8506 26.8307 17.029C26.951 17.1649 26.9778 17.1456 27.0174 17.3642C27.0458 17.5169 26.9901 17.7303 27.044 17.867C27.1918 17.7906 27.2059 17.746 27.3336 17.6478C27.4653 17.5526 27.4786 17.5933 27.5625 17.4928C27.5151 17.3188 27.487 17.2353 27.4568 17.1333Z" fill="#DFDFDF"/>
<path d="M26.9144 17.3758C26.851 17.2216 26.8241 17.1864 26.7538 17.1129C26.6233 17.1759 26.5654 17.1366 26.4403 17.2706C26.3229 17.3704 26.0783 17.6158 25.9852 17.7336C26.0739 17.7862 26.1568 17.8225 26.2602 17.9855C26.3637 18.1484 26.334 18.1925 26.3942 18.3746C26.5042 18.2907 26.5561 18.246 26.6585 18.1706C26.765 18.0526 26.8099 18.0176 26.9316 17.9171C26.8842 17.7506 26.9319 17.5081 26.9144 17.3758Z" fill="#DFDFDF"/>
<path d="M26.1883 18.0879C26.1249 17.9338 26.0349 17.9062 25.9646 17.8326C25.8341 17.8956 25.7824 18.0306 25.6574 18.1645C25.5021 18.3704 25.4785 18.4037 25.4043 18.5291C25.5183 18.5968 25.5506 18.6029 25.6541 18.7128C25.7612 18.8265 25.791 18.8289 25.8639 18.9276C25.9422 18.821 25.931 18.8294 26.0335 18.7085C26.1399 18.5905 26.1533 18.5934 26.2939 18.4399C26.2528 18.2658 26.2311 18.2051 26.1883 18.0879Z" fill="#DFDFDF"/>
<path d="M25.5819 18.8228C25.5059 18.752 25.4348 18.7017 25.3708 18.6509C25.3098 18.7366 25.2518 18.8034 25.2151 18.8994C25.1545 18.9917 25.1498 19.0098 25.101 19.1352C25.2149 19.2029 25.2031 19.1862 25.2876 19.2356C25.3698 19.2835 25.4056 19.3365 25.5037 19.4125C25.582 19.3059 25.5266 19.3446 25.6291 19.2237C25.6787 19.1511 25.7047 19.0934 25.7822 19.0005C25.6717 18.8871 25.6563 18.8718 25.5819 18.8228Z" fill="#DFDFDF"/>
<path d="M25.2817 19.357C25.1899 19.3051 25.1504 19.2775 25.0738 19.238C25.0222 19.3541 25.0084 19.3716 24.9718 19.4676C24.949 19.5486 24.9317 19.5894 24.8923 19.7223C24.9779 19.7598 25.0039 19.7696 25.06 19.8C25.1174 19.831 25.178 19.8744 25.2445 19.9201C25.3071 19.7794 25.3054 19.8105 25.3415 19.7275C25.3754 19.6474 25.3982 19.6238 25.46 19.5157C25.3683 19.4326 25.3403 19.4021 25.2817 19.357Z" fill="#DFDFDF"/>
<path d="M25.0543 19.9033C24.9625 19.8514 24.9632 19.864 24.8866 19.8246C24.835 19.9406 24.7989 20.1456 24.7711 20.2712C24.7507 20.4137 24.7334 20.5724 24.7274 20.7455C24.8085 20.7642 24.7751 20.7527 24.846 20.7696C24.9166 20.7864 24.9204 20.7896 24.9958 20.8273C25.0182 20.6384 25.0376 20.5342 25.0784 20.4051C25.1056 20.3143 25.1619 20.1085 25.2236 20.0005C25.1454 19.9495 25.1129 19.9485 25.0543 19.9033Z" fill="#DFDFDF"/>
<path d="M24.8559 20.881C24.8276 20.8731 24.7972 20.8671 24.7373 20.8612C24.7259 21.1085 24.7255 21.1688 24.7313 21.4149C24.7465 21.6726 24.7493 21.8822 24.7836 22.1437C24.8223 22.1303 24.8312 22.1161 24.9021 22.1116C24.973 22.107 24.9688 22.1056 25.042 22.1111C24.9907 21.8659 24.989 21.7819 24.9738 21.4899C24.9675 21.2625 24.968 21.189 24.9833 20.9329C24.9273 20.9114 24.9034 20.8967 24.8559 20.881Z" fill="#DFDFDF"/>
<path d="M24.9537 22.231C24.9254 22.2231 24.8549 22.2331 24.795 22.2272C24.8595 22.662 24.9126 22.8242 25.0344 23.0917C25.1791 23.344 25.3203 23.5804 25.5063 23.8205C25.5293 23.8014 25.545 23.7761 25.5669 23.7508C25.588 23.7264 25.6057 23.719 25.6309 23.6915C25.4189 23.3552 25.3814 23.2551 25.2547 22.947C25.1501 22.6393 25.1327 22.555 25.0632 22.2186C25.0073 22.2453 25.0012 22.2467 24.9537 22.231Z" fill="#DFDFDF"/>
<path d="M25.6191 23.8221C25.5829 23.8502 25.6006 23.8403 25.5451 23.8826C25.632 24.0067 25.6941 24.0778 25.856 24.2703C25.9784 24.378 26.015 24.472 26.2655 24.5932C26.2953 24.553 26.2966 24.5477 26.3111 24.5219C26.3251 24.4971 26.331 24.4908 26.3467 24.4425C26.2195 24.3955 26.0691 24.289 25.9736 24.1739C25.8155 24.0107 25.7758 23.9372 25.6705 23.7776C25.6462 23.7967 25.635 23.8037 25.6191 23.8221Z" fill="#DFDFDF"/>
<path d="M26.4102 24.5664C26.3902 24.6043 26.3978 24.6152 26.3791 24.6598C26.4927 24.741 26.5181 24.7479 26.7968 24.8131C27.1392 24.827 27.2835 24.8172 27.4443 24.7912C27.4385 24.7398 27.438 24.735 27.4361 24.6864C27.4343 24.6405 27.4393 24.6555 27.4362 24.6063C27.116 24.6318 27.0187 24.606 26.8921 24.5962C26.6641 24.5707 26.4923 24.5064 26.4382 24.4899C26.4138 24.5431 26.4166 24.5291 26.4102 24.5664Z" fill="#DFDFDF"/>
<path d="M27.5284 24.695C27.5353 24.7355 27.5339 24.7223 27.5442 24.7803C27.8096 24.7249 27.8149 24.7318 28.136 24.6523C28.378 24.5698 28.4579 24.5071 28.6075 24.4115C28.6184 24.3481 28.6154 24.3557 28.6034 24.3293C28.5875 24.2945 28.5995 24.3056 28.5636 24.2794C28.3856 24.4076 28.195 24.4452 28.0929 24.4864C27.8494 24.5465 27.7288 24.5626 27.5229 24.5889C27.5254 24.6448 27.5259 24.6576 27.5284 24.695Z" fill="#DFDFDF"/>
<path d="M28.6757 24.2477C28.716 24.2842 28.719 24.3012 28.7696 24.2928C28.8523 24.279 28.8629 24.2509 28.9423 24.1731C28.9813 24.135 29.0417 24.0611 29.0297 24.0347C29.0138 23.9999 28.9871 23.8952 28.952 23.9634C28.9212 24.023 28.7903 24.1152 28.7126 24.1791C28.6509 24.23 28.66 24.2334 28.6757 24.2477Z" fill="#DFDFDF"/>
<path d="M29.0724 23.9209C29.1194 23.9387 29.1076 23.9499 29.1462 23.9098C29.1776 23.8772 29.1994 23.8224 29.2564 23.7419C29.289 23.696 29.3541 23.5637 29.3572 23.5338C29.3659 23.4481 29.3261 23.3915 29.2951 23.4625C29.2398 23.5891 29.1691 23.7214 29.0714 23.8282C29.016 23.8888 29.0536 23.9138 29.0724 23.9209Z" fill="#DFDFDF"/>
<path d="M29.3588 23.3691C29.4058 23.3869 29.4007 23.3981 29.4393 23.358C29.4707 23.3255 29.502 23.2408 29.5384 23.1446C29.5598 23.088 29.6074 23.0032 29.59 22.9472C29.5708 22.885 29.5031 22.8424 29.4855 22.9188C29.4537 23.0565 29.4433 23.0583 29.389 23.2202C29.3681 23.2826 29.3401 23.362 29.3588 23.3691Z" fill="#DFDFDF"/>
<path d="M29.5127 22.7825C29.5311 22.8249 29.565 22.8198 29.62 22.7901C29.6644 22.7662 29.6477 22.6821 29.6543 22.5767C29.6579 22.5201 29.6675 22.4674 29.6546 22.3927C29.6434 22.3278 29.5413 22.3042 29.5345 22.383C29.5295 22.4404 29.5366 22.4738 29.5273 22.572C29.5123 22.7307 29.4983 22.7494 29.5127 22.7825Z" fill="#DFDFDF"/>
<path d="M29.5526 22.228C29.5633 22.2638 29.6071 22.2519 29.6331 22.2142C29.6641 22.1693 29.6274 22.0901 29.625 22.0008C29.6236 21.944 29.6104 21.8868 29.5852 21.8168C29.5695 21.7733 29.513 21.7681 29.5119 21.8473C29.5114 21.8859 29.5205 21.9362 29.5293 22.0202C29.5389 22.1124 29.5355 22.1708 29.5526 22.228Z" fill="#DFDFDF"/>
<path d="M29.4743 21.6682C29.485 21.7041 29.5327 21.6701 29.5414 21.6223C29.5546 21.5505 29.5131 21.4715 29.4954 21.3848C29.4805 21.3119 29.4532 21.2253 29.4042 21.1767C29.3684 21.1412 29.3038 21.1216 29.3175 21.1991C29.3282 21.2592 29.3998 21.3737 29.4242 21.4711C29.4465 21.5602 29.4572 21.611 29.4743 21.6682Z" fill="#DFDFDF"/>
<path d="M29.1822 21.028C29.2139 21.0295 29.2507 21.0402 29.2404 20.9928C29.2312 20.9505 29.1971 20.9297 29.1319 20.8678C29.0986 20.8361 29.04 20.7783 29.0072 20.7588C28.9694 20.7363 28.8951 20.7081 28.9205 20.7812C28.9312 20.8118 28.9649 20.8246 29.025 20.8738C29.089 20.9262 29.1607 21.027 29.1822 21.028Z" fill="#DFDFDF"/>
<path d="M13.9426 24.7448C13.2936 25.0088 12.3586 25.55 11.9846 25.8536C11.8636 25.9592 11.8746 26.078 12.0616 26.5268C12.1936 26.8172 12.3256 27.068 12.3476 27.068C12.3806 27.068 12.7436 26.87 13.1506 26.6192C13.5576 26.3816 14.0777 26.0681 14.3166 26.012C14.4994 25.969 14.6663 25.9284 14.7696 25.877C14.8112 25.9982 14.7856 25.9306 14.8614 26.121C14.9704 26.3947 14.9025 26.3885 15.091 26.4633C15.2896 26.5423 15.7796 26.2232 15.7796 26.2232C16.3516 25.9856 16.6706 25.9592 18.7276 25.9592C20.7846 25.9592 21.1036 25.9856 21.6756 26.2364C21.6756 26.2364 22.1359 26.4243 22.1951 26.447C22.2539 26.4696 22.2849 26.4874 22.3471 26.4695C22.4037 26.4532 22.4627 26.3492 22.4888 26.2864C22.4888 26.2864 22.6153 25.9217 22.6478 25.7938C22.7574 25.857 22.9571 25.9394 23.1496 26.012C23.3806 26.1044 23.8976 26.3816 24.3046 26.6192C24.7116 26.87 25.0746 27.068 25.1076 27.068C25.1296 27.068 25.2616 26.8172 25.3936 26.5268C25.6576 25.9064 25.6796 25.9592 24.7226 25.3652C23.4466 24.5732 22.1706 24.2168 22.0496 24.5996C22.0276 24.6722 22.009 24.7146 21.9788 24.8088C21.8509 24.7734 21.5161 24.6788 21.1806 24.6128C20.1466 24.3884 17.3086 24.3884 16.2746 24.6128C15.9391 24.6788 15.7123 24.7889 15.5228 24.852C15.4155 24.5943 15.4379 24.6968 15.4159 24.6242C15.3279 24.3602 14.7456 24.4016 13.9426 24.7448Z" fill="black"/>
<path d="M14.9875 24.5551C14.5152 24.5729 13.6292 24.9359 12.7328 25.4832C11.9628 25.9452 11.941 25.9717 12.15 26.4601C12.238 26.6845 12.3375 26.8837 12.3485 26.9101C12.3487 26.9103 12.3497 26.9118 12.35 26.9119C12.3911 26.9249 12.7339 26.7424 13.1281 26.4994C13.5461 26.2486 14.0753 25.973 14.3063 25.8938C14.4768 25.8212 14.6007 25.8146 14.7531 25.7757C14.7253 25.5812 14.7598 25.749 14.6516 25.3782C14.7764 25.0027 15.0174 24.6782 15.2516 24.6076C15.1914 24.569 15.1021 24.5507 14.9875 24.5551Z" fill="#DFDFDF"/>
<path d="M18.602 24.5644C17.6901 24.5749 16.7935 24.6283 16.3832 24.7051C15.6847 24.8437 15.308 25.1094 15.0488 25.2713C14.954 25.3563 14.8708 25.3769 14.7676 25.4513C14.8494 25.6738 14.8462 25.8077 14.916 26.0026C14.9894 26.2076 14.9528 26.3372 15.1535 26.3438C15.3543 26.3504 15.791 26.0907 15.791 26.0907C16.352 25.8531 16.6825 25.8263 18.7285 25.8263C20.7855 25.8263 21.2 25.9049 21.6754 26.1038C22.02 26.2462 22.1622 26.3586 22.3004 26.3288C22.3714 26.3135 22.4084 26.1905 22.4582 26.0419C22.5261 25.8397 22.6079 25.5679 22.6488 25.2282C22.5407 25.2093 22.5885 25.2756 22.441 25.1963C22.1226 25.0251 22.0621 25.0121 21.852 24.9057C21.6026 24.7795 21.3693 24.7792 21.0035 24.6976C20.5745 24.6184 19.621 24.5874 18.6895 24.5644C18.66 24.5647 18.6314 24.5641 18.602 24.5644Z" fill="#DFDFDF"/>
<path d="M22.423 24.5663C22.361 24.5669 22.3082 24.5749 22.2637 24.5907C22.3596 24.6631 22.4717 24.7841 22.534 24.8232C22.765 24.9684 22.764 25.1026 22.7418 25.3519C22.7315 25.4672 22.7227 25.5111 22.6855 25.6688C22.7717 25.7155 22.9845 25.8212 23.1605 25.8938C23.3805 25.973 23.9082 26.2486 24.3262 26.4994C24.7141 26.7385 25.0529 26.9185 25.1027 26.9119C25.1037 26.9118 25.1052 26.9104 25.1059 26.9101C25.106 26.91 25.1073 26.9101 25.1074 26.9101C25.1184 26.8837 25.2179 26.6845 25.3059 26.4601C25.4489 26.1301 25.4596 26.0125 25.3496 25.9069C25.1076 25.6693 24.1286 25.1267 23.4246 24.8363C22.9739 24.6561 22.6425 24.5642 22.423 24.5663Z" fill="#DFDFDF"/>
<path d="M22.1469 24.6732C22.1392 24.6832 22.1327 24.6937 22.1266 24.7051C22.0932 24.7539 22.0885 24.8061 22.0781 24.8663C22.151 24.8973 22.3969 25.0811 22.5234 25.0745C22.5505 25.0745 22.5719 25.0731 22.5844 25.067C22.5851 25.0666 22.5869 25.0655 22.5875 25.0651C22.5878 25.0649 22.5888 25.0634 22.5891 25.0632C22.5901 25.0624 22.5914 25.0605 22.5922 25.0595C22.5925 25.059 22.5935 25.0581 22.5937 25.0576C22.5939 25.0573 22.5952 25.056 22.5953 25.0557C22.5954 25.0554 22.5953 25.0542 22.5953 25.0539C22.5954 25.0536 22.5953 25.0523 22.5953 25.052C22.5953 25.0517 22.5953 25.0505 22.5953 25.0501C22.5953 25.0498 22.5953 25.0486 22.5953 25.0482C22.5951 25.0468 22.5943 25.0442 22.5937 25.0426C22.5934 25.0418 22.5926 25.0397 22.5922 25.0389C22.5915 25.0375 22.5899 25.0347 22.5891 25.0332C22.5714 25.0057 22.5178 24.9613 22.4125 24.8907C22.3382 24.841 22.2179 24.7427 22.1469 24.6732Z" fill="#DFDFDF"/>
<path d="M15.3174 24.6769C15.2452 24.7429 15.1227 24.834 15.044 24.8981C14.9026 25.0134 14.8815 25.1028 14.8205 25.2638C14.8193 25.2671 14.8178 25.2713 14.8174 25.2731C14.8174 25.2733 14.8174 25.2749 14.8174 25.275C14.8175 25.275 14.8189 25.275 14.8189 25.275C14.8191 25.275 14.8203 25.2751 14.8205 25.275C14.8405 25.264 14.9474 25.1484 15.2033 25.0444C15.4228 24.9461 15.306 24.9941 15.4424 24.9263C15.3526 24.7597 15.3409 24.7484 15.3299 24.7088C15.3267 24.6973 15.3224 24.687 15.3174 24.6769Z" fill="#DFDFDF"/>
<path d="M16.2701 25.0688L16.2953 25.3302L16.4446 25.3095C16.4984 25.302 16.5354 25.2862 16.5555 25.2622C16.5759 25.2382 16.5837 25.2017 16.579 25.1528C16.5746 25.107 16.561 25.0762 16.5382 25.0602C16.5155 25.0443 16.4758 25.0402 16.4194 25.0481L16.2701 25.0688ZM16.1758 24.99L16.425 24.9554C16.4655 24.9498 16.4954 24.9478 16.5147 24.9494C16.5343 24.9509 16.5522 24.9555 16.5682 24.9632C16.597 24.9772 16.6199 24.9992 16.637 25.029C16.6543 25.0588 16.665 25.0952 16.6692 25.1381C16.6732 25.1797 16.6692 25.2164 16.6572 25.2481C16.6452 25.2795 16.6253 25.3056 16.5975 25.3265C16.6233 25.3314 16.6425 25.3431 16.6549 25.3615C16.6675 25.3799 16.6775 25.4127 16.6847 25.4598L16.7044 25.5861C16.7084 25.6131 16.7133 25.6332 16.719 25.6462C16.7249 25.6588 16.7327 25.6673 16.7422 25.6716L16.7443 25.6931L16.6435 25.7071C16.6338 25.6921 16.6248 25.6585 16.6165 25.6062C16.6164 25.6048 16.6163 25.6038 16.6162 25.6031L16.6013 25.5032C16.5934 25.452 16.581 25.4197 16.5641 25.4065C16.5472 25.3933 16.5079 25.3909 16.4462 25.3995L16.3047 25.4191L16.3366 25.7497L16.2502 25.7617L16.1758 24.99ZM16.9394 25.3522L17.1405 25.3345L17.0197 25.0014L16.9394 25.3522ZM16.7724 25.6905L16.9647 24.8947L17.0616 24.8862L17.3496 25.6397L17.2545 25.6481L17.1719 25.4227L16.9177 25.4451L16.8631 25.6825L16.7724 25.6905ZM17.6618 25.6229L17.6429 24.8465L17.7307 24.8434L17.7385 25.1623L18.0741 25.1505L18.0663 24.8316L18.1546 24.8285L18.1736 25.6049L18.0853 25.608L18.0764 25.2443L17.7408 25.2561L17.7497 25.6198L17.6618 25.6229ZM18.4259 25.2796L18.6276 25.2784L18.5259 24.9362L18.4259 25.2796ZM18.24 25.6035L18.4771 24.8252L18.5742 24.8246L18.8188 25.5999L18.7234 25.6005L18.6539 25.3689L18.399 25.3705L18.331 25.6029L18.24 25.6035ZM19.3423 25.3217L19.4276 25.3234C19.4224 25.4179 19.3944 25.4927 19.3435 25.5479C19.2929 25.6028 19.228 25.6294 19.1489 25.6278C19.0578 25.6259 18.9869 25.5871 18.9361 25.5116C18.8856 25.436 18.8613 25.3323 18.8632 25.2004C18.865 25.0788 18.8935 24.9829 18.9487 24.9127C19.0039 24.8421 19.0775 24.8077 19.1695 24.8096C19.2427 24.8112 19.3023 24.8351 19.3482 24.8814C19.3944 24.9277 19.4206 24.9901 19.4268 25.0687L19.3407 25.0669C19.3333 25.0154 19.3143 24.9756 19.284 24.9476C19.2536 24.9192 19.2138 24.9044 19.1646 24.9034C19.099 24.9021 19.0476 24.9286 19.0105 24.983C18.9737 25.0375 18.9546 25.115 18.9531 25.2155C18.9518 25.3104 18.9694 25.3869 19.0061 25.445C19.043 25.503 19.0926 25.5327 19.1547 25.534C19.2077 25.5351 19.2513 25.5163 19.2856 25.4777C19.3201 25.4386 19.339 25.3866 19.3423 25.3217ZM19.5272 25.6157L19.5568 24.8397L19.6446 24.8445L19.6324 25.1632L19.9678 25.1817L19.98 24.863L20.0682 24.8678L20.0386 25.6438L19.9503 25.6389L19.9642 25.2754L19.6288 25.257L19.6149 25.6205L19.5272 25.6157ZM20.1781 25.6561L20.2229 24.8812L20.3106 24.8885L20.2658 25.6634L20.1781 25.6561ZM20.5492 25.0018L20.5279 25.2637L20.6775 25.2812C20.7315 25.2875 20.7704 25.2814 20.7942 25.263C20.8184 25.2446 20.8324 25.211 20.8364 25.162C20.8401 25.1161 20.8323 25.0825 20.8128 25.0612C20.7933 25.0399 20.7553 25.0259 20.6987 25.0193L20.5492 25.0018ZM20.4708 24.901L20.7205 24.9302C20.7611 24.9349 20.7906 24.9405 20.8093 24.9469C20.8282 24.9533 20.8448 24.9623 20.8592 24.9739C20.8848 24.9949 20.9034 25.0221 20.9148 25.0556C20.9265 25.0891 20.9306 25.1274 20.9271 25.1704C20.9237 25.2121 20.9134 25.2469 20.8961 25.2749C20.8789 25.3026 20.8549 25.3231 20.824 25.3364C20.8484 25.3478 20.8651 25.364 20.874 25.3852C20.8831 25.4064 20.8871 25.4409 20.8859 25.4888L20.883 25.6172C20.8822 25.6447 20.8835 25.6655 20.8867 25.6797C20.8903 25.6935 20.8964 25.7038 20.905 25.7104L20.9033 25.7319L20.8022 25.7201C20.7954 25.7031 20.7925 25.668 20.7935 25.6147C20.7936 25.6133 20.7937 25.6123 20.7938 25.6116L20.7967 25.5102C20.798 25.4581 20.7915 25.4234 20.7773 25.4062C20.7631 25.389 20.7251 25.3768 20.6633 25.3696L20.5216 25.3531L20.4947 25.6842L20.4081 25.6741L20.4708 24.901ZM21.0042 25.7498L21.0886 24.9796L21.1757 24.9934L21.0914 25.7635L21.0042 25.7498Z" fill="black"/>
<path d="M14.9865 9.63326C14.6888 9.81927 14.5338 10.0934 14.5093 10.4654C14.4848 10.8668 14.5582 11.1507 14.75 11.3661C14.8356 11.4689 14.909 11.5668 14.909 11.5912C14.909 11.6108 14.8438 11.7087 14.7622 11.8017C14.5705 12.0171 14.4603 12.301 14.4603 12.5947C14.4603 12.8982 14.5378 13.1086 14.7459 13.3828L14.9172 13.6079L14.7296 13.8576C14.3543 14.3569 14.3665 14.9296 14.7581 15.4044L14.9254 15.6148H18.7679H22.6063L22.7939 15.375C23.157 14.91 23.157 14.4058 22.798 13.8723L22.6145 13.603L22.7858 13.3583C23.1611 12.8199 23.1529 12.3255 22.7654 11.8066C22.59 11.5765 22.5859 11.5325 22.7246 11.4248C22.9489 11.2437 23.0876 10.6318 22.9857 10.2598C22.8347 9.70179 22.1862 9.32977 21.7905 9.57452C21.7171 9.61857 21.5702 9.74095 21.4601 9.84374C21.3499 9.95143 21.248 10.0346 21.2276 10.0346C21.2112 10.0346 21.1133 9.94653 21.0114 9.83884C20.6157 9.43257 20.1507 9.46193 19.755 9.92206L19.6041 10.0983L19.4042 9.878C19.0004 9.42278 18.4946 9.44236 18.0826 9.92206L17.9317 10.0983L17.7685 9.92206C17.5278 9.65773 17.3687 9.57941 17.0914 9.57452C16.8262 9.56962 16.5774 9.70179 16.3816 9.95632L16.2837 10.0787L16.0716 9.86332C15.68 9.46194 15.3659 9.39341 14.9865 9.63326Z" fill="#171796" stroke="black" stroke-width="0.1"/>
<path d="M14.7886 15.9021C14.3888 16.4356 14.3929 16.979 14.7967 17.5174L14.9477 17.7181L14.7763 17.9433C14.6825 18.0656 14.5805 18.2418 14.5479 18.33C14.4174 18.7069 14.5153 19.211 14.7723 19.4998C14.9273 19.681 14.9313 19.7544 14.7845 19.9698C14.7192 20.0628 14.6417 20.1949 14.6132 20.2634C14.3072 20.9585 14.7641 21.8298 15.4412 21.8298C15.7104 21.8298 15.9144 21.727 16.098 21.4921C16.2448 21.3061 16.3223 21.3012 16.4528 21.4676C16.6446 21.7221 16.8975 21.8788 17.1096 21.8788C17.3584 21.8788 17.5134 21.7858 17.7663 21.497L17.958 21.2718L18.1334 21.5019C18.5128 21.9914 18.8962 22.006 19.4061 21.541L19.6141 21.355L19.7936 21.5508C20.018 21.7858 20.1852 21.8788 20.4055 21.8788C20.6258 21.8788 20.7889 21.776 21.0459 21.4725L21.258 21.2277L21.4212 21.404C21.7353 21.7417 21.9066 21.8494 22.135 21.8494C22.3716 21.8494 22.5389 21.7564 22.7754 21.5019C22.9957 21.262 23.114 20.983 23.0855 20.7529C23.0569 20.5033 22.8693 20.0481 22.7306 19.8914L22.6123 19.7544L22.7958 19.5047C23.1956 18.9418 23.1997 18.5062 22.804 17.9482L22.6408 17.7132L22.8122 17.4636C23.1956 16.9202 23.1915 16.4161 22.804 15.9217L22.596 15.6622L18.7779 15.6671L14.9599 15.672L14.7886 15.9021Z" fill="#D42E12" stroke="black" stroke-width="0.1"/>
<path d="M13.9434 15.2671C13.9434 15.2671 13.9459 19.8471 13.9536 21.596C13.9407 21.8548 14.067 21.9175 14.2521 22.0898C14.5514 22.3685 14.8706 22.6602 16.5834 22.5007C18.1564 22.5139 18.4864 22.6591 18.6514 23.4115L18.7394 23.8339L18.8164 23.4115C18.9374 22.6855 19.3106 22.5139 20.8286 22.5007C22.7828 22.536 22.9452 22.3888 23.2252 22.1021C23.2252 22.1021 23.4298 21.9131 23.4825 21.7317C23.5417 21.528 23.5134 21.3614 23.5134 21.3614V15.2671V8.85193H18.7284H13.9434V15.2671ZM23.4034 15.3199L23.4239 20.604C23.4239 21.3154 23.4666 21.5336 23.4034 21.6691C23.3401 21.8046 23.212 21.985 23.212 21.985C22.915 22.3414 22.6636 22.4144 21.309 22.3934C20.4341 22.3962 19.9614 22.4253 19.2721 22.5558C19.1638 22.6724 18.8666 22.6621 18.7284 23.3406C18.549 22.6621 18.4211 22.6916 18.4211 22.6916C17.6887 22.3228 17.3612 22.3962 16.1874 22.3819C15.4284 22.5139 14.6144 22.3423 14.3064 21.9727C14.3064 21.9727 14.2605 21.9876 14.0534 21.6938C14.0554 20.4066 14.0534 15.3199 14.0534 15.3199V8.98392H18.7284H23.4034L23.4034 15.3199Z" fill="black"/>
<path d="M17.4052 11.7365C17.1156 12.4554 17.1034 12.778 17.344 13.3541C17.5316 13.7965 17.7518 14.0776 18.0536 14.2573C18.8407 14.732 19.8481 14.3818 20.2436 13.4969C20.4883 12.9531 20.4598 12.0453 20.1906 11.6489L20.1172 11.5429L20.0479 11.8563C19.95 12.3033 19.8521 12.5292 19.6564 12.7688C19.2893 13.2158 18.7836 13.3172 18.2616 13.0407C17.8578 12.8241 17.6947 12.5245 17.5438 11.6904L17.5071 11.483L17.4052 11.7365Z" fill="white"/>
<path d="M17.3089 11.7823C17.0669 12.4423 17.0889 12.7723 17.3859 13.4719C18.1559 15.2935 20.4439 14.6071 20.4329 12.5479C20.4219 12.2179 20.4304 12.003 20.2789 11.6371C20.2074 11.4853 20.1768 11.4403 20.1258 11.3485C20.1056 11.4479 20.0754 11.6239 20.0149 11.9143C19.7949 12.9307 19.0689 13.4059 18.3099 13.0231C17.8809 12.8119 17.6829 12.4687 17.5729 11.7559L17.4959 11.2939L17.3089 11.7823ZM18.0569 13.0891C18.5849 13.4983 19.3879 13.3663 19.7949 12.8251C19.9599 12.6007 20.0612 12.2507 20.1029 12.0727C20.144 11.8972 20.152 11.8709 20.1769 11.6955C20.2407 11.8655 20.2758 11.9548 20.3059 12.2178C20.3504 12.6062 20.2789 12.9307 20.2019 13.1683C19.8169 14.3827 18.5849 14.7523 17.8149 13.8811C17.4409 13.4719 17.1439 12.6678 17.3063 12.149C17.3639 11.965 17.3771 11.8601 17.4524 11.6659C17.466 11.7986 17.4739 11.9803 17.5509 12.2575C17.6499 12.6403 17.8259 12.9175 18.0569 13.0891Z" fill="black"/>
<path d="M16.8713 17.8546C16.864 18.1401 16.8755 18.2708 16.9131 18.4824C16.7933 18.3437 16.6726 18.2468 16.5067 18.1312C16.2953 17.984 16.0284 17.8435 15.9378 18.0231C15.8505 18.196 16.1008 18.4327 16.2967 18.5654C16.5109 18.7104 16.6344 18.7303 16.7738 18.7959C16.6557 18.8707 16.4948 18.921 16.3164 19.0584C16.1413 19.1931 15.8796 19.4719 15.9789 19.65C16.0799 19.8311 16.3719 19.6275 16.5365 19.4953C16.6736 19.3852 16.855 19.2114 16.9255 19.1225C16.9116 19.2502 16.8694 19.5047 16.8726 19.748C16.8764 20.0436 16.9105 20.3743 17.0939 20.3737C17.2811 20.3732 17.3209 19.9837 17.318 19.7204C17.3149 19.4452 17.2887 19.2507 17.2661 19.1149C17.3473 19.2142 17.4696 19.3565 17.631 19.5091C17.7642 19.6351 18.0903 19.8217 18.188 19.643C18.2875 19.461 18.1327 19.2801 17.8482 19.0635C17.6488 18.9117 17.5077 18.8597 17.3778 18.7952C17.5091 18.7306 17.6527 18.714 17.8626 18.5609C18.1741 18.3337 18.306 18.1818 18.2106 17.9862C18.1178 17.7961 17.9303 17.9 17.6454 18.1174C17.4928 18.2339 17.35 18.3883 17.2533 18.4993C17.2754 18.3246 17.2992 18.067 17.2974 17.8761C17.2946 17.5924 17.2429 17.2257 17.0819 17.2246C16.9209 17.2235 16.8794 17.5423 16.8713 17.8546Z" fill="#E9D315" stroke="black" stroke-width="0.08125"/>
<path d="M17.3332 18.7979C17.3332 18.9639 17.221 19.0986 17.0826 19.0986C16.9442 19.0986 16.832 18.9639 16.832 18.7979C16.832 18.6318 16.9442 18.4972 17.0826 18.4972C17.2209 18.4972 17.333 18.6316 17.3332 18.7975" fill="white"/>
<path d="M17.3332 18.7979C17.3332 18.9639 17.221 19.0986 17.0826 19.0986C16.9442 19.0986 16.832 18.9639 16.832 18.7979C16.832 18.6318 16.9442 18.4972 17.0826 18.4972C17.2209 18.4972 17.333 18.6316 17.3332 18.7975" stroke="black" stroke-width="0.0934268"/>
<path d="M20.1526 17.8546C20.1452 18.1401 20.1567 18.2708 20.1943 18.4824C20.0745 18.3437 19.9539 18.2468 19.7879 18.1312C19.5766 17.984 19.3097 17.8435 19.219 18.0231C19.1318 18.196 19.382 18.4327 19.5779 18.5654C19.7922 18.7104 19.9156 18.7303 20.055 18.7959C19.937 18.8707 19.776 18.921 19.5976 19.0584C19.4226 19.1931 19.1609 19.4719 19.2601 19.65C19.3612 19.8311 19.6531 19.6275 19.8177 19.4953C19.9548 19.3852 20.1362 19.2114 20.2068 19.1225C20.1928 19.2502 20.1507 19.5047 20.1538 19.748C20.1576 20.0436 20.1917 20.3743 20.3751 20.3737C20.5624 20.3732 20.6022 19.9837 20.5992 19.7204C20.5961 19.4452 20.57 19.2507 20.5474 19.1149C20.6285 19.2142 20.7509 19.3565 20.9122 19.5091C21.0454 19.6351 21.3716 19.8217 21.4693 19.643C21.5687 19.461 21.4139 19.2801 21.1295 19.0635C20.9301 18.9117 20.7889 18.8597 20.659 18.7952C20.7904 18.7306 20.934 18.714 21.1439 18.5609C21.4553 18.3337 21.5873 18.1818 21.4918 17.9862C21.399 17.7961 21.2115 17.9 20.9267 18.1174C20.7741 18.2339 20.6313 18.3883 20.5345 18.4993C20.5567 18.3246 20.5804 18.067 20.5786 17.8761C20.5759 17.5924 20.5241 17.2257 20.3631 17.2246C20.2021 17.2235 20.1606 17.5423 20.1526 17.8546Z" fill="#E9D315" stroke="black" stroke-width="0.08125"/>
<path d="M20.6144 18.7979C20.6144 18.9639 20.5022 19.0986 20.3639 19.0986C20.2255 19.0986 20.1133 18.9639 20.1133 18.7979C20.1133 18.6318 20.2255 18.4972 20.3639 18.4972C20.5021 18.4972 20.6143 18.6316 20.6144 18.7975" fill="white"/>
<path d="M20.6144 18.7979C20.6144 18.9639 20.5022 19.0986 20.3639 19.0986C20.2255 19.0986 20.1133 18.9639 20.1133 18.7979C20.1133 18.6318 20.2255 18.4972 20.3639 18.4972C20.5021 18.4972 20.6143 18.6316 20.6144 18.7975" stroke="black" stroke-width="0.0934268"/>
</g>
<defs>
<clipPath id="clip0_3041_3750">
<rect width="37.5" height="30" rx="5" fill="white"/>
</clipPath>
</defs>
</svg>
